<svg id="Layer_8" data-name="Layer 8" xmlns="http://www.w3.org/2000/svg" viewBox="0 0 610.36 518.49">
  <defs>
    <style>
      .cls-1 {
        fill: #fff;
      }

      .cls-2 {
        fill: #d8d1c3;
      }

      .cls-3 {
        fill: #e9a400;
      }

      .cls-4 {
        fill: #894415;
      }

      .cls-5 {
        fill: #eed200;
      }

      .cls-6 {
        fill: #c6a505;
      }

      .cls-7 {
        fill: #52c642;
      }

      .cls-8 {
        fill: #f2ead1;
      }

      .cls-9 {
        fill: #746900;
      }

      .cls-10 {
        fill: #552b00;
      }

      .cls-11 {
        fill: #b98800;
      }

      .cls-12 {
        fill: #54331c;
      }

      .cls-13 {
        fill: #ff781d;
      }

      .cls-14 {
        fill: #d36400;
      }

      .cls-15 {
        fill: #1c7c12;
      }

      .cls-16 {
        fill: #897915;
      }

      .cls-17 {
        fill: none;
      }

      .cls-18 {
        fill: #ffeb95;
      }

      .cls-19 {
        fill: #3a3920;
      }

      .cls-20 {
        fill: #69a827;
      }

      .cls-21 {
        fill: #ffe6bf;
      }

      .cls-22 {
        fill: #bf8c00;
      }

      .cls-23 {
        fill: #ffefaa;
      }

      .cls-24 {
        fill: #25b0aa;
      }

      .cls-25 {
        fill: #ffe59f;
      }

      .cls-26 {
        fill: #ffff9f;
      }

      .cls-27 {
        fill: #ffb05f;
      }

      .cls-28 {
        fill: #af110a;
      }
    </style>
  </defs>
  <title>bento</title>
  <path d="M269.41,309.89a5.4,5.4,0,0,0-5.1-5.33c.38-.8.75-1.61,1.13-2.41a5,5,0,0,0-8.64-5,407.84,407.84,0,0,0-22,34.46,5.57,5.57,0,0,0-1.8-.62,10.26,10.26,0,0,0-.88-4.44c-.91-2-3.67-2.76-5.65-2.29-3.32.78-5.34,2.9-6.92,5.5a6.37,6.37,0,0,0-2.27-1c-2-.48-4.67.28-5.64,2.3a164.22,164.22,0,0,0-16.19,61.33c-.33,5,5.76,6.11,8.6,3.24a5.82,5.82,0,0,0,2.12.54q-2.68,6.83-5.23,13.71c-2,5.29,6.63,8.92,9.14,3.85,1.53-3.09,3-6.2,4.54-9.3a4.89,4.89,0,0,0,3.49,3.75c7.75,1.92,11.31-8,14.55-13.31,2.2-3.57-.68-6.94-3.9-7.36q1.14-4.31,2.26-8.62A5.38,5.38,0,0,0,233,377l.86-1.35a5.4,5.4,0,0,0,2-1.82,414.2,414.2,0,0,0,33.84-59.07A5.32,5.32,0,0,0,269.41,309.89Z" transform="translate(-67.25 -167.96)"/>
  <path class="cls-1" d="M352.81,397.88,346,407.09c-1.29-3-6.55-4.59-9.33-1A206.82,206.82,0,0,0,306.15,462c-2.08,5.73,6.05,8.07,9.14,3.85l3.64-4.95c-1.57,3.27-3.47,6.95-3.79,10.37-.88,9.46,9.55,9.19,14.53,4.11,3.16-3.21.64-7.64-2.7-8.43.61-1.24,1.25-2.42,1.7-3.43,1.3-2.86,2.69-5.69,4.14-8.48,3-5.86,6.35-11.58,9.69-17.27,6.7-11.39,13.54-22.71,18.94-34.8A5,5,0,0,0,352.81,397.88Z" transform="translate(-67.25 -167.96)"/>
  <path class="cls-1" d="M337.52,385.75,343,372.89c1.67-3.93-1.06-8.41-5.64-7.34a13.7,13.7,0,0,0-6.83,4.19,4.71,4.71,0,0,0-5.07-1.67,9.15,9.15,0,0,0-1.05.33c.25-.56.49-1.12.73-1.69,2.47-5.74-5.55-10.87-8.64-5q-7.25,13.69-13.39,27.91a20.78,20.78,0,0,0-14,.95l-1.18-.26a49.5,49.5,0,0,0,.24-13.54,6,6,0,0,0-1.29-3.11,48.16,48.16,0,0,1,1.44-7.72,22,22,0,0,0,4.52-12.35c.25-4.69-6.42-6.67-9-3.05-.76-3-4.25-4-7-2.87,0-4.48-6.42-7.35-9.26-2.62-.68,1.14-1.3,2.3-1.89,3.46,0-.24.09-.48.13-.72a5.68,5.68,0,0,0,.05-1.53c.24-1.19.46-2.37.67-3.56a5.79,5.79,0,0,0-.83-3.9c1.72-3.81,3.36-7.67,4.88-11.57,1.85-4.72-4.39-7.76-7.86-5.26-1.86-2.77-6.85-3.65-8.71,0l-.42.83a5.42,5.42,0,0,0-9,1.21,5,5,0,0,0-7.31,1.36l-.6,1c-1.77-3.14-6.85-4.4-8.68-.37q-1.71,3.77-3.4,7.55c-.55-4.42-6.63-7.48-9.15-2.46-.77,1.54-1.51,3.09-2.24,4.65-2.56-.81-5.27,1.21-6.15,3.58a326.52,326.52,0,0,0-13.36,45.89,4.83,4.83,0,0,0,2.79,5.71c-.21.92-.43,1.83-.63,2.74a4.9,4.9,0,0,0,.91,4.41A174.35,174.35,0,0,0,174,445.6a4.67,4.67,0,0,0,3.27,5.92c-.36.49-.7,1-1,1.49-1.58,2.49-.19,5.61,2.07,7-.17.62-.36,1.24-.52,1.87-1.41,5.3,6.59,9.09,9.14,3.85l3.13-6.43c0,.12,0,.25.05.37q-.37,3.33-.71,6.66c-.35,3.72,4.54,6.32,7.53,4.32.53-.36,1-.74,1.55-1.1a16.53,16.53,0,0,0,5.66.77c.51,3.12,4.87,4.89,7.49,3.2,1.79-1.16,3.51-2.39,5.19-3.68a8.11,8.11,0,0,0,7.33,4.6,8.67,8.67,0,0,0,4.09-1.07c6.17,5.08,13.31,2.32,19.71-3.17a4.41,4.41,0,0,0,1.27-.55,54,54,0,0,0,10.15-8.49c2.53,2.44,7.24,2.41,8.1-2,.3-1.59.62-3.17.94-4.75l.26-.54a4.73,4.73,0,0,0,3.25,3.28c0,3.31.08,6.63.3,9.95a5,5,0,0,0,7.32,4.33,6.19,6.19,0,0,0,6.84-.19c10.12-8,17-18.86,23-30.07a5.49,5.49,0,0,0,5.44-1.72,4.84,4.84,0,0,0,1.89-1.75l8.1-13a5.35,5.35,0,0,0-.16-5.38,120.71,120.71,0,0,1,12.9-19.59q3.33-3.57,7-6.83C349.35,388.6,342.32,381.59,337.52,385.75Zm-95.66,76.48c-2.08,1.9-4.31,3.47-6.09,3.54a70.93,70.93,0,0,0,8.12-13.51l1.4-.27A26.65,26.65,0,0,0,241.86,462.23Z" transform="translate(-67.25 -167.96)"/>
  <path class="cls-2" d="M478.77,484.79a4.63,4.63,0,0,0-1.56-1L472.13,482l-.13-.05a2.34,2.34,0,0,0-.09-.24,5.07,5.07,0,0,0-.36-.8,173.22,173.22,0,0,0-13-20.64c-.62-.84-1.24-1.68-1.87-2.51a18.34,18.34,0,0,0,2.5,1.46,19.59,19.59,0,0,0,7.82,2,4.4,4.4,0,0,0,3.63-1.58,5.29,5.29,0,0,0,1.12-2.26,5.6,5.6,0,0,0,.09-2.08,4.69,4.69,0,0,0-.59-1.64,4.15,4.15,0,0,0-.61-.85,4.5,4.5,0,0,0,.65-.66,4.66,4.66,0,0,0,1.1-3.36,5.22,5.22,0,0,0-1.4-3.13c-2.35-2.64-5.79-4.31-9.16-3.08-.9-.35-1.79-.73-2.66-1.17a5.08,5.08,0,0,0-5.45.5,4.66,4.66,0,0,0-4.78,0,4.56,4.56,0,0,0-1.12.95,5.75,5.75,0,0,0-1.33,2.72,3.93,3.93,0,0,0-1.33-.72,4.2,4.2,0,0,0,.44-1.85,4.43,4.43,0,0,0-.8-2.53l-44.67-67.67a5,5,0,0,0-2.89-2.19,4.82,4.82,0,0,0-2-.12,5,5,0,0,0-.16-1.11c-.13-.53-.28-1-.43-1.56a4.73,4.73,0,0,0,.54-.66,4.16,4.16,0,0,0-.13-4.93l-8.32-12.28c-.63-1-1.28-1.95-2-2.9a5.09,5.09,0,0,0-3.78-2.17c-1-1-1.94-2-3-2.93q-3.64-4.08-7.68-7.82l-1.56-2.38a5.61,5.61,0,0,0-6.78-1.81l-2.24-3.32c-1.8-2.67-5.69-2.7-7.91-1.05a4.53,4.53,0,0,0-1-.45q-1.19-2.22-2.28-4.48a4.12,4.12,0,0,0-2.49-2.23q-4.59-6.3-9-12.68a29.48,29.48,0,0,0-10-13.89,3.9,3.9,0,0,0-2.73-.82,4.69,4.69,0,0,0-1.57-.95l-.31-.11-1-1.17c-.88-1-1.75-2.08-2.64-3.1a4.36,4.36,0,0,0-2.51-1.56l-.14,0-.09-.16a42,42,0,0,0-5.88-8.72,4.27,4.27,0,0,0-1.16-.9,5.15,5.15,0,0,0,.53-1.5,5,5,0,0,0-3.33-6,9.23,9.23,0,0,0-1-.29c-4-.9-6.54,1.08-7.87,4l-2.36-3.88a4.81,4.81,0,0,0-6.77-1.66l-1.07-.59c-3.31-1.75-7.15.89-7.65,3.93a4.48,4.48,0,0,0-4.4,2.49,4.3,4.3,0,0,0-3.92-.59,67.52,67.52,0,0,0-15.75,7.89,5.1,5.1,0,0,0-1.69.4c-.4.17-.78.36-1.17.54a.05.05,0,0,1,0,0l-.19.14a34.53,34.53,0,0,0-9.35,6.63l-20.39,14.46c-.18.13-.34.26-.5.4a53.51,53.51,0,0,0-8.94,5.64,49.79,49.79,0,0,0-19.42,8.21c-.69.47-1.36,1-2,1.47a4.06,4.06,0,0,0-.09-.7,4.87,4.87,0,0,0-8.23-2.67q-10.28,8.79-20.48,17.69c-1.56-2.48-4.84-3.67-7.31-.77L142,345.63l-.9,1.05a2.56,2.56,0,0,0-.28-.3,5.91,5.91,0,0,0-5.64-1.61,5.34,5.34,0,0,0-8.27.58,201.63,201.63,0,0,0-12.32,20.73,3.85,3.85,0,0,0-1.43,1c-.22.26-.42.53-.63.8-3.11-1.76-7.72-.57-7.47,4,.15,2.79.35,5.58.57,8.37-.22.65-.43,1.31-.63,2a4.56,4.56,0,0,0,1.24,4.6c.34,3.42.75,6.84,1.2,10.25a118.48,118.48,0,0,0,2.35,27c.41,6.45.87,12.91,1.42,19.36a5,5,0,0,0,3.06,4.39A43.38,43.38,0,0,0,119.17,466a4.42,4.42,0,0,0,4.54,2.4c.54,1.62,1.12,3.22,1.74,4.82a5.44,5.44,0,0,0,2,2.39c.46,1.19.94,2.38,1.44,3.56a0,0,0,0,0,0,0,124.65,124.65,0,0,0,14.57,25.87,5.43,5.43,0,0,0,1.17,1.13,5.1,5.1,0,0,0,.17.83c4,12.7,12.61,22.58,21.5,32.16a4.3,4.3,0,0,0,4.57,1.44c1.16,1.2,2.33,2.38,3.56,3.51a4.93,4.93,0,0,0,3.85,1.45h0a4.73,4.73,0,0,0,1.17-.27c.08.74.2,1.46.34,2.18a22.94,22.94,0,0,0,11,15.84,4.28,4.28,0,0,0,.9,1.15,33.63,33.63,0,0,0,5.37,4,18.36,18.36,0,0,0,9.8,8.19,4.42,4.42,0,0,0,1,.24,4.49,4.49,0,0,0,4.81,4.58c1.73-.08,3.45-.19,5.17-.32a15,15,0,0,0,3,.69,17.35,17.35,0,0,0,6.63-.44,4.68,4.68,0,0,0,2.62-1.68l1.53-.26A148.35,148.35,0,0,0,247.13,576c4.24,6.71,13.75,2.52,21.92-3.27a160.47,160.47,0,0,0,20.81-5.48,4.11,4.11,0,0,0,3.18.9,126.77,126.77,0,0,0,57.3-20.17,5.68,5.68,0,0,0,2.49.15c7.89-1.24,15.37-4.33,22.59-8.06q9.63-4,18.91-8.77a5.87,5.87,0,0,0,1.07-.72,4.35,4.35,0,0,0,.88-1l1.38-.51a5.05,5.05,0,0,0,.24.53,4.34,4.34,0,0,0,5.49,2.21A371.75,371.75,0,0,0,445,514.32c6.61-3.16,13.36-6.21,19.77-9.75a22.82,22.82,0,0,0,6.79-5.52,5.72,5.72,0,0,0,.37-.46,17,17,0,0,0,2.26,0c3.94-.23,5.69-2.52,8.29-5.23C486,489.8,482.56,484.79,478.77,484.79Zm-86.54,16.79c-12.55,6.45-24.17,10.33-38.45,10.21-12.68-.12-25.82-.31-38.36-2.24a60.37,60.37,0,0,1-18.73-5.86c-5.76-3-10.75-7.21-16.34-10.48a84.62,84.62,0,0,0-35.68-10.86,122.16,122.16,0,0,0-37.73,3c-6.41,1.49-12.84,4.39-19.37,5.06-6.12.63-11.33-1.62-16.2-5.17a205.39,205.39,0,0,1-16.68-13.29A19,19,0,0,1,148,458c-.12-5.57,1.47-11.35,3.89-16.88a49.41,49.41,0,0,1,15.49-28.44c1.61-1.44,3.33-2.75,5.07-4.05a11.36,11.36,0,0,0,3.75-.24c5.35-1.26,8.59-5.57,11.32-10,3.39-5.5-5.26-10.53-8.63-5.05-.73,1.18-5.69,8.38-6.11,4-.37-3.86,5.54-6.16,8.21-7.51,4.28-2.15,2.58-7.47-.93-8.86.65-.61,1.23-1.13,1.7-1.54a4.94,4.94,0,0,1,5-1c.72-.94,1.45-1.87,2.18-2.81a4,4,0,0,1,3.47-1.73c.08-.92.16-1.83.26-2.74,1.36-12.84,4.6-25.39,13.22-35.37,9-10.39,22.39-15.8,35.33-19.35,15.06-4.13,31.21-7.58,46.84-5.24s29.58,11.23,42,20.45A84.71,84.71,0,0,1,346.41,347c4.46,5.66,7.36,12.79,12.72,17.69s11.06,7.71,14.18,14.72c3.23,7.22,4.88,15.23,7.48,22.71,3.87,11.14,10.84,39.6,27.6,31.71,5.86-2.76,11.93-4,17,1,2.23,2.2,3.6,5.06,4.92,7.85.22.47.43.93.66,1.39h0a4.6,4.6,0,0,0,2,6.08l2.07,1.19c3.62,2.08,8.78-1.4,7.35-5.65-.16-.48.82-.85,2.23-1.12q5.26,7.51,10.68,14.93a5.37,5.37,0,0,0-.38,5.59,24,24,0,0,1-8.72,6.1c-3.29,1.28-6.3-.55-9.72.58-3.1,1-5.86,3.18-8.35,5.21-5.52,4.53-10.58,9.39-16.51,13.43A181.71,181.71,0,0,1,392.23,501.58Zm16.78.83a4.46,4.46,0,0,0-1.16-.66l.71-.59ZM301.82,362.72a25.52,25.52,0,0,0-10.67-5.27h0a23.63,23.63,0,0,0-6.34-2.68,4.67,4.67,0,0,0-3.75.5c-.36,0-.71-.06-1.08-.07-5.38-.1-6.23,6.58-2.52,9.32l2,1.5a71.72,71.72,0,0,0,6.13,4.79,4.92,4.92,0,0,0,.45,6.21c4,4.44,9.77,7.87,15.84,8.37,5.71.46,10.72-3.08,10.36-9.19C311.89,370.24,306.13,366,301.82,362.72Zm-.27,19,1-8.91c0-.09,0-.18,0-.26l2.78,4A47.29,47.29,0,0,0,301.55,381.74Z" transform="translate(-67.25 -167.96)"/>
  <g id="Layer_4" data-name="Layer 4">
    <path class="cls-3" d="M669.58,398.49a90.65,90.65,0,0,0-2.78-20.18,116.51,116.51,0,0,0-22.46-50.86,5.57,5.57,0,0,0-7.35-1.37c-1.29-2-2.5-4.09-3.58-6.21a4.47,4.47,0,0,0-.65-1.34l-.06-.09a41.16,41.16,0,0,1-3.37-9.84,5.12,5.12,0,0,0-.42-1.27,4.9,4.9,0,0,0,1.6-1.29q1.74,2.93,3.61,5.76c.07.13.14.27.22.4a5.11,5.11,0,0,0,.76,1.07q3.1,4.58,6.55,8.94c2.48,3.14,8,.94,8.5-2.68a5.22,5.22,0,0,0,3.66-2.18,21.29,21.29,0,0,0,3-6.12c1.53-2.73,3-5.59,2.51-8.1-.93-4.63-3.9-9.69-5.86-14-4.1-9-9.25-17.45-16.43-24.31a4.9,4.9,0,0,0-5.08-1q-3.89-6.6-8.28-12.91-5.34-7.65-11.33-14.81c-2.84-3.4-6-6.47-10.23-6.77a4.74,4.74,0,0,0-1.26-2.78,17.07,17.07,0,0,0-9.19-5.22,45.28,45.28,0,0,0-9.15-2.71c-3.17-.58-6.3,1.36-6.33,4.83a62.1,62.1,0,0,0,1.23,12.81,4.52,4.52,0,0,0-.85,2.1,4.29,4.29,0,0,0-3.58-.25l-1.11-1.61a4.26,4.26,0,0,0-.67-4A206.92,206.92,0,0,0,523,182.16a4,4,0,0,0-3.73-.63c-1.73-2.45-5.46-3.95-7.74-1.08l-.12.16a4.28,4.28,0,0,0-3.52-3.88,99.6,99.6,0,0,0-24.73-1.1,5.14,5.14,0,0,0-2.84-1.11c-15.44-1.32-32.36-2-45.51,7.61-4.25,3.11-2,11,3.85,9.14a66.66,66.66,0,0,1,10.21-2.34,4.5,4.5,0,0,0,2.26.68l7.2.15a4.43,4.43,0,0,0,3.94-1.9c6.7-.14,13.45.14,20.19.25,6.35,1.83,13.2,1.77,19.71,2.74a5.55,5.55,0,0,0,1.86,2.78,34.64,34.64,0,0,0,7.76,4.47,5.11,5.11,0,0,0,2.14,4.19l16.79,12.45a65.43,65.43,0,0,0,8.3,7.2c7,18.78,20,34.08,33.13,49a4.42,4.42,0,0,0,6,.66l4.72,5.7q2,3,3.92,6.06a4.86,4.86,0,0,0,2.35,2,322.67,322.67,0,0,0,24.69,29.35,4.51,4.51,0,0,0,3.78,1.56l.74.84a4.2,4.2,0,0,0,.13,3.23c.17.4.36.79.54,1.18l0,0,.09.12c3.51,7.82,9,14.08,14.58,20.29l8.44,11.76a5.05,5.05,0,0,0,2.81,1.91c.43.63.83,1.28,1.24,1.93a90.31,90.31,0,0,0,2.73,21.13,84,84,0,0,0-9,14.56A626.11,626.11,0,0,1,530,476c-48.8,28.9-101.36,50.71-154.88,69.19q-22.71,7.83-45.66,15c-13,4.09-26.11,8.11-38.19,14.49a4.89,4.89,0,0,0-3.13-.16c-2.29.58-4.57,1.22-6.82,1.92-3.54.94-7.09,1.78-10.66,2.56a4.21,4.21,0,0,0-1.09-.17,107.15,107.15,0,0,0-24.4,2l-2.26,0a40.82,40.82,0,0,0-19.57-.43,4.36,4.36,0,0,0-3.38,5.76l-18.12-9.28a5,5,0,0,0-6.64,1.82l-1.49-.92-.52-.33-46.15-61.14c-1.47-2.3-2.92-4.6-4.36-6.92a4.61,4.61,0,0,0-6.13-2q-7.36-11.43-14.31-23.14a5.17,5.17,0,0,0-1.63-1.76c-.74-1.49-1.47-3-2.21-4.45q-4.34-14.06-8.35-28.22-2.31-9.33-4.92-18.59l1.92-35.13a4.18,4.18,0,0,0-3.66-4.69l-.18-8.07a4.71,4.71,0,0,0-1.89-3.66v-2.4a5.4,5.4,0,0,0-.42-2.14l1.38-2.43,21.8-29q2.2-2.09,4.47-4.1a132.22,132.22,0,0,1,14.22-9.07,4.4,4.4,0,0,0,2.49-4.18q2.88-2,5.83-3.95l19.06-8.68a4,4,0,0,0,3.82.35,247.3,247.3,0,0,0,39-19.86l.12-.06a6,6,0,0,0,1-.61c3.12-2,6.2-4.05,9.24-6.18a4.85,4.85,0,0,0,1.52-.47L242,278.24a5.14,5.14,0,0,0,4.08-.2l85.65-39.75a4.38,4.38,0,0,0,2.23-5.48l3.59-1.7c5.15-2.43,1.52-10.78-3.85-9.14a169.23,169.23,0,0,0-38.6,17.26,5,5,0,0,0-4.39-1.08,136.62,136.62,0,0,0-34,13.49,4.48,4.48,0,0,0-2.24,5.37,105.56,105.56,0,0,0-14.79,7.36q-17.91,7.29-35.37,15.61c-8,3.48-15.7,7.6-23.36,11.74-3,1.6-3,4.7-1.55,6.87l-.75.34a5.25,5.25,0,0,0-4.66-.15,193.56,193.56,0,0,0-24.28,12.67l-10,5.21a4.4,4.4,0,0,0-2.49,3.13q-7.44,5.4-14.36,11.48c-.75.59-1.49,1.2-2.22,1.82q-2.76,2.1-5.4,4.35a80.83,80.83,0,0,0-21.59,22.85,4.34,4.34,0,0,0-.18,4.87c-2.16-1.48-5.19-1.43-6.76,1.59A53.18,53.18,0,0,0,81.4,386a4.43,4.43,0,0,0-2.14,2.79c-4.75,17.91-8.5,36.94-8.34,55.55.08,9.59,1.62,19.46,5.85,28q.77,11,2.61,22a4.13,4.13,0,0,0,.78,1.82,172.32,172.32,0,0,0,9,45.34,5,5,0,0,0,3,3.27,253.55,253.55,0,0,0,40.49,66.32c2.55,3,7.42,1.1,8.37-2.28a217.43,217.43,0,0,0,24.19,26,273.65,273.65,0,0,0,22.34,19.53,5.62,5.62,0,0,0,2.49,1.1q1.6,1.53,3.33,2.91a39.72,39.72,0,0,0,14.8,11.86,6,6,0,0,0,3.21.44c1,.48,2,.93,3,1.33l1.13.42c1,.46,2,.89,3,1.3,5.9,2.31,14.82,5,21.5,2.8a6.15,6.15,0,0,0,4.37,3.83c3.24.88,6.29-.72,8.85-2.88,15.94,2.75,31.07-2.42,45.46-9.11,15.88-7.38,31.48-15.47,47.06-23.45q46.69-23.93,92.4-49.68,46.11-26,91.15-53.8c29.13-18,58.61-36,86.39-56s54.06-47.56,54.78-84A4.38,4.38,0,0,0,669.58,398.49ZM272.6,667.3c.18-.23.35-.47.52-.7.4.13.79.23,1.19.33Zm360-208.83c.42-.58.84-1.17,1.25-1.76l.28.22C633.66,457.45,633.16,458,632.64,458.47Z" transform="translate(-67.25 -167.96)"/>
    <path class="cls-4" d="M319.13,258.35l.25-.92c.92-3.36-2.49-7.6-6.15-6.15l-12.41,4.93c-2.5,1-4.26,3.35-3.49,6.15.68,2.47,3.6,4.4,6.15,3.5.3-.11.59-.21.89-.3a7.89,7.89,0,0,0,2,1.77,5.07,5.07,0,0,0,4.94,5.78,6.66,6.66,0,0,0,6.72-7.75A7.3,7.3,0,0,0,319.13,258.35Z" transform="translate(-67.25 -167.96)"/>
    <path class="cls-4" d="M643.94,369c-.13-5.18-2.83-9.32-5.17-13.65a51.1,51.1,0,0,0-2.75-6,4.34,4.34,0,0,0-2.5-2.13c-.06-.1-.11-.21-.18-.31A244.27,244.27,0,0,0,594.59,300a4.74,4.74,0,0,0-3-1.32c-1.79-3.32-3.57-6.66-5.29-10a4.36,4.36,0,0,0-2.67-2.34l-14.71-25.54a5,5,0,0,0-7.09-1.54,31.49,31.49,0,0,0-2-8.07c-2.3-5.87-11.77-3.53-9.64,2.65,7.2,20.94-23.11,37.2-37.49,45.56-18.2,10.57-37.24,20.15-52.07,35.43A105.15,105.15,0,0,0,448,340.75l-4.44,2a51,51,0,0,0-15.88,5.11,3.61,3.61,0,0,0-.81.55,70.08,70.08,0,0,1-16.63-4.68c-2.62-1.1-5,.72-5.9,3.07l-4-2c-3.46-1.77-9.1,1.27-7.35,5.64a238.08,238.08,0,0,0,27.95,50.85,11.67,11.67,0,0,0,2.21,4,9,9,0,0,0,2.21,1.92q5.55,7.21,11.68,14a4.57,4.57,0,0,0,2.56,1.52,25.16,25.16,0,0,0,13.92,15.9c2.48,1.08,5.35.76,6.84-1.79a16.8,16.8,0,0,0,.78-1.52,25.89,25.89,0,0,0,6.37,6.23c5.33,3.89,9.67,7.25,12.14,12.75l-5.43,1.4a5.31,5.31,0,0,0-3.38,6.83,8.78,8.78,0,0,0-.81,6.83,9.48,9.48,0,0,0,6.29,6.57,24.11,24.11,0,0,0,4.4,4.18,22.15,22.15,0,0,0,5.18,10.65,4.77,4.77,0,0,0,6.1.69,5.33,5.33,0,0,0,4.16-2.44c.1-.15.19-.31.28-.46a4.73,4.73,0,0,0,2.83-1.48q2.33-2.36,4.8-4.48A90.69,90.69,0,0,0,531.31,468a4.65,4.65,0,0,0,3.45-.51q9.78-5.61,19.18-11.81,4.08-2.1,8.11-4.3c6.13-3.36,13.69-7,16.67-13.58q7.66-6,15-12.48a4,4,0,0,0,4.36-.36c.34-.25.67-.52,1-.78h0l.09-.07a219.43,219.43,0,0,0,41.1-40.48,5.26,5.26,0,0,0,.85-5A15.52,15.52,0,0,0,643.94,369Zm-139.21,95.8c.11-.42.24-.83.36-1.25a4.39,4.39,0,0,0,.65.71Z" transform="translate(-67.25 -167.96)"/>
    <path class="cls-4" d="M199.46,619.3l-2.71-2.87a4.51,4.51,0,0,0-1.52-3.65A420.87,420.87,0,0,1,100.3,477.56c-1.39-3.16-4.53-3.15-6.73-1.56-2.59-.12-5.18,1.48-5,4.81,1.48,28.57,17.84,52.46,36.12,73.34,21.71,24.79,45.09,48.24,67.7,72.22C196.82,631.06,203.88,624,199.46,619.3Z" transform="translate(-67.25 -167.96)"/>
    <path class="cls-4" d="M647.62,313.68a475.12,475.12,0,0,0-65-94.68c-3.18-3.62-7.93-.57-8.35,3.22a4.21,4.21,0,0,0-.4,5.57l32.77,48.51c5.25,7.77,10.44,15.59,15.76,23.31,2.13,3.1,4.33,6.16,6.73,9.05a55.79,55.79,0,0,0,4.51,4.84c.5.47,1,.91,1.54,1.35a3.36,3.36,0,0,0,.2.9c.89,2.26,1.93,3.75,4.42,4.34l.22,0C643.57,323.42,650.29,318.82,647.62,313.68Z" transform="translate(-67.25 -167.96)"/>
  </g>
  <path class="cls-5" d="M548.64,266.84a12.76,12.76,0,0,0-.47-2c1.09-2.5-.76-5.49-3.2-6.51l-.07-.12a4.3,4.3,0,0,0,1.17-3.5,28.42,28.42,0,0,0-3.68-12.24c-4.16-8.24-11-15.4-17-22.12a105.5,105.5,0,0,0-15.14-14.21c-5.54-4.18-12.94-6.3-17.86-11.1a19.24,19.24,0,0,0-5.84-4.35,5.6,5.6,0,0,0-4.7-1.1c-2.81-.33-5.71-.29-8.47-.39q-12.07-.44-24.13.34a253.92,253.92,0,0,0-48,7.68c-10.27,2.69-23.19,5.54-31.8,12.8-5.83.25-11.42,5.26-15.45,9.78a72.76,72.76,0,0,0-30,38.36c-.87,2.61.71,4.81,2.84,5.78a33.76,33.76,0,0,0-.76,6.62,13,13,0,0,0,3.81,9.05,20.73,20.73,0,0,0,1.53,2.57,19.1,19.1,0,0,0-.58,10.54c1.14,4.82,5.16,9.87,10.61,9.2,2,8.83,8.64,16.51,17.79,18.55a4.44,4.44,0,0,0,2.37,3.86q6.28,2.69,12.68,5a5.9,5.9,0,0,0,3.56,4.39A83.48,83.48,0,0,0,401,339a5.8,5.8,0,0,0,5.51,2.31,6,6,0,0,0,.85.13c2,.13,4,.15,6,.08a15.83,15.83,0,0,0,14.43-1.85c4.74,3.75,11.59.55,16.75-2.11A118.86,118.86,0,0,0,466.16,323a5,5,0,0,0,4.91,0c20-12,40.67-23.32,60.15-36.18C537.51,282.73,550,275.79,548.64,266.84ZM459.13,199.7c-.78-.15-1.56-.32-2.34-.49,1,0,2-.08,2.94-.1Zm51.78,20.49-1.16-1.48c.45.41.9.83,1.34,1.26Z" transform="translate(-67.25 -167.96)"/>
  <path class="cls-6" d="M543.83,244.17q1.38-3.18,2.66-6.48c1.38-3.55-1.45-5.92-4.47-6-2-2.94-7.71-3.21-9.16,1.32-7.79,24.18-27.48,41.79-45.36,58.78-19,18.07-38.66,35.77-62.54,47.18-5.07,2.43-1.5,11,3.86,9.14a267.73,267.73,0,0,0,103-65.12,5.51,5.51,0,0,0,4.64-2.12q1.34-1.83,2.51-3.74a5.11,5.11,0,0,0,1.37-1.18l1.81-2.23a5.36,5.36,0,0,0,.87-1.5,32.53,32.53,0,0,0,5-20.29c.13-.54.27-1.07.39-1.62A4.84,4.84,0,0,0,543.83,244.17Z" transform="translate(-67.25 -167.96)"/>
  <path class="cls-7" d="M488.66,436.5c1.62-5.16-1-12.17-2.58-17.48-.5-1.69-1-3.42-1.44-5.16-1.42-7.51-4.29-14.77-3.4-22.52.51-4.39-4.06-5.73-7.2-4.09a5,5,0,0,0-8.13.39,4.54,4.54,0,0,0-3,4.48l.15,36.46a23.55,23.55,0,0,0,.63,6.47l-.3.46c-1.58,2.26-.35,5.51,1.79,6.84a28.53,28.53,0,0,0,22.62,3.42C492.65,444.54,492.11,438.38,488.66,436.5Z" transform="translate(-67.25 -167.96)"/>
  <path class="cls-7" d="M569.61,282.28c-1.85-11.1-11.78-19.16-23.06-17.1-2.23.4-3.55,2.75-3.67,4.82-.48,8.37,4.73,15.37,5.06,23.59a27.78,27.78,0,0,1-8.11,20.63c-4.51,4.59,2.55,11.67,7.07,7.07a38.47,38.47,0,0,0,2.93-3.34c1.76,3,6.9,4.06,8.77.24C564.12,306.87,571.82,295.51,569.61,282.28Z" transform="translate(-67.25 -167.96)"/>
  <path class="cls-8" d="M540.15,361.4c-1-3.51-4.15-6.79-7.41-7.44a5,5,0,0,0-6.11-1.21c-13.52,6.65-31.25,12.79-31.28,30.69,0,7.22,2.89,14.8,9.51,18.38a13.79,13.79,0,0,0,13.88-.4c1.59,2.47,5,3.7,7.52.9a58.93,58.93,0,0,0,11.79-19.81C540.28,376.1,542.13,368.1,540.15,361.4Z" transform="translate(-67.25 -167.96)"/>
  <path class="cls-9" d="M540.07,282q-31.69,23.64-65,45l-.14.08a5.26,5.26,0,0,0-1,.68l-.11.07c-5.41,3.45-.4,12.1,5.05,8.63l1.28-.82a303.3,303.3,0,0,0,66-45.75C550.25,286.05,544.67,278.51,540.07,282Z" transform="translate(-67.25 -167.96)"/>
  <path class="cls-9" d="M435.13,351.5c-.82-2.34-1.6-3.62-3.83-4.74a5.06,5.06,0,0,0-6.59,1.77,60.5,60.5,0,0,1-28.9-4.53c-5.85-2.49-10.95,6.13-5,8.63a73,73,0,0,0,40.87,5C434.19,357.24,435.94,353.84,435.13,351.5Z" transform="translate(-67.25 -167.96)"/>
  <path class="cls-9" d="M560.37,261.43c-1-2.51-2-5-3-7.54s-3.39-4.39-6.15-3.49c-2.35.76-4.53,3.54-3.49,6.15s2,5,3,7.54,3.39,4.39,6.15,3.49C559.23,266.82,561.41,264,560.37,261.43Z" transform="translate(-67.25 -167.96)"/>
  <path class="cls-10" d="M641.4,342.29c-15.63-20.66-33.42-39.94-50.14-59.73L539.8,221.64l-25.74-30.46c-2.44-2.89-5.87-1.64-7.45.88-5.46-3.59-11.88-5-18.55-5a63,63,0,0,0-11,.95c-1.92.32-3.83.71-5.71,1.16-2.55.6-5.05,1.28-7.45,2q-6.1,1.85-12.18,3.75c-.53.16-1.05.32-1.58.5,4.47-.15,8.94-.24,13.39-.33,7.9-.17,15.91-.14,23.59,1.87.44,0,.88,0,1.33,0h0a29.58,29.58,0,0,1,7.47.94,16.83,16.83,0,0,1,7.69,4.28,14.49,14.49,0,0,1,1.39,1.61,5.13,5.13,0,0,0,4.8,2.09,5.9,5.9,0,0,0,2.76-1l18.48,21.87,0,.06,3.25,3.85.77.91,9.34,11.06,2,2.4,1.65,2,2.4,2.83,2.85,3.37L591,297.72l.86,1L604.78,314c8.06,9.55,16.18,19.05,24.19,28.65,6.38,7.64,13.77,16.84,13.29,27.4-.5,10.82-9,19.53-16.19,26.76q-11.36,11.43-23.72,21.79-4.14,3.48-8.38,6.84c-1.4,1.12-2.82,2.23-4.24,3.33l-.07.05c-29.9,23.09-62.95,41.94-96.79,58.59l-4.56,2.2a5.12,5.12,0,0,0-1.05-4.31q-8.07-10.28-15.88-20.77c4.71-1.57,9-3.93,10.28-8.41,2.38-8.24-5.2-13.63-11.55-16.72a65.61,65.61,0,0,0-8.59-3.52,26.75,26.75,0,0,0,6,5.7c5.33,3.89,9.67,7.25,12.14,12.75l-5.43,1.4a4.66,4.66,0,0,0-2.44,1.61,5.6,5.6,0,0,0,.09-2.08,4.69,4.69,0,0,0-.59-1.64,1.76,1.76,0,0,1-1.54.58c-1.15.84-3.47,1.1-4.89,1.49q-3.93-5.38-7.8-10.8a50.16,50.16,0,0,1,7.26,2.77,45.7,45.7,0,0,1,4.29,2.21,11.43,11.43,0,0,1,2.56,1.79c.06.16.12.31.16.45a4.66,4.66,0,0,0,1.1-3.36,3.71,3.71,0,0,0-1.62-1.37,49.56,49.56,0,0,0-22.06-4.58l-.89,0a5.75,5.75,0,0,0-1.33,2.72,3.93,3.93,0,0,0-1.33-.72,4.2,4.2,0,0,0,.44-1.85,9.28,9.28,0,0,0-5.75,2.27,7.61,7.61,0,0,0-1.35,2,5.75,5.75,0,0,0-3.93,1.11c.42-.34-1.61-1.38-2.25-2.13a10.81,10.81,0,0,1-1.37-2.16,4.6,4.6,0,0,0,2,6.08l2.07,1.19c3.62,2.08,8.78-1.4,7.35-5.65-.16-.48.82-.85,2.23-1.12q5.26,7.51,10.68,14.93a5.37,5.37,0,0,0-.38,5.59,4.46,4.46,0,0,0,5.55,2.37l.57-.16q5.39,7.24,10.88,14.41a3.15,3.15,0,0,0,.22.29q4,5.22,8.06,10.39a5.76,5.76,0,0,0,.76.79c-27.22,13-55,25.12-83.05,36.36l-2.5,1q-13.22,5.28-26.5,10.29c-43.42,16.41-89.16,31.42-135.51,36.63-10.64,1.2-21.87,1.23-31.07-5-8.87-6-15.23-15.78-21.79-24.06l-.71-.88-1.51-1.91h0c-14.52-18.15-29.94-36-42.82-55.3a124.15,124.15,0,0,1-6.57-11.09,0,0,0,0,1,0,0q-1.05-2-2-4C119.56,460,115.36,443.6,113,426.57c-1.59-11.34-2.44-22.78-3.27-34.2-.39-5.44-1.07-11.14,0-16.54a20.49,20.49,0,0,1,2.32-6.2,4.86,4.86,0,0,0,3.88-2.26q2.53-3.76,5.12-7.48c6.17-5,13.06-9.25,19.79-13.51.39-.24.79-.49,1.18-.75,1.17-.74,2.34-1.48,3.49-2.23q14.3-9.25,28.92-18,8.63-5.15,17.35-10.1l.2-.12,1.91-.65c2.63-.9,5.24-1.85,7.82-2.9,30.66-12.49,56.47-35.88,89.18-43.33a6.6,6.6,0,0,0,.84.46,102.78,102.78,0,0,1,24.51,15.16,42,42,0,0,0-5.88-8.72,4.27,4.27,0,0,0-1.16-.9,5.15,5.15,0,0,0,.53-1.5,4.73,4.73,0,0,0,1.6.3,6.49,6.49,0,0,0,4.32-1.46c0-.28-.1-.56-.14-.85a105.55,105.55,0,0,0-15.63-9.23q7.88-3.42,15.81-6.71.3-1.77.75-3.51a52.17,52.17,0,0,1,2.19-6.94c.24-.63.5-1.25.77-1.87q-29.4,12.08-58.16,25.56-37.11,17.46-72.89,37.65-5.76,2-11.66,3.84c-13.15,4.07-26.67,8.37-38,16.49-10,7.21-17.8,16.72-24.89,26.72a65.51,65.51,0,0,0-5.32,4.92c-8.34,8.74-9.75,19.45-9,31.08,1.48,23.4,3.33,47.32,10.12,69.87,7,23.32,20.7,42.27,35.64,61.13l25.18,31.76c7.28,9.18,14.14,19.45,23.34,26.85,18.36,14.79,43.05,9.13,64.25,5.18a587.94,587.94,0,0,0,73-18.87c46.37-15,91.56-34,135.93-54.09,41.87-18.95,83-40.2,120.16-67.46,18-13.18,35.54-27.63,50.64-44.08,7.06-7.69,13.46-16.72,14.4-27.43C653.1,360.74,647.8,350.74,641.4,342.29Zm-261-11-.33-.31a47.66,47.66,0,0,0-10.22-7.53c-4.11-2.14-8.81-2.79-12.87-4.91-5.65-3-8.84-9.94-12.06-15.92a5.36,5.36,0,0,1-2.87,1.83c2.6,7.76,8.81,14.22,17.09,16.07a4.44,4.44,0,0,0,2.37,3.86q6.28,2.69,12.68,5a5.93,5.93,0,0,0,3.51,4.37l.05,0c2.49,1,5,1.8,7.57,2.5C383.75,334.53,382.12,332.86,380.41,331.25ZM377.16,230.8c-8.57-1.46-17.76-2.51-25.77,1.32a31.18,31.18,0,0,0-13.67,13.71q10.38-4.12,20.82-8.1Q367.83,234.21,377.16,230.8ZM359,257.58a33.74,33.74,0,0,1-.11-5.7A14.67,14.67,0,0,0,359,257.58ZM676.88,385.9c-3-21.62-14.22-40.64-26.64-58.34a4.51,4.51,0,0,0,2.88-1.56c9.29-10.2,17.3-22.9,8.87-36.21-4.36-6.88-9.89-13.21-14.82-19.69L631,248.82c-8.63-11.36-16.88-25.38-29.37-32.94-10-6-23.9-6.53-32.48,2-9.71-12-20.21-23.39-32.5-32.84a111,111,0,0,0-30.72-16.8,4.17,4.17,0,0,0-5.27,1.82,5.74,5.74,0,0,0-1.37-.26c-59-3.73-115.35,22.08-168.46,44.44-54.21,22.83-107.65,47.67-158.71,76.94q-19.4,11.12-38.26,23.09c-11.19,7.12-22.37,14.45-32.22,23.38-19.22,17.42-29,40.58-32.39,66-3.46,26.14-1.76,53.24.25,79.43,2.15,27.89,8.66,54.17,22.59,78.58,12.55,22,29.27,41.44,46.93,59.5,9.16,9.37,18.64,18.42,28.17,27.41s19.39,18.37,30.67,25.47c23.77,15,51.76,14.78,78.23,8,27.93-7.18,54.14-20.21,79.54-33.58,52.91-27.84,105.32-56.78,156.38-87.89q38.73-23.6,76.19-49.16c22.87-15.71,46.94-31.56,64.8-53.13C669.76,438,680.59,412.51,676.88,385.9Zm-74-156.46c8.42,8,14.95,18.41,21.93,27.58l24,31.53c3.36,4.42,7.88,9.13,6.88,15.12-.82,4.89-4.09,9.13-7.41,12.87-.72.82-1.45,1.62-2.15,2.39a5.48,5.48,0,0,0-.95,1.45q-1.89-2.61-3.78-5.18-27.42-37.29-54.87-74.56c-3.37-4.58-6.77-9.17-10.25-13.71l-.82-1.08h0c.24-.27.49-.52.74-.76a13.07,13.07,0,0,1,8.57-3.7c5.87-.33,12.17,2.73,16.6,6.66.21.18.41.37.62.57h0C602.23,228.87,602.53,229.15,602.83,229.44ZM414.06,241.26a89.15,89.15,0,0,1,25.57,26.86c5.58,9.34,10.57,21.65,9.54,32.78-.69,7.39-6.2,7.23-12.44,6.94a64.29,64.29,0,0,1-18.48-3.79,74.15,74.15,0,0,1-20.37-11.29,90.44,90.44,0,0,1-9.26-8.23l-.12-.13A105.66,105.66,0,0,1,376.1,269c-1.54-2.32-5.28-7.08-6.8-11.32a7.84,7.84,0,0,1-.48-4.56,3.94,3.94,0,0,1,.69-1.39c4.25-5.38,12.21-.44,15.76,2.79,3.26,2.95,12.35,10.63,9.22,15.63-3.42,5.48,5.23,10.5,8.63,5.05,4.88-7.8.22-17.13-6.54-24.2a44.64,44.64,0,0,0-12.88-9.51c-7.1-3.22-15.42-1.77-20.45,2.78a13.69,13.69,0,0,0-3.81,5.65,12.66,12.66,0,0,0-.52,2,14.67,14.67,0,0,0,.11,5.7h0a18.69,18.69,0,0,0,.68,2.44c2.53,7.19,7.46,14,12,20a117.85,117.85,0,0,0,9.61,11.31q2.94,3,6.15,5.82c12.34,10.62,27.3,18.06,43.53,20.13,7,.9,15.91,1.79,21.87-2.69,5.43-4.08,6.64-11.36,6.25-17.75-1-15.76-7.66-30.73-17.3-43.08-10-12.8-23.35-22.73-37.69-30.19l-2.8-1.42.08,0q10.72-3.74,21.51-7.34,15.76-5.26,31.63-10.26c9.21-2.9,18.55-6.34,28.22-7.32,1.41-.14,2.87-.24,4.35-.27.44,0,.88,0,1.33,0h0a29.58,29.58,0,0,1,7.47.94,16.83,16.83,0,0,1,7.69,4.28,14.49,14.49,0,0,1,1.39,1.61,5.13,5.13,0,0,0,4.8,2.09,5.9,5.9,0,0,0,2.76-1l18.48,21.87,0,.06,3.25,3.85.77.91,9.34,11.06,2,2.4,1.65,2,2.4,2.83,2.85,3.37L591,297.72l.86,1L604.78,314c8.06,9.55,16.18,19.05,24.19,28.65,6.38,7.64,13.77,16.84,13.29,27.4-.5,10.82-9,19.53-16.19,26.76q-11.36,11.43-23.72,21.79-4.14,3.48-8.38,6.84c-1.4,1.12-2.82,2.23-4.24,3.33l-.07.05c-29.9,23.09-62.95,41.94-96.79,58.59l-4.56,2.2a5.12,5.12,0,0,0-1.05-4.31q-8.07-10.28-15.88-20.77c4.71-1.57,9-3.93,10.28-8.41,2.38-8.24-5.2-13.63-11.55-16.72a65.61,65.61,0,0,0-8.59-3.52l-.56-.17a36.21,36.21,0,0,0-11.62-1.79Q430.82,407.15,414,379.29c-6.59-10.89-12.83-22.38-20.37-32.79a.42.42,0,0,0-.06-.08,116.46,116.46,0,0,0-8.2-10.17c-1.58-1.72-3.21-3.39-4.92-5l-.33-.31a47.66,47.66,0,0,0-10.22-7.53c-4.11-2.14-8.81-2.79-12.87-4.91-5.65-3-8.84-9.94-12.06-15.92a52.35,52.35,0,0,0-2.79-4.69,108.7,108.7,0,0,0-7.32-9.48,4.32,4.32,0,0,0-.25-4.64,40.61,40.61,0,0,1-4.29-34.93v0l7.43-3q10.38-4.12,20.82-8.1,9.29-3.53,18.62-6.93,4.66-1.7,9.34-3.37l1.11-.4.55-.2C397.5,230.46,406.39,235.88,414.06,241.26Zm-45.43-18q-14.92,5.53-29.74,11.36l-.18.07c.69-.74,1.42-1.46,2.18-2.15a39.52,39.52,0,0,1,5-3.88c.86-.56,1.76-1.09,2.69-1.59a39,39,0,0,1,21.91-4.51Zm.27,317.52c-43.42,16.41-89.16,31.42-135.51,36.63-10.64,1.2-21.87,1.23-31.07-5-8.87-6-15.23-15.78-21.79-24.06l-.71-.88-1.51-1.91h0c-14.52-18.15-29.94-36-42.82-55.3a124.15,124.15,0,0,1-6.57-11.09,0,0,0,0,1,0,0q-1.05-2-2-4C119.56,460,115.36,443.6,113,426.57c-1.59-11.34-2.44-22.78-3.27-34.2-.39-5.44-1.07-11.14,0-16.54a20.49,20.49,0,0,1,2.32-6.2,4.86,4.86,0,0,0,3.88-2.26q2.53-3.76,5.12-7.48c6.17-5,13.06-9.25,19.79-13.51.39-.24.79-.49,1.18-.75,1.17-.74,2.34-1.48,3.49-2.23q14.3-9.25,28.92-18,8.63-5.15,17.35-10.1l.2-.12,1.91-.65c2.63-.9,5.24-1.85,7.82-2.9,30.66-12.49,56.47-35.88,89.18-43.33a6.6,6.6,0,0,0,.84.46,102.78,102.78,0,0,1,24.51,15.16l.23.19q2.65,2.24,5.15,4.66c.44.42.87.85,1.3,1.28a92.58,92.58,0,0,1,9.75,11.59c4.84,6.82,8,15.09,13.75,21.18,6.21,6.53,15.53,6.65,22.61,11.79,11.18,8.11,19.13,20.31,26.29,32.53.68,1.15,1.35,2.31,2,3.45,2.23,3.85,4.4,7.66,6.59,11.31Q420.15,409,438,435.11l.88,1.27a12.93,12.93,0,0,0-5.7,5.07,5.57,5.57,0,0,0-2.24,2.6h0a4.6,4.6,0,0,0,2,6.08l2.07,1.19c3.62,2.08,8.78-1.4,7.35-5.65-.16-.48.82-.85,2.23-1.12q5.26,7.51,10.68,14.93a5.37,5.37,0,0,0-.38,5.59,4.46,4.46,0,0,0,5.55,2.37l.57-.16q5.39,7.24,10.88,14.41a3.15,3.15,0,0,0,.22.29q4,5.22,8.06,10.39a5.76,5.76,0,0,0,.76.79c-27.22,13-55,25.12-83.05,36.36l-2.5,1Q382.18,535.81,368.9,540.82ZM318.19,265.07a51.35,51.35,0,0,0,1.37,8.79q-1.72-1.35-3.51-2.63l-.6-.43a105.55,105.55,0,0,0-15.63-9.23q7.88-3.42,15.81-6.71l3.07-1.28A51.4,51.4,0,0,0,318.19,265.07Zm153.13,187a1.41,1.41,0,0,1-1.58,2.09c-1.15.84-3.47,1.1-4.89,1.49q-3.93-5.38-7.8-10.8a50.16,50.16,0,0,1,7.26,2.77,45.7,45.7,0,0,1,4.29,2.21,11.43,11.43,0,0,1,2.56,1.79C471.22,451.82,471.28,452,471.32,452.11ZM239.66,676.63c-1.82-.06-3.64-.18-5.45-.35-15.75-1.49-28.75-8.55-40.57-17.69-1.39-1.08-2.77-2.18-4.13-3.32-6.92-5.73-13.47-12.06-20-18.25-9.34-8.86-18.64-17.84-27.55-27.16l-.92-1c-7.93-8.33-15.55-16.95-22.62-26-15.15-19.43-27.62-41.25-33.71-65.27-6.67-26.29-7.09-54.71-7.26-81.72-.15-23.75,1.8-48.81,13.81-69.88.29-.51.59-1,.91-1.53s.46-.77.71-1.15c13.3-21.24,36.19-34.45,57.06-47.31q14.42-8.88,29.11-17.26l.36-.2c38.9-22.18,79.22-41.85,120.15-60Q315.2,231.64,331,225c2.08-.89,4.17-1.78,6.26-2.65l.94-.4-.71.53a47.64,47.64,0,0,0-15,18.52c-.06.12-.1.25-.15.37l-2.93,1.21q-29.4,12.08-58.16,25.56-37.11,17.46-72.89,37.65-5.76,2-11.66,3.84c-13.15,4.07-26.67,8.37-38,16.49-10,7.21-17.8,16.72-24.89,26.72a65.51,65.51,0,0,0-5.32,4.92c-8.34,8.74-9.75,19.45-9,31.08,1.48,23.4,3.33,47.32,10.12,69.87,7,23.32,20.7,42.27,35.64,61.13l25.18,31.76c7.28,9.18,14.14,19.45,23.34,26.85,18.36,14.79,43.05,9.13,64.25,5.18a587.94,587.94,0,0,0,73-18.87c46.37-15,91.56-34,135.93-54.09,41.87-18.95,83-40.2,120.16-67.46,18-13.18,35.54-27.63,50.64-44.08,7.06-7.69,13.46-16.72,14.4-27.43,1-10.92-4.35-20.92-10.75-29.37-15.63-20.66-33.42-39.94-50.14-59.73L539.8,221.64l-25.74-30.46c-2.44-2.89-5.87-1.64-7.45.88-5.46-3.59-11.88-5-18.55-5a63,63,0,0,0-11,.95c-1.92.32-3.83.71-5.71,1.16-2.55.6-5.05,1.28-7.45,2q-6.1,1.85-12.18,3.75c-.53.16-1.05.32-1.58.5-18.29,5.73-36.48,11.85-54.56,18.18l-7.53,2.65-.19.07a63.81,63.81,0,0,0-19.19-3.92,48.3,48.3,0,0,0-6.68.24c-.67.06-1.34.15-2,.25q6-2.43,11.93-4.79s0,0,0,0c2.12-.85,4.25-1.7,6.38-2.53,6.64-2.61,13.32-5.17,20.06-7.59,11.26-4.07,22.66-7.77,34.23-10.8l4.13-1c7.15-1.76,14.37-3.25,21.67-4.4a188.32,188.32,0,0,1,40.88-1.9,4.2,4.2,0,0,0,4-1.9c22.95,8.1,40.78,25.31,56,43.72,17.31,20.9,32.76,43.44,48.84,65.28,8.72,11.86,18,23.58,26.7,35.64.8,1.12,1.6,2.23,2.39,3.35a280.76,280.76,0,0,1,18.16,28.61c6.07,11.18,10.93,23.4,12,36.18a74.46,74.46,0,0,1-6.9,37.34c-11.19,24.36-32,42.22-53.22,57.69-22.72,16.54-46.19,32.11-69.89,47.2-48.37,30.78-98.25,59.13-148.66,86.42-24.68,13.36-49.3,27.15-75,38.55C291,668,265.58,677.4,240.22,676.65Z" transform="translate(-67.25 -167.96)"/>
  <path class="cls-10" d="M209.58,626.3c-6.3-14.41-16.54-26.41-26.9-38-10.8-12.14-21.27-24.48-30.9-37.58A463.5,463.5,0,0,1,102.47,466a4.06,4.06,0,0,0-5.54-2.23,4.63,4.63,0,0,0-4.47.22c-5.89,3.35-7.79,9.52-8.66,15.87a93.67,93.67,0,0,0-.41,22,121.7,121.7,0,0,0,13.37,43.76c14.46,27.92,38.24,49.44,63.49,67.51q11,7.85,22.34,15.06c7.16,4.53,15.5,8.54,24,5.4C209.87,632.43,211,629.42,209.58,626.3Zm-29.22-11.43c-7.26-4.79-14.42-9.73-21.38-15-13.95-10.45-27.09-22.2-38.12-35.73a127.75,127.75,0,0,1-24-44.89,96.72,96.72,0,0,1-3.91-24.82c-.1-4.92-.93-15,2.51-19.87a463.24,463.24,0,0,0,47.69,81.11c9.46,12.86,19.59,25.15,30.21,37.07,8.89,10,17.74,20,24.17,31.65C191.31,623.26,185.24,618.09,180.36,614.87Z" transform="translate(-67.25 -167.96)"/>
  <path class="cls-10" d="M258.92,500.87c2.74-2.91,1.66-8.84-3.33-8.45-7.15.55-11.32,5.51-14.12,11.74-2.6,5.8-6.22,14.95-3.43,21.28,3.15,7.17,11.12,5.24,15.85,1.06a33,33,0,0,0,10.43-19.35A5.47,5.47,0,0,0,258.92,500.87Zm-7.37,12.85a22.6,22.6,0,0,1-3,4.06c-.29.31-.59.59-.89.88.13-1.09.19-2.3.33-2.88a47,47,0,0,1,1.61-5.22c.89-2.35,2.79-7.8,5.92-8.13a4.77,4.77,0,0,0-.83,2.06A25.91,25.91,0,0,1,251.55,513.72Z" transform="translate(-67.25 -167.96)"/>
  <path class="cls-10" d="M187.48,398.37c-2.73,4.43-6,8.74-11.32,10a11.36,11.36,0,0,1-3.75.24,10.44,10.44,0,0,1-8.23-5.44c-5.29-9.9,3.69-17.92,11.73-22A4.87,4.87,0,0,1,180,381c3.51,1.39,5.21,6.71.93,8.86-2.67,1.35-8.58,3.65-8.21,7.51.42,4.35,5.38-2.85,6.11-4C182.22,387.84,190.87,392.87,187.48,398.37Z" transform="translate(-67.25 -167.96)"/>
  <path class="cls-10" d="M301.89,385.39c-6.07-.5-11.81-3.93-15.84-8.37a4.92,4.92,0,0,1-.45-6.21c1.61-2.42,5-3.62,7.52-.86a16.83,16.83,0,0,0,6.31,4.63,8.06,8.06,0,0,0,1.26.29c-3.28-3.45-9.06-8.92-14-7.31-6.14,2-8.75-7.67-2.65-9.65a14.47,14.47,0,0,1,7.14-.46h0a25.52,25.52,0,0,1,10.67,5.27c4.31,3.32,10.07,7.52,10.43,13.48C312.61,382.31,307.6,385.85,301.89,385.39Z" transform="translate(-67.25 -167.96)"/>
  <path class="cls-11" d="M553.26,252.17c-2.81-17.16-15.93-29.93-28-41.38-13-12.34-26.23-22.93-44.56-25.12-9.69-1.16-19.54-.57-29.26-.25a295.06,295.06,0,0,0-29.71,2.18c-18.32,2.46-36.66,7.78-53.88,14.45s-34.26,16.36-44.34,32.47c-9.34,14.91-12.1,34-3.48,49.82,3.08,5.66,11.72.62,8.64-5-6.78-12.47-4.05-27.41,3.08-39.11,7.68-12.6,20.66-20.77,33.93-26.53a244,244,0,0,1,46.16-14.28c16.95-3.59,34.41-3.94,51.68-4.29,8.56-.18,17.24-.14,25.5,2.41,7.53,2.32,14.17,7,20.1,12.05,11.37,9.73,24.28,20.85,31,34.44a33.34,33.34,0,0,1,3.41,19.76c-1.28,8-6.36,13-13,17.28-15.34,9.9-30.93,19.45-46.39,29.17-8.59,5.4-17.15,10.82-25.75,16.19-7.72,4.82-15.5,9.36-24.35,11.73a66.1,66.1,0,0,1-49.63-6.49c-5.6-3.19-10.64,5.45-5,8.63a76.46,76.46,0,0,0,48.69,9.24c19-2.72,34.4-13.86,50.27-23.84l54.28-34.12c7.11-4.48,14.22-9.22,17.91-17.07C553.92,267.46,554.5,259.74,553.26,252.17Z" transform="translate(-67.25 -167.96)"/>
  <path class="cls-12" d="M605.65,382.87a9.69,9.69,0,0,0-1.6-4.92c-4.87-7.37-16.78-5.75-24.11-4.27a69,69,0,0,0-10,2.74,51.48,51.48,0,0,0-8.61,3.57,7.62,7.62,0,0,0-4.32.53c-8.17,3.32-12.73,12.78-14.94,21.94a13.64,13.64,0,0,0-7.2-5.43c-10-3.1-18,5-23.23,13.22a10.73,10.73,0,0,0-2.07-1.29,9,9,0,0,0-5.21-.85c-3.66-2.48-7.85-.92-11.11,1.9-8.05,7-10.49,18.1-11.21,28.28-.4,5.61-.59,12.12.81,18a34,34,0,0,0,2.55,9.05c3,6.71,9.35,11.76,17,10.08s12.09-8.08,14.35-15.08a16.88,16.88,0,0,0,11-.8l.38,0c12.32-1.53,18.66-16,20.66-26.7,4.43,2.39,9.56,1.85,14.21-.71a87,87,0,0,0,18-13.61l.62-.47a74.66,74.66,0,0,0,17-18.06c2.54-3.81,6-9.11,6.85-14.25A7.74,7.74,0,0,0,605.65,382.87Z" transform="translate(-67.25 -167.96)"/>
  <path class="cls-13" d="M505.38,416.92c-.67-3.26-3.59-4.11-6.06-3.3a4.75,4.75,0,0,0-6.53,1.76q-1.34,2.24-2.46,4.56c-4.41,4.84-5.66,12.05-6.36,18.88a84.08,84.08,0,0,0,.18,18.56c.49,4.21.87,9.72,5.25,11.84,4.85,2.35,8.32-.1,10.75-4.07,5.14-2.08,6.25-10.45,6.88-15.9A101.79,101.79,0,0,0,505.38,416.92Z" transform="translate(-67.25 -167.96)"/>
  <path class="cls-13" d="M537.17,407.87a13.66,13.66,0,0,0-1-3.24c0-.11-.07-.22-.11-.33-1.36-3.86-4.13-5.53-6.82-5.38a5,5,0,0,0-5.11-.29,8,8,0,0,0-2.2,1.55,12.78,12.78,0,0,0-1.74,1.79,5.57,5.57,0,0,0-3.51,2.68,4.26,4.26,0,0,0-.67,2.25,4,4,0,0,0-2.31,4.2q2.44,20.32,3.64,40.76c.22,3.87,5.6,7.18,8.54,3.54.32-.4.64-.81,1-1.22a5,5,0,0,0,3-3.07c.35-1,.69-1.94,1-2.93C537.85,436.15,540.72,421.41,537.17,407.87Z" transform="translate(-67.25 -167.96)"/>
  <path class="cls-13" d="M597.12,376.2a5.66,5.66,0,0,0-4.41-3.11,54.12,54.12,0,0,0-19.08,2.31,25.56,25.56,0,0,0-5-.35,11.4,11.4,0,0,0-7.71,3.77c-7.35,1.4-10.53,10.06-11.48,17.58a83.44,83.44,0,0,0-.37,17.45c.36,4.25.19,10.26,4.4,12.67.24.13.46.23.69.34A4.68,4.68,0,0,0,560.3,428c17.79-9.61,21.23-32.64,38.25-42.62C602.66,383,601,377.14,597.12,376.2Z" transform="translate(-67.25 -167.96)"/>
  <path class="cls-14" d="M508.17,417.65c-2.23-6-11.9-3.39-9.65,2.66,4,10.63,11.85,37.4-2.71,43.56h-.13l-.52,0a5.12,5.12,0,0,0-4.82,3.67l-.12.51a5.1,5.1,0,0,0,3.58,6.14,5,5,0,0,0,2.66.1l.51-.11a3.76,3.76,0,0,0,1.33-.56C520.34,466.24,514.33,434.23,508.17,417.65Z" transform="translate(-67.25 -167.96)"/>
  <path class="cls-14" d="M545.37,409.29c-.16-6.42-10.16-6.45-10,0,.21,8.41,1.39,17.55.14,25.9-1.29,8.7-8.22,12.28-15.42,15.83-5.77,2.85-.71,11.48,5,8.64,8.36-4.13,16.31-9.11,19.26-18.49C547.52,431.29,545.62,419.47,545.37,409.29Z" transform="translate(-67.25 -167.96)"/>
  <path class="cls-14" d="M593.29,382.32c-6.21,7.54-12.37,15.12-18.64,22.6C569,411.66,563.11,418,555,421.79c-5.82,2.73-.75,11.35,5.05,8.64,8.28-3.88,14.75-10.31,20.59-17.19,6.67-7.85,13.13-15.89,19.69-23.85C604.42,384.47,597.38,377.35,593.29,382.32Z" transform="translate(-67.25 -167.96)"/>
  <path class="cls-15" d="M501,336.46a23.55,23.55,0,0,0-20.77-1.53c-1.14-4.18-4.32-7.77-9.22-6.6a7.64,7.64,0,0,0-2.56,1.17,10.08,10.08,0,0,0-7.74.77c-4.44,2.36-6.28,6.15-6.23,10a19.92,19.92,0,0,0-5-.32c-7.23.45-12.53,4.72-16.21,10.73-2.42,3.95-4.53,8.51-4.7,13.06-4.61,3.62-6.37,10.63-3.36,15.91a11.3,11.3,0,0,0,6.32,5.18,9.12,9.12,0,0,0,4.18,7.45,11,11,0,0,0,11.18.2c3.48,4.25,10,5.69,15.36,5.59a31.91,31.91,0,0,0,15.54-4.45,38.79,38.79,0,0,0,12.75-9.84,7.77,7.77,0,0,0,1.2.28c7.29,1.14,11.66-5.75,14.11-11.55a28.37,28.37,0,0,0,2.39-11.72A18.78,18.78,0,0,0,501,336.46Zm-7.49,17.11a3.78,3.78,0,0,0-.61.65c-.07-.27-.15-.54-.24-.79A4.86,4.86,0,0,1,493.46,353.57Z" transform="translate(-67.25 -167.96)"/>
  <path class="cls-15" d="M575.07,317.45a11.53,11.53,0,0,0-13.2-6.19,13,13,0,0,0-2.67,1,10.75,10.75,0,0,0-2-7.92c-3.47-4.81-10.56-6.37-15.86-3.83-4.74,2.26-7.54,7-8.36,12.06a7.16,7.16,0,0,0-1.29-.67c-5.85-2.33-13,1.23-14.93,7.14a10.63,10.63,0,0,0-.06,6.48,15.61,15.61,0,0,0-2.73,4.54c-1.7,4.39-2.16,10.14.87,13.89a11,11,0,0,0,.56,1.28,9.86,9.86,0,0,0,2.95,3.4,17.29,17.29,0,0,0,3.51,7.25,13.87,13.87,0,0,0,16.76,3.85c6.11-2.82,9.92-9.25,11.9-15.6a9.78,9.78,0,0,0,12.37-.41,16.72,16.72,0,0,0,4.14-5.33C574,334.93,578.47,324.21,575.07,317.45Z" transform="translate(-67.25 -167.96)"/>
  <path class="cls-8" d="M624.27,335.35c-.24-5.2-.69-11-4.3-14.43a4.32,4.32,0,0,0-3.5-5.34c-18.52-3.87-34.82,9.32-45.83,22.83-5.08,6.24-10.21,14.82-5.49,22.74,4.11,6.91,12.88,7.79,20,9,8.22,1.43,17.08,3.44,24.94-.45a16.49,16.49,0,0,0,5.55-4.38,5.06,5.06,0,0,0,5.08-3.43A63.09,63.09,0,0,0,624,348a4.86,4.86,0,0,0,0-1.63A73.5,73.5,0,0,0,624.27,335.35Z" transform="translate(-67.25 -167.96)"/>
  <path class="cls-5" d="M397.45,234.9c-7.8-9.19-19.4-13-31.17-11.35a4.17,4.17,0,0,0-2.4,1.1,31.13,31.13,0,0,0-14.33,4.42,5,5,0,0,0-5.65.74,58.86,58.86,0,0,0-13,15.95,9.23,9.23,0,0,0,1.09,7.12c.58,4.47,6.8,6.37,9,2.71a5.68,5.68,0,0,0,6.54-1.13,4.44,4.44,0,0,0,2.65,0,35.24,35.24,0,0,0,11.67-6.33c2.12-1.7,1.73-5.29,0-7.07a6,6,0,0,0-.47-.41,18.06,18.06,0,0,0,9.06-.48c.45-.14.9-.28,1.31-.44a5.12,5.12,0,0,0,3.11-3.37,32.37,32.37,0,0,1,4.06,2.2c2.43,1.54,5,2.73,7.59,2l1.83.67a4.56,4.56,0,0,0,1.66.28l.4.45C394.56,246.88,401.6,239.78,397.45,234.9Z" transform="translate(-67.25 -167.96)"/>
  <path class="cls-5" d="M510.3,220.67C504.75,209.3,498,199.11,485,195.87c-13.48-3.36-28.59-1-42.28-.4a4.93,4.93,0,0,0-4.05,2.36c-1,.21-2.1.44-3.15.7a4.75,4.75,0,0,0-2.25,1.22q-2.64.39-5.28.9a4.63,4.63,0,0,0-2.51,1.3,71.33,71.33,0,0,0-14.23,1.84,4.5,4.5,0,0,0-3.49,5.29q-2.89-.06-5.8.09l-.31,0a52.3,52.3,0,0,0-10.11-1.4c-6.44-.27-6.42,9.71,0,10,1.14.05,2.26.17,3.36.32l1,.56a46,46,0,0,0,11.35,6.05,4,4,0,0,0,3-.07l6.55,2.75c4,1.68,7.74-3.83,5.85-7.19a4.82,4.82,0,0,0,1.76-.94l4.75-.06a4.79,4.79,0,0,0,4.79-5.64l.7-.08a40,40,0,0,1,8,.45,5.34,5.34,0,0,0,3.25-.45,60.43,60.43,0,0,1,7.22,1.13,5.28,5.28,0,0,0,6.31-5.14l7.12.36a4.29,4.29,0,0,0,3.48-1.47c.69,0,1.39,0,2.08-.09a5.22,5.22,0,0,0,4.64-3.72c.79.08,1.57.18,2.35.3,8.41,1.25,13.55,5.77,17.57,11.83L495,217.79c-5.46,3.37-.44,12,5.05,8.63l.93-.57,2.53,1.67C508,230.47,512.34,224.84,510.3,220.67Z" transform="translate(-67.25 -167.96)"/>
  <path class="cls-16" d="M383.11,221.73c-11.78-2.08-24.16-4-35.46,1.15-9.24,4.19-16.25,12.33-20.28,21.51-8.63,19.63-3.66,42.81,10.42,58.54,4.31,4.81,11.36-2.28,7.08-7.07-11-12.3-15.16-30.71-8.92-46.25,2.93-7.3,8.24-14,15.44-17.49,9.05-4.33,19.6-2.42,29.06-.75C386.74,232.48,389.44,222.85,383.11,221.73Z" transform="translate(-67.25 -167.96)"/>
  <path class="cls-16" d="M395.71,289.55c-11.24-7.58-23-16.92-26.18-30.83a19.32,19.32,0,0,1-.4-8.42c.83-3.64,2.77-3.92,6.05-2.66,6,2.31,11.08,6.59,15.2,11.41s11.23-2.2,7.07-7.07c-5.67-6.63-14-13.2-22.77-14.95-9.07-1.82-14.91,5.47-15.69,13.83-1.95,21,16,36.76,31.67,47.33C396,301.8,401,293.14,395.71,289.55Z" transform="translate(-67.25 -167.96)"/>
  <path class="cls-1" d="M472.42,448.75a3.71,3.71,0,0,0-1.62-1.37,49.56,49.56,0,0,0-22.06-4.58l-.89,0c-.72,0-1.47.07-2.22.15a9.28,9.28,0,0,0-5.75,2.27,7.61,7.61,0,0,0-1.35,2,5.75,5.75,0,0,0-3.93,1.11c.42-.34-1.61-1.38-2.25-2.13a10.81,10.81,0,0,1-1.37-2.16,4.6,4.6,0,0,0,2,6.08l2.07,1.19c3.62,2.08,8.78-1.4,7.35-5.65-.16-.48.82-.85,2.23-1.12q5.26,7.51,10.68,14.93a5.37,5.37,0,0,0-.38,5.59,31,31,0,0,0,3.67-4.82q.33-.52.63-1.05c.18-.33.36-.65.53-1l.09-.2,9.77-1.52a3.75,3.75,0,0,0,2.27-1.25A5.59,5.59,0,0,0,472.42,448.75ZM178.85,393.32c-.73,1.18-5.69,8.38-6.11,4-.37-3.86,5.54-6.16,8.21-7.51,4.28-2.15,2.58-7.47-.93-8.86-5.72,5.38-16.8,17.81-6.91,22.16,3.35,1.47,6,.18,8.19-1.9a65.64,65.64,0,0,1-8.89,7.37,11.36,11.36,0,0,0,3.75-.24c5.35-1.26,8.59-5.57,11.32-10C190.87,392.87,182.22,387.84,178.85,393.32Z" transform="translate(-67.25 -167.96)"/>
  <path class="cls-17" d="M455.29,459.49q-5.4-7.42-10.68-14.93c-1.41.27-2.39.64-2.23,1.12,1.43,4.25-3.73,7.73-7.35,5.65L433,450.14a4.6,4.6,0,0,1-2-6.08h0c-.23-.46-.44-.92-.66-1.39-1.32-2.79-2.69-5.65-4.92-7.85-5.08-5-11.15-3.78-17-1-16.76,7.89-23.73-20.57-27.6-31.71-2.6-7.48-4.25-15.49-7.48-22.71-3.12-7-8.79-9.8-14.18-14.72s-8.26-12-12.72-17.69A84.71,84.71,0,0,0,330,331.69c-12.4-9.22-26.44-18.12-42-20.45s-31.78,1.11-46.84,5.24c-12.94,3.55-26.34,9-35.33,19.35-8.62,10-11.86,22.53-13.22,35.37-.1.91-.18,1.82-.26,2.74a4,4,0,0,0-3.47,1.73c-.73.94-1.46,1.87-2.18,2.81a4.94,4.94,0,0,0-5,1c-.47.41-1.05.93-1.7,1.54,3.51,1.39,5.21,6.71.93,8.86-2.67,1.35-8.58,3.65-8.21,7.51.42,4.35,5.38-2.85,6.11-4,3.37-5.48,12-.45,8.63,5.05-2.73,4.43-6,8.74-11.32,10a11.36,11.36,0,0,1-3.75.24c-1.74,1.3-3.46,2.61-5.07,4.05a49.41,49.41,0,0,0-15.49,28.44c-2.42,5.53-4,11.31-3.89,16.88a19,19,0,0,0,6.73,13.95,205.39,205.39,0,0,0,16.68,13.29c4.87,3.55,10.08,5.8,16.2,5.17,6.53-.67,13-3.57,19.37-5.06a122.16,122.16,0,0,1,37.73-3,84.62,84.62,0,0,1,35.68,10.86c5.59,3.27,10.58,7.51,16.34,10.48a60.37,60.37,0,0,0,18.73,5.86c12.54,1.93,25.68,2.12,38.36,2.24,14.28.12,25.9-3.76,38.45-10.21a181.71,181.71,0,0,0,19.38-11.18c5.93-4,11-8.9,16.51-13.43,2.49-2,5.25-4.18,8.35-5.21,3.42-1.13,6.43.7,9.72-.58a24,24,0,0,0,8.72-6.1A5.37,5.37,0,0,1,455.29,459.49ZM281.05,355.27a4.67,4.67,0,0,1,3.75-.5,23.63,23.63,0,0,1,6.34,2.68h0a25.52,25.52,0,0,1,10.67,5.27c4.31,3.32,10.07,7.52,10.43,13.48.36,6.11-4.65,9.65-10.36,9.19-6.07-.5-11.81-3.93-15.84-8.37a4.92,4.92,0,0,1-.45-6.21,71.72,71.72,0,0,1-6.13-4.79l-2-1.5c-3.71-2.74-2.86-9.42,2.52-9.32C280.34,355.21,280.69,355.24,281.05,355.27Zm-69.28,17.19.72-1.86a2.67,2.67,0,0,0,.4.13l-1.12,1.8Z" transform="translate(-67.25 -167.96)"/>
  <path class="cls-1" d="M228.88,549.65a21.32,21.32,0,0,0-1.87-5.89c-1.09-2.28-4.06-3-6.28-2a33.62,33.62,0,0,0,1.87-6.36c.65-3.49-2.25-7.45-6.15-6.15l-.44.16a5.32,5.32,0,0,0-1.78.17,24,24,0,0,0-13.1,8.7c-3.37,4.43-5.84,11-.81,15.27,4.42,3.73,10.34,1.82,14-1.89a36.11,36.11,0,0,0,1.78,11.75c.93,2.47,4.07,4.46,6.6,3.51a4.86,4.86,0,0,0,5.16-3.52A30.62,30.62,0,0,0,228.88,549.65Z" transform="translate(-67.25 -167.96)"/>
  <path class="cls-1" d="M148.93,377l-1,0a5.58,5.58,0,0,0-1.23-.1,8,8,0,0,0-2,.33l-.24.07c-6,.79-12.22,3-16.64,7-2.57,2.35-4.14,5.74-2.58,9.11s5.34,4.18,8.78,4a22.27,22.27,0,0,0,16.85-9.12,11.79,11.79,0,0,0,1.47-2.76C155,382.86,153.91,376.94,148.93,377Z" transform="translate(-67.25 -167.96)"/>
  <path class="cls-1" d="M435.61,505.19a16.58,16.58,0,0,0-8.76-10.3,6.18,6.18,0,0,0-3.14-.54,4.91,4.91,0,0,0-4.73.11,5,5,0,0,0-1.79,6.84,25.26,25.26,0,0,0,12.27,10C433,512.79,436.66,508.55,435.61,505.19Z" transform="translate(-67.25 -167.96)"/>
  <path class="cls-1" d="M443.56,488.15a13.56,13.56,0,0,0-7.71-2.26l-.38-.1a5.06,5.06,0,0,0-6.15,3.49c0,.13,0,.26-.06.39a4.6,4.6,0,0,0,0,2.65,5,5,0,0,0,5.3,3.58l5.16,1.39a5,5,0,0,0,3.85-9.14Z" transform="translate(-67.25 -167.96)"/>
  <path class="cls-1" d="M140.67,428.69c-5.31-1.4-11.6,2-12.59,7.63-.44,2.56.69,5.51,3.5,6.15a5.63,5.63,0,0,0,5.18-1.55,9.31,9.31,0,0,0,6.9-4.88C145.07,433.21,144,429.56,140.67,428.69Z" transform="translate(-67.25 -167.96)"/>
  <path class="cls-1" d="M460.7,458.3c-.11-.33-.21-.66-.29-1s-.11-.45-.15-.67a1.81,1.81,0,0,1,0-.19c0-.12,0-.25,0-.37,0-.41,0-.81,0-1.21a5,5,0,0,0-3.07-4.57l-.36-.12a6.23,6.23,0,0,0-1.84-2.14,20.46,20.46,0,0,0-10.19-3.72c-2.91-.34-4.43,1.76-4.68,4.13a13.11,13.11,0,0,1-4.12-.93,3.58,3.58,0,0,0-1.51-.24l-2.52-6.21a5.26,5.26,0,0,0-4.82-3.35,44.25,44.25,0,0,0-15.37-24.47c-.11-.09-.22-.16-.32-.23-2.68-3.91-5.51-7.72-8.45-11.48-5.24-6.71-10.63-13.44-16.36-19.75a22.53,22.53,0,0,0-8.25-6.12c-3-1.22-6.2-1.63-9-3.16a36.78,36.78,0,0,0,2.64-6.71c1-4-.93-8.42-5.13-9.52-3.63-.95-7.09.63-9.48,3.35-.31.36-.59.73-.89,1.1a150.25,150.25,0,0,0-15.87-23.05,4.06,4.06,0,0,0-3.23-1.48,57.48,57.48,0,0,0-6.74-7.6,5.35,5.35,0,0,0,2.4-2l3.4-5.2a5,5,0,0,0-.79-6.05,5.24,5.24,0,0,0-6.06-.79l-1.93,1a4.9,4.9,0,0,0-2.44,4.79l-.81,1.25a4.32,4.32,0,0,0-.66,2.19,22.06,22.06,0,0,0-6.19-2,29.4,29.4,0,0,0,4.83-4.58c2.75-3.28,1-8.41-3.53-8.54a70.78,70.78,0,0,0-23.26,3.26c-1.88-.86-3.8-1.68-5.76-2.41a5,5,0,0,0-4.19.7,4,4,0,0,0-3.91-1.58c-3.84.43-8.82,1.4-12.22-1-3.18-2.24-2.11-5.87-.56-8.87a6.5,6.5,0,0,0,4.22,3.13c6.35,1.52,12-4.56,13.94-10.28a4.8,4.8,0,0,0,1.27-2.14,5.1,5.1,0,0,0-3.49-6.15c-6.07-2.18-12.41,1.82-14.38,7.5-.27.27-.53.55-.77.84a5.39,5.39,0,0,0-1.05-1.14,38.79,38.79,0,0,0,5.06-6.92c1.77-3.2-.42-7.67-4.32-7.52a31.83,31.83,0,0,0-17.8,6.06c-10.68,2.15-18.75,10.14-28,15.61-1.34.8-2.69,1.57-4.06,2.33.09-.27.19-.54.26-.81,1.14-4-3.65-8.14-7.34-5.65a32.35,32.35,0,0,0-12.84,16.68l-4.8,2.32c-10.82-1.13-19.93,4.5-29,9.91q-6,3.56-11.71,7.41a11.66,11.66,0,0,0-10.79,1.22,5.65,5.65,0,0,0-1.49,7.49,286.67,286.67,0,0,0-30.73,26.67c-2.52,2.52-1.56,7.59,2.2,8.36,10.27,2.08,18.66-6.07,27.11-10.68q5.22-2.85,10.62-5.31a8.11,8.11,0,0,0,2.3,4.44c5.2,5.3,15.94,2.94,22.29,1.72h0c2.61,2.6,7.53,3,12.72,2.32q-5.07,6.82-9.63,14a4.33,4.33,0,0,0-.14,4.81,5.61,5.61,0,0,0-.86,1.36A7.1,7.1,0,0,0,173.7,394a.21.21,0,0,1,0,.06c-2.32,3.95,1.36,7.63,4.86,7.45-.75.77-1.51,1.53-2.24,2.32a4.28,4.28,0,0,0-.29.33,102,102,0,0,0-22.4,4.64c-5.63,1.91-13.27,4.26-12.32,11.74.9,7.08,5.91,9.2,11.76,8.8-7.9,9-13,20.61-8.19,32.47,2.56,6.28,7.12,11.63,11.33,16.87a84.09,84.09,0,0,0,14,14.26,38.53,38.53,0,0,0,16.53,7.82c6.4,1.15,12.84.09,19.17-1.11-2.93,3.06-5.75,6.23-8.56,9.28-3.18,3.44-.12,10.08,4.86,8.36a86.75,86.75,0,0,0,38.13-26.18l.51,0a71.7,71.7,0,0,1,8.16.17c1.51.11,3,.24,4.53.41.57,0,1.12.12,1.68.21a4.19,4.19,0,0,0,.56.87l-.33.7a5,5,0,0,0-1.83,1.33c-2.48,2.83-7,9-7.86,14.15a13,13,0,0,0-.13,9.47c1.51,3.95,6.73,5.06,9.14,1.19L266.27,501a4.82,4.82,0,0,0,.76-2.15,5.23,5.23,0,0,0,1.39.57,4.64,4.64,0,0,0,2.89,1l1,0a41.7,41.7,0,0,1,2.14,5.28c1.35,4.29,0,7.8-1.62,11.84a4.45,4.45,0,0,0-.36,2.33,33.89,33.89,0,0,0-4.72,8.39c-2.54,6.6-5,16.43,4.7,18.16,7.41,1.32,16.15-5.36,21.89-9.24s12.15-7.75,16.8-12.9q9-4.05,18-8.21a6.83,6.83,0,0,0-1.26,3.43,25.87,25.87,0,0,0-2.41,3.35,5,5,0,0,0,4.32,7.52c7.57.23,13.8-4.49,16.62-11.31,1.15-2.77-1.81-6.73-4.82-6.33a20.57,20.57,0,0,0-2.13.41,5.6,5.6,0,0,0-2.93-.08l-.66-.11.57-.26c2.33-.66,4.68-1.27,7-1.85a5.44,5.44,0,0,0,7.17,2.87c1.36-.59,2.7-1.22,4-1.87,3.48,3.51,9.78,2,13.67,0,.46-.24.9-.51,1.35-.77,7.84,3.24,17.5,4.81,25.11,1.63a6.32,6.32,0,0,0,3.27-9.23,11.63,11.63,0,0,0-2.39-2.86,67.74,67.74,0,0,0,10.6-6.83c2.37-.69,3.58-2.14,5.64-4.14,2.31-2.24,5.8-2.5,8.5-4.3a17.9,17.9,0,0,0,4.75-5l.06,0c3.4-1.1,7-1.87,9.88-3a104.43,104.43,0,0,0,11.19-5.35,4.67,4.67,0,0,0,4.1-.38,11.68,11.68,0,0,0,5.62-6.84,4.5,4.5,0,0,0,1.24-.19A5.08,5.08,0,0,0,460.7,458.3ZM310.46,363.35l.27.84c-.34.55-.68,1.1-1,1.65Zm-9.64-14.1c.1.46.2.92.27,1.39-.45,1-.91,2-1.37,3C300.08,352.16,300.45,350.71,300.82,349.25ZM279.74,321.2a4.1,4.1,0,0,0,1.11,0,5.53,5.53,0,0,0-.7,2.07,5.5,5.5,0,0,0-.95-1.31A6.42,6.42,0,0,1,279.74,321.2Zm-86.81,55.66c-.38.82-.78,1.62-1.21,2.4h-.45C191.81,378.46,192.37,377.66,192.93,376.86ZM299.26,448c-4.67.88-8.24,5.58-10.82,9.31a43.25,43.25,0,0,0-5.22,10.42,15.28,15.28,0,0,0-2-1.12c-5.82-2.62-10.91,6-5.05,8.63a6.87,6.87,0,0,0-1.53,2.19,4.34,4.34,0,0,0-.86,3,109.19,109.19,0,0,0-17.37-3.09q-6.3-1.17-12.59-2.36l-.16,0a4.23,4.23,0,0,0-1.17-.38,58.84,58.84,0,0,0-16.53-.27,4.31,4.31,0,0,0-5.81.95c-10.26,2.09-20.15,6.25-29.93,10.59a3.92,3.92,0,0,0-2.51,4.56A26.38,26.38,0,0,1,177.57,486c-8.31-5.79-15.48-14.85-20.94-23.29-7.53-11.63-1.33-22.37,7.83-30.8a4.4,4.4,0,0,0,.58-6.15,33.19,33.19,0,0,0,5.37-3.28,76.39,76.39,0,0,0,7.69-1.78c4.1-1.19,4.31-5.85,2.17-8.32a4.55,4.55,0,0,0,3.08-1.53c.63-.68,1.28-1.34,1.93-2a4.91,4.91,0,0,0,3.08,2.58c2.87.78,5.12-1,6.15-3.5.24-.58.44-1.16.63-1.76a4.41,4.41,0,0,0,6.2-.53,8.71,8.71,0,0,0-.16-11.95,8.86,8.86,0,0,0-1.93-1.58,3.68,3.68,0,0,0-.26-.57,4.43,4.43,0,0,0-.5-2.57,5.15,5.15,0,0,0,1.75-2.57,4.72,4.72,0,0,0,.09-2.23,55.42,55.42,0,0,0,3.3-7.16c1-2.53-1.06-5.48-3.49-6.15a4.72,4.72,0,0,0-2.94.1c2.32-3.09,4.74-6.11,7.22-9.07l1.06-.43c2.39-1,2.85-3.26,2.21-5.31a5.63,5.63,0,0,0,0-.58c.74,0,1.48,0,2.23.08,6.43.35,6.41-9.65,0-10-1-.06-2-.09-3.06-.11a5.56,5.56,0,0,0,.73-3.25c5.41-1.55,10.22-4.15,13.87-9.08a3.74,3.74,0,0,0,.32-.49,4.94,4.94,0,0,0,4.15.72,17.7,17.7,0,0,0,5-2.06,5.11,5.11,0,0,0,1.15.1v0c.32,6.41,10.32,6.45,10,0a26.26,26.26,0,0,1,.84-8,4.89,4.89,0,0,0,4.64-.17c.28-.15.53-.31.8-.46a4.89,4.89,0,0,0,7.22,2.87c2,4.18,8.22,3.06,9.35-.81.34.26.69.5,1,.74a53.22,53.22,0,0,0-4,16.79,5.1,5.1,0,0,0,0,.88c0,.6-.07,1.2-.08,1.82,0,2.55,2.32,5.19,5,5a12.68,12.68,0,0,0,2.66-.5c-.06.18-.13.35-.19.53-1.42,4.12,3.77,7.92,7.35,5.65.57-.36,1.11-.75,1.65-1.14l-.33.8c-2.46.92-3.32,3.7-2.58,6.13q-3.54,8.44-7.1,16.89c-2.22,5.27,6.43,8.71,9.14,3.85l6.93-12.45c.4.29.78.59,1.18.87l.08.05q-1.2,6.12-2.23,12.26a5.24,5.24,0,0,0,2,5.23q-.89,2.2-1.76,4.42c-2.35,6.05,7.22,8.46,9.65,2.65.48-1.15,1-2.31,1.45-3.47,1.14,4.24,6.84,4.05,9.05.89,5.35-7.65,10.46-15.45,15.4-23.37a74.94,74.94,0,0,0,9.66,17.35,4.3,4.3,0,0,0,4.74,1.29c-.58,1.79-1.17,3.57-1.75,5.36-.69,1.61-1.35,3.23-2,4.88a4.44,4.44,0,0,0-.27,2q-1.92,5.85-3.87,11.7-2.1,3.18-4.14,6.4a5,5,0,0,0-5.55,2.17A221.17,221.17,0,0,0,299.26,448Zm16.66,56.54c-.07-.21-.14-.42-.22-.63a4.69,4.69,0,0,0,0-.75c.21,0,.41.07.62.09a5.51,5.51,0,0,0,.54.73Zm6.35-17.14q-4.69,3.88-9.51,7.62a4.11,4.11,0,0,0-1.75,2.9,9.55,9.55,0,0,0-.85-.51,88.67,88.67,0,0,0,6.52-8.55,121.23,121.23,0,0,0,11.59-12Zm23.87-7.11-1.28.55c1.2-1.12,2.38-2.25,3.57-3.39C347.66,478.36,346.89,479.3,346.14,480.25Zm17.14-64.62a20.09,20.09,0,0,1,2.69-4.7C365.07,412.49,364.18,414.06,363.28,415.63Zm-.72-14.69c-3.75,2.12-5.79,5.56-7.7,9.28q-7.8,15.24-16.68,29.87-1.87,3.07-3.8,6.12c-3.88,1.06-8,4.36-11.59,7.78q3.56-6.12,6.83-12.41a5.31,5.31,0,0,0-1.14-6.12c.37-1,.77-2,1.17-3a236.34,236.34,0,0,0,12.82-21.31l-.23,1.06c-1.36,6.31,7.55,8.75,9.64,2.66A51.28,51.28,0,0,0,354.45,403c.08-.36.15-.72.23-1.08a13.17,13.17,0,0,0,5.5-3.35,15.49,15.49,0,0,0,3.75-7,38.81,38.81,0,0,1,10.4,3.79,5.37,5.37,0,0,0-3.1,2.77C368.34,399,365.25,399.43,362.56,400.94Zm17.79,19a4.76,4.76,0,0,0-7.13-.34l-1.63,1.63,5.1-8.93a5.12,5.12,0,0,0,.38,1c1.09,2.15,2.22,4.3,3.4,6.39Z" transform="translate(-67.25 -167.96)"/>
  <path class="cls-18" d="M514.32,218.3c-5.78-5.37-13.13-9.42-19.62-13.87-5.37-3.68-10.15,4.9-5,8.63a53.75,53.75,0,0,1,16.2,19.14c-7.24.88-13.64-5-18.71-11.12a140.39,140.39,0,0,0-11.07-16.38c-7.13-8.78-17.28-19.89-29.21-21.23a18.61,18.61,0,0,0-10.19,1.75,15.16,15.16,0,0,0-7.6,2.78c-6.35,4.66-4.24,10.65-.18,15.8,3.39,10.5,15.21,18.3,22.85,25.22,4.55,4.13,9.51,8.15,13.22,13.09,1.73,2.3,8.46,15.71,1.21,14.63a2.13,2.13,0,0,1-.42-.1c-.91-.95-1.73-1.84-2.4-2.51-5.1-5.07-9.87-10.48-14.62-15.88-8.22-9.34-16.42-18.79-26.12-26.65l-.3-.25c-.49-.44-1-.9-1.45-1.33-8.63-7.68-19.18-14.72-30.78-16.68a23.31,23.31,0,0,0-9.27.16,16.23,16.23,0,0,0-9.57,2.79c-5,3.59-6.18,9.5-3.83,14.94a3.91,3.91,0,0,0,3.63,2.61c3.12,5.1,11.28.16,8.41-5.42-1-2,.51-3.71,2.3-4.66a56.87,56.87,0,0,1,8.31,1.17,62.6,62.6,0,0,1,16.49,7.37,89.41,89.41,0,0,1,9.65,6.95,205.06,205.06,0,0,1,14.54,15.69c7.14,8.28,14.1,16.78,22.21,24.15a48.3,48.3,0,0,0,7,5.65c5.88,5.29,14.44,11.06,22.1,6.4,9.53-5.8,4-19.7.54-27.47a67.86,67.86,0,0,0-20.21-25.61c-8.05-6.35-17.34-11.4-24.39-18.95a4.45,4.45,0,0,1,1.39-3.91,26,26,0,0,1,4.45.88A40.08,40.08,0,0,1,458.69,204c6.7,5.43,13.17,14.81,20.32,22.93,2.57,4.25,5.34,8.42,9.14,11.64,9.27,7.85,26.18,9.11,30.77-4.82C520.82,228,518.65,222.33,514.32,218.3Z" transform="translate(-67.25 -167.96)"/>
  <path class="cls-19" d="M297.84,419l-22-13.93q3.21-7.39,6.32-14.84a3.92,3.92,0,0,0-1.94-5.35,5.22,5.22,0,0,0-1.69-1.84l9.32-24.48c2.29-6-7.37-8.63-9.64-2.66q-4,10.55-8,21.08a5.42,5.42,0,0,0-5.12-4.25,40.42,40.42,0,0,0-1.55-4.2c-1.18-2.79-2.59-5.51-3.54-8.33q-.57-2.78-1.07-5.57a15.17,15.17,0,0,1,.12-2.22,3.92,3.92,0,0,0-1.33-3.78c-2.2-4.26-10-1.51-9.16,4.21.11.73.23,1.46.35,2.19a24.87,24.87,0,0,0,1.41,7.64q1.71,8.42,4.15,16.66a210.26,210.26,0,0,0-15.8,14.33l-.43,0a73.59,73.59,0,0,0,3.63-15.34c.73-6.38-9.27-6.33-10,0a66.19,66.19,0,0,1-3.64,14.8c-1.8-1.07-3.59-2.16-5.36-3.29-5.43-3.48-10.45,5.17-5,8.63,2.18,1.41,4.41,2.74,6.65,4-.3.71-.61,1.43-.92,2.14-1.27-.43-2.54-.83-3.81-1.23a21.24,21.24,0,0,0-10.61-4.29l-.36,0q-.81-.45-1.59-1c-5.38-3.56-10.4,5.1-5,8.63,4,2.66,8.54,4.05,13.07,5.46.64.53,1.25,1.06,1.86,1.57q-9.87,6.94-19.09,14.83c-4.26,3.64,1.48,11.26,6.06,7.85,3.43-2.55,7-4.94,10.62-7.15a4.91,4.91,0,0,0,3.05,4.74c-1.95,4.47-4.13,10-4.09,14.79a5.16,5.16,0,0,0-5.82-3.26L183.47,450c-6.32,1.14-3.64,10.78,2.66,9.64l24.31-4.4a4,4,0,0,0,3.53-3.32c.76,3,2.77,5.59,6.81,7.18,12.09,4.76,14.28-12,15.95-19.66.93-4.24,1.78-8.49,2.59-12.75q3.06,1.11,6.18,2a4.66,4.66,0,0,0,4.12-.63c-.63,1.61-1.26,3.22-1.86,4.84-1.58,4.29-3.84,10.05,1.41,12.78,3.89,2,7.66-.55,9.69-3.91,1.14-1.89,2.16-3.87,3.14-5.9,3,2.81,6.26,5.44,9.23,8.42,5.35,5.35,8,13,15.88,15.19,1.93.54,4.78-.32,5.65-2.3,3.26-7.38-.62-12.76-6.56-17.19a161.73,161.73,0,0,1-18.72-16.23q1.61-3.47,3.18-6.94a56.35,56.35,0,0,0,4.48,3.84,40.89,40.89,0,0,0,20.17,7.7C300.57,429,301.64,421.44,297.84,419Zm-43.68-1.9c-.89,2-1.75,4.06-2.6,6.1a5.26,5.26,0,0,0-2.2-3.7c-2.57-1.83-5.15-3.67-7.78-5.44.15-.88.28-1.77.42-2.65q6.13,2.71,12.49,5Zm2.23-14c-.24-.17-.49-.33-.74-.49l.75-.37A5,5,0,0,0,256.39,403.1ZM265,390.56a5.22,5.22,0,0,0-3.7-1.18l1.43-1.45a4.24,4.24,0,0,0,2.79-2.84c.89-.93,1.77-1.88,2.64-2.83C267.15,385,266.09,387.79,265,390.56Z" transform="translate(-67.25 -167.96)"/>
  <path class="cls-19" d="M312.33,409.16a52.46,52.46,0,0,0-18.47-16.07,4.81,4.81,0,0,0-5-1.68c-4.62.26-7.62,6.88-2.59,9.1l.86.41A45.9,45.9,0,0,0,305.48,416C309.49,417.8,315.61,413.67,312.33,409.16Z" transform="translate(-67.25 -167.96)"/>
  <path class="cls-19" d="M327,398.42c-2.18-1.28-5.66-.65-6.84,1.79a56.21,56.21,0,0,0-4.42,12.63,5.11,5.11,0,0,0,3.49,6.15,5.06,5.06,0,0,0,6.15-3.49,45.66,45.66,0,0,1,3.42-10.24A5.14,5.14,0,0,0,327,398.42Z" transform="translate(-67.25 -167.96)"/>
  <path class="cls-19" d="M258.69,456.83a5.14,5.14,0,0,0-6.15-3.49,14.66,14.66,0,0,0-9.8,6.87,5,5,0,1,0,8.63,5l.26-.39c-.22.34.15-.19.31-.35s.4-.36.59-.55h0l.11-.06c.24-.13.47-.27.7-.41l.09-.05a11.77,11.77,0,0,1,1.77-.45C257.78,462.54,259.46,459.22,258.69,456.83Z" transform="translate(-67.25 -167.96)"/>
  <path class="cls-20" d="M258,404.71q-2.22,9.32-4.45,18.62a4.66,4.66,0,0,0-2.06-2q-7.82-4.12-15.39-8.64c.37-1.53.75-3,1.14-4.56,1.6-6.24-8-8.9-9.64-2.66l-.44,1.73-2.37-1.49c-5.42-3.5-10.44,5.15-5,8.63,1.66,1.07,3.33,2.11,5,3.15q-2.49,11.42-4.16,23c-.9,6.29,8.73,9,9.64,2.66q1.47-10.17,3.57-20.21,6.24,3.63,12.64,7a4.82,4.82,0,0,0,5.71-.73c-.51,2.12-1,4.24-1.52,6.37-1.49,6.25,8.15,8.92,9.64,2.65l7.38-30.85C269.11,401.11,259.47,398.44,258,404.71Z" transform="translate(-67.25 -167.96)"/>
  <path class="cls-20" d="M262.63,382.48c-1.73-1.77-5.39-2.1-7.07,0a75.22,75.22,0,0,1-15.79,14.91c-5.25,3.64-.26,12.31,5,8.63a83.92,83.92,0,0,0,17.81-16.47C264.33,387.43,264.67,384.56,262.63,382.48Z" transform="translate(-67.25 -167.96)"/>
  <path class="cls-20" d="M264.27,374.38A42.47,42.47,0,0,0,260,359.56c-1.21-2.42-4.61-3.1-6.84-1.8a5.1,5.1,0,0,0-1.79,6.84,28.87,28.87,0,0,1,3,9.78c.3,2.68,2.09,5,5,5C261.75,379.38,264.57,377.08,264.27,374.38Z" transform="translate(-67.25 -167.96)"/>
  <path class="cls-20" d="M217.26,446.28a5.1,5.1,0,0,0-6.15-3.49l-12.19,2.39c-2.65.51-4.17,3.68-3.49,6.15a5.11,5.11,0,0,0,6.15,3.49l12.19-2.39C216.42,451.91,217.94,448.74,217.26,446.28Z" transform="translate(-67.25 -167.96)"/>
  <path class="cls-20" d="M276.42,367.27a188.1,188.1,0,0,0-5.55,28.21c-.77,6.38,9.24,6.32,10,0a171.16,171.16,0,0,1,5.19-25.55C287.81,363.72,278.16,361.07,276.42,367.27Z" transform="translate(-67.25 -167.96)"/>
  <path class="cls-20" d="M281.69,437.52l-10.45-8.27c-2.11-1.68-5-2.07-7.07,0-1.74,1.74-2.13,5.38,0,7.07q5.22,4.14,10.45,8.27c2.11,1.68,5,2.07,7.07,0C283.43,442.85,283.81,439.21,281.69,437.52Z" transform="translate(-67.25 -167.96)"/>
  <path class="cls-20" d="M303.68,400.07a24.88,24.88,0,0,0-8.7-5.33c-2.46-.9-5.59,1-6.15,3.5a5.13,5.13,0,0,0,3.49,6.15l.33.12.44.21a15.53,15.53,0,0,1,1.5.83c.12.08.86.61,1,.68.35.3.7.6,1,.91a5,5,0,0,0,7.07-7.07Z" transform="translate(-67.25 -167.96)"/>
  <path class="cls-9" d="M621.51,339.84c-.92,5.59-1.42,11.49-3.15,16.91-2.29,7.18-7.42,7.06-14.1,6.62l-21-1.4c-2.11-.14-17.72-.21-14.84-5.32,3.17-5.61-5.47-10.66-8.63-5-4.11,7.28.35,15.42,7.7,18.23,4.39,1.67,9.23,1.71,13.86,2L598.53,373c8.88.59,18.93,2.35,25.3-5.38,5.59-6.77,6-16.83,7.32-25.12C632.19,336.2,622.55,333.49,621.51,339.84Z" transform="translate(-67.25 -167.96)"/>
  <path class="cls-9" d="M509.8,399.06c-2.94,1.51-6.9-.11-7.29-3.63-.29-2.68-2.08-5-5-5-2.47,0-5.29,2.3-5,5,1.22,11.13,12.18,17.47,22.34,12.27C520.58,404.77,515.52,396.13,509.8,399.06Z" transform="translate(-67.25 -167.96)"/>
  <path class="cls-9" d="M545.67,360.1c-1.29-6.31-10.93-3.64-9.65,2.65a33.68,33.68,0,0,1-6.21,26.95c-3.81,5.2,4.87,10.2,8.63,5.05A43.46,43.46,0,0,0,545.67,360.1Z" transform="translate(-67.25 -167.96)"/>
  <path class="cls-9" d="M590.61,350a3.78,3.78,0,0,0-1.29-1.4,3.72,3.72,0,0,0-1.7-.89,3.76,3.76,0,0,0-1.59-.16,5.25,5.25,0,0,0-1.62.16l-1.19.51a5.06,5.06,0,0,0-1.8,1.79,5.88,5.88,0,0,0-.53,1.27,5.79,5.79,0,0,0,.51,3.94,4.24,4.24,0,0,0,.82,1.06c.06.06.95.75,1,.8l0,0c.09.05.5.22.7.3a4.81,4.81,0,0,0,.55.22,5.35,5.35,0,0,0,1.49.2,6.78,6.78,0,0,0,.74-.09,5.31,5.31,0,0,0,.74-.11,4.5,4.5,0,0,0,1.26-.53l0,0,1-.78h0a5.65,5.65,0,0,0,.41-.53c.2-.26.28-.34.4-.53a3.59,3.59,0,0,0,.51-1.21v0l.18-1.33A5.21,5.21,0,0,0,590.61,350Z" transform="translate(-67.25 -167.96)"/>
  <path class="cls-9" d="M606.28,324a5.07,5.07,0,0,0-1.28-2.21l-.76-.75a3.71,3.71,0,0,0-1.61-1,4.52,4.52,0,0,0-3.85,0,3.71,3.71,0,0,0-1.61,1l-.78,1a5,5,0,0,0-.68,2.52c.06.45.12.89.17,1.33a5.05,5.05,0,0,0,1.29,2.21l.75.75a5.13,5.13,0,0,0,7.08,0l.78-1a5,5,0,0,0,.68-2.52Z" transform="translate(-67.25 -167.96)"/>
  <path class="cls-9" d="M521.57,375.36c-6.44,0-6.45,10,0,10S528,375.36,521.57,375.36Z" transform="translate(-67.25 -167.96)"/>
  <path class="cls-21" d="M623.17,330.62c-.19-6.42-10.19-6.45-10,0,.15,5.18,2,21.42-4.78,22.94a4.3,4.3,0,0,0-3.26,2.64c-8.13.59-16.87,2.05-25,1.19-3.12-.33-7.41-1.11-7.06-5,.32-3.46,2.89-5.82,5.85-7.2,5.83-2.7.75-11.33-5.05-8.63-9,4.18-15.41,18.08-7,25.95,4.33,4.05,10.74,5,16.43,5,7.54,0,15.15-.87,22.67-1.36a4.88,4.88,0,0,0,4.25-2.82,5.36,5.36,0,0,0,.76-.11C624.75,360.13,623.48,341.32,623.17,330.62Z" transform="translate(-67.25 -167.96)"/>
  <path class="cls-21" d="M531.34,372.81c-1.63,6.41-3.5,14.7-10.13,17.55a4.46,4.46,0,0,0-4,1.45,10.88,10.88,0,0,1-5.25,3.24,8.71,8.71,0,0,1-2.78.36h-.23a6.54,6.54,0,0,0-.17-1.51,5,5,0,0,0-4.82-3.67h-.12a3.78,3.78,0,0,0-2.15.52A6.25,6.25,0,0,0,498,397c.23,3.68,3.2,6.49,6.53,7.68,6.05,2.15,13.09-.19,17.95-4.2l.06,0c11.49-3.37,15.72-14.41,18.43-25C542.58,369.23,532.94,366.57,531.34,372.81Z" transform="translate(-67.25 -167.96)"/>
  <path class="cls-22" d="M477.21,292.14a5.12,5.12,0,0,0-7.07,0c-14.51,13.32-26.47,29-38.66,44.41l-40.2,50.73L311.52,488l-23.06,29.11q34.85-50.34,70.22-100.29,29.15-38.28,60.38-74.91,10.85-12.71,21.92-25.19c6-6.79,13.75-15.32,9.93-25.09-.73-1.86-2.53-4-4.83-3.68-8,1-12,6.81-16.43,12.94q-9,12.34-17.91,24.69-17.58,24.32-35,48.73-13.06,18.27-26,36.61-24.72,32.46-47.93,66.05Q285.65,501.67,269.45,527a1.88,1.88,0,0,1-.16.23c-.11.17-.21.34-.3.5-1,1.63-2.1,3.24-3.13,4.87-2.39,3.76,1,7.32,4.45,7.38l-3.93,4.95c-3.95,5,3.08,12.12,7.08,7.07L311,504.58a4.71,4.71,0,0,0,1.7-1.33l141-169.06,19.78-23.72C477.62,305.57,483.64,297.86,477.21,292.14Z" transform="translate(-67.25 -167.96)"/>
  <path class="cls-23" d="M462.44,299.23c-48.23,64.56-99.18,127-150.69,189Q299.9,502.46,288,516.67,344.78,431.17,407.7,350q20-25.81,40.69-51.15c4-4.95-3-12.06-7.07-7.07q-73.38,90.1-139.16,186Q283.43,505.19,265.34,533c-2.11,3.24.16,6.35,3.08,7.15l-.27.32c-4.1,4.91,2.93,12,7.07,7.07,52.16-62.39,104.34-124.81,154.36-188.95q21-26.94,41.49-54.31C474.93,299.11,466.25,294.12,462.44,299.23Z" transform="translate(-67.25 -167.96)"/>
  <path class="cls-24" d="M390.77,391.65l-28.93,36.26c-4,5,3.06,12.1,7.07,7.07l28.93-36.26C401.82,393.74,394.79,386.62,390.77,391.65Z" transform="translate(-67.25 -167.96)"/>
  <path class="cls-24" d="M371.56,382.41A363.76,363.76,0,0,1,349.17,413c-4,4.95,3,12.06,7.07,7.07a389.1,389.1,0,0,0,24-32.58C383.74,382.07,375.09,377.05,371.56,382.41Z" transform="translate(-67.25 -167.96)"/>
  <path class="cls-25" d="M605.2,452.8c-96.83,47.63-194.3,95.53-297.87,126.88q-26.49,8-53.4,14.43l-16.29,1.35a4.85,4.85,0,0,0-4.78.4l-.54,0c-5.25.43-14.27-.22-16.21,6.36a5.91,5.91,0,0,0,0,3.54c0,.18-.06.35-.08.52a64.56,64.56,0,0,0,2.75,26.26c.22,1.79.48,3.57.81,5.35,1.22,6.6,2.92,15,8,19.93,9.73,9.43,28.23,2,39-1.53,29.85-9.64,57.58-25.4,85.37-39.71C409.14,587.2,466,557,520.65,523c30.78-19.16,60.79-39.56,89.6-61.58C615.28,457.59,611.11,449.89,605.2,452.8Z" transform="translate(-67.25 -167.96)"/>
  <path class="cls-26" d="M646.81,405.41a104.45,104.45,0,0,1-20.63,23.17c-3.87,3.25.27,9.8,4.87,8.36a33.23,33.23,0,0,0,22.51-23.69c.64-.93,1.27-1.85,1.89-2.79C659,405.05,650.31,400,646.81,405.41Z" transform="translate(-67.25 -167.96)"/>
  <path class="cls-26" d="M439.44,549.07c-6.09-6.26-17.81,2.58-15.57,10.51,1.08,3.79,5.11,6,8.89,5.72a14,14,0,0,0,10.05-6.78A6.79,6.79,0,0,0,439.44,549.07Z" transform="translate(-67.25 -167.96)"/>
  <path class="cls-26" d="M476.83,538.65a5.45,5.45,0,0,0-3-2.3,5.51,5.51,0,0,0-1-.18,7.41,7.41,0,0,0-1-.11,6.5,6.5,0,0,0-1.95.3,6.78,6.78,0,0,0-1.71.78,7.22,7.22,0,0,0-2.19,2.21,3.66,3.66,0,0,0-.6,1.86,3.75,3.75,0,0,0,.09,2,5.11,5.11,0,0,0,2.3,3,5,5,0,0,0,3.85.5l1.2-.5.07-.05a5.45,5.45,0,0,0,2.1-.65,5.12,5.12,0,0,0,2.29-3A5.07,5.07,0,0,0,476.83,538.65Z" transform="translate(-67.25 -167.96)"/>
  <path class="cls-26" d="M126.12,549.42c-3.62-16.6-14.76-31.19-15.88-48.37a5.14,5.14,0,0,0-5.66-4.79c-2.5-3.23-9-2.24-9,3a96.09,96.09,0,0,0,6.67,35.48c3.58,8.93,8.28,17.39,17.76,20.86C123.78,557,126.87,552.83,126.12,549.42Z" transform="translate(-67.25 -167.96)"/>
  <path class="cls-26" d="M611.94,243.35c-3.25-5.07-7.48-9.75-11.15-14.53-1.66-2.16-4.29-3.25-6.85-1.79a5,5,0,0,0-1.93,2.14,4.35,4.35,0,0,0-2,5.33,39.64,39.64,0,0,0,6.85,12.87c2.67,3.32,6.51,7.75,11.24,7.13C613.88,253.74,614.56,247.44,611.94,243.35Z" transform="translate(-67.25 -167.96)"/>
  <path class="cls-26" d="M622.92,262.81a3.8,3.8,0,0,0-1-1.61,3.71,3.71,0,0,0-1.61-1,3.84,3.84,0,0,0-1.92-.43l-1.33.18a5,5,0,0,0-2.21,1.29l-.78,1a5,5,0,0,0-.68,2.52v1a3.64,3.64,0,0,0,.43,1.92,4.45,4.45,0,0,0,2.64,2.64,3.78,3.78,0,0,0,1.93.44l1.33-.18a5,5,0,0,0,2.2-1.29l.78-1a5,5,0,0,0,.69-2.52v-1A3.82,3.82,0,0,0,622.92,262.81Z" transform="translate(-67.25 -167.96)"/>
  <path class="cls-1" d="M597.32,328.57c-1.47-2.51-4.38-2.94-6.84-1.79a23.86,23.86,0,0,0-13.23,17.38c-.44,2.66.7,5.38,3.5,6.15,2.39.66,5.7-.82,6.15-3.49a14.7,14.7,0,0,1,8.63-11.41C598,334.27,598.6,330.75,597.32,328.57Z" transform="translate(-67.25 -167.96)"/>
  <path class="cls-1" d="M524.31,393.31a5.08,5.08,0,0,0-6.84-1.8c-.83.46,0,.13-.79.38a7.37,7.37,0,0,1-1,.28c.35,0,.35,0,0,0a4.59,4.59,0,0,1-2.68-.33,5,5,0,0,0-6.15,3.49,5.1,5.1,0,0,0,3.49,6.15,15.56,15.56,0,0,0,12.23-1.34A5.07,5.07,0,0,0,524.31,393.31Z" transform="translate(-67.25 -167.96)"/>
  <path class="cls-27" d="M86.76,393.76a219.87,219.87,0,0,0-6.25,64.59c.34,6.4,10.34,6.44,10,0a210.29,210.29,0,0,1,5.89-61.93C98,390.17,88.31,387.51,86.76,393.76Z" transform="translate(-67.25 -167.96)"/>
  <path class="cls-28" d="M519.82,221.76c-1,6.37-7.06,10.07-13.32,9.78-7.77-.37-14.19-6.2-19.05-11.74C478,209,470.76,195,456.18,190.25c-5.52-1.79-13.73-1.17-15.43,5.58s6.09,14.77,10.14,19.55c5.34,6.32,11.43,12.13,15.64,19.31A34.92,34.92,0,0,1,471,246c.31,1.66.93,6.82,0,9.69a39.45,39.45,0,0,1-4.81-5,96.32,96.32,0,0,1-6.49-8c-3.69-5-7.12-10.24-10.8-15.27-7.91-10.79-17-19.54-28.66-26.24-10.83-6.23-25.41-15.06-38.42-11.69-10.58,2.73-18,14.72-12.47,24.88,3.08,5.65,11.71.61,8.63-5.05-2.13-3.91,1.65-8.42,5.25-9.83,6.35-2.49,14.14,1.3,19.77,4,10.31,4.92,20.57,10.44,28.65,18.66,7.72,7.86,13.34,17.41,19.87,26.21A108.44,108.44,0,0,0,461.28,260c3.35,3.39,7.73,8.21,13,6.4,3.92-1.33,5.57-6.09,6.4-9.73a32.35,32.35,0,0,0-.8-16.34c-3.17-10.62-10.37-18.94-17.59-27a97.67,97.67,0,0,1-9.95-12.45l-.84-1.36a8.51,8.51,0,0,1,1.34.22,21.89,21.89,0,0,1,7.44,3.88c8,6.05,13.14,15.2,19.59,22.72,7.07,8.25,17.08,15.84,28.51,15.21,9.7-.54,19.51-7,21.08-17.07C530.45,218.12,520.81,215.41,519.82,221.76Z" transform="translate(-67.25 -167.96)"/>
  <path class="cls-1" d="M337.58,396.91a4.73,4.73,0,0,0-3.58-5.15c-5-1-8.53,1.05-11.53,4.21-1.82-1.28-4.3-1.53-6,.37.87-1.26,1.75-2.51,2.61-3.77,3.2-4.68-4-10.25-7.85-6.06-.6.66-1.19,1.33-1.79,2,.8-3.29.94-6.59-.73-9.16-4.58-7-12-2.64-18.47,3.62a4.27,4.27,0,0,0-2.84,1.52l-3.93,4.59L294.06,370c2.62-4.71-2.47-8.74-6.84-6.84-.32.14-.61.29-.91.44l8.23-9.6c4.14-4.83-2.58-11.79-7.07-7.07l-.49.53c-.91-3.5-6.61-5.46-9.41-1.47q-3.76,5.39-7.57,10.75s0-.1,0-.15q2.94-4.69,5.89-9.4c3-4.86-3.85-10-7.85-6.06-.66.65-1.3,1.32-1.94,2,.51-.82,1-1.63,1.55-2.45,1.95-3.1-.56-7.75-4.32-7.53-8.51.51-13.06,8.42-17.79,14.56q-8.17,10.6-15.62,21.75-5.94,8.91-11.35,18.14c0-4.51-7.17-7.17-9.36-2.46l-2.9,6.2a4.45,4.45,0,0,0-2.91,1.42,78.75,78.75,0,0,0-7.71,11.17,4.72,4.72,0,0,0-5,2.37c-.59,1.32-1.15,2.64-1.72,4a4.69,4.69,0,0,0-.47-.42c.85-2.14,1.71-4.29,2.53-6.44,2.06-5.37-6.38-8.67-9.14-3.86A60.68,60.68,0,0,0,176,414a12.81,12.81,0,0,0-8.4,3.93c-3.75,3.84-4.37,9.12-4.08,14.23a4.45,4.45,0,0,0-4.92,1.21A31.05,31.05,0,0,0,151.21,450c-.53,4.74.08,11.25,5.59,12.79a3.81,3.81,0,0,0,2.84,3,22.31,22.31,0,0,0,5.06,8.35,20.94,20.94,0,0,0,2.83,5.16c2.46,3.26,5.77,7.33,10,7.75a10.79,10.79,0,0,0,6.8,6.28c5.48,1.79,10.69-.8,15.24-3.7,8.71-5.53,17.34-11.2,26-16.86-.12,4.16,5,7.89,8.37,4,1.46-1.68,2.87-3.39,4.26-5.12a6.6,6.6,0,0,0,5.11,6.74,11.15,11.15,0,0,0,6,0,5,5,0,0,0,2,1.08,43.41,43.41,0,0,0,9.32,1.49,5.21,5.21,0,0,0,5.17,1.58,19.13,19.13,0,0,0,2.59-1c.88.26,1.76.54,2.64.85,4,1.41,6.67-2.74,6.15-6.15a12,12,0,0,1-.07-2.93,16.33,16.33,0,0,0,1.34-3.62,3.9,3.9,0,0,0,3.85-1.53l3.05-3.94a4.93,4.93,0,0,0,1.29-1.09c.87-1,1.74-2.05,2.62-3.07a4.68,4.68,0,0,0,1.26,2.17,5,5,0,0,0,3.54,1.47,5.32,5.32,0,0,0,2.85-1,5.08,5.08,0,0,0,2.78-2.17l1.77-2.8a5,5,0,0,0,.33-4.25,357.91,357.91,0,0,0,26.6-38.95c2.94-3.72,5.94-7.4,9-11A5.11,5.11,0,0,0,337.58,396.91ZM206.13,461c-.72.07-1.48.16-2.26.28a9,9,0,0,1-1.67-1.5l-.34-.45c.71-.89,1.39-1.8,2-2.74.92,0,1.83.06,2.74,0C206.41,458.11,206.26,459.56,206.13,461Zm60.47-22.54-1,1.84a3.33,3.33,0,0,0-.76.08Zm-4.86,20.32a5.59,5.59,0,0,0-3-2.08q2.64-1.92,5.23-3.88a5.2,5.2,0,0,0,2.8.93A70.47,70.47,0,0,1,261.74,458.8Z" transform="translate(-67.25 -167.96)"/>
</svg>
