<svg xmlns="http://www.w3.org/2000/svg" viewBox="0 0 358.73 419.13">
  <defs>
    <style>
      .cls-1, .cls-2, .cls-7 {
        fill: #5f2800;
      }

      .cls-1 {
        stroke: #f80;
      }

      .cls-1, .cls-2, .cls-3, .cls-4, .cls-5 {
        stroke-miterlimit: 10;
      }

      .cls-2, .cls-3, .cls-4, .cls-5 {
        stroke: #ff9d1f;
      }

      .cls-3 {
        fill: #aa7200;
      }

      .cls-4 {
        fill: #3f2200;
      }

      .cls-5 {
        fill: #554000;
      }

      .cls-6 {
        fill: #b46a00;
      }

      .cls-8 {
        fill: #df8300;
      }

      .cls-9 {
        fill: #f4a500;
      }

      .cls-10 {
        fill: #ffba2a;
      }

      .cls-11 {
        fill: #ffd200;
      }
    </style>
  </defs>
  <title>paper-bag</title>
  <g id="Layer_1" data-name="Layer 1">
    <path class="cls-1" d="M404.21,368c-1.93-19.57-7.68-38.42-11.28-57.69-3.95-21.18-2.73-42.19-1.14-63.54a296.53,296.53,0,0,0-1.41-62.47c-1.41-10.53-2.95-21.07-3.43-31.7-.47-10.38.21-20.76.65-31.13.24-5.53,1.87-14.26-.77-20.1,1.87-1.75,2.5-4.62-.05-6.71-13.17-10.89-29.41-15.07-45.71-18.93-16-3.79-32.8-8.12-44.07-20.94-1.53-1.75-4.14-1.71-6.06-.78a66.7,66.7,0,0,1-21.51,6.39c-7.61.88-14.84.91-22,3.93l-.84.39-16-17.13-8.62-9.22c-2.41-2.57-4.78-5.89-8-7.5s-7-1.08-10.53-.68q-6.83.78-13.64,1.61-12.84,1.56-25.66,3.31-26.25,3.59-52.37,8c-6.77,1.14-16.26,1.1-22,5.23-6,4.31-4.13,11.11-.27,16.2,6.5,8.57,16.3,13.4,24.65,19.82-2.57.15-5.14.3-7.71.47-9.16.57-16.87.8-25.51-2.69a69.52,69.52,0,0,0-25.42-5.6h-.18c-.61-.27-1.22-.55-1.84-.8-2.82-1.15-6.67,1.8-6.33,4.82C50,106,63.31,128.35,67.64,153.39c2.4,13.86.8,28-.88,41.85s-3,27.71-3.54,41.67c-1.06,28.44.36,56.88,2,85.26q1.27,21.51,2.59,43c.72,12,1.14,23.62,9.82,32.84s21,13.52,32.15,18.45l44.27,19.59a5.13,5.13,0,0,0,3.32.34,25.58,25.58,0,0,0,2.4,2.63c11.83,11.24,30.13,9.14,44.93,7.57q62.61-6.64,124.52-18.54Q345,425,360.71,421.58c9.82-2.14,20.31-3.68,29.81-7,8.3-2.92,11.21-9.65,12.71-17.8A102.51,102.51,0,0,0,404.21,368ZM295.42,67.17c10.38,8.78,23.7,13.37,36.84,16.68,13.54,3.42,28.11,5.87,40.31,12.93-5.14,1.47-10.21,3.3-15.3,4.93q-26.86,8.64-53.73,17.27a221.17,221.17,0,0,0-4.07-26C297.66,84.83,293.4,75.59,295.42,67.17ZM211.05,41.43c.34.32.71.7,1.13,1.15,3.11,3.3,6.19,6.61,9.29,9.92l15.87,17a78.22,78.22,0,0,1-9.15,4.48c-1.43.56-2.9,1-4.37,1.47a5.78,5.78,0,0,0-.43-1,78.8,78.8,0,0,0-16.82-20.58C208.73,50.38,209.9,45.66,211.05,41.43Zm2.56,36.17c-2.54.37-5.1.66-7.65.88-13.69,1.18-27.41,2.11-41.14,2.94a5.08,5.08,0,0,0-2-5.73c-3-2.13-4.89-5.46-7.37-8.18l34.73-7c2.18-.44,4.8-.69,7.33-1.21A71,71,0,0,1,213.61,77.6ZM114.36,52.71q14-2.35,28.09-4.49,28.44-4.3,57-7.61l1.23-.17-.76,2.28c-.32,1-1.45,5.7-1.75,6-1.37,1.25-6.93,1.42-8.75,1.79l-8.59,1.73-35.34,7.11a4.27,4.27,0,0,0-3.09,2.16c-1.9-.29-3.82-.5-5.7-.77-11-1.56-22.42-2.37-32.88-6.2Q109.1,53.59,114.36,52.71ZM103.48,64.79c8.64,2.64,17.61,3.73,26.7,5,5.07.72,13.23.44,17.39,3.82,3,2.42,4.9,5.65,7.53,8.36l-27.36,1.54C120.48,76.22,111.27,71.5,103.48,64.79ZM79,92.06c7.42,3,14.45,3.51,22.39,3q11.16-.67,22.32-1.38a5.7,5.7,0,0,0,7.53-.48l21.95-1.39c16.7-1,33.42-1.91,50.1-3.16,7.56-.57,15.2-1.38,22.52-3.44s13.57-5.64,20.12-9.15a41,41,0,0,1,12.46-4.73c4.5-.77,9.12-.71,13.65-1.32A73.92,73.92,0,0,0,285.25,67c-1.2,7.9,1.37,15.55,3.31,23.3a201.76,201.76,0,0,1,5.07,29.59,5.34,5.34,0,0,0,.63,2.08,207.1,207.1,0,0,1-27.8,7.31c-10.41,1.79-20.85,1.33-31.31.29-9.9-1-19.83-2.4-29.81-2.12s-19.72,2.75-29.45,5.18c-10,2.51-20,4.24-30.29,2.22C136.18,133,127.34,129,119,124.4A160.7,160.7,0,0,1,94.6,107.92C88.14,102.61,82.32,96.63,76.18,91Zm75.56,299.53c-1.59,10.22-4.48,22.17-2.52,32.69L121.94,411c-10.56-4.68-22.06-8.69-31.62-15.28-4.25-2.92-8-6.67-10-11.53-2.34-5.91-2.13-12.74-2.5-19q-1.25-20.52-2.47-41.05c-1.63-27.4-3.07-54.86-2.31-82.32q.59-21,3.12-41.82c1.61-13.24,3.44-26.59,2.32-39.94-2.09-24.75-15-46.68-20-70.64C70.5,97,80,109.15,91,117.74,101,125.6,112.12,133,124,138.23a4.28,4.28,0,0,0-1.72,5.2c13.17,39.77,26.41,79.79,32.91,121.3C161.72,306.62,161,349.74,154.54,391.59Zm240.17-7.65a72.61,72.61,0,0,1-1.86,13.69c-1.16,4.81-3,6.81-7.78,8.12-9.52,2.58-19.28,4.51-28.92,6.6Q296.4,425.3,235.67,433q-15,1.9-30,3.51c-7.89.84-15.92,1.89-23.86,1.12-7-.68-14.47-3.1-18.07-9.66-4-7.35-2.41-16.68-1.1-24.55,6.57-39.36,9-79.21,5-119-4-39.45-14.42-77.67-26.5-115.32-3-9.22-6-18.42-9-27.62q3.23,1.13,6.53,2A65.73,65.73,0,0,0,165.08,145c9.43-1.34,18.49-4.38,27.81-6.22,19.37-3.84,38.71,1.63,58.14,1.71,19.82.07,38.69-6.61,57.33-12.6l58.13-18.68c2.16-.7,10.34-4.13,11.34-3.25.84.73.11,4.63.09,5.7-.05,2.93-.15,5.85-.27,8.77-.42,10.06-1.11,20.12-.78,30.19.66,19.81,5.2,39.25,6.11,59,.93,20.19-1.89,40.28-2.7,60.42-.79,19.82,1.86,38.79,6.23,58.09C390.66,346.5,395.59,365,394.71,383.94Z" transform="translate(-46.55 -29.23)"/>
    <path class="cls-2" d="M372.57,96.78c-5.14,1.47-10.21,3.3-15.3,4.93q-26.86,8.64-53.73,17.27a221.17,221.17,0,0,0-4.07-26c-1.81-8.18-6.07-17.42-4.05-25.84,10.38,8.78,23.7,13.37,36.84,16.68C345.8,87.27,360.37,89.72,372.57,96.78Z" transform="translate(-46.55 -29.23)"/>
    <path class="cls-2" d="M237.34,69.46a78.22,78.22,0,0,1-9.15,4.48c-1.43.56-2.9,1-4.37,1.47a5.78,5.78,0,0,0-.43-1,78.8,78.8,0,0,0-16.82-20.58c2.16-3.49,3.33-8.21,4.48-12.44.34.32.71.7,1.13,1.15,3.11,3.3,6.19,6.61,9.29,9.92Z" transform="translate(-46.55 -29.23)"/>
    <path class="cls-2" d="M155.1,82l-27.36,1.54c-7.26-7.31-16.47-12-24.26-18.74,8.64,2.64,17.61,3.73,26.7,5,5.07.72,13.23.44,17.39,3.82C150.54,76.05,152.47,79.28,155.1,82Z" transform="translate(-46.55 -29.23)"/>
    <path class="cls-3" d="M200.7,40.44l-.76,2.28c-.32,1-1.45,5.7-1.75,6-1.37,1.25-6.93,1.42-8.75,1.79l-8.59,1.73-35.34,7.11a4.27,4.27,0,0,0-3.09,2.16c-1.9-.29-3.82-.5-5.7-.77-11-1.56-22.42-2.37-32.88-6.2q5.26-.93,10.52-1.81,14-2.35,28.09-4.49,28.44-4.3,57-7.61Z" transform="translate(-46.55 -29.23)"/>
    <path class="cls-4" d="M294.26,122a207.1,207.1,0,0,1-27.8,7.31c-10.41,1.79-20.85,1.33-31.31.29-9.9-1-19.83-2.4-29.81-2.12s-19.72,2.75-29.45,5.18c-10,2.51-20,4.24-30.29,2.22C136.18,133,127.34,129,119,124.4A160.7,160.7,0,0,1,94.6,107.92C88.14,102.61,82.32,96.63,76.18,91L79,92.06c7.42,3,14.45,3.51,22.39,3q11.16-.67,22.32-1.38a5.7,5.7,0,0,0,7.53-.48l21.95-1.39c16.7-1,33.42-1.91,50.1-3.16,7.56-.57,15.2-1.38,22.52-3.44s13.57-5.64,20.12-9.15a41,41,0,0,1,12.46-4.73c4.5-.77,9.12-.71,13.65-1.32A73.92,73.92,0,0,0,285.25,67c-1.2,7.9,1.37,15.55,3.31,23.3a201.76,201.76,0,0,1,5.07,29.59A5.34,5.34,0,0,0,294.26,122Z" transform="translate(-46.55 -29.23)"/>
    <path class="cls-5" d="M154.54,391.59c-1.59,10.22-4.48,22.17-2.52,32.69L121.94,411c-10.56-4.68-22.06-8.69-31.62-15.28-4.25-2.92-8-6.67-10-11.53-2.34-5.91-2.13-12.74-2.5-19q-1.25-20.52-2.47-41.05c-1.63-27.4-3.07-54.86-2.31-82.32q.59-21,3.12-41.82c1.61-13.24,3.44-26.59,2.32-39.94-2.09-24.75-15-46.68-20-70.64C70.5,97,80,109.15,91,117.74,101,125.6,112.12,133,124,138.23a4.28,4.28,0,0,0-1.72,5.2c13.17,39.77,26.41,79.79,32.91,121.3C161.72,306.62,161,349.74,154.54,391.59Z" transform="translate(-46.55 -29.23)"/>
    <path class="cls-6" d="M386.51,328.21c-4.37-19.3-7-38.27-6.23-58.09.81-20.14,3.63-40.23,2.7-60.42-.91-19.79-5.45-39.23-6.11-59-.33-10.07.36-20.13.78-30.19.12-2.92.22-5.84.27-8.77,0-1.07.75-5-.09-5.7-1-.88-9.18,2.55-11.34,3.25l-58.13,18.68c-18.64,6-37.51,12.67-57.33,12.6-19.43-.08-38.77-5.55-58.14-1.71-9.32,1.84-18.38,4.88-27.81,6.22a65.73,65.73,0,0,1-26.41-1.56q-3.3-.89-6.53-2c3,9.2,6.08,18.4,9,27.62,12.08,37.65,22.54,75.87,26.5,115.32,4,39.79,1.56,79.64-5,119-1.31,7.87-2.93,17.2,1.1,24.55,3.6,6.56,11,9,18.07,9.66,7.94.77,16-.28,23.86-1.12q15-1.61,30-3.51,60.65-7.71,120.48-20.64c9.64-2.09,19.4-4,28.92-6.6,4.82-1.31,6.62-3.31,7.78-8.12a72.61,72.61,0,0,0,1.86-13.69C395.59,365,390.66,346.5,386.51,328.21ZM345.67,223.64c-.9,19.36-21.64,23.77-37.15,27.11A192.35,192.35,0,0,1,250,254.43a178.78,178.78,0,0,1-29.13-5.14c-8.65-2.32-13.77-6.25-16.28-15.1-5.69-20-8.57-41.19-10.29-61.89a4.37,4.37,0,0,1,.69-3,6.21,6.21,0,0,1,1.4-2.7,3.71,3.71,0,0,1,1.61-1,3.77,3.77,0,0,1,1.93-.43H201a5,5,0,0,1,2.52.68c.34.26.68.52,1,.79a5,5,0,0,1,1.19,1.91,4.67,4.67,0,0,1,5.7-2.77c3.29.87,6.78-1,10.08-1.36a13.49,13.49,0,0,1,9.25,2.1c5.51,3.71,6.85,10.54,6.92,16.73.09,8.17.3,16.12,2,24.17q.57,2.73,1.29,5.43c.27,1,.57,2.08.88,3.11l.37,0c3.88.88,8.84.05,12.86.07,8.57,0,17.14.1,25.71.12,6.91,0,15,.34,20.68-4.25,6.78-5.45,3.34-15,2-22.19q-2.43-13.23-4.85-26.46c-.45-2.47.67-5.63,3.49-6.15l19.6-3.65a5,5,0,0,1,3.91.81c1-4.53,8.45-5.81,9.66-.36q4,18,6.74,36.3C343.64,201,346.17,212.72,345.67,223.64Z" transform="translate(-46.55 -29.23)"/>
    <path class="cls-7" d="M342,190.25Q339.32,172,335.29,154c-1.21-5.45-8.62-4.17-9.66.36a5,5,0,0,0-3.91-.81l-19.6,3.65c-2.82.52-3.94,3.68-3.49,6.15q2.42,13.23,4.85,26.46c1.32,7.21,4.76,16.74-2,22.19-5.72,4.59-13.77,4.27-20.68,4.25-8.57,0-17.14-.08-25.71-.12-4,0-9,.81-12.86-.07l-.37,0c-.31-1-.61-2.07-.88-3.11q-.72-2.7-1.29-5.43c-1.68-8.05-1.89-16-2-24.17-.07-6.19-1.41-13-6.92-16.73a13.49,13.49,0,0,0-9.25-2.1c-3.3.36-6.79,2.23-10.08,1.36a4.67,4.67,0,0,0-5.7,2.77,5,5,0,0,0-1.19-1.91c-.33-.27-.67-.53-1-.79a5,5,0,0,0-2.52-.68h-1.13a3.77,3.77,0,0,0-1.93.43,3.71,3.71,0,0,0-1.61,1,6.21,6.21,0,0,0-1.4,2.7,4.37,4.37,0,0,0-.69,3c1.72,20.7,4.6,41.87,10.29,61.89,2.51,8.85,7.63,12.78,16.28,15.1A178.78,178.78,0,0,0,250,254.43a192.35,192.35,0,0,0,58.56-3.68c15.51-3.34,36.25-7.75,37.15-27.11C346.17,212.72,343.64,201,342,190.25Zm-17.65-27.11a4.47,4.47,0,0,0,2.41-1.19c3.35,15.85,6,31.84,7.82,47.94.13,1.16.3,2.38.47,3.63-3.08-.21-6-1.59-8.94-2.84a39.91,39.91,0,0,0-11.05-3.15c.91-5.38-.25-11.06-1.25-16.51L309.25,166Zm-120,10.71.16-.13a3.67,3.67,0,0,0,.91-1.35,4.52,4.52,0,0,0,3.33,3.06c3.92,1,7.29.3,11.16-.55,4.6-1,6.85.25,7.6,5.08.71,4.55,0,9.44.31,14a117.82,117.82,0,0,0,1.47,12.42c.56,3.25,1,8,2.51,12q-9.1,5.94-17.83,12.45C208.56,212.59,206,192.86,204.39,173.85ZM331.08,232.6c-5.74,4.38-13.9,5.85-20.76,7.49a185.47,185.47,0,0,1-50.35,5,166.05,166.05,0,0,1-25.82-3c-3.87-.76-7.73-1.66-11.54-2.71-.85-.23-1.62-.47-2.33-.74q9.1-6.74,18.62-12.85c4.43,1,9.69.23,14.19.26l14.84.07c14.21.07,34.12,2.7,43.71-10.47a5.17,5.17,0,0,0,3.43,1.85c4.69.59,8.86,3.3,13.3,4.77a23.73,23.73,0,0,0,7.3,1.26C335.34,227.06,334.12,230.27,331.08,232.6Z" transform="translate(-46.55 -29.23)"/>
    <path class="cls-8" d="M335.08,213.52c-3.08-.21-6-1.59-8.94-2.84a39.91,39.91,0,0,0-11.05-3.15c.91-5.38-.25-11.06-1.25-16.51L309.25,166l15.13-2.82a4.47,4.47,0,0,0,2.41-1.19c3.35,15.85,6,31.84,7.82,47.94C334.74,211.05,334.91,212.27,335.08,213.52Z" transform="translate(-46.55 -29.23)"/>
    <path class="cls-9" d="M335.67,223.55c-.33,3.51-1.55,6.72-4.59,9-5.74,4.38-13.9,5.85-20.76,7.49a185.47,185.47,0,0,1-50.35,5,166.05,166.05,0,0,1-25.82-3c-3.87-.76-7.73-1.66-11.54-2.71-.85-.23-1.62-.47-2.33-.74q9.1-6.74,18.62-12.85c4.43,1,9.69.23,14.19.26l14.84.07c14.21.07,34.12,2.7,43.71-10.47a5.17,5.17,0,0,0,3.43,1.85c4.69.59,8.86,3.3,13.3,4.77A23.73,23.73,0,0,0,335.67,223.55Z" transform="translate(-46.55 -29.23)"/>
    <path class="cls-10" d="M231.84,218.48q-9.1,5.94-17.83,12.45c-5.45-18.34-8-38.07-9.62-57.08l.16-.13a3.67,3.67,0,0,0,.91-1.35,4.52,4.52,0,0,0,3.33,3.06c3.92,1,7.29.3,11.16-.55,4.6-1,6.85.25,7.6,5.08.71,4.55,0,9.44.31,14a117.82,117.82,0,0,0,1.47,12.42C229.89,209.68,230.38,214.46,231.84,218.48Z" transform="translate(-46.55 -29.23)"/>
    <path class="cls-7" d="M138,89Z" transform="translate(-46.55 -29.23)"/>
    <path class="cls-2" d="M-141.5,241.5" transform="translate(-46.55 -29.23)"/>
    <path class="cls-11" d="M317.87,225.25c-2.11,1.77-8.4,1.89-11,2.37q-6.3,1.15-12.61,2.19-12.94,2.1-26,3.61c-6.32.75-6.39,10.75,0,10,10.22-1.2,20.42-2.61,30.57-4.29q7.77-1.29,15.5-2.78c4-.77,7.41-1.35,10.6-4C329.89,228.19,322.78,221.15,317.87,225.25Z" transform="translate(-46.55 -29.23)"/>
    <path class="cls-11" d="M334.63,202.5a195.47,195.47,0,0,1-5.54-34.5c-.44-6.39-10.44-6.43-10,0a211.06,211.06,0,0,0,5.9,37.15C326.57,211.39,336.22,208.75,334.63,202.5Z" transform="translate(-46.55 -29.23)"/>
    <path class="cls-11" d="M186.74,34.78A157,157,0,0,0,157,40.61c-6.15,1.86-3.53,11.51,2.66,9.65a142.34,142.34,0,0,1,27.1-5.48C193.09,44.14,193.15,34.14,186.74,34.78Z" transform="translate(-46.55 -29.23)"/>
    <path class="cls-11" d="M206.48,37a3.69,3.69,0,0,0-1-1.61l-1-.78a5,5,0,0,0-2.53-.68l-1.33.18a4.91,4.91,0,0,0-2.2,1.28l-.69.69a3.71,3.71,0,0,0-1,1.61,4.52,4.52,0,0,0,0,3.85,3.71,3.71,0,0,0,1,1.61l1,.78a5,5,0,0,0,2.52.69l1.33-.18a5.05,5.05,0,0,0,2.21-1.29l.69-.69a3.69,3.69,0,0,0,1-1.61,4.52,4.52,0,0,0,0-3.85Z" transform="translate(-46.55 -29.23)"/>
    <path class="cls-11" d="M374.61,164.59c-.93-13.29-2.07-26.57-.89-39.9a4.56,4.56,0,0,0-.15-1.59,5,5,0,0,0-3.17-6.61,9.84,9.84,0,0,0-12.26,6.74c-1.84,6.21,1.6,13.5,2.95,19.51a182.49,182.49,0,0,1,3.56,22.36c.53,7.55,1,15.11.89,22.69-.08,6.44,9.89,6.44,10,0A204.07,204.07,0,0,0,374.61,164.59Z" transform="translate(-46.55 -29.23)"/>
    <path class="cls-11" d="M375,203.21a6.67,6.67,0,0,0-2.17-2.25,3.76,3.76,0,0,0-1.86-.6,4,4,0,0,0-2,.09,5.11,5.11,0,0,0-3,2.3,5.18,5.18,0,0,0-.59,3.51,4.93,4.93,0,0,0,3.54,5.83,5,5,0,0,0,3.86-.5,6.68,6.68,0,0,0,2.16-2.2,8.46,8.46,0,0,0,.54-1.28,1.15,1.15,0,0,0,.06-.17,1.29,1.29,0,0,0,0-.19,9.1,9.1,0,0,0,.19-1.47A6.83,6.83,0,0,0,375,203.21Z" transform="translate(-46.55 -29.23)"/>
  </g>
</svg>
