
<svg xmlns="http://www.w3.org/2000/svg" version="1.1" xmlns:xlink="http://www.w3.org/1999/xlink" preserveAspectRatio="none" x="0px" y="0px" width="800px" height="480px" viewBox="0 0 800 480">
<defs>
<g id="Layer1_0_FILL">
<path fill="#74775D" stroke="none" d="
M 150.3 381.5
Q 141.95 381.5 136 383.05 130.1 384.6 130.1 386.8 130.1 389 136 390.55 141.95 392.1 150.3 392.1 158.65 392.1 164.55 390.55 170.5 389 170.5 386.8 170.5 384.6 164.55 383.05 158.65 381.5 150.3 381.5
M 360.7 385.2
Q 353.15 386.95 353.15 389.4 353.15 391.85 360.7 393.55 368.3 395.3 379 395.3 389.7 395.3 397.25 393.55 404.85 391.85 404.85 389.4 404.85 386.95 397.25 385.2 389.7 383.5 379 383.5 368.3 383.5 360.7 385.2
M 658.3 383
Q 658.3 379.2 650.55 376.5 642.85 373.8 631.95 373.8 621.05 373.8 613.3 376.5 605.6 379.2 605.6 383 605.6 386.8 613.3 389.5 621.05 392.2 631.95 392.2 642.85 392.2 650.55 389.5 658.3 386.8 658.3 383 Z"/>
</g>

<g id="Layer0_0_FILL">
<path fill="#003F5F" stroke="none" d="
M 120.5 196.25
Q 114.35 194.8 109.75 195.3 104.8 195.9 100.4 198.6 96 201.4 93 205.7 87.25 214.15 86.85 229 82.45 228.3 78.2 230.7 73.9 233.1 71.9 237.45 69.95 241.85 70.75 247 71.45 252.15 74.7 255.55 73.1 257.55 71.65 262.95 70.75234375 266.407421875 69.65 268.45 69.1365234375 269.4796875 68.55 270.15 67.9 270.85 66.85 271.7 66.25 272.2 65.05 273.1 61.75 276 58.7 281.55 55.5 287.5 55 292.15 54.4 298.55 58.15 304.6 61.55 310.25 67.35 313.6 68.65 314.35 71.7 315.8 74.6 317.25 76.15 318.1 80.5 320.7 83.9 324.75 84.106640625 325.0025390625 84.3 325.25 86.1408203125 327.6974609375 86.05 329.65 86 330.9 85.2 332.4 84.65 333.25 83.6 335 82.95 336.4 83.15 338.05 83.3 339.75 84.5 340.2 85.5 340.55 87.5 339.5 93.15 336.3 96 334.35 100.55 331.2 103.35 327.7 104.3017578125 326.5103515625 105.1 325.25 105.633984375 324.39140625 106.1 323.5 106.65 324.05 107.45 324.8 107.6791015625 324.9947265625 107.95 325.25 108.908203125 326.108203125 110.45 327.65 110.55 327.75 110.65 327.85 112.25 329.55 113.3 330.4 113.85 330.85 114.35 331.2 114.45 331.25 114.55 331.35 116.4 332.55 118.15 332.95 119.3 333.15 120.5 333.05 122.5 332.9 123.45 331.45 124.25 330.25 124.25 327.85
L 124.25 327.8
Q 124.204296875 326.5197265625 124.1 325.25 124.012890625 323.742578125 123.85 322.25 123.8 322.15 123.8 322.05 124.05 322.15 124.3 322.25 127.65 323.8 130.1 324.4 132.65 325 136 325 137.25 325 139.2 324.85 140.4 324.75 141.95 324.6 142.55 324.55 143.1 324.5 147.2 324.1 149.25 323.7
L 160.05 320.55
Q 159.5 321.35 159.25 322.25 158.7728515625 323.681640625 158.85 325.25 158.8455078125 325.3248046875 158.85 325.4 159.05 327.05 159.95 327.75 160 327.8 160.1 327.85 161.05 328.45 162.35 327.85 163.2 327.45 164.25 326.6
L 171.05 321
Q 174.4 318.35 176.1 316.75 178.8 314.25 180.6 311.85 180.9 311.5 181.2 311.1 185.9 316.85 193.45 322.25 194.9 323.3 196.4 324.35 197.1708984375 324.8455078125 197.85 325.25 198.433203125 325.5802734375 198.95 325.85 201.25 326.85 202.95 326.55 204.257421875 326.295703125 205.1 325.25 205.4400390625 324.85625 205.7 324.35 206.75 322.45 205.7 320.9 205.4 320.45 204.2 319.55 203.1 318.75 202.8 318.1 202.1 316.7 203.2 314.4 205 310.65 210.25 306.95 217 302.05 218.5 300.4 221.3 297.25 222.7 292.9 224 288.65 223.7 284.25 223.4 279.9 221.55 275.8 219.85 271.75 216.95 268.6 216.8794921875 268.52421875 216.8 268.45 215.5974609375 267.1029296875 215.55 266.25 215.45 265.55 216.3 263.85 218.7 259.45 218.8 254.15 218.9 248.8 216.65 244.3 214.4 239.65 208.45 234.55 193.1 221.3 173.8 217.1 174.65 213.8 174.35 210.35 174 206.9 172.5 204 171 201 168.35 199 165.75 196.95 162.7 196.5 159.6 196 153.5 197.65
L 140.45 201.15
Q 139.1 201.55 138.05 202.15 126.4 197.6 120.5 196.25
M 142.3 207.4
L 151.95 204.5
Q 155.25 203.6 156.9 203.35 159.6 202.85 161.75 203.3 164.3 203.75 166.2 205.65 168.15 207.65 168.35 210.25 168.4 211.55 167.7 214.6 167.05 217.35 167.3 218.9 167.6 220.55 168.85 221.9 169.95 223.15 171.55 223.9 172.85 224.5 174.7 224.9 175.75 225.1 177.95 225.5 190.85 228.05 204.9 240.3 210.05 244.8 211.65 248.65 212.9 251.65 212.65 255 212.5 258.45 210.8 261.2 210.15 262.45 208.5 265.05 207.553125 266.9025390625 207.75 268.45 207.8029296875 268.78203125 207.9 269.1 208.3 270.4 209.65 271.5 210.4 272.15 212.15 273.3 216.3 276.45 217.45 282.4 218.55 288.35 215.8 293 213.9 296.2 209.1 299.65 203.25 304 201.8 305.6 198.75 308.85 197.3 313 196.85 314.15 196.65 314.5 196.2 315.3 195.55 315.55 194.35 316.05 192.7 314.35 187.4 309.3 183.65 303.05 183.35 301.6 182.55 300.5 182.45 300.65 182.4 300.85 182.05 300.15 181.7 299.45 185.1 292 191.85 288.3 193.7 287.3 194.7 286.8 196.25 285.8 197.05 284.7 198.05 283.35 197.95 281.5 197.85 279.55 196.45 278.85 194.95 278.1 192.2 279.8 186.8 283.15 182.1 287.65 176.35 293.1 175.8 298.2 175.45 302.35 178.4 307.15 177.45 308.25 176.45 309.3 173.9 311.95 168.35 316.45 167.65 317.05 167 317.5 165.25 318.7 164.05 318.85 164.45 314.8 162.55 313.85 161.85 313.55 160.55 313.75 159.45 313.9 157.9 314.3 157.1 314.45 156.2 314.75 155.15 315 153.95 315.35 153.6 315.45 153.25 315.55 149.25 316.75 147.35 317.05 145.65 317.4 143.1 317.65 141.4 317.8 139.2 317.95 138.3 318 137.25 318.05 133.65 318.25 131.55 318.05 128.4 317.7 126.25 316.3 124.8 315.45 124.3 315.2 123.15 314.8 122.35 315.35 121.35 316.05 121.45 318.65
L 121.75 325.5
Q 120.05 326.4 118.15 326.15 117.45 326.05 116.75 325.85 115.9931640625 325.6091796875 115.2 325.25 114.8931640625 325.087109375 114.55 324.9 114.45 324.85 114.35 324.8 113.2 324.1 112.05 323.1 111.4 322.5 108.2 319.2 108.05 319 107.9 318.85 107.95 318.65 108 318.35 108.85 314.4 108.3 310.95 108 309.55 107.45 308.2 106.35 305.05 102.95 301.3 102.1 300.45 101.2 299.5 98 296.4 96 297.65 94.7 298.45 94.65 300.3 94.6 302 95.6 303.4 96.2 304.35 97.75 305.7 99.3 307.2 99.85 307.9 101.7 310.2 102 313.6 102.25 316.8 101 319.8 99.6369140625 322.911328125 96.95 325.25 95.1146484375 326.8576171875 92.65 328.1 92.092578125 326.638671875 91.4 325.25 89.820703125 322.0296875 87.55 319.2 84.3 315.15 80.1 312.5 78.3 311.4 74.5 309.55 70.7 307.7 68.9 306.55 62.3 302.2 61.35 296.25 60.85 293.2 62.05 289.65 62.8 287.1 64.8 283.4 66.9 279.45 68.75 278.25 69.35 277.9 71.05 277.2 72.65 276.6 73.35 276 75.45 274.35 76.4 269.35 76.4853515625 268.887109375 76.55 268.45 77.5515625 263.50390625 78.7 261.85 80.9 259.5 81.8 258.35 83.5 256.2 82.85 254.45 82.55 253.5 81.5 252.7 80.3 251.9 79.7 251.4 77.55 249.7 76.7 246.7 76 243.7 77 241 78.1 238.3 80.6 236.8 83.2 235.35 85.75 235.9 86.5 236.05 88.1 236.65 89.55 237.2 90.45 237.35 91.7 237.6 92.85 237.15 94.15 236.6 94.55 235.4 94.9 234.55 94.7 233.35 94.6 232.8 94.2 231.3 92.8 226.4 93.5 221.2 94.2 216 96.8 211.8 99.45 207.55 103.65 204.9 107.85 202.25 112.45 201.85 117.5 201.5 124.55 204 128.5 205.35 136.4 208.3 138.3 208.9 139.85 208.6 141.05 208.3 141.6 207.6 141.95 207.5 142.3 207.4
M 139.5 293.6
Q 138.4 294.05 138.35 294.75
L 139.65 295.15
Q 139.8 295.55 140.55 295.75 142.45 296.35 143.45 296.45 144.75 296.6 146.2 296.1 147.3 295.75 147.8 295.1 148.3 294.55 148.65 293.45 148.9 292.6 148.75 292.3 148.55 291.9 147.9 291.7 147.25 291.5 145.9 291.7 144.7 291.9 142.4 292.6 140.25 293.25 139.5 293.6 Z"/>

<path fill="#00CCED" stroke="none" d="
M 151.95 204.5
L 142.3 207.4
Q 141.95 207.5 141.6 207.6 141.05 208.3 139.85 208.6 138.3 208.9 136.4 208.3 128.5 205.35 124.55 204 117.5 201.5 112.45 201.85 107.85 202.25 103.65 204.9 99.45 207.55 96.8 211.8 94.2 216 93.5 221.2 92.8 226.4 94.2 231.3 94.6 232.8 94.7 233.35 94.9 234.55 94.55 235.4 94.15 236.6 92.85 237.15 91.7 237.6 90.45 237.35 89.55 237.2 88.1 236.65 86.5 236.05 85.75 235.9 83.2 235.35 80.6 236.8 78.1 238.3 77 241 76 243.7 76.7 246.7 77.55 249.7 79.7 251.4 80.3 251.9 81.5 252.7 82.55 253.5 82.85 254.45 83.5 256.2 81.8 258.35 80.9 259.5 78.7 261.85 77.5515625 263.50390625 76.55 268.45 76.4853515625 268.887109375 76.4 269.35 75.45 274.35 73.35 276 72.65 276.6 71.05 277.2 69.35 277.9 68.75 278.25 66.9 279.45 64.8 283.4 62.8 287.1 62.05 289.65 60.85 293.2 61.35 296.25 62.3 302.2 68.9 306.55 70.7 307.7 74.5 309.55 78.3 311.4 80.1 312.5 84.3 315.15 87.55 319.2 89.820703125 322.0296875 91.4 325.25 92.092578125 326.638671875 92.65 328.1 95.1146484375 326.8576171875 96.95 325.25 99.6369140625 322.911328125 101 319.8 102.25 316.8 102 313.6 101.7 310.2 99.85 307.9 99.3 307.2 97.75 305.7 96.2 304.35 95.6 303.4 94.6 302 94.65 300.3 94.7 298.45 96 297.65 98 296.4 101.2 299.5 102.1 300.45 102.95 301.3 106.35 305.05 107.45 308.2 108 309.55 108.3 310.95 108.85 314.4 108 318.35 107.95 318.65 107.9 318.85 108.05 319 108.2 319.2 111.4 322.5 112.05 323.1 113.2 324.1 114.35 324.8 114.45 324.85 114.55 324.9 114.8931640625 325.087109375 115.2 325.25 115.9931640625 325.6091796875 116.75 325.85 117.45 326.05 118.15 326.15 120.05 326.4 121.75 325.5
L 121.45 318.65
Q 121.35 316.05 122.35 315.35 123.15 314.8 124.3 315.2 124.8 315.45 126.25 316.3 128.4 317.7 131.55 318.05 133.65 318.25 137.25 318.05 138.3 318 139.2 317.95 141.4 317.8 143.1 317.65 145.65 317.4 147.35 317.05 149.25 316.75 153.25 315.55 153.6 315.45 153.95 315.35 155.15 315 156.2 314.75 157.1 314.45 157.9 314.3 159.45 313.9 160.55 313.75 161.85 313.55 162.55 313.85 164.45 314.8 164.05 318.85 165.25 318.7 167 317.5 167.65 317.05 168.35 316.45 173.9 311.95 176.45 309.3 177.45 308.25 178.4 307.15 175.45 302.35 175.8 298.2 176.35 293.1 182.1 287.65 186.8 283.15 192.2 279.8 194.95 278.1 196.45 278.85 197.85 279.55 197.95 281.5 198.05 283.35 197.05 284.7 196.25 285.8 194.7 286.8 193.7 287.3 191.85 288.3 185.1 292 181.7 299.45 182.05 300.15 182.4 300.85 182.45 300.65 182.55 300.5 183.35 301.6 183.65 303.05 187.4 309.3 192.7 314.35 194.35 316.05 195.55 315.55 196.2 315.3 196.65 314.5 196.85 314.15 197.3 313 198.75 308.85 201.8 305.6 203.25 304 209.1 299.65 213.9 296.2 215.8 293 218.55 288.35 217.45 282.4 216.3 276.45 212.15 273.3 210.4 272.15 209.65 271.5 208.3 270.4 207.9 269.1 207.8029296875 268.78203125 207.75 268.45 207.553125 266.9025390625 208.5 265.05 210.15 262.45 210.8 261.2 212.5 258.45 212.65 255 212.9 251.65 211.65 248.65 210.05 244.8 204.9 240.3 190.85 228.05 177.95 225.5 175.75 225.1 174.7 224.9 172.85 224.5 171.55 223.9 169.95 223.15 168.85 221.9 167.6 220.55 167.3 218.9 167.05 217.35 167.7 214.6 168.4 211.55 168.35 210.25 168.15 207.65 166.2 205.65 164.3 203.75 161.75 203.3 159.6 202.85 156.9 203.35 155.25 203.6 151.95 204.5
M 121.55 221.25
Q 125.05 218.25 132.2 218.35 141.45 218.5 148.6 222.25 151.8 223.85 156.8 227.65 168.15 236.4 179.05 247 182.25 250.2 183.95 252.35 186.3 255.6 187.15 258.85 188.2240234375 263.414453125 186.65 268.45 186.21015625 269.9783203125 185.5 271.55 184.35 274.15 182.35 277.1 181.3 278.65 178.55 282.1 173.6 288.55 170.95 291.45 166.5 296.3 162.15 299.1 156.95 302.4 149.6 304.15 145.65 305.1 139.2 305.95 137.7 306.1 136.15 306.3 128.3 307.2 123.7 306.65 118.2 306.1 114.35 303.55 113.45 302.9 112.55 302.15 111.8 301.45 108 296.95 105.2 293.7 102.9 292.65 100.8 291.65 97.45 291.65 93.7 291.75 91.8 291.6 89.55 291.5 88.55 290.35 87.25 289 87.65 286.25 88 283.65 90.4 278.95
L 97.8 264.9
Q 97.25 264.7 96.85 264.8 96.4 264.85 95.75 265.15 94.8 265.6 94.5 265.65 93.3 265.9 92.55 265.2 91.05 264 91.65 260.95 92.05 259 92.7 257.25 93.2 256 93.4 255.35 93.75 254.25 93.75 253.4 93.7 252.85 93.25 250.95 92.95 249.6 92.6 245.7 92.6 244.2 92.8 243.7 93.3 242.35 95.05 242.15 96.15 242.05 97.75 242.8 99.75 243.7 101.55 245.05 103.5 243.7 105.35 241.7 107.1 239.75 107.95 239.3 109.35 238.55 111.05 239.1 111.1 239.1 111.15 239.15
L 116.95 227.95
Q 118.3 225.45 119 224.35 120.2 222.4 121.55 221.25
M 108.3 210.1
Q 108.7 210 109.8 210.25
L 111.9 210.85
Q 113.05 211.15 113.85 211.5 114.5 211.85 115.65 212.75 116.5 213.5 116.75 213.85 117.15 214.55 117.25 215.45 117.6 218.05 115.5 222.35 114.6 223.9 114.4 224.2 114.05 224.9 113.1 225.8 112.25 226.7 111.8 227
L 109.7 228.15
Q 109.2 228.4 108.8 228.45 108.1 228.7 106.3 228.2
L 105.6 228
Q 102.45 227 101.4 225.7 100.2 224.25 100.1 221.9 100 220.25 100.75 217.9 101.15 216.3 101.85 215.2 102.7 214 104.75 212.45
L 106.65 210.95
Q 107.6 210.2 108.3 210.1
M 197.75 240.5
Q 200.5 242.35 201.95 243.6 204.05 245.55 205.15 247.7 206.9 251.35 206.05 256.7 205.55 259.85 204.55 261.95 203.0390625 265.0662109375 199.25 268.45 199.0310546875 268.649609375 198.8 268.85 193.9 273 190.15 272.9 188.75 272.8 188.15 272.2 187.0330078125 271.0830078125 187.65 268.45 187.69453125 268.254296875 187.75 268.05 188.5 265.35 189.7 262.85 190.5 261.15 190.8 260.25 191.2 258.85 191.55 255.9 191.95 252.25 191.35 250.55 191.05 249.4 190.15 248 189.1 246.4 188.55 245.6 186.65 242.45 187.7 240.05 188.4 239.1 188.65 238.5 189.05 237.25 189.4 236.75 190.05 236.05 191.1 236.35 191.85 236.5 192.85 237.2
L 197.75 240.5 Z"/>

<path fill="#66FFFF" stroke="none" d="
M 201.95 243.6
Q 200.5 242.35 197.75 240.5
L 192.85 237.2
Q 191.85 236.5 191.1 236.35 190.05 236.05 189.4 236.75 189.05 237.25 188.65 238.5 188.4 239.1 187.7 240.05 186.65 242.45 188.55 245.6 189.1 246.4 190.15 248 191.05 249.4 191.35 250.55 191.95 252.25 191.55 255.9 191.2 258.85 190.8 260.25 190.5 261.15 189.7 262.85 188.5 265.35 187.75 268.05 187.69453125 268.254296875 187.65 268.45 187.0330078125 271.0830078125 188.15 272.2 188.75 272.8 190.15 272.9 193.9 273 198.8 268.85 199.0310546875 268.649609375 199.25 268.45 203.0390625 265.0662109375 204.55 261.95 205.55 259.85 206.05 256.7 206.9 251.35 205.15 247.7 204.05 245.55 201.95 243.6
M 109.8 210.25
Q 108.7 210 108.3 210.1 107.6 210.2 106.65 210.95
L 104.75 212.45
Q 102.7 214 101.85 215.2 101.15 216.3 100.75 217.9 100 220.25 100.1 221.9 100.2 224.25 101.4 225.7 102.45 227 105.6 228
L 106.3 228.2
Q 108.1 228.7 108.8 228.45 109.2 228.4 109.7 228.15
L 111.8 227
Q 112.25 226.7 113.1 225.8 114.05 224.9 114.4 224.2 114.6 223.9 115.5 222.35 117.6 218.05 117.25 215.45 117.15 214.55 116.75 213.85 116.5 213.5 115.65 212.75 114.5 211.85 113.85 211.5 113.05 211.15 111.9 210.85
L 109.8 210.25
M 92.8 243.7
Q 92.6 244.2 92.6 245.7 92.95 249.6 93.25 250.95 93.7 252.85 93.75 253.4 93.75 254.25 93.4 255.35 93.2 256 92.7 257.25 92.05 259 91.65 260.95 91.05 264 92.55 265.2 93.3 265.9 94.5 265.65 94.8 265.6 95.75 265.15 96.4 264.85 96.85 264.8 97.25 264.7 97.8 264.9 98.35 265 99.05 265.5 99.7 265.95 101.1 266.95 102.8 267.9 104.8 267.25 106.8 266.6 107.75 264.8 108 264.35 108.65 262.35 109.1 260.8 109.8 260.1 110.8 259.4 111.3 259.05 113.9 257.25 115.6 252.85 116.15 251.25 116.25 250.35 116.45 249.05 116.2 247.45 115.8 243.2 113.85 240.95 112.65 239.65 111.15 239.15 111.1 239.1 111.05 239.1 109.35 238.55 107.95 239.3 107.1 239.75 105.35 241.7 103.5 243.7 101.55 245.05 99.75 243.7 97.75 242.8 96.15 242.05 95.05 242.15 93.3 242.35 92.8 243.7
M 108.15 244.95
Q 108.5 244.5 108.85 244.1 109.5 243.35 109.9 243.35 110.5 243.35 110.95 244.15 111.55 245.05 111.8 245.8 112.8 248.45 111.9 251.25 110.95 253.95 108.8 255.45 107.8 256.15 107.4 256.45 106.7 257.1 106 258.15 105.5 258.85 105.15 259.75 105 260 104.8 260.8 104.65 261.55 104.5 261.9 104.35 262.45 103.9 262.75 103.15 263.35 101.9 262.4 100.95 261.3 100.3 260.95 100.15 260.8 99.85 260.75
L 108.15 244.95 Z"/>

<path fill="#66CCCC" stroke="none" d="
M 108.85 244.1
Q 108.5 244.5 108.15 244.95
L 99.85 260.75
Q 100.15 260.8 100.3 260.95 100.95 261.3 101.9 262.4 103.15 263.35 103.9 262.75 104.35 262.45 104.5 261.9 104.65 261.55 104.8 260.8 105 260 105.15 259.75 105.5 258.85 106 258.15 106.7 257.1 107.4 256.45 107.8 256.15 108.8 255.45 110.95 253.95 111.9 251.25 112.8 248.45 111.8 245.8 111.55 245.05 110.95 244.15 110.5 243.35 109.9 243.35 109.5 243.35 108.85 244.1 Z"/>

<path fill="#007D87" stroke="none" d="
M 132.2 218.35
Q 125.05 218.25 121.55 221.25 120.2 222.4 119 224.35 118.3 225.45 116.95 227.95
L 111.15 239.15
Q 112.65 239.65 113.85 240.95 115.8 243.2 116.2 247.45 116.45 249.05 116.25 250.35 116.15 251.25 115.6 252.85 113.9 257.25 111.3 259.05 110.8 259.4 109.8 260.1 109.1 260.8 108.65 262.35 108 264.35 107.75 264.8 106.8 266.6 104.8 267.25 102.8 267.9 101.1 266.95 99.7 265.95 99.05 265.5 98.35 265 97.8 264.9
L 90.4 278.95
Q 88 283.65 87.65 286.25 87.25 289 88.55 290.35 89.55 291.5 91.8 291.6 93.7 291.75 97.45 291.65 100.8 291.65 102.9 292.65 105.2 293.7 108 296.95 111.8 301.45 112.55 302.15 113.45 302.9 114.35 303.55 118.2 306.1 123.7 306.65 128.3 307.2 136.15 306.3 137.7 306.1 139.2 305.95 145.65 305.1 149.6 304.15 156.95 302.4 162.15 299.1 166.5 296.3 170.95 291.45 173.6 288.55 178.55 282.1 181.3 278.65 182.35 277.1 184.35 274.15 185.5 271.55 186.21015625 269.9783203125 186.65 268.45 188.2240234375 263.414453125 187.15 258.85 186.3 255.6 183.95 252.35 182.25 250.2 179.05 247 168.15 236.4 156.8 227.65 151.8 223.85 148.6 222.25 141.45 218.5 132.2 218.35
M 129.55 234.8
Q 129.4810546875 234.3724609375 129.65 233.95 129.8 233.05 130.45 232.8 130.4763671875 232.79296875 130.5 232.75 131.2525390625 232.6140625 132.7 233
L 140.85 235.8
Q 143.1 236.65 144.1 237.25 144.8 237.7 146.05 238.65
L 148.65 240.6
Q 149.7 241.5 149.9 241.7 150.4 242.25 151.55 244.3 151.8 244.85 152.3 245.85 152.65 246.85 152.65 247.5
L 152.45 248.95
Q 152.4 249.65 152.5 251.2 152.45 251.85 152.2 252.7 151.85 253.5 151.65 254 151.3 256.15 150.8 257.05 149.7 259.5 144.95 260.75 142.15 261.55 140.35 261.25 138.9 260.9 137.1 259.55 136 258.7 135.35 257.85 134.5 256.6 134 254.6 133.1 250.45 134.2 247.7 134.95 246.05 136.45 245.15 137.95 244.25 139.6 244.5 140.55 244.6 142 245.35 144.2 246.55 145 247.95 145.7 249.1 145.65 250.45 145.45 252.05 144.25 252.7 143.5 252.95 142.65 252.55 141.8 252.2 141.5 251.4 141.4 251.15 141.25 250.2 141.15 249.6 140.9 249.25 140.5 248.8 139.95 248.7 139.35 248.5 138.85 248.8 138 249.25 137.75 250.45 137.55 251.3 137.8 252.65 138 254.35 138.55 255.35 139.2 256.8 140.5 257.2 141.45 257.4 142.65 257 144.1 256.7 145.45 256.05 146.7 255.6 147 254.95 147.15 254.7 147.3 254.15 147.35 253.45 147.45 253.2 148.05 251.55 148.25 250.8 148.4 249.95 148.2 248 148.1 245.8 147.55 244.95 147 244.1 145.75 243.15 143.05 241 141.6 240.35 140.6 239.8 138.15 238.95
L 132.55 237.1
Q 130.45 236.5 129.85 235.45 129.631640625 235.1224609375 129.55 234.8
M 126 244.5
L 125.95 244.4 126.05 244.1
Q 126.058203125 244.2224609375 126.05 244.3 126.042578125 244.42890625 126 244.5
M 114.8 284.95
Q 116.9 284.05 120.9 284.25 122.8 284.35 123.7 284.9 124.25 285.25 124.8 285.95 125.15 286.3 125.75 287.1 126.75 288.45 126.9 288.65 127.45 289.6 127.3 290.4 127.2 291.1 126.65 291.55 126.1 292 125.4 291.95 124.75 291.95 123.95 291.45 123.05 290.75 122.6 290.45 121.35 289.6 118.95 289.05 117.45 288.65 116.7 288.85 116.3 288.95 115.25 289.45 114.35 289.9 113.8 289.8 112.95 289.7 112.55 288.85 112.15 288 112.4 287.15 112.9 285.7 114.8 284.95
M 138.35 294.75
Q 138.4 294.05 139.5 293.6 140.25 293.25 142.4 292.6 144.7 291.9 145.9 291.7 147.25 291.5 147.9 291.7 148.55 291.9 148.75 292.3 148.9 292.6 148.65 293.45 148.3 294.55 147.8 295.1 147.3 295.75 146.2 296.1 144.75 296.6 143.45 296.45 142.45 296.35 140.55 295.75 139.8 295.55 139.65 295.15
L 138.35 294.75
M 157.65 283.5
Q 158 282.55 159.2 280.95
L 163.65 275.25
Q 165.15 273.35 166.35 273.35 167.1 273.4 167.65 274.05 168.2 274.7 168.1 275.45 168 276 167.15 277.2
L 161.95 283.5
Q 163.9 284.2 165.95 283.75 167.55 283.4 167.95 283.35 169.25 283.25 169.85 283.95 170.4 284.55 170.25 285.4 170.15 286.25 169.5 286.85 168.5 287.7 166.5 287.9 163.9 288.25 160.95 287.85 158.6 287.45 157.85 286.35 157 285.15 157.65 283.5
M 164.7 270.35
Q 165.1845703125 270.2701171875 165.6 270.4 166.2 270.6 166.5 271.2 166.557421875 271.2984375 166.6 271.4 166.15 270.55 165.35 270.4 165.110546875 270.334765625 164.7 270.35 Z"/>

<path fill="#003333" stroke="none" d="
M 165.6 270.4
Q 165.1845703125 270.2701171875 164.7 270.35 165.110546875 270.334765625 165.35 270.4 166.15 270.55 166.6 271.4 166.557421875 271.2984375 166.5 271.2 166.2 270.6 165.6 270.4
M 159.2 280.95
Q 158 282.55 157.65 283.5 157 285.15 157.85 286.35 158.6 287.45 160.95 287.85 163.9 288.25 166.5 287.9 168.5 287.7 169.5 286.85 170.15 286.25 170.25 285.4 170.4 284.55 169.85 283.95 169.25 283.25 167.95 283.35 167.55 283.4 165.95 283.75 163.9 284.2 161.95 283.5
L 167.15 277.2
Q 168 276 168.1 275.45 168.2 274.7 167.65 274.05 167.1 273.4 166.35 273.35 165.15 273.35 163.65 275.25
L 159.2 280.95
M 120.9 284.25
Q 116.9 284.05 114.8 284.95 112.9 285.7 112.4 287.15 112.15 288 112.55 288.85 112.95 289.7 113.8 289.8 114.35 289.9 115.25 289.45 116.3 288.95 116.7 288.85 117.45 288.65 118.95 289.05 121.35 289.6 122.6 290.45 123.05 290.75 123.95 291.45 124.75 291.95 125.4 291.95 126.1 292 126.65 291.55 127.2 291.1 127.3 290.4 127.45 289.6 126.9 288.65 126.75 288.45 125.75 287.1 125.15 286.3 124.8 285.95 124.25 285.25 123.7 284.9 122.8 284.35 120.9 284.25 Z"/>

<path fill="#000033" stroke="none" d="
M 129.65 233.95
Q 129.4810546875 234.3724609375 129.55 234.8 129.631640625 235.1224609375 129.85 235.45 130.45 236.5 132.55 237.1
L 138.15 238.95
Q 140.6 239.8 141.6 240.35 143.05 241 145.75 243.15 147 244.1 147.55 244.95 148.1 245.8 148.2 248 148.4 249.95 148.25 250.8 148.05 251.55 147.45 253.2 147.35 253.45 147.3 254.15 147.15 254.7 147 254.95 146.7 255.6 145.45 256.05 144.1 256.7 142.65 257 141.45 257.4 140.5 257.2 139.2 256.8 138.55 255.35 138 254.35 137.8 252.65 137.55 251.3 137.75 250.45 138 249.25 138.85 248.8 139.35 248.5 139.95 248.7 140.5 248.8 140.9 249.25 141.15 249.6 141.25 250.2 141.4 251.15 141.5 251.4 141.8 252.2 142.65 252.55 143.5 252.95 144.25 252.7 145.45 252.05 145.65 250.45 145.7 249.1 145 247.95 144.2 246.55 142 245.35 140.55 244.6 139.6 244.5 137.95 244.25 136.45 245.15 134.95 246.05 134.2 247.7 133.1 250.45 134 254.6 134.5 256.6 135.35 257.85 136 258.7 137.1 259.55 138.9 260.9 140.35 261.25 142.15 261.55 144.95 260.75 149.7 259.5 150.8 257.05 151.3 256.15 151.65 254 151.85 253.5 152.2 252.7 152.45 251.85 152.5 251.2 152.4 249.65 152.45 248.95
L 152.65 247.5
Q 152.65 246.85 152.3 245.85 151.8 244.85 151.55 244.3 150.4 242.25 149.9 241.7 149.7 241.5 148.65 240.6
L 146.05 238.65
Q 144.8 237.7 144.1 237.25 143.1 236.65 140.85 235.8
L 132.7 233
Q 131.2525390625 232.6140625 130.5 232.75 130.4763671875 232.79296875 130.45 232.8 129.8 233.05 129.65 233.95 Z"/>

<path fill="#410041" stroke="none" d="
M 416.2 272.2
Q 410.45 271.95 407.65 271.55 405.4 271.25 405.25 271.25 405.1 271.25 405 271.25 404.8 271 404.6 270.8 396.95 262.15 388.7 257.3 378.95 251.55 369.3 251.8 363.35 251.95 356.7 254.4 348.05 257.55 340.7 263.4 333.35 269.2 328.3 276.9 325.7 280.85 322.6 287.2 320.85 290.75 317.45 297.85 311 310.45 303.5 315.8 302.55 316.5 300.55 317.9 298.9 319.15 298.05 320.45 296.7 322.6 296.5 326.65 296.15 334 297.8 341.3 298.85 345.7 300.65 347.8 301.9 349.2 303.6 349.85 305.45 350.5 307.05 349.9 307.75 357.3 312.4 363.5 317.1 369.7 324.05 372.3 324.8912109375 372.6083984375 325.65 372.75
L 327.05 374.15
Q 328 375.1 328.2 375.45 328.5 375.9 329.2 377.3 329.65 378.3 330.5 379.7 330.95 380.45 331.9 382 332.65 383.4 333.25 384.25 334 385.25 335.85 387 336.95 388 337.6 388.3 338.55 388.75 339.8 388.65 341 388.65 341.6 388.15 342.15 387.7 342.6 386.15
L 343.1 384.15
Q 343.35 383.05 343.35 382.8 343.3 381.75 343.4 381.25 343.433984375 381.0126953125 343.55 380.5 345.25703125 381.44140625 346.2 381.85 350 383.45 355.1 383.7 358.55 383.85 364.3 383.35 372.7109375 382.6771484375 378.65 381.7 379.2642578125 381.366796875 380.1 381.2
L 381.1 386.4
Q 381.65 389.15 383.1 389.5 384 389.75 385.45 388.8 390.3 385.9 394.1 381.9 395.15 380.75 395.4 379.95 395.50546875 379.6333984375 395.5 379.35 395.8029296875 379.21015625 396.2 379 396.85 378.65 397.3 378.6 397.95 378.45 399.25 378.6 399.718359375 378.521875 400.5 378.35 401.7623046875 377.9673828125 402.95 377.5 403.41484375 377.102734375 404.15 376.8 404.65 376.6 405.7 376.25 405.859375 376.181640625 406 376.1 406.106640625 376.36328125 406.2 376.65 406.35 377.3 406.45 378.65 406.7 379.75 407.3 380.3 408.4 381.2 410.45 380.4 415.15 378.55 418.75 371.7 419.18984375 370.9251953125 419.3 370.3 419.9875 370.10703125 420.75 369.95 421.3861328125 369.82890625 421.95 369.7 421.961328125 369.6841796875 421.95 369.65 422.15 369.55 422.35 369.5
L 425.55 368.55
Q 428.05 367.75 428.8 367.3 429.7 366.8 430.65 365.75 431.65 364.75 432.1 364.2 433.5 362.5 435.3 359.7 435.95 358.65 436.45 357.75 436.9 358.25 437.55 358.7 438.35 359.25 439.8 359.9 441.75 360.55 443 360.55 444.35 360.6 446.95 359.8
L 455.25 357.1
Q 456.95 356.45 458.15 355.55 459.15 354.85 460.55 353.45 463.6 350.3 464.45 348.9 465.35 347.5 466.8 344.5 467.2 343.8 470.2 339.35 470.4 339.05 470.55 338.8 470.65 338.8 470.75 338.8 474.1 339 476 338.9 478.85 338.8 481.05 338.05 483.55 337.2 484.95 335.55 486.4 333.8 486.5 331.3 486.55 328.85 485.4 326.7 483.55 323.2 478.6 320.4 472.4 317.05 465.4 316.35 459.9 316.15 457.25 315.85 452.55 315.3 449.8 313.25 447 311.15 444.35 305.5 440.8 297.95 438.95 294.2 435.75 287.7 433 283.25 428.75 276.45 424.3 274.15 421.3 272.6 416.2 272.2
M 418.6 278.7
Q 421.25 279.2 423 280.45 425.2 282 427.7 286.35 433.25 295.95 437.75 305.5 440.35 311.05 441.9 313.4 444.65 317.6 448.05 319.55 451.45 321.5 457.45 322 467.05 322.8 467.4 322.85 473.35 324 478.15 327.45 480.25 328.95 480.15 330.5 480.1 331.6 478.9 332.35 477.9 332.95 476.6 332.95 475.6 332.95 473.25 332.6 471.05 332.2 469.85 332.35 468.1 332.55 466.95 333.85 466 334.45 464.9 336.2
L 461.4 341.75
Q 460.5 343.25 459.3 344.95
L 457.1 347.8
Q 455.75 349.35 455.25 349.8 454.5 350.4 452.8 351.2 449.1 352.85 445.05 353.75 443.25 354.15 442.35 353.95 441.75 353.8 440.4 353.15 439.2 352.55 438.45 352.5 437.25 352.45 436.3 353.3 436.2 353.4 436.1 353.55 435.4 353.5 434.7 353.6 433.35 353.85 432.65 354.5 431.8 355.2 431 357.05 428.95 361.35 425.75 364.95 424.95 365.95 424.25 366.35 423.75 366.65 422.55 367.05
L 418.35 368.2
Q 418.0568359375 368.1 417.7 368.1 416.7 368.1 415.95 368.7 415.4 369.2 414.9 370.15 414.4 371.3 414.1 371.8 413.5845703125 372.8134765625 412.95 373.6 411.741015625 375.1623046875 410.1 375.95 409.85 375.4 409.7 374.35 409.6201171875 373.8705078125 409.55 373.5 409.7263671875 373.4212890625 409.9 373.35 409.934375 373.2205078125 409.9 373.1 409.820703125 372.783203125 409.3 372.65 409.033984375 371.83515625 408.45 371.3 407.75 370.65 407 370.75 406.2 370.9 405.75 371.7 405.3607421875 372.3919921875 405.35 373.15 404.5615234375 373.454296875 403.7 373.9 400.45 375.75 398.7 376.4 398.05 376.65 397.1 376.9 396.95 376.7 396.75 376.6 395.95 376.15 395.1 376.8 394.7822265625 377.072265625 394.5 377.45 394.1474609375 377.3201171875 393.7 377.35 393 377.4 392.4 377.85 391.9548828125 378.1169921875 391.5 378.65 391.19375 378.9068359375 391.05 379.15 390.7103515625 379.6046875 390.5 379.85 389.2927734375 381.28359375 386.7 383.1 385.8818359375 383.7119140625 384.9 384.35 384.4 383.45 384.2 381.4 384.1515625 380.9158203125 384.05 380.5 383.818359375 379.194140625 383.25 378.55 382.7 377.9 381.9 377.75 381.1 377.6 380.5 378.1 380.103125 378.4306640625 379.95 379 379.7234375 379.0306640625 379.55 379.1 378.85 379.2 376.15 379.75 374.7 380.05 371.9 380.35
L 364.8 381
Q 361.05 381.3 358.9 381.25 355.65 381.2 353.1 380.5 349.95 379.55 344.6 376.2 341.6 374.35 339.95 374.05 338.65 373.8 337.4 374.2 336.188671875 374.558984375 335.5 375.4 336.526171875 375.7017578125 337.85 376.45 339.1322265625 377.1623046875 340.05 377.9 339.994140625 377.9765625 339.95 378.05 339.45 378.9 339.45 380.1 339.45 381.75 339.35 382.05 339.35 382.1 339 382.95 338.8 383.5 338.85 383.9 337.1 383.05 335.1 379.7 333.75 377.45 332.95 375.85 332.15 374.3 331.9 373.85 331.3 372.9 329.75 371.25
L 329.2 370.7
Q 329.9005859375 370.3912109375 330.35 370.05 330.360546875 369.3986328125 330 368.65 329.35 367.2 327.9 366.4 326.95 365.85 325.05 365.25 322.9 364.65 322.1 364.25 319.05 362.85 316.95 359.2 315.45 356.6 314.2 352.1 313.45 349.55 313.05 348.6 312.3 346.7 311.3 345.45 310.1 344 308.35 343.35 306.45 342.7 304.85 343.4 302.45 336.35 302.7 328.6 302.8 326 303.55 324.6 304.1 323.65 305.2 322.75 305.5 322.55 307.25 321.3 314.9 315.95 321.4 304.05 328.1 290 332 283.45 340.1 269.8 351.75 263.25 358.15 259.7 365.25 258.75 372.7 257.75 379.3 259.85 384.85 261.65 390.5 265.95 394.6 269.1 400 274.7 400.15 274.85 400.35 275.05 400.8 277.15 405.1 277.5
L 413.85 278.1
Q 417.1 278.35 418.6 278.7
M 327.55 320.7
Q 327.05 320.3 325.3 319.85 324.25 319.6 323.75 319.6 323.5 319.7 323.25 319.7 322.85 319.85 322.35 320.35
L 318.3 326.75
Q 318.35 327.5 318.8 328.25 319.5 329.4 320.75 330.1 323 331.4 325.05 330.6 326.1 330.15 327.05 328.95 328.25 327.6 328.75 325.9 329.25 324.1 328.75 322.45 328.3 321.35 327.55 320.7
M 325.25 323.1
L 325.7 323.25 325.85 323.7 325.95 324.5
Q 325.9 325.15 325.45 325.95 325.2 326.4 324.6 327.1 323.9 327.7 323.35 327.7 322.75 327.75 321.85 327.05 321.35 326.75 321.35 326.35 321.4 326.1 321.7 325.8 322.85 324.05 323.7 323.55 324.45 323.1 325.25 323.1
M 396.45 330.05
Q 395.8 329.3 395.3 329 394.6 328.65 393.85 328.85 393.25 328.95 392.7 329.5 392.6 329.5 392.55 329.6 391.75 330.3 391.15 331.8 390.1 334.2 389.7 337.25 389.45 339.05 389.35 342.95
L 389 352.2 387.3 352.8
Q 384.15 354 383.55 355.6 383.25 356.4 383.4 357.8 383.8 360.4 385.4 362.25 387.15 364.35 389.5 364.6 390.75 364.75 393.15 364.3 398.65 363.3 402.05 361.95 404.4 361 406.7 359.6 408.9 358.35 410 357.3 410.7 356.7 412.55 354.45 414.15 352.5 414.65 351.3 415.1201171875 350.359765625 415.4 349.25 415.7927734375 347.8392578125 415.85 346.15 415.8716796875 345.6716796875 415.85 345.25 415.7869140625 343.7 415.2 342.8 414.55 341.8 412.45 340.75 411.5 340.3 410.6 340.15 410.25 340.1 409.9 340.2 409.85 340.15 409.85 340.1 408.7 334.9 409.4 329.75 409.7 328 409.3 327.25 408.85 326.4 407.75 326.15 406.65 325.9 405.75 326.4 404.3 327.15 403.15 329.45 402 331.6 400.95 334.8
L 399.3 339.05 397.9 333
Q 397.8 332.35 397.55 331.7 397.35 331.3 396.45 330.05
M 392.5 341.95
Q 392.4 340.25 392.45 339.35 392.55 337.9 393.45 334.45 393.95 333 394.45 332.55 394.7 333.15 395 334.3
L 395.8 337.25
Q 396 338.15 396.35 340.05 396.75 341.7 397.25 342.75 397.95 344 398.8 344.55 400.05 345.2 401 344.5 401.55 344.15 401.7 343.6 401.8 343 401.45 342.5 401.4 342.4 401.35 342.35 401.4 342 401.55 341.55 403.55 335.65 406 330.55 406.05 336.55 406.45 339.35 406.55 340.75 407.05 341.5 405.95 342.15 406.15 342.85 406.25 343.3 407 343.6 408.5 344.45 408.7 344.55 409.6 345.15 409.9 345.9 410.2 346.6 410.15 347.8 410.15 349.7 409.9 350.65 409.6 352.1 408.15 354 406.25 356.75 404.45 357.95 402.45 359.4 399.05 360.2 397 360.75 394.8 361.05 393.2 361.3 392.4 360.95 391.75 360.65 391.1 359.95 390.15 358.85 389.6 357.55 390.25 356.95 391.6 355.75 392.75 354.7 393.8 354.25 394.1 354.1 394.8 353.75 395.3 353.45 395.65 353.05 396.15 352.5 395.95 351.6 395.9 351.4 395.85 351.25 396.1 350.85 396 350.4 395.05 349.9 393.3 350.55
L 392.1 351 392.5 341.95
M 378.2 326.7
Q 377.35 326.25 376.45 326.25 375.5 326.25 374.8 326.75
L 373.6 328.1
Q 373.35 328.4 371.95 329.5 370.95 330.35 370.55 331.1 369.95 332.35 370.55 333.8 371.1 335.15 372.35 335.95 373.8 336.9 375.65 336.85 377.45 336.85 378.9 335.85 379.9 335.15 380.45 334.15 381.65 332.15 381 329.9 380.25 327.6 378.2 326.7
M 377.4 329.75
Q 377.8 330.15 378.1 331.35
L 378.15 332
Q 378.05 332.4 377.35 332.9 376 333.85 375.2 333.75 374.55 333.7 373.6 332.95
L 373.35 332.65
Q 373.35 332.4 373.55 332.2 374.4 331.2 376.7 329.75 376.9 329.55 377.1 329.55 377.3 329.55 377.4 329.75 Z"/>

<path fill="#E57AED" stroke="none" d="
M 423 280.45
Q 421.25 279.2 418.6 278.7 417.1 278.35 413.85 278.1
L 405.1 277.5
Q 400.8 277.15 400.35 275.05 400.15 274.85 400 274.7 394.6 269.1 390.5 265.95 384.85 261.65 379.3 259.85 372.7 257.75 365.25 258.75 358.15 259.7 351.75 263.25 340.1 269.8 332 283.45 328.1 290 321.4 304.05 314.9 315.95 307.25 321.3 305.5 322.55 305.2 322.75 304.1 323.65 303.55 324.6 302.8 326 302.7 328.6 302.45 336.35 304.85 343.4 306.45 342.7 308.35 343.35 310.1 344 311.3 345.45 312.3 346.7 313.05 348.6 313.45 349.55 314.2 352.1 315.45 356.6 316.95 359.2 319.05 362.85 322.1 364.25 322.9 364.65 325.05 365.25 326.95 365.85 327.9 366.4 329.35 367.2 330 368.65 330.360546875 369.3986328125 330.35 370.05 329.9005859375 370.3912109375 329.2 370.7
L 329.75 371.25
Q 331.3 372.9 331.9 373.85 332.15 374.3 332.95 375.85 333.75 377.45 335.1 379.7 337.1 383.05 338.85 383.9 338.8 383.5 339 382.95 339.35 382.1 339.35 382.05 339.45 381.75 339.45 380.1 339.45 378.9 339.95 378.05 339.994140625 377.9765625 340.05 377.9 339.1322265625 377.1623046875 337.85 376.45 336.526171875 375.7017578125 335.5 375.4 336.188671875 374.558984375 337.4 374.2 338.65 373.8 339.95 374.05 341.6 374.35 344.6 376.2 349.95 379.55 353.1 380.5 355.65 381.2 358.9 381.25 361.05 381.3 364.8 381
L 371.9 380.35
Q 374.7 380.05 376.15 379.75 378.85 379.2 379.55 379.1 379.7234375 379.0306640625 379.95 379 380.103125 378.4306640625 380.5 378.1 381.1 377.6 381.9 377.75 382.7 377.9 383.25 378.55 383.818359375 379.194140625 384.05 380.5 384.1515625 380.9158203125 384.2 381.4 384.4 383.45 384.9 384.35 385.8818359375 383.7119140625 386.7 383.1 389.2927734375 381.28359375 390.5 379.85 390.7103515625 379.6046875 391.05 379.15 391.19375 378.9068359375 391.5 378.65 391.9548828125 378.1169921875 392.4 377.85 393 377.4 393.7 377.35 394.1474609375 377.3201171875 394.5 377.45 394.7822265625 377.072265625 395.1 376.8 395.95 376.15 396.75 376.6 396.95 376.7 397.1 376.9 398.05 376.65 398.7 376.4 400.45 375.75 403.7 373.9 404.5615234375 373.454296875 405.35 373.15 405.3607421875 372.3919921875 405.75 371.7 406.2 370.9 407 370.75 407.75 370.65 408.45 371.3 409.033984375 371.83515625 409.3 372.65 409.820703125 372.783203125 409.9 373.1 409.934375 373.2205078125 409.9 373.35 409.7263671875 373.4212890625 409.55 373.5 409.6201171875 373.8705078125 409.7 374.35 409.85 375.4 410.1 375.95 411.741015625 375.1623046875 412.95 373.6 413.5845703125 372.8134765625 414.1 371.8 414.4 371.3 414.9 370.15 415.4 369.2 415.95 368.7 416.7 368.1 417.7 368.1 418.0568359375 368.1 418.35 368.2
L 422.55 367.05
Q 423.75 366.65 424.25 366.35 424.95 365.95 425.75 364.95 428.95 361.35 431 357.05 431.8 355.2 432.65 354.5 433.35 353.85 434.7 353.6 435.4 353.5 436.1 353.55 436.2 353.4 436.3 353.3 437.25 352.45 438.45 352.5 439.2 352.55 440.4 353.15 441.75 353.8 442.35 353.95 443.25 354.15 445.05 353.75 449.1 352.85 452.8 351.2 454.5 350.4 455.25 349.8 455.75 349.35 457.1 347.8
L 459.3 344.95
Q 460.5 343.25 461.4 341.75
L 464.9 336.2
Q 466 334.45 466.95 333.85 468.1 332.55 469.85 332.35 471.05 332.2 473.25 332.6 475.6 332.95 476.6 332.95 477.9 332.95 478.9 332.35 480.1 331.6 480.15 330.5 480.25 328.95 478.15 327.45 473.35 324 467.4 322.85 467.05 322.8 457.45 322 451.45 321.5 448.05 319.55 444.65 317.6 441.9 313.4 440.35 311.05 437.75 305.5 433.25 295.95 427.7 286.35 425.2 282 423 280.45
M 408.25 296
Q 407.95 295.15 407.7 294.3 407.05 292.15 407.65 291.2 408.2 290.25 409.55 289.9 410.35 289.75 411.95 289.75 412.55 289.75 415.2 289.65 417.15 289.55 418.4 289.65 419.8 289.75 420.65 290.05 421.4 290.3 422.7 291.2 423.65 292 424.2 292.65 424.55 293.15 424.95 294
L 426.45 296.75
Q 427.4 298.6 428.1 300.6 428.5 301.75 428.65 302.7 428.8 303.7 428.8 304.6 428.8 306.8 428.5 307.6 428.25 308.3 427.75 308.95 427.8 309 427.85 309.1 431.7 314.3 436.45 318.6 437.45 319.5 438.1 319.6 438.15 319.6 438.2 319.65 438.2 319.75 438.2 319.9 438.2 321 438.85 322.15 441.1 326.4 440.3 329.95 439.8 332.3 437.6 334.85 434.85 337.7 433.55 339.1 431.2 341.65 428.75 345.75 426.1 350.55 424.7 352.9 420.95 359.45 417.15 362.25 414.55 364.1 408.55 366.3
L 396.75 370.55
Q 392.4 372.2 389.75 372.25 388.15 372.3 385.3 371.65 382.15 370.95 380.8 370.85 378.5 370.7 375.2 371.45 371.5 372.4 369.6 372.75 360.65 374.55 350.05 371.2 342.9 369 332.05 363 324.55 358.85 321.25 355.3 317.45 351.3 314.7 343.85 312.8 338.75 313.45 335.65 313.85 333.7 315.95 330.4
L 318.3 326.75 322.35 320.35 322.8 319.65
Q 323 319.7 323.2 319.7
L 323.25 319.7
Q 323.5 319.7 323.75 319.6 324.45 319.3 325.15 318.05 329.6 309.4 335.6 301.9 335.45 299.55 335.7 297.9 335.95 296.3 337.05 293.3 338.55 289.4 339.6 287.6 340.65 285.9 343.25 282.8 347 278.45 349.4 276.95 351.55 275.65 355.4 274.6 360.7 273.15 361.65 272.8 363.45 272.25 364.1 272.5 364.65 272.7 365.5 273.5 366.25 274 368.05 274.5 369.65 275.1 370.7 276.45 373.3 276.1 375.85 276.25 380.95 276.6 384.9 279 387.8 280.75 391.95 285.2 396.5 290.05 398.85 291.7 401.5 293.55 408.25 296 Z"/>

<path fill="#762583" stroke="none" d="
M 322.8 319.65
L 322.35 320.35
Q 322.85 319.85 323.25 319.7
L 323.2 319.7
Q 323 319.7 322.8 319.65
M 370.7 276.45
Q 370.75 276.55 370.85 276.65 372 278.2 372.15 280 372.3 281.8 371.4 283.9 370.85 285.2 369.45 287.5
L 365.75 293.4
Q 361.8 299.75 359.35 302.8 354.25 309.3 348.8 310.55 346.2 311.2 343.45 310.6 340.75 310 338.6 308.4 337.35 307.45 336.6 306.2 335.95 305.05 335.65 302.65 335.6 302.25 335.6 301.9 329.6 309.4 325.15 318.05 324.45 319.3 323.75 319.6 324.25 319.6 325.3 319.85 327.05 320.3 327.55 320.7 328.3 321.35 328.75 322.45 329.25 324.1 328.75 325.9 328.25 327.6 327.05 328.95 326.1 330.15 325.05 330.6 323 331.4 320.75 330.1 319.5 329.4 318.8 328.25 318.35 327.5 318.3 326.75
L 315.95 330.4
Q 313.85 333.7 313.45 335.65 312.8 338.75 314.7 343.85 317.45 351.3 321.25 355.3 324.55 358.85 332.05 363 342.9 369 350.05 371.2 360.65 374.55 369.6 372.75 371.5 372.4 375.2 371.45 378.5 370.7 380.8 370.85 382.15 370.95 385.3 371.65 388.15 372.3 389.75 372.25 392.4 372.2 396.75 370.55
L 408.55 366.3
Q 414.55 364.1 417.15 362.25 420.95 359.45 424.7 352.9 426.1 350.55 428.75 345.75 431.2 341.65 433.55 339.1 434.85 337.7 437.6 334.85 439.8 332.3 440.3 329.95 441.1 326.4 438.85 322.15 438.2 321 438.2 319.9 438.2 319.75 438.2 319.65 438.15 319.6 438.1 319.6 437.45 319.5 436.45 318.6 431.7 314.3 427.85 309.1 427.8 309 427.75 308.95 427.45 309.3 427.1 309.65 425.35 311.4 423.35 311.9 421.05 312.45 419 311.55 417.75 310.95 416.55 309.55 416 308.9 414.6 306.95 413.2 305.1 412.85 304.45
L 410.4 300.35
Q 409.2 298.5 408.25 296 401.5 293.55 398.85 291.7 396.5 290.05 391.95 285.2 387.8 280.75 384.9 279 380.95 276.6 375.85 276.25 373.3 276.1 370.7 276.45
M 376.45 326.25
Q 377.35 326.25 378.2 326.7 380.25 327.6 381 329.9 381.65 332.15 380.45 334.15 379.9 335.15 378.9 335.85 377.45 336.85 375.65 336.85 373.8 336.9 372.35 335.95 371.1 335.15 370.55 333.8 369.95 332.35 370.55 331.1 370.95 330.35 371.95 329.5 373.35 328.4 373.6 328.1
L 374.8 326.75
Q 375.5 326.25 376.45 326.25
M 395.3 329
Q 395.8 329.3 396.45 330.05 397.35 331.3 397.55 331.7 397.8 332.35 397.9 333
L 399.3 339.05 400.95 334.8
Q 402 331.6 403.15 329.45 404.3 327.15 405.75 326.4 406.65 325.9 407.75 326.15 408.85 326.4 409.3 327.25 409.7 328 409.4 329.75 408.7 334.9 409.85 340.1 409.85 340.15 409.9 340.2 410.25 340.1 410.6 340.15 411.5 340.3 412.45 340.75 414.55 341.8 415.2 342.8 415.7869140625 343.7 415.85 345.25 415.8716796875 345.6716796875 415.85 346.15 415.7927734375 347.8392578125 415.4 349.25 415.1201171875 350.359765625 414.65 351.3 414.15 352.5 412.55 354.45 410.7 356.7 410 357.3 408.9 358.35 406.7 359.6 404.4 361 402.05 361.95 398.65 363.3 393.15 364.3 390.75 364.75 389.5 364.6 387.15 364.35 385.4 362.25 383.8 360.4 383.4 357.8 383.25 356.4 383.55 355.6 384.15 354 387.3 352.8
L 389 352.2 389.35 342.95
Q 389.45 339.05 389.7 337.25 390.1 334.2 391.15 331.8 391.75 330.3 392.55 329.6 392.6 329.5 392.7 329.5 393.25 328.95 393.85 328.85 394.6 328.65 395.3 329
M 341.55 332.6
Q 342.7 331.55 343.75 331.95 344.15 332.1 344.9 332.85 345.7 333.6 348.9 335.75 349.95 336.5 350.25 337.05
L 350.3 337.1
Q 350.3 337.05 350.35 337.05 350.55 337 350.6 336.9 351.5 336.8 352 337.6 352 337.65 352.05 337.65 352 336.9 352.85 336.25 353.55 335.8 354.85 335.6 356.25 335.35 357.2 335.4 358.55 335.5 359.3 336.25 360.4 337.3 360.2 340.3 359.9 343.85 359.05 345.4 358 347.3 355.2 348.9 351.75 350.9 347.9 351.5 345.45 351.95 343.75 351.25 342.8 350.85 341.7 349.8 340.5 348.55 339.85 347.95 338.55 346.85 337.95 346.2 336.9 345.15 336.6 344.15 336.15 342.6 337.25 339.55 337.85 337.85 338.35 337.05 339.55 335.45 340.15 334.6 341.25 332.85 341.55 332.6 Z"/>

<path fill="#54B997" stroke="none" d="
M 325.7 323.25
L 325.25 323.1
Q 324.45 323.1 323.7 323.55 322.85 324.05 321.7 325.8 321.4 326.1 321.35 326.35 321.35 326.75 321.85 327.05 322.75 327.75 323.35 327.7 323.9 327.7 324.6 327.1 325.2 326.4 325.45 325.95 325.9 325.15 325.95 324.5
L 325.85 323.7 325.7 323.25
M 378.1 331.35
Q 377.8 330.15 377.4 329.75 377.3 329.55 377.1 329.55 376.9 329.55 376.7 329.75 374.4 331.2 373.55 332.2 373.35 332.4 373.35 332.65
L 373.6 332.95
Q 374.55 333.7 375.2 333.75 376 333.85 377.35 332.9 378.05 332.4 378.15 332
L 378.1 331.35 Z"/>

<path fill="#850085" stroke="none" d="
M 340.65 344.6
Q 341.05 344.95 341.95 345.65 342.2 345.85 343.2 347 343.9 347.9 344.55 348.2 345.5 348.65 347.35 348.35 351.5 347.7 354.6 345.65 356.2 344.65 356.65 343.55 357 342.75 357 341.05 356.95 339.25 357.25 338.5 356.7 338.4 355.85 338.6 354.95 338.9 354.5 338.95 353.75 339.1 353.1 338.9 352.55 338.7 352.25 338.35 352.25 337.95 352.05 337.65 352 337.65 352 337.6 351.5 336.8 350.6 336.9 350.55 337 350.35 337.05 350.3 337.05 350.3 337.1 350.1 337.15 350.05 337.15 349.95 337.2 349.55 337.55
L 349.35 337.95 349.3 338.3
Q 349.3 338.75 349.5 339.15 349.1 339.15 348.7 339.05 348.25 338.95 347.35 338.35
L 343.4 335.55
Q 341.05 337.95 339.85 341.15 339.35 342.5 339.65 343.3 339.85 343.95 340.65 344.6 Z"/>

<path fill="#62006C" stroke="none" d="
M 343.75 331.95
Q 342.7 331.55 341.55 332.6 341.25 332.85 340.15 334.6 339.55 335.45 338.35 337.05 337.85 337.85 337.25 339.55 336.15 342.6 336.6 344.15 336.9 345.15 337.95 346.2 338.55 346.85 339.85 347.95 340.5 348.55 341.7 349.8 342.8 350.85 343.75 351.25 345.45 351.95 347.9 351.5 351.75 350.9 355.2 348.9 358 347.3 359.05 345.4 359.9 343.85 360.2 340.3 360.4 337.3 359.3 336.25 358.55 335.5 357.2 335.4 356.25 335.35 354.85 335.6 353.55 335.8 352.85 336.25 352 336.9 352.05 337.65 352.25 337.95 352.25 338.35 352.55 338.7 353.1 338.9 353.75 339.1 354.5 338.95 354.95 338.9 355.85 338.6 356.7 338.4 357.25 338.5 356.95 339.25 357 341.05 357 342.75 356.65 343.55 356.2 344.65 354.6 345.65 351.5 347.7 347.35 348.35 345.5 348.65 344.55 348.2 343.9 347.9 343.2 347 342.2 345.85 341.95 345.65 341.05 344.95 340.65 344.6 339.85 343.95 339.65 343.3 339.35 342.5 339.85 341.15 341.05 337.95 343.4 335.55
L 347.35 338.35
Q 348.25 338.95 348.7 339.05 349.1 339.15 349.5 339.15 349.3 338.75 349.3 338.3
L 349.35 337.95 349.55 337.55
Q 349.95 337.2 350.05 337.15 350.1 337.15 350.3 337.1
L 350.25 337.05
Q 349.95 336.5 348.9 335.75 345.7 333.6 344.9 332.85 344.15 332.1 343.75 331.95 Z"/>

<path fill="#542583" stroke="none" d="
M 392.45 339.35
Q 392.4 340.25 392.5 341.95
L 392.1 351 393.3 350.55
Q 395.05 349.9 396 350.4 396.1 350.85 395.85 351.25 395.9 351.4 395.95 351.6 396.15 352.5 395.65 353.05 395.3 353.45 394.8 353.75 394.1 354.1 393.8 354.25 392.75 354.7 391.6 355.75 390.25 356.95 389.6 357.55 390.15 358.85 391.1 359.95 391.75 360.65 392.4 360.95 393.2 361.3 394.8 361.05 397 360.75 399.05 360.2 402.45 359.4 404.45 357.95 406.25 356.75 408.15 354 409.6 352.1 409.9 350.65 410.15 349.7 410.15 347.8 410.2 346.6 409.9 345.9 409.6 345.15 408.7 344.55 408.5 344.45 407 343.6 406.25 343.3 406.15 342.85 405.95 342.15 407.05 341.5 406.55 340.75 406.45 339.35 406.05 336.55 406 330.55 403.55 335.65 401.55 341.55 401.4 342 401.35 342.35 401.4 342.4 401.45 342.5 401.8 343 401.7 343.6 401.55 344.15 401 344.5 400.05 345.2 398.8 344.55 397.95 344 397.25 342.75 396.75 341.7 396.35 340.05 396 338.15 395.8 337.25
L 395 334.3
Q 394.7 333.15 394.45 332.55 393.95 333 393.45 334.45 392.55 337.9 392.45 339.35 Z"/>

<path fill="#F3BAFF" stroke="none" d="
M 343.25 282.8
Q 340.65 285.9 339.6 287.6 338.55 289.4 337.05 293.3 335.95 296.3 335.7 297.9 335.45 299.55 335.6 301.9 335.6 302.25 335.65 302.65 335.95 305.05 336.6 306.2 337.35 307.45 338.6 308.4 340.75 310 343.45 310.6 346.2 311.2 348.8 310.55 354.25 309.3 359.35 302.8 361.8 299.75 365.75 293.4
L 369.45 287.5
Q 370.85 285.2 371.4 283.9 372.3 281.8 372.15 280 372 278.2 370.85 276.65 370.75 276.55 370.7 276.45 369.65 275.1 368.05 274.5 366.25 274 365.5 273.5 364.65 272.7 364.1 272.5 363.45 272.25 361.65 272.8 360.7 273.15 355.4 274.6 351.55 275.65 349.4 276.95 347 278.45 343.25 282.8
M 366.7 277.3
Q 366.85 277.35 366.95 277.4 368.1 277.95 368.65 278.85 369.45 280.15 368.9 281.9 368.55 283.1 367.45 284.75
L 362.55 292.7
Q 358.35 299.55 355.4 302.7 351.9 306.65 348.15 307.5 344.55 308.3 341.35 306.5 339.95 305.7 339.3 304.7 338.75 303.8 338.55 302 338.45 300.2 339 297.85 344 292.15 349.9 287.1 358.75 279.7 366.3 277.4 366.5 277.35 366.7 277.3
M 407.7 294.3
Q 407.95 295.15 408.25 296 409.2 298.5 410.4 300.35
L 412.85 304.45
Q 413.2 305.1 414.6 306.95 416 308.9 416.55 309.55 417.75 310.95 419 311.55 421.05 312.45 423.35 311.9 425.35 311.4 427.1 309.65 427.45 309.3 427.75 308.95 428.25 308.3 428.5 307.6 428.8 306.8 428.8 304.6 428.8 303.7 428.65 302.7 428.5 301.75 428.1 300.6 427.4 298.6 426.45 296.75
L 424.95 294
Q 424.55 293.15 424.2 292.65 423.65 292 422.7 291.2 421.4 290.3 420.65 290.05 419.8 289.75 418.4 289.65 417.15 289.55 415.2 289.65 412.55 289.75 411.95 289.75 410.35 289.75 409.55 289.9 408.2 290.25 407.65 291.2 407.05 292.15 407.7 294.3
M 424.5 307.85
Q 423.7 308.75 422.6 308.95 420.95 309.25 419.25 307.9 418.5 307.3 416.95 305.05 414.4 301.15 413.3 299.2 412.8 298.3 412.35 297.4 420 300.1 423.35 303.4 424.35 304.4 425.55 305.95 425.25 307 424.5 307.85 Z"/>

<path fill="#E981FF" stroke="none" d="
M 366.95 277.4
Q 366.85 277.35 366.7 277.3 366.5 277.35 366.3 277.4 358.75 279.7 349.9 287.1 344 292.15 339 297.85 338.45 300.2 338.55 302 338.75 303.8 339.3 304.7 339.95 305.7 341.35 306.5 344.55 308.3 348.15 307.5 351.9 306.65 355.4 302.7 358.35 299.55 362.55 292.7
L 367.45 284.75
Q 368.55 283.1 368.9 281.9 369.45 280.15 368.65 278.85 368.1 277.95 366.95 277.4
M 422.6 308.95
Q 423.7 308.75 424.5 307.85 425.25 307 425.55 305.95 424.35 304.4 423.35 303.4 420 300.1 412.35 297.4 412.8 298.3 413.3 299.2 414.4 301.15 416.95 305.05 418.5 307.3 419.25 307.9 420.95 309.25 422.6 308.95 Z"/>

<path fill="#332301" stroke="none" d="
M 418.25 136.25
Q 417.7 136.15 417.1 136.55 417.0685546875 136.5720703125 417.05 136.6 416.55703125 136.8447265625 416.35 137.3 416.189453125 137.634375 416.2 138 416.103125 138.76171875 416.25 139.9 417.1908203125 150.0705078125 417.25 159.85 416.9025390625 160.1171875 416.55 160.35 414.6 161.6 414.1 162.65 413.7 163.45 413.95 164.35 414.2 165.3 415 165.55 416 165.8 417.4 164.7 417.6294921875 164.5361328125 417.85 164.35 417.9025390625 164.4126953125 417.95 164.45 418.55 164.9 419.35 164.65 420.15 164.35 420.6 163.65 420.9595703125 163.02890625 421.05 161.95 424.06171875 159.51328125 427 156.7 429.65 154.25 430.65 152.4 432.2 149.45 431.2 146.9 430.7 145.6 429.4 144.4 428.7 143.8 426.85 142.5 423.65 140.35 420.6 137.75 419.6099609375 136.943359375 418.95 136.6 418.6451171875 136.332421875 418.25 136.25
M 420.55 148.3
Q 420.3771484375 144.58359375 420.15 141.95
L 425.75 146.2
Q 427.4 147.4 427.65 148.55 427.95 149.95 426.25 151.85 423.8380859375 154.6736328125 420.9 157.1
L 420.55 148.3
M 461.65 142.1
Q 461.75 140.05 461.35 139.15 461.05 138.4 460.4 138 459.7 137.5 459 137.7 457.35 138.15 457.45 141.15 457.55 143.7 458.05 148.85 458.4 153.45 458.05 156.5 457.9 158.3 458 158.65 458.25 159.95 459.25 160.3 459.85 160.5 460.55 160.2 461.15 159.9 461.5 159.35 462 158.6 462.2 156.8 462.4 154.1 462.05 149.45 461.65 144.1 461.65 142.1
M 332 159.95
Q 333.8 160.05 334.5 159.55 335.05 159.15 335.25 158.45 335.45 157.75 335.1 157.15 334.35 155.75 331.7 155.75 326.65 155.65 322.05 157.15 322.6 152.8 322.45 147.3 322.35 144.3 321.9 137.4 321.8 135.85 321.3 135.25 320.75 134.55 319.8 134.6 318.8 134.65 318.3 135.4 317.9 136 317.9 137.65 318.1 141 318.45 147.65 318.6 153.35 317.9 157.55 317.6 159.05 317.7 159.9 317.9 161.35 318.9 161.85 319.85 162.35 322 161.5 326.95 159.65 332 159.95
M 361.15 141.15
Q 360.9 140.7 360.75 140.45 360.5 140.05 360.2 139.85 359.4 139.3 357.6 140.15 356.35 140.75 356 141.35 355.8 141.7 355.6 142.9 355.45 143.9 355 144.8 354.9 145 353.35 147.6 352.3 149.25 352.25 150.55 352.15 152.3 353.5 153.75 354.8 155.15 356.65 155.4 359.9 155.95 363.25 153.15 364.9 151.75 365.3 150.3 365.55 149.25 365.05 147.1 364.2 144 362.75 142.7 361.6 141.75 361.15 141.15
M 360.6 146.6
L 361.15 147.95
Q 361.35 148.55 361.35 148.9 361.3 149.4 360.6 150.1 359.15 151.35 357.9 151.35 357 151.35 356.25 150.7 357.65 147.75 359.4 145.2 360.1 145.35 360.6 146.6
M 384.6 139.6
Q 384.3 140.05 383 143.05 382.658203125 143.876171875 382.05 145.1 380.6189453125 144.2921875 379.65 144.2 378.9 144.15 378.2 144.55 377.55 144.95 377.35 145.6 377.1 146.85 378.25 147.7 378.8173828125 148.1728515625 380.2 148.7 379.3658203125 150.3296875 378.95 151.3 378.05 153.4 376.75 157.8 376.15 159.75 376.65 160.7 377.05 161.35 377.8 161.55 378.6 161.75 379.25 161.35 380.1 160.85 380.6 159.1 381.75 155.2 382.2 154.05 382.416015625 153.4884765625 383.9 150.4 383.925 150.4384765625 383.95 150.45 386.1 151.5 387.6 151.9 388.1033203125 152.02578125 388.55 152.05
L 388.5 152.55
Q 388.4 153.45 388.6 155.25
L 388.9 157.85
Q 389.2 160.2 390.3 160.75 390.9 161.1 391.65 160.85 392.35 160.65 392.8 160.1 393.6 159 393.35 157.4 393.3 157 392.85 155.65 392.55 154.6 392.5 153.9 392.7 152.55 392.7 151.85
L 392.5 150.1
Q 392.5 149.75 392.6 147.75 392.6 147 392.4 145.4
L 392.05 142.45
Q 391.85 141.05 391.6 140.4 391.35 139.8 390.65 138.7 390.05 137.9 389.75 137.65 388.8 136.95 387.5 137.25 385.75 137.65 384.6 139.6
M 388.4 146.05
Q 388.5373046875 147.0107421875 388.55 147.65 387.9095703125 147.5298828125 387.55 147.45 386.7337890625 147.26640625 385.7 146.85
L 385.95 146.4
Q 386.6 145.25 386.85 144.45 387.4 142.75 387.9 142.3
L 388.4 146.05
M 590 153.95
L 590.05 154.15
Q 589.05 154.05 588.55 154.95
L 588.35 155.6
Q 588.3 156 588.35 156.35 588.4 156.7 588.7 157.1 588.9 157.45 589.4 157.7 590.05 158.05 590.95 157.8 591.3 157.65 591.65 157.3 592.05 156.9 592.15 156.25 592.25 155.6 592 155.05 591.75 154.55 591.15 154.2 590.6 153.9 590 153.95
M 500.05 139
Q 499.2 138.05 497.9 138.3 496.6 138.65 496.35 139.9 496.25 140.55 496.65 141.4 496.85 141.9 497.35 142.9 497.6 143.5 497.8 144.8
L 498.15 147.05
Q 498.55 149.8 497.55 150.8 496.3 151.95 494.15 151.1 492.45 150.45 490 148.1 486.9 145.15 485.05 142.9 484 141.55 483.2 141.4 482.15 141.25 481.5 142.05 480.85 142.75 480.95 143.85 481.15 144.75 481.6 145.3 481.9 145.65 482.55 146.3 482.85 146.75 483.15 147.85 484.75 154.05 485.45 157.15 485.75 158.55 486.3 159.15 486.9 159.75 487.9 159.65 488.85 159.5 489.3 158.75 489.85 157.85 489.3 155.85
L 488.35 152.1
Q 490.75 154.35 493.35 155.1 496.45 156 499.05 154.75 501.45 153.5 502.15 151.15 502.4 150.1 502.3 148.4 502.1 144.85 501.15 141.3 500.75 139.65 500.05 139
M 540.75 146.65
L 543.95 140.85
Q 544.25 140.4 546.6 137.65
L 548.75 135.05
Q 549.6 134 549.65 133.2 549.65 132.3 548.9 131.7 548.35 131.3 547.55 131.4 546.8 131.5 546.15 131.95 545.6 132.4 544.25 134.2 542.35 136.4 541.45 137.5 539.75 139.6 538.2 142.55 537.2 144.4 535.65 148 535.25 148.85 535.05 149.5 534.75 150.4 534.65 151.9 534.45 153.8 534.6 154.75 534.85 156.4 535.9 157.25 537 158.1 539.45 158.1 542.3 158.1 548.1 157.3 551.35 156.85 552.9 156.5 554.9048828125 156.07578125 556.5 155.45 556.7333984375 156.3609375 556.65 157 556.6 157.55 556.45 158.65 556.5 159.65 557.5 160.25 558.5 160.8 559.35 160.35 560.2 159.9 560.65 158.7 561.05 157.5 560.75 155.95 560.6 154.9 559.95 153.15
L 558.05 148
Q 557.3 145.95 556.25 145.55 555.65 145.35 555 145.6 554.35 145.85 554.05 146.4 553.5 147.45 554.3 149.4
L 555.1 151.55 555.1 151.55
Q 552 152.7 545.2 153.5 540.9 154 538.7 153.85 538.5 151.6 539.5 149.15 539.95 148.1 540.75 146.65 Z"/>

<path fill="#660000" stroke="none" d="
M 718 317.75
Q 713.6 319.7 711.05 319.5 708.3 319.4 705.85 317.75 703.55 316.25 701.9 313.8 699.85 310.85 699.35 308.2 698.95 306 699.35 301.95 699.85 297.6 699.55 295.65 694.3 303.45 693.15 312.8
L 693.15 312.8
Q 693.554296875 314.1251953125 694.3 315.95 694.709375 316.761328125 695.3 318.1 696.85 321.6 697.2 325.55 697.1 325 696.9 324.6 696.55 323.95 696.5 323 696.5 322.6 696.45 322.25 696.2142578125 322.10859375 696.1 321.9 696.4005859375 325.4064453125 694.6 329.7 694.1 330.95 692.8 333.6 691.55 336.1 691 337.5 689.8 340.6 689.4 341.35 688.9 342.3 687.75 343.8 686.5 345.45 686.05 346.25 684.85 348.4 684.45 350.8 684 354.25 685.8 360.35 686.6658203125 363.3025390625 687.1 365.5 687.2126953125 365.4791015625 687.3 365.45
L 689.25 368.7
Q 690.68984375 368.83046875 692.6 369.25 693.0052734375 369.4662109375 693.55 369.55
L 694.65 369.7 695.4 369.55
Q 695.65 369.5 696.15 369.55 696.65 369.6 696.9 369.5 696.9560546875 369.484765625 697 369.45 698.3587890625 369.7326171875 700.45 369.35 706.45 368.2 710.25 366.85 715.45 365.05 718.9 362.1 723 358.85 724.65 353.95 726.45 348.75 724.55 344.35 722.75 341.15 721.9 339.6 720.35 336.75 720.45 334.65 720.7 332.45 722.65 330.15 723.8 328.8 726.35 326.35 729.75 322.75 731.15 317.75 732.65 312.85 731.75 308 730.35 308.15 728.95 309.55 727.5 311.35 726.75 312.2 724.2 315.15 718 317.75
M 704.7 328.15
Q 704.95 328.2 708.35 329.1 710.5 329.65 711.75 330.45 713.25 331.4 713.4 331.35 713.9 331.5 714.9 331.6 715.85 331.8 715.85 332.6 716 333.55 714.3 334 713.65 334.15 713.45 334.15 712.9 334.25 712.5 334.05 711.8 333.55 711.45 333.35 710.85 333 709 332.75 705.3 332.45 702.5 331.35 700.95 330.6 698.65 329.35 698.2 329.1 698.1 328.85 697.9 328.45 698.35 327.95 699.4 326.85 701.5 327.15 702.2 327.2 703.1 327.55 703.6 327.7 704.7 328.15
M 698.45 336.1
L 697.9 335.95
Q 697.9 335.4 698.8 335.1 701.55 333.9 706.6 335.95 710.3 337.35 712.15 338.75 712.35 338.9 712.45 339.05 712.9 339.35 713.25 339.75 711.8 341.4 710.8 341.8 710.1 342.05 708.35 342.05 706.2 341.95 704.25 341.7 701.2 341.25 699.85 339.95 699.6 339.7 698.55 338.3 697.8 337.35 697.1 337 697.7 336.45 698.45 336.1
M 697.1 344.9
Q 698.35 344.6 700.6 344.7 706.9 345.25 712.8 347.8 714.4 348.55 714.85 349.25 715.5 350.2 715.05 351.3 714.3 353 711.25 353.2 707.95 353.4 704.1 352.3 701.25 351.45 697.2 349.65 694.75 348.6 694.55 347.1 695.1 345.5 697.1 344.9
M 709.25 356.95
Q 709.7 356.3 710.4 356.1
L 710.55 356 710.6 356 710.5 355.95
Q 711.4 355.85 712.1 356.4 712.85 357.1 712.8 357.95 712.8 358.65 712.25 359.25 711.8 359.8 711.1 359.85 710.45 359.95 709.8 359.45 709.2 359 709.05 358.3 708.9 357.6 709.25 356.95
M 690 356.3
Q 690.0017578125 356.25703125 690 356.2 690.015234375 356.2458984375 690 356.3
L 690 356.3
M 701.75 360.6
Q 701.65 359.75 702.15 359.1 702.7 358.35 703.5 358.35 704.7 358.3 705.35 359.35 705.95 360.45 705.25 361.4 704.5 362.45 703.2 362.1 702.65 362 702.25 361.6 701.85 361.15 701.75 360.6
M 685.05 365.5
Q 685.0296875 365.20703125 685 364.95 684.9314453125 364.309765625 684.65 363.25 684.841015625 364.43046875 685.05 365.5
M 617.15 338.55
Q 616.05 338.5 613.85 338.7
L 604.35 339.65
Q 603.05 339.85 602.95 340.5 603.6 341.15 605.35 341.05 606.25 341 607.15 340.95 606.9 342.35 607.2 343.3 607.4 344 608.2 345.2 609.95 347.7 610.35 348.15 610.95 348.75 611.35 348.95 611.45 349 612.95 349.55 614.15 350 614.2 350 614.65 350.05 615.6 349.9 615.9 349.9 616.8 349.95 617.55 350.05 618 349.95 618.6 349.85 619.45 349.35 620.6 348.6 620.8 348.5 621.2 348.3 622.05 347.95 622.7 347.55 622.8 347.55 622.95 347.5 623.35 347.4 623.6 347.25 623.7 346.7 624.3 346.7 625.7 346.5 626.4 346.4 626.7 346.15 626.95 345.95 626.9 345.75 626.85 345.55 626.5 345.45 625.9 345.25 625.4 344.8 624.8 344.25 624.1 343.1 623.25 341.7 622.95 341.3 621.75 339.8 619.6 339.05 618.2 338.6 617.15 338.55
M 611.45 345
Q 611.2 344.85 610.45 344.1 609.5 342.95 608.15 340.85 610.55 340.65 613.05 340.3 615.55 340 616.8 340.35 618.25 340.8 619.3 342.15
L 620.25 343.55
Q 620.5 344 620.7 344.35 619.7 344.85 619.4 345.05 618.45 345.75 618.4 345.75 617.85 346 616.85 345.95 615.45 345.9 615.2 345.9 614.2 346 614.05 346 613.75 345.95 613.15 345.65 611.6 345.1 611.45 345 Z"/>

<path fill="#000000" stroke="none" d="
M 702.15 359.1
Q 701.65 359.75 701.75 360.6 701.85 361.15 702.25 361.6 702.65 362 703.2 362.1 704.5 362.45 705.25 361.4 705.95 360.45 705.35 359.35 704.7 358.3 703.5 358.35 702.7 358.35 702.15 359.1
M 710.4 356.1
Q 709.7 356.3 709.25 356.95 708.9 357.6 709.05 358.3 709.2 359 709.8 359.45 710.45 359.95 711.1 359.85 711.8 359.8 712.25 359.25 712.8 358.65 712.8 357.95 712.85 357.1 712.1 356.4 711.4 355.85 710.5 355.95
L 710.6 356 710.55 356 710.4 356.1
M 720.05 307.75
Q 719.9 307.7 719.75 307.75 717.7 307.6 715.65 307.25 714.4 307.05 713.2 306.75 712.05 306.5 711.25 306.35 710.4 306.15 709.9 306.15 707.85 306.15 706.75 307.1 706.8 307.5 707.4 307.65
L 710.45 308.25 714.3 308.95
Q 714.8 309.05 715.25 309.1 717.4 309.4 718.65 309 719.1 308.85 719.45 308.6 719.85 308.2 720.05 307.75
M 720.85 303.95
Q 720.4 303.5 719.5 303.3 718.65 302.95 717.55 302.6 715.85 302 713.7 301.3
L 713.65 301.3
Q 711.8 300.9 711.15 300.95 709.75 300.95 709.05 302.05 709.85 302.45 711.35 302.95
L 712.65 303.45 715.3 304.3
Q 716 304.55 716.6 304.75 717.55 304.95 718.15 305 719.85 305.1 720.85 303.95
M 711.8 295.65
Q 711.25 295.9 710.8 296.25 710.9 296.5 711.35 296.7 711.75 296.8 712.35 296.85
L 715.3 297.25 716.2 297.4
Q 718.25 297.8 719.65 297.9 720.9 297.95 721.7 297.8 722.95 297.65 723.1 296.75 722.75 296.55 721.6 296.35 720.95 296.25 720.4 296.2 718.55 296 716.75 295.65 716.35 295.6 716 295.55 714.35 295.3 713.7 295.3 712.65 295.3 711.8 295.65
M 714.7 289.05
Q 716.6 289.3 718.4 289.45 718.5 289.5 718.6 289.45 720.8 289.6 721.8 289.25 722.75 288.75 722.75 288.2 720.9 287.8 719 287.75 717.8 287.7 716.55 287.8
L 715.3 288.25 714.8 288.55
Q 714.55 288.9 714.7 289.05
M 723.95 282.55
Q 722.5 282.3 721.15 282.15 719.5 282.05 717.85 282.2 717.85 282.4 717.45 282.45 717.2 282.45 717.05 282.55 716.7 282.6 716.55 282.7 716 283.05 716 283.5 716.35 283.55 716.7 283.55 718.35 283.75 720.1 283.85 720.3 283.9 720.5 283.85 722 283.9 722.9 283.6 724.05 283.25 723.95 282.55 Z"/>

<path fill="#5C0023" stroke="none" d="
M 690 356.2
Q 690.0017578125 356.25703125 690 356.3
L 690 356.3
Q 690.015234375 356.2458984375 690 356.2
M 682.75 281.85
Q 681.75 279 679.95 278.75 679.4 278.65 678.35 278.95 677.2 279.25 676.75 279.25 675.6 279.3 674.6 278.55 673.7 277.85 673.15 276.7 672.65 275.55 672.3 272.1 671.15 258.3 663.7 251.05 659.4 246.9 653.4 245.9 647.15 244.8 642.5 247.95 640.55 249.2 638.7 251.45 637.55 252.85 635.6 255.65 634.25 257.65 633.65 258.9 632.75 260.8 632.7 262.45 631.5 263 630.1 262.25 628.9 261.55 628.1 260.2 627.8 259.75 626.9 257.65 626.2 256.1 625.5 255.3 623.8 253.45 619.45 252.75 610.8 251.5 602.05 253.05 593.3 254.65 585.7 258.9 582.4 260.7 581.2 262.6 579.35 265.45 580.4 269.35 580.75 270.65 581.5 273.3 581.9 275.6 580.8 276.8 579.6 278.15 576.65 277.95 575.2 277.85 572.75 277.45 569.95 276.95 568.8 276.85 563.95 276.4 561.15 278.35 558.35 280.4 557.15 285.3 555.95 290 556.9 293.8 557.45 295.95 558.75 297.7 560.1 299.5 562.05 300.35 562.7 300.65 564 301.1 565.15 301.55 565.7 302.15 567.13046875 303.759375 566.35 306.25 565.820703125 307.17578125 565.55 307.95 564.8095703125 308.2453125 564 308.65 563.3 309.05 562.5 309.5
L 557.5 312.3
Q 556.8 312.7 556.3 313.1 555.75 312.4 554 311.8 552.85 311.2 551.85 310.75 549.95 309.85 548.75 309.5 545.25 308.55 543.3 310.45 542.3 311.4 541.6 314.4 540.85 318.55 540.95 320.6 541.25 324.15 543.3 326.15 543.9 326.7 545.55 327.7 547.1 328.6 547.75 329.3 548.8 330.3 549.9 332.95 550.15 333.5 550.4 334.1 550.95 335.7 551.6 336.8 553.45 338 554.7 338.55 557.15 339.5 562.2 339.65 563.15 339.7 563.45 340.05 563.75 339.9 564 339.85 566.05 339.2 568.9 339.4
L 568.9 339.45 568.95 339.5
Q 569.5 339.4 570.05 339.65 570.24765625 339.6236328125 570.45 339.6 570.4576171875 339.6517578125 570.45 339.7 570.37578125 339.72578125 570.25 339.75
L 570.3 339.8
Q 570.346875 339.9271484375 570.4 340.05 571.1177734375 341.559765625 572.55 343.35 573.05 343.95 573.05 344.3 573.1 344.55 572.75 345.25 570.25 350.35 570.8 357.95 571.1 362.2 572.55 364.45 573.9 366.5 576.95 368.1 578.7 369.05 582.3 370.65 583.4 371.2 583.75 371.85 584.1 372.5 583.9 374.15 583.65 376.25 583.95 378.2 584.15 379.5 584.75 380 585.1 380.3 586.3 380.5 589.15 380.8 590.5 380.3 591.35 380 593.05 378.6 596.55 375.55 597.45 374.7 598.95 373.2 599.75 371.9 600.45 372.35 601.5 372.65 602.35 372.9 604.15 373.35 606.35 374 609.65 375.8 613.75 378 615 378.55 620.25 380.8 626.15 380.5 632.1 380.15 637.1 377.35 637.25 377.25 638.5 376.5 638.6 376.9 638.8 377.3 639.25 378.2 640.35 379.4
L 642.85 382.2
Q 644.8 384.25 646.15 384.6 647.15 384.9 647.65 384.3 647.85 384.1 647.95 383.65 648.05 383.1 648.1 382.85 648.2 382.4 649.3 380.85 650.05 379.8 650.4 378.3
L 650.85 376.2
Q 651.1 375.5 652 374.3 654.85 370.7 658.35 367.85 659.45 366.95 659.75 366.6 660.3 366.05 660.55 365.45 662.1 365.15 663.8 365.15 667.85 365.25 671.05 367.25 672.15 367.9 673.8 369.3 675.7 370.9 676.45 371.4 679.3 373.5 683.05 374.45 685.1 374.95 686.05 374.05 686.4974609375 373.63046875 686.65 372.85 686.8671875 372.6759765625 687.05 372.4 687.133984375 372.307421875 687.2 372.15 686.5029296875 368.8826171875 686.55 367.05 686.55 365.85703125 687.1 365.5 686.6658203125 363.3025390625 685.8 360.35 684 354.25 684.45 350.8 684.85 348.4 686.05 346.25 686.5 345.45 687.75 343.8 688.9 342.3 689.4 341.35 689.8 340.6 691 337.5 691.55 336.1 692.8 333.6 694.1 330.95 694.6 329.7 696.4005859375 325.4064453125 696.1 321.9 696.2142578125 322.10859375 696.45 322.25 696.5 322.6 696.5 323 696.55 323.95 696.9 324.6 697.1 325 697.2 325.55 696.85 321.6 695.3 318.1 694.709375 316.761328125 694.3 315.95 693.554296875 314.1251953125 693.15 312.8 692.8662109375 311.9087890625 692.75 311.25 692.65 310.45 692.55 308.75 692.5 307.1 692.35 306.25 692.10390625 304.58203125 691.45 303.45 691.532421875 302.88984375 691.6 302.3 691.4517578125 302.061328125 691.25 301.9 690.9 301.2 690.4 300.5 687.2 295.8 682.1 295.1 683.45 292 683.65 288.55 683.8 285.05 682.75 281.85
M 649.15 251.55
Q 653.4 250.95 657.75 252.9 661.8 254.8 664.65 258.35 669.6 264.55 670.5 274.8 670.6 275.9 670.8 278 671 279.85 671.5 281.1 672.15 282.7 673.3 283.75 674.6 284.9 676.15 285 677.1 285.05 679.1 284.85 680.8 284.85 681.3 285.9 681.75 286.8 680.9 288.75 679.25 292.9 679.7 297.45 679.9 299.65 680.95 300.6 681.7 301.2 683.2 301.45 685.3 301.75 685.65 301.85 687.6 302.55 689.3 305.6 689.75 306.4 690.15 307.05 689.9 310.3 690.8 313.6 690.9 313.95 691.85 316.75 692.5 318.65 692.7 319.95 693.05 322.95 691.7 327.3 689.4 334.7 684.95 340.7 683.7 342.4 683.1 343.25 682.1 344.8 681.65 346.05 680.3 349.75 682.45 357 684.8 364.65 684 368.1 680.25 368.6 675.6 364.8 673.25 362.8 672 361.85 669.9 360.2 668 359.55 663.45 357.95 657.25 360.6 655.4 361.4 652.3 363.1 648.9 364.95 647.4 365.65 642.75 367.5 640.5 368.65 639.5 369.15 636.25 371.1 633.65 372.65 631.9 373.35 627.5 375.1 622.15 374.45 617.35 373.85 612.5 371.45 608.95 369.6 607.15 368.7 603.95 367.1 601.55 366.6 600.65 366.4 599.95 366.45 599.7 366.1 599.35 365.8
L 597.7 367.6
Q 593.8 371.7 591.55 373.35 588.9 375.35 587.25 374.2 586.9 374.55 586.3 374.55 586.85 371.9 586.95 370.55 587.25 368.1 586 366.8 585.5 366.25 584 365.5
L 578.05 362.75
Q 574.6 361.1 573.65 359.45 572.75 357.75 573 355.15 573.15 353.55 573.8 351.9 575.3 349.05 575.75 347.55 576.6 344.4 574.9 340.9 574.8537109375 340.7958984375 574.8 340.65 574.64921875 340.3814453125 574.45 340.05
L 574.45 340
Q 574.97734375 340.1544921875 575.55 340.25 576.45 340.25 577.05 340.55 578.7 341.15 580.35 341.45 580.75 341.4 581.05 341.45 581.2 341.5 581.4 341.6 582.6392578125 341.7240234375 583.95 341.65 584.26328125 341.6673828125 584.55 341.65 585.55 341.6 586.55 341.5
L 592.75 337.65
Q 593.2 337.4 593.6 337.15 594.05 337.1 594.65 336.65 596.35 335.45 597.8 333.3 598.8 331.75 600 329.2 601.7 325.55 602.25 322.9 602.95 319.8 602.6 316.7
L 602.6 316.65 600.9 315.9
Q 598.7 314.9 597.25 314.65 594.8 315.4 593.6 315.95 591.9 316.75 591 317.15 589.4 317.75 588.2 317.75 585.9 317.8 583.1 315.65 582 314.8 579.9 312.85 578.9130859375 311.9669921875 578.15 311.3 577.4806640625 310.70859375 577 310.3 576.75 310.25 576.55 310.25 576.25 310.2 576.05 310.15 575.9 310.15 575.85 310.15 575.76953125 310.0427734375 575.65 309.95
L 575.7 309.95
Q 575.6048828125 309.8732421875 575.5 309.8 575.35 309.75 575.25 309.75 574.9673828125 309.679296875 574.75 309.5 574.5087890625 309.364453125 574.35 309.1 574.2 308.8 574.05 308.35 573.6 308.1 573.1 307.9 573 307.85 572.9 308 572.5 307.95 572.35 307.6 571.9 307.45 571.45 307.35
L 571.35 307.35
Q 570.85 307.2 570.35 307.15
L 570.3 307.15 568.95 306.55
Q 569.2291015625 303.662109375 568.4 301 567.3 297.55 564.65 295.7 564.45 295.55 562.2 294.25 560.7 293.4 560 292.5 558.95 291.1 559.1 289.2 559.2 287.35 560.3 285.95 562.45 283.2 566.45 282.95 567.65 282.85 574.2 283.6 578.9 284.1 581.4 282.55 584.15 280.8 584.7 277.15 585.25 273.65 583.65 270.5 583 269.25 583 269.15 582.65 268.35 582.8 267.75 583 266.55 584.95 265.45 592.45 261.2 601 259.4 609.55 257.6 618.15 258.4 622.6 258.9 624.35 260.6 625.2 261.45 626.05 263.05 627.4 265.75 627.45 265.8 628.3 267.25 629.5 268.05 630.95 269 632.3 268.6 633.6 268.25 634.45 266.7 634.9 265.95 635.7 263.8 637.4 259.1 640.85 255.8 644.6 252.25 649.15 251.55
M 685 364.95
Q 685.0296875 365.20703125 685.05 365.5 684.841015625 364.43046875 684.65 363.25 684.9314453125 364.309765625 685 364.95
M 649.1 371.5
Q 648.85 372 648.75 372.45
L 648.4 374.1
Q 648.25 374.8 647.65 375.85 646.8 377.8 646.55 378.5 645.8 379 644.65 377.95 642.9 376.45 641.4 374.65 643.5 373.3 645.1 372.7 645.75 372.45 647.8 371.9 648.5 371.7 649.1 371.5
M 550.65 316.35
L 553.2 317.6
Q 554.5 317.5 554.9 317.45 556.7 317.25 558.1 316.85
L 558.4 316.65
Q 558.55 316.5 559.9 315.85
L 561.85 315.05
Q 564.3 314 565.75 313.7 566.8 313.55 567.8 313.55 567.85 313.35 567.9 313.25 569.15 313 570.1 313.05 572.55 313.2 575.15 315.1 576.05 315.8 579.5 318.9 581.35 320.6 582.85 321.7 585.3 323.6 587.1 323.85 588.45 324 590.1 323.45 590.7 323.25 593 322.25 596.35 320.75 600.2 319.9 599.5 322.95 598.1 325.85 596.4 329.3 594.45 330.6
L 593.55 331.3 586.7 335.4
Q 586.05 335.3 585 335.6 581.75 336.45 575.35 334.7 568.7 332.9 565.6 333.5 564.8 333.6 562.55 334.3 560.65 334.95 559.45 335 557.4 335.15 555.45 334.05 553.65 333.05 552.65 331.2 552.25 330.5 551.8 329.25 551.3 327.7 551.1 327.3 550.85 326.65 550.5 326.05 549.4 324.1 547.5 322.75 545.45 321.45 544.55 320.6 542.85 319.05 543.3 317.35 543.6 316.4 544.55 315.8 545.5 315.15 546.65 315.15 547.95 315.15 550.65 316.35
M 572.35 339.6
L 572.35 339.55
Q 572.472265625 339.56328125 572.6 339.55 572.48046875 339.5908203125 572.35 339.6
M 575.05 309.5
Q 575.0927734375 309.5927734375 575.2 309.7 575.251171875 309.6744140625 575.3 309.65 575.1599609375 309.598046875 575.05 309.5
M 639.25 333.35
Q 639.3 333.05 639.25 332.45 639.2 331.8 639.2 331.55 639.35 330.5 639.35 330.4 639.33828125 330.32421875 639.3 330.25 639.1568359375 329.668359375 638.45 329.05
L 637.05 328.1
Q 636.55 327.6 636.25 327.4 635.8 326.95 635.4 326.85 634.6 326.55 633.7 327.1 633.080078125 327.421484375 632.6 327.9 632.0515625 328.488671875 631.7 329.3 631.05 330.75 631.25 332.35 631.396484375 333.610546875 631.9 334.5 632.29140625 335.144921875 632.85 335.6 633.55 336.2 634.45 336.45 635.4099609375 336.6900390625 636.2 336.4 636.2658203125 336.412109375 636.3 336.4 637.1 336.1 638 335.2 638.1376953125 335.0748046875 638.25 334.95 639.11875 334.0935546875 639.25 333.35
M 635.6 330.65
L 635.7 331
Q 635.8 331.2 636.1 331.45 636.25 331.6 636.25 331.8 636.3689453125 332.633203125 635.8 333.05 635.6857421875 333.1673828125 635.5 333.25
L 635.2 333.35
Q 634.7 333.4 634.4 332.7 634.1947265625 332.2482421875 634.15 331.5 634.15 331.3697265625 634.15 331.2
L 634.2 330.75 634.85 330
Q 634.95 330 635.25 330.2 635.55 330.4 635.6 330.65 Z"/>

<path fill="#666666" stroke="none" d="
M 700.6 344.7
Q 698.35 344.6 697.1 344.9 695.1 345.5 694.55 347.1 694.75 348.6 697.2 349.65 701.25 351.45 704.1 352.3 707.95 353.4 711.25 353.2 714.3 353 715.05 351.3 715.5 350.2 714.85 349.25 714.4 348.55 712.8 347.8 706.9 345.25 700.6 344.7
M 697.9 335.95
L 698.45 336.1
Q 697.7 336.45 697.1 337 697.8 337.35 698.55 338.3 699.6 339.7 699.85 339.95 701.2 341.25 704.25 341.7 706.2 341.95 708.35 342.05 710.1 342.05 710.8 341.8 711.8 341.4 713.25 339.75 712.9 339.35 712.45 339.05 712.35 338.9 712.15 338.75 710.3 337.35 706.6 335.95 701.55 333.9 698.8 335.1 697.9 335.4 697.9 335.95
M 708.35 329.1
Q 704.95 328.2 704.7 328.15 703.6 327.7 703.1 327.55 702.2 327.2 701.5 327.15 699.4 326.85 698.35 327.95 697.9 328.45 698.1 328.85 698.2 329.1 698.65 329.35 700.95 330.6 702.5 331.35 705.3 332.45 709 332.75 710.85 333 711.45 333.35 711.8 333.55 712.5 334.05 712.9 334.25 713.45 334.15 713.65 334.15 714.3 334 716 333.55 715.85 332.6 715.85 331.8 714.9 331.6 713.9 331.5 713.4 331.35 713.25 331.4 711.75 330.45 710.5 329.65 708.35 329.1 Z"/>

<path fill="#4C351D" stroke="none" d="
M 715.25 309.1
Q 714.8 309.05 714.3 308.95
L 710.45 308.25 707.95 313.4
Q 709.15 313.8 710.95 313.6 713.45 313.3 715.8 312.5 715.6 312.2 715.5 311.9 715.05 310.65 715.25 309.1
M 711.25 306.35
Q 712.05 306.5 713.2 306.75 714.4 307.05 715.65 307.25 716 306.2 716.6 304.75 716 304.55 715.3 304.3
L 712.65 303.45 711.25 306.35
M 716.2 297.4
L 715.3 297.25
Q 714.3 299.9 713.7 301.3 715.85 302 717.55 302.6
L 719.65 297.9
Q 718.25 297.8 716.2 297.4
M 729.5 273.75
Q 732.4 264.55 733.1 256.4 730.25 254.65 727 254.05 725.1 253.8 724.05 254.45 723.2 255.05 722.6 256.85
L 721.2 261.5
Q 720.2 264.7 720.25 266.35 720.25 267.7 721.2 270.85 722.65 275.2 722.3 278 722.2 279.25 721.15 282.15 722.5 282.3 723.95 282.55 724.05 283.25 722.9 283.6 722 283.9 720.5 283.85
L 719 287.75
Q 720.9 287.8 722.75 288.2 722.75 288.75 721.8 289.25 720.8 289.6 718.6 289.45 718.5 289.5 718.4 289.45
L 716.5 294.25
Q 716.2 294.9 716 295.55 716.35 295.6 716.75 295.65 718.55 296 720.4 296.2
L 723 290.35
Q 727.2 280.75 729.5 273.75 Z"/>

<path fill="#31230F" stroke="none" d="
M 718.65 309
Q 717.4 309.4 715.25 309.1 715.05 310.65 715.5 311.9 715.6 312.2 715.8 312.5 716.05 312.75 716.3 312.95 716.95 313.4 717.4 313.1 717.85 312.9 718.15 311.95 718.3 311.65 718.4 311.3 718.8 310.15 719.45 308.6 719.1 308.85 718.65 309
M 712.35 296.85
Q 711.75 296.8 711.35 296.7 710.45 298.6 709.25 301.2 706.85 306.3 706.1 307.9 705.3 309.65 704.85 311.1 704.7 311.75 704.6 312.35 704.1 314.9 705.1 316.65 705.55 317.25 705.9 317.15 706.25 317.1 706.4 316.55
L 707.95 313.4 710.45 308.25 707.4 307.65
Q 706.8 307.5 706.75 307.1 707.85 306.15 709.9 306.15 710.4 306.15 711.25 306.35
L 712.65 303.45 711.35 302.95
Q 709.85 302.45 709.05 302.05 709.75 300.95 711.15 300.95 711.8 300.9 713.65 301.3
L 713.7 301.3
Q 714.3 299.9 715.3 297.25
L 712.35 296.85
M 720.5 283.85
Q 720.3 283.9 720.1 283.85 718.35 283.75 716.7 283.55 713.9 290.85 712.3 294.35 712.05 294.95 711.8 295.65 712.65 295.3 713.7 295.3 714.35 295.3 716 295.55 716.2 294.9 716.5 294.25
L 718.4 289.45
Q 716.6 289.3 714.7 289.05 714.55 288.9 714.8 288.55
L 715.3 288.25 716.55 287.8
Q 717.8 287.7 719 287.75
L 720.5 283.85
M 734.4 267.55
L 735.5 261.8
Q 736.05 258.75 736.1 257.1 736.05 254.45 734.9 252.7 733.9 251.2 731.95 250.15 730.65 249.4 728.2 248.6 724.7 247.5 722.95 248.5 721.4 249.3 720.35 252.65
L 720.15 253.45
Q 720.75 253.8 721 254.45 721.3 255.15 720.95 256 720.65 256.85 719.85 257.1 719.55 257.2 718.9 257.15
L 718.7 257.75
Q 717.95 260.1 717.6 261.9 718.85 261.95 719.5 262.65 720 263.2 720 264 720 264.8 719.5 265.35 718.8 266.1 717.5 266.1 717.7 267.4 718.7 270.4 719.65 273.35 719.45 275.25 719.35 276.3 718.6 278.3 717.8 280.5 717.05 282.55 717.2 282.45 717.45 282.45 717.85 282.4 717.85 282.2 719.5 282.05 721.15 282.15 722.2 279.25 722.3 278 722.65 275.2 721.2 270.85 720.25 267.7 720.25 266.35 720.2 264.7 721.2 261.5
L 722.6 256.85
Q 723.2 255.05 724.05 254.45 725.1 253.8 727 254.05 730.25 254.65 733.1 256.4 732.4 264.55 729.5 273.75 727.2 280.75 723 290.35
L 720.4 296.2
Q 720.95 296.25 721.6 296.35 722.75 296.55 723.1 296.75 722.95 297.65 721.7 297.8 720.9 297.95 719.65 297.9
L 717.55 302.6
Q 718.65 302.95 719.5 303.3 720.4 303.5 720.85 303.95 719.85 305.1 718.15 305 717.55 304.95 716.6 304.75 716 306.2 715.65 307.25 717.7 307.6 719.75 307.75 721.9 302.35 726.1 292.85 731.35 280.95 733.15 273.45 733.35 272.6 734.4 267.55 Z"/>

<path fill="#330000" stroke="none" d="
M 702.65 291.7
Q 702.35 290.5 701.75 289.7 701 288.75 700.05 288.7 698.9 288.65 697.3 290.4 694.95 293.15 693.65 295.2 693.5 295.95 693.15 296.65 692.6 297.7 692.2 298.75 692 299.15 691.95 299.6 691.85 301.1 691.65 302.1 691.6353515625 302.194140625 691.6 302.3 691.532421875 302.88984375 691.45 303.45 692.10390625 304.58203125 692.35 306.25 692.5 307.1 692.55 308.75 692.65 310.45 692.75 311.25 692.8662109375 311.9087890625 693.15 312.8
L 693.15 312.8
Q 694.3 303.45 699.55 295.65 699.85 297.6 699.35 301.95 698.95 306 699.35 308.2 699.85 310.85 701.9 313.8 703.55 316.25 705.85 317.75 708.3 319.4 711.05 319.5 713.6 319.7 718 317.75 724.2 315.15 726.75 312.2 727.5 311.35 728.95 309.55 730.35 308.15 731.75 308 732.65 312.85 731.15 317.75 729.75 322.75 726.35 326.35 723.8 328.8 722.65 330.15 720.7 332.45 720.45 334.65 720.35 336.75 721.9 339.6 722.75 341.15 724.55 344.35 726.45 348.75 724.65 353.95 723 358.85 718.9 362.1 715.45 365.05 710.25 366.85 706.45 368.2 700.45 369.35 698.3587890625 369.7326171875 697 369.45 696.9560546875 369.484765625 696.9 369.5 696.65 369.6 696.15 369.55 695.65 369.5 695.4 369.55
L 694.65 369.7 693.55 369.55
Q 693.0052734375 369.4662109375 692.6 369.25 690.68984375 368.83046875 689.25 368.7
L 687.3 365.45
Q 687.2126953125 365.4791015625 687.1 365.5 686.55 365.85703125 686.55 367.05 686.5029296875 368.8826171875 687.2 372.15 687.133984375 372.307421875 687.05 372.4 687.1490234375 372.7212890625 687.35 372.9
L 687.35 372.95
Q 687.5173828125 373.2939453125 687.8 373.4 688.0076171875 373.451953125 688.15 373.35 688.3169921875 373.4326171875 688.5 373.5 688.659765625 373.5861328125 688.85 373.7
L 691.95 374.7
Q 692.507421875 374.908984375 692.9 375 693.09140625 375 693.3 375 695.3 374.9 696.25 375.2 696.75 375.3 697.8 375.55 698.02265625 375.55 698.35 375.5 699.664453125 375.714453125 701.2 375.55 703 375.35 706.1 374.4 712.55 372.45 715.9 370.8 721.05 368.25 723.95 364.65 728.05 359.4 728 352 728 345.7 724.85 338.95 724.15 337.4 724.25 336.65 724.35 335.65 726 334.1 732 328.6 733.95 320.2 735.9 311.8 732.95 304.25 732.3 302.45 731.25 302.15 730.1 301.75 728.35 303.15 727.4 303.95 725.05 306.2 722.9 308.2 721.65 309.2 720.1 310.45 718.4 311.3 718.3 311.65 718.15 311.95 717.85 312.9 717.4 313.1 716.95 313.4 716.3 312.95 716.05 312.75 715.8 312.5 713.45 313.3 710.95 313.6 709.15 313.8 707.95 313.4
L 706.4 316.55
Q 706.25 317.1 705.9 317.15 705.55 317.25 705.1 316.65 704.1 314.9 704.6 312.35 704.7 311.75 704.85 311.1
L 703.7 310.15
Q 703 309.6 702.65 309.15 701.45 307.6 701.75 304.4 702.45 300.15 702.75 298 703.25 294.2 702.65 291.7 Z"/>

<path fill="#996633" stroke="none" d="
M 714.15 259.75
Q 713.35 259.2 712.4 259.55 711.4 259.85 711.05 260.7 710.85 261.2 710.95 262.45
L 711.25 265.45
Q 711.3 266.5 711.6 267.1 712.15 268.15 713.4 268.1 714.6 268.1 715.25 267.15
L 715.75 266.35
Q 716.1 266.05 717.05 266.1 717.3 266.15 717.5 266.1 718.8 266.1 719.5 265.35 720 264.8 720 264 720 263.2 719.5 262.65 718.85 261.95 717.6 261.9 717.05 261.9 716.4 262 715.9 262.1 715.65 261.95 715.5 261.9 715.3 261.35 714.85 260.2 714.15 259.75
M 720.15 253.45
Q 720 253.35 719.9 253.3 719.1 252.9 718.25 253.1 718.85 250.95 718.25 249.7 717.9 249 717.1 248.6 716.2 248.15 715.5 248.55 714.85 248.9 714.45 250
L 714.05 251.85
Q 713.95 252.3 713.25 254.4 712.8 255.9 713.2 256.95 713.45 257.6 714.05 257.95 714.7 258.4 715.3 258.25 715.65 258.2 716.3 257.75 716.9 257.35 717.2 257.25 717.65 257.05 718.55 257.15 718.75 257.2 718.9 257.15 719.55 257.2 719.85 257.1 720.65 256.85 720.95 256 721.3 255.15 721 254.45 720.75 253.8 720.15 253.45 Z"/>

<path fill="#CC3300" stroke="none" d="
M 553.2 317.6
L 550.65 316.35
Q 547.95 315.15 546.65 315.15 545.5 315.15 544.55 315.8 543.6 316.4 543.3 317.35 542.85 319.05 544.55 320.6 545.45 321.45 547.5 322.75 549.4 324.1 550.5 326.05 550.85 326.65 551.1 327.3 551.3 327.7 551.8 329.25 552.25 330.5 552.65 331.2 553.65 333.05 555.45 334.05 557.4 335.15 559.45 335 560.65 334.95 562.55 334.3 564.8 333.6 565.6 333.5 568.7 332.9 575.35 334.7 581.75 336.45 585 335.6 586.05 335.3 586.7 335.4
L 593.55 331.3 594.45 330.6
Q 596.4 329.3 598.1 325.85 599.5 322.95 600.2 319.9 596.35 320.75 593 322.25 590.7 323.25 590.1 323.45 588.45 324 587.1 323.85 585.3 323.6 582.85 321.7 581.35 320.6 579.5 318.9 576.05 315.8 575.15 315.1 572.55 313.2 570.1 313.05 569.15 313 567.9 313.25 567.85 313.35 567.8 313.55 566.8 313.55 565.75 313.7 564.3 314 561.85 315.05
L 559.9 315.85
Q 558.55 316.5 558.4 316.65
L 558.1 316.85
Q 556.7 317.25 554.9 317.45 554.5 317.5 553.2 317.6
M 553.6 319.85
Q 554.45 319.1 555.8 318.45 556.65 318 558.3 317.25 560.3 316.15 561.15 315.85 562.35 315.5 564.1 315.4
L 567.7 315.1
Q 569.3 314.95 570 315.45 570.25 315.65 570.65 316.2 570.75 316.25 572.35 317.25 572.75 317.5 574.4 318.7 576 320.15 576.45 320.8 576.6 321 577.25 322.2 577.9 323.75 577.85 324.7 577.75 326.25 575.95 327.8 575.1 328.55 574.1 328.85 572.9 328.85 572.25 328.9
L 570.5 329.2
Q 568.1 329.65 564.4 329.4 559 329 558.15 328.95 555.6 328.85 555.05 328.7 553.9 328.3 553.1 327.55 551.5 326.15 551.3 324.5 551.1 323.2 551.85 321.9 552.45 320.7 553.6 319.85 Z"/>

<path fill="#FF6600" stroke="none" d="
M 555.8 318.45
Q 554.45 319.1 553.6 319.85 552.45 320.7 551.85 321.9 551.1 323.2 551.3 324.5 551.5 326.15 553.1 327.55 553.9 328.3 555.05 328.7 555.6 328.85 558.15 328.95 559 329 564.4 329.4 568.1 329.65 570.5 329.2
L 572.25 328.9
Q 572.9 328.85 574.1 328.85 575.1 328.55 575.95 327.8 577.75 326.25 577.85 324.7 577.9 323.75 577.25 322.2 576.6 321 576.45 320.8 576 320.15 574.4 318.7 572.75 317.5 572.35 317.25 570.75 316.25 570.65 316.2 570.25 315.65 570 315.45 569.3 314.95 567.7 315.1
L 564.1 315.4
Q 562.35 315.5 561.15 315.85 560.3 316.15 558.3 317.25 556.65 318 555.8 318.45
M 665.35 296.75
Q 663.55 292.45 662.9 289.95 662.2 286.7 661.85 285.1 661.15 282.25 660.1 280.55 658.15 277.5 654.15 276.1 650.7 274.9 646.4 275.1 644.75 275.15 638.7 275.9 634 276.5 631.05 276.25 628.95 276.05 625.8 275.3 621.15 274.15 620.65 274.05 618.1 273.55 613.1 273.15 608.8 272.75 606.4 273.25 603.4 273.95 600.25 276.35 598.55 277.65 594.95 281.15 590.65 285.3 586.4 288.75 583.4 291.2 582.6 291.95 580.55 293.85 579.45 295.7 577.35 299.1 576.55 306 576.35 307.8 576 308.4 575.608203125 309.0966796875 575.15 309.35 575.080078125 309.412890625 575 309.45
L 575.05 309.5
Q 575.1599609375 309.598046875 575.3 309.65 575.351171875 309.6755859375 575.4 309.7 575.45 309.75 575.5 309.8 575.6048828125 309.8732421875 575.7 309.95 575.75703125 309.95 575.8 309.95 575.9 310.05 576.05 310.15 576.25 310.2 576.55 310.25 576.75 310.25 577 310.3 577.4806640625 310.70859375 578.15 311.3 578.9130859375 311.9669921875 579.9 312.85 582 314.8 583.1 315.65 585.9 317.8 588.2 317.75 589.4 317.75 591 317.15 591.9 316.75 593.6 315.95 594.8 315.4 597.25 314.65 598.7 314.9 600.9 315.9
L 602.6 316.65 602.6 316.7
Q 602.95 319.8 602.25 322.9 601.7 325.55 600 329.2 598.8 331.75 597.8 333.3 596.35 335.45 594.65 336.65 594.05 337.1 593.6 337.15 593.2 337.4 592.75 337.65
L 586.55 341.5
Q 585.55 341.6 584.55 341.65 584.26328125 341.6673828125 583.95 341.65 584.25 342.13671875 584.25 342.65 584.25 342.7 584.1 343.9
L 584.05 344.75
Q 584.05 345.2 583.9 346.05
L 583 351.6
Q 583.45 353.05 584.6 354.05 585.25 354.5 585.5 354.85 585.85 354.9 586.25 355.05
L 589.35 356
Q 589.65 356.1 589.95 356.2 590.35 356.2 590.8 356.25 596.55 356.9 611.45 359.2 616.05 359.9 617.95 360.1 621.6 360.5 624.45 360.45 633.75 360.3 643.65 355.65 651.75 351.85 660.65 344.8 664.85 341.45 667.2 338.75 670.35 335 671.35 331.15 671.95 328.9 672.05 324.3 672.15 318.55 671.7 315.7 671.2 312.25 669.25 307 668.05 303.55 665.35 296.75
M 651.75 277.45
Q 653.3 277.65 654.25 278.2 655.25 278.85 656 280.4 657 282.45 657.7 286.65
L 658.25 289.85
Q 658.65 292.25 658.45 293.45 657.9 295.85 654.25 298.6 651.95 300.4 650.7 301.15 647.55 302.95 644.1 303.3 640.5 303.4 638.8 303.9 636.85 304.7 635.9 305.05 634.2 305.7 632.95 305.4 631.2 305 629.8 302.85 628.5 300.4 627.65 299.3 627.15 298.65 626.35 297.8 625.4 296.85 624.9 296.35 623.05 294.3 622 291.7 621.5 290.4 621.6 289.6 621.65 288.65 622.5 287.45 625 284.05 631.55 281.65 634.55 280.55 640.75 278.75 642.95 278.15 644.1 277.95
L 646.1 277.7
Q 649.9 277.3 651.75 277.45
M 668.6 319.9
Q 668.6 320.95 668.55 321.15
L 668.3 322.25
Q 668.25 322.55 668.35 323.3 668.45 323.95 668.35 324.35 668.1 325.4 666.6 325.9 665.65 326.25 663.05 326.45 661.5 326.55 660.75 326.3 659.25 325.85 658.25 324.3 657.85 323.65 656.9 321.35 656.6 320.55 656.6 320.1
L 656.5 319.25 656.25 318.3
Q 656.05 317.35 656.5 316.1 656.95 314.85 658.35 312.9 659.9 310.65 660.35 309.75 661 308.45 661.35 308.1 662.2 307.4 663.25 307.65 664.3 307.9 665.4 309.55 666.25 310.85 666.35 311.2 666.6 311.8 666.9 313.05
L 667.35 313.9
Q 668.4 315.8 668.6 319.9
M 613.85 338.7
Q 616.05 338.5 617.15 338.55 618.2 338.6 619.6 339.05 621.75 339.8 622.95 341.3 623.25 341.7 624.1 343.1 624.8 344.25 625.4 344.8 625.9 345.25 626.5 345.45 626.85 345.55 626.9 345.75 626.95 345.95 626.7 346.15 626.4 346.4 625.7 346.5 624.3 346.7 623.7 346.7 623.6 347.25 623.35 347.4 622.95 347.5 622.8 347.55 622.7 347.55 622.05 347.95 621.2 348.3 620.8 348.5 620.6 348.6 619.45 349.35 618.6 349.85 618 349.95 617.55 350.05 616.8 349.95 615.9 349.9 615.6 349.9 614.65 350.05 614.2 350 614.15 350 612.95 349.55 611.45 349 611.35 348.95 610.95 348.75 610.35 348.15 609.95 347.7 608.2 345.2 607.4 344 607.2 343.3 606.9 342.35 607.15 340.95 606.25 341 605.35 341.05 603.6 341.15 602.95 340.5 603.05 339.85 604.35 339.65
L 613.85 338.7
M 639.25 332.45
Q 639.3 333.05 639.25 333.35 639.11875 334.0935546875 638.25 334.95 638.1376953125 335.0748046875 638 335.2 637.1 336.1 636.3 336.4 636.2658203125 336.412109375 636.2 336.4 635.4099609375 336.6900390625 634.45 336.45 633.55 336.2 632.85 335.6 632.29140625 335.144921875 631.9 334.5 631.396484375 333.610546875 631.25 332.35 631.05 330.75 631.7 329.3 632.0515625 328.488671875 632.6 327.9 633.080078125 327.421484375 633.7 327.1 634.6 326.55 635.4 326.85 635.8 326.95 636.25 327.4 636.55 327.6 637.05 328.1
L 638.45 329.05
Q 639.1568359375 329.668359375 639.3 330.25 639.33828125 330.32421875 639.35 330.4 639.35 330.5 639.2 331.55 639.2 331.8 639.25 332.45 Z"/>

<path fill="#CC3333" stroke="none" d="
M 648.75 372.45
Q 648.85 372 649.1 371.5 648.5 371.7 647.8 371.9 645.75 372.45 645.1 372.7 643.5 373.3 641.4 374.65 642.9 376.45 644.65 377.95 645.8 379 646.55 378.5 646.8 377.8 647.65 375.85 648.25 374.8 648.4 374.1
L 648.75 372.45 Z"/>

<path fill="#663300" stroke="none" d="
M 635.7 331
L 635.6 330.65
Q 635.55 330.4 635.25 330.2 634.95 330 634.85 330
L 634.2 330.75 634.15 331.2
Q 634.15 331.3697265625 634.15 331.5 634.1947265625 332.2482421875 634.4 332.7 634.7 333.4 635.2 333.35
L 635.5 333.25
Q 635.6857421875 333.1673828125 635.8 333.05 636.3689453125 332.633203125 636.25 331.8 636.25 331.6 636.1 331.45 635.8 331.2 635.7 331 Z"/>

<path fill="#FF3366" stroke="none" d="
M 610.45 344.1
Q 611.2 344.85 611.45 345 611.6 345.1 613.15 345.65 613.75 345.95 614.05 346 614.2 346 615.2 345.9 615.45 345.9 616.85 345.95 617.85 346 618.4 345.75 618.45 345.75 619.4 345.05 619.7 344.85 620.7 344.35 620.5 344 620.25 343.55
L 619.3 342.15
Q 618.25 340.8 616.8 340.35 615.55 340 613.05 340.3 610.55 340.65 608.15 340.85 609.5 342.95 610.45 344.1 Z"/>

<path fill="#FFCC99" stroke="none" d="
M 668.55 321.15
Q 668.6 320.95 668.6 319.9 668.4 315.8 667.35 313.9
L 666.9 313.05
Q 666.6 311.8 666.35 311.2 666.25 310.85 665.4 309.55 664.3 307.9 663.25 307.65 662.2 307.4 661.35 308.1 661 308.45 660.35 309.75 659.9 310.65 658.35 312.9 656.95 314.85 656.5 316.1 656.05 317.35 656.25 318.3
L 656.5 319.25 656.6 320.1
Q 656.6 320.55 656.9 321.35 657.85 323.65 658.25 324.3 659.25 325.85 660.75 326.3 661.5 326.55 663.05 326.45 665.65 326.25 666.6 325.9 668.1 325.4 668.35 324.35 668.45 323.95 668.35 323.3 668.25 322.55 668.3 322.25
L 668.55 321.15
M 654.25 278.2
Q 653.3 277.65 651.75 277.45 649.9 277.3 646.1 277.7
L 644.1 277.95
Q 642.95 278.15 640.75 278.75 634.55 280.55 631.55 281.65 625 284.05 622.5 287.45 621.65 288.65 621.6 289.6 621.5 290.4 622 291.7 623.05 294.3 624.9 296.35 625.4 296.85 626.35 297.8 627.15 298.65 627.65 299.3 628.5 300.4 629.8 302.85 631.2 305 632.95 305.4 634.2 305.7 635.9 305.05 636.85 304.7 638.8 303.9 640.5 303.4 644.1 303.3 647.55 302.95 650.7 301.15 651.95 300.4 654.25 298.6 657.9 295.85 658.45 293.45 658.65 292.25 658.25 289.85
L 657.7 286.65
Q 657 282.45 656 280.4 655.25 278.85 654.25 278.2 Z"/>

<path fill="#FF9900" stroke="none" d="
M 657.75 252.9
Q 653.4 250.95 649.15 251.55 644.6 252.25 640.85 255.8 637.4 259.1 635.7 263.8 634.9 265.95 634.45 266.7 633.6 268.25 632.3 268.6 630.95 269 629.5 268.05 628.3 267.25 627.45 265.8 627.4 265.75 626.05 263.05 625.2 261.45 624.35 260.6 622.6 258.9 618.15 258.4 609.55 257.6 601 259.4 592.45 261.2 584.95 265.45 583 266.55 582.8 267.75 582.65 268.35 583 269.15 583 269.25 583.65 270.5 585.25 273.65 584.7 277.15 584.15 280.8 581.4 282.55 578.9 284.1 574.2 283.6 567.65 282.85 566.45 282.95 562.45 283.2 560.3 285.95 559.2 287.35 559.1 289.2 558.95 291.1 560 292.5 560.7 293.4 562.2 294.25 564.45 295.55 564.65 295.7 567.3 297.55 568.4 301 569.2291015625 303.662109375 568.95 306.55
L 570.3 307.15 570.35 307.15
Q 570.85 307.2 571.35 307.35
L 571.45 307.35
Q 571.9 307.45 572.35 307.6 572.5 307.95 572.9 308 573 307.85 573.1 307.9 573.6 308.1 574.05 308.35 574.2 308.8 574.35 309.1 574.5087890625 309.364453125 574.75 309.5 574.9673828125 309.679296875 575.25 309.75 575.35 309.75 575.5 309.8 575.45 309.75 575.4 309.7 575.351171875 309.6755859375 575.3 309.65 575.251171875 309.6744140625 575.2 309.7 575.0927734375 309.5927734375 575.05 309.5
L 575 309.45
Q 575.080078125 309.412890625 575.15 309.35 575.608203125 309.0966796875 576 308.4 576.35 307.8 576.55 306 577.35 299.1 579.45 295.7 580.55 293.85 582.6 291.95 583.4 291.2 586.4 288.75 590.65 285.3 594.95 281.15 598.55 277.65 600.25 276.35 603.4 273.95 606.4 273.25 608.8 272.75 613.1 273.15 618.1 273.55 620.65 274.05 621.15 274.15 625.8 275.3 628.95 276.05 631.05 276.25 634 276.5 638.7 275.9 644.75 275.15 646.4 275.1 650.7 274.9 654.15 276.1 658.15 277.5 660.1 280.55 661.15 282.25 661.85 285.1 662.2 286.7 662.9 289.95 663.55 292.45 665.35 296.75 668.05 303.55 669.25 307 671.2 312.25 671.7 315.7 672.15 318.55 672.05 324.3 671.95 328.9 671.35 331.15 670.35 335 667.2 338.75 664.85 341.45 660.65 344.8 651.75 351.85 643.65 355.65 633.75 360.3 624.45 360.45 621.6 360.5 617.95 360.1 616.05 359.9 611.45 359.2 596.55 356.9 590.8 356.25 590.35 356.2 589.95 356.2 589.65 356.1 589.35 356
L 586.25 355.05
Q 585.85 354.9 585.5 354.85 585.25 354.5 584.6 354.05 583.45 353.05 583 351.6
L 583.9 346.05
Q 584.05 345.2 584.05 344.75
L 584.1 343.9
Q 584.25 342.7 584.25 342.65 584.25 342.13671875 583.95 341.65 582.6392578125 341.7240234375 581.4 341.6 581.2 341.5 581.05 341.45 580.75 341.4 580.35 341.45 578.7 341.15 577.05 340.55 576.45 340.25 575.55 340.25 574.97734375 340.1544921875 574.45 340
L 574.45 340.05
Q 574.64921875 340.3814453125 574.8 340.65 574.8537109375 340.7958984375 574.9 340.9 576.6 344.4 575.75 347.55 575.3 349.05 573.8 351.9 573.15 353.55 573 355.15 572.75 357.75 573.65 359.45 574.6 361.1 578.05 362.75
L 584 365.5
Q 585.5 366.25 586 366.8 587.25 368.1 586.95 370.55 586.85 371.9 586.3 374.55 586.9 374.55 587.25 374.2 588.9 375.35 591.55 373.35 593.8 371.7 597.7 367.6
L 599.35 365.8
Q 599.7 366.1 599.95 366.45 600.65 366.4 601.55 366.6 603.95 367.1 607.15 368.7 608.95 369.6 612.5 371.45 617.35 373.85 622.15 374.45 627.5 375.1 631.9 373.35 633.65 372.65 636.25 371.1 639.5 369.15 640.5 368.65 642.75 367.5 647.4 365.65 648.9 364.95 652.3 363.1 655.4 361.4 657.25 360.6 663.45 357.95 668 359.55 669.9 360.2 672 361.85 673.25 362.8 675.6 364.8 680.25 368.6 684 368.1 684.8 364.65 682.45 357 680.3 349.75 681.65 346.05 682.1 344.8 683.1 343.25 683.7 342.4 684.95 340.7 689.4 334.7 691.7 327.3 693.05 322.95 692.7 319.95 692.5 318.65 691.85 316.75 690.9 313.95 690.8 313.6 689.9 310.3 690.15 307.05 689.75 306.4 689.3 305.6 687.6 302.55 685.65 301.85 685.3 301.75 683.2 301.45 681.7 301.2 680.95 300.6 679.9 299.65 679.7 297.45 679.25 292.9 680.9 288.75 681.75 286.8 681.3 285.9 680.8 284.85 679.1 284.85 677.1 285.05 676.15 285 674.6 284.9 673.3 283.75 672.15 282.7 671.5 281.1 671 279.85 670.8 278 670.6 275.9 670.5 274.8 669.6 264.55 664.65 258.35 661.8 254.8 657.75 252.9
M 601.9 264.25
L 606.45 264.35
Q 607.8 264.35 608.4 264.55 609.55 264.95 609.75 265.85 609.8 266 609.8 266.85 609.7 268.15 609.45 268.75 609.35 269 608.75 269.8 607.6 271 606.45 271.6 605.55 272.1 604.25 272.55
L 598.25 274.7
Q 596.45 275.2 595.5 275.25 593.4 275.25 590.55 273.45 588.95 272.3 588.2 271.35 587.2 269.8 587.55 268.35 587.75 267.5 588.45 266.8 589.05 266.1 589.9 265.8 590.7 265.45 591.8 265.3
L 596.25 264.55
Q 597.95 264.25 598.8 264.2 599.5 264.15 601.9 264.25
M 574.25 284.7
Q 575.35 284.65 576.65 285.15 578.45 286 579.15 287.5 579.55 288.3 579.5 289.2 579.45 290.15 578.95 290.8 578.4 291.55 576.95 292.2 575.25 293 573.85 292.95 572.4 292.9 571.05 291.9 569.85 291 569.15 289.55 568.6 288.65 568.8 287.85 569.05 287.1 570.15 286.5
L 572.15 285.4
Q 573.55 284.75 574.25 284.7
M 578.05 347.85
Q 578.9 347.5 579.75 348.1 580.6 348.65 580.85 349.6 580.95 350 581.05 351.35 581.15 352.45 581.45 353 581.75 353.5 582.35 353.95 582.7 354.25 583.45 354.7 584.9 355.6 585 356.7
L 584.95 357.75
Q 584.95 358.2 585.2 359.05 585.3 360.3 584.25 361.05 583.4 361.7 582.05 361.8 579.45 362 576.9 360 575.25 358.75 574.9 357.3 574.75 356.35 575.25 354.55
L 576.5 350.15
Q 577.15 348.2 578.05 347.85 Z"/>

<path fill="#FFCC66" stroke="none" d="
M 579.75 348.1
Q 578.9 347.5 578.05 347.85 577.15 348.2 576.5 350.15
L 575.25 354.55
Q 574.75 356.35 574.9 357.3 575.25 358.75 576.9 360 579.45 362 582.05 361.8 583.4 361.7 584.25 361.05 585.3 360.3 585.2 359.05 584.95 358.2 584.95 357.75
L 585 356.7
Q 584.9 355.6 583.45 354.7 582.7 354.25 582.35 353.95 581.75 353.5 581.45 353 581.15 352.45 581.05 351.35 580.95 350 580.85 349.6 580.6 348.65 579.75 348.1
M 576.65 285.15
Q 575.35 284.65 574.25 284.7 573.55 284.75 572.15 285.4
L 570.15 286.5
Q 569.05 287.1 568.8 287.85 568.6 288.65 569.15 289.55 569.85 291 571.05 291.9 572.4 292.9 573.85 292.95 575.25 293 576.95 292.2 578.4 291.55 578.95 290.8 579.45 290.15 579.5 289.2 579.55 288.3 579.15 287.5 578.45 286 576.65 285.15
M 606.45 264.35
L 601.9 264.25
Q 599.5 264.15 598.8 264.2 597.95 264.25 596.25 264.55
L 591.8 265.3
Q 590.7 265.45 589.9 265.8 589.05 266.1 588.45 266.8 587.75 267.5 587.55 268.35 587.2 269.8 588.2 271.35 588.95 272.3 590.55 273.45 593.4 275.25 595.5 275.25 596.45 275.2 598.25 274.7
L 604.25 272.55
Q 605.55 272.1 606.45 271.6 607.6 271 608.75 269.8 609.35 269 609.45 268.75 609.7 268.15 609.8 266.85 609.8 266 609.75 265.85 609.55 264.95 608.4 264.55 607.8 264.35 606.45 264.35 Z"/>
</g>
</defs>

<g transform="matrix( 1, 0, 0, 1, 0,0) ">
<use xlink:href="#Layer1_0_FILL"/>
</g>

<g transform="matrix( 1, 0, 0, 1, 0,0) ">
<use xlink:href="#Layer0_0_FILL"/>
</g>
</svg>
