
<svg xmlns="http://www.w3.org/2000/svg" version="1.1" xmlns:xlink="http://www.w3.org/1999/xlink" preserveAspectRatio="none" x="0px" y="0px" width="800px" height="480px" viewBox="0 0 800 480">
<defs>
<g id="Layer1_0_FILL">
<path fill="#74775D" stroke="none" d="
M 151.55 382.35
Q 145.4 382.35 141.05 383.5 136.7 384.7 136.7 386.35 136.7 388 141.05 389.15 145.4 390.35 151.55 390.35 157.7 390.35 162.05 389.15 166.4 388 166.4 386.35 166.4 384.7 162.05 383.5 157.7 382.35 151.55 382.35
M 363.4 385.8
Q 356 387 356 388.7 356 390.4 363.4 391.6 370.85 392.8 381.35 392.8 391.85 392.8 399.25 391.6 406.7 390.4 406.7 388.7 406.7 387 399.25 385.8 391.85 384.6 381.35 384.6 370.85 384.6 363.4 385.8
M 658.05 379.7
Q 658.05 375.6 650.3 372.65 642.6 369.75 631.65 369.75 620.7 369.75 612.95 372.65 605.25 375.6 605.25 379.7 605.25 383.8 612.95 386.7 620.7 389.65 631.65 389.65 642.6 389.65 650.3 386.7 658.05 383.8 658.05 379.7 Z"/>
</g>

<g id="Layer0_0_FILL">
<path fill="#003F5F" stroke="none" d="
M 176.55 196.5
Q 173.45 196 167.35 197.65
L 154.3 201.15
Q 152.95 201.55 151.9 202.15 140.25 197.6 134.35 196.25 128.2 194.8 123.6 195.3 118.65 195.9 114.25 198.6 109.85 201.4 106.85 205.7 101.1 214.15 100.7 229 96.3 228.3 92.05 230.7 87.75 233.1 85.75 237.45 83.8 241.85 84.6 247 85.3 252.15 88.55 255.55 86.95 257.55 85.5 262.95 84.6 266.4 83.55 268.45 83 269.5 82.4 270.15 81.75 270.85 80.7 271.7 80.1 272.2 78.9 273.1 75.6 276 72.55 281.55 69.35 287.5 68.85 292.15 68.25 298.55 72 304.6 75.4 310.25 81.2 313.6 82.5 314.35 85.55 315.8 88.45 317.25 90 318.1 94.35 320.7 97.75 324.75 97.95 325 98.15 325.25 100 327.7 99.9 329.65 99.85 330.9 99.05 332.4 98.5 333.25 97.45 335 96.8 336.4 97 338.05 97.15 339.75 98.35 340.2 99.35 340.55 101.35 339.5 107 336.3 109.85 334.35 114.4 331.2 117.2 327.7 118.15 326.5 118.95 325.25 119.5 324.4 119.95 323.5 120.5 324.05 121.3 324.8 121.55 325 121.8 325.25 122.75 326.1 124.3 327.65 124.4 327.75 124.5 327.85 126.1 329.55 127.15 330.4 127.7 330.85 128.2 331.2 128.3 331.25 128.4 331.35 130.25 332.55 132 332.95 133.15 333.15 134.35 333.05 136.35 332.9 137.3 331.45 138.1 330.25 138.1 327.85
L 138.1 327.8
Q 138.05 326.5 138 325.25 137.85 323.75 137.7 322.25 137.65 322.15 137.65 322.05 137.9 322.15 138.15 322.25 141.5 323.8 143.95 324.4 146.5 325 149.85 325 151.1 325 153.05 324.85 154.25 324.75 155.8 324.6 156.4 324.55 156.95 324.5 161.05 324.1 163.1 323.7
L 173.9 320.55
Q 173.35 321.35 173.1 322.25 172.6 323.7 172.7 325.25 172.7 325.3 172.7 325.4 172.9 327.05 173.8 327.75 173.85 327.8 173.95 327.85 174.9 328.45 176.2 327.85 177.05 327.45 178.1 326.6
L 184.9 321
Q 188.25 318.35 189.95 316.75 192.65 314.25 194.45 311.85 194.75 311.5 195.05 311.1 199.75 316.85 207.3 322.25 208.75 323.3 210.25 324.35 211 324.85 211.75 325.25 212.3 325.6 212.8 325.85 215.1 326.85 216.8 326.55 218.1 326.3 219 325.25 219.3 324.85 219.55 324.35 220.6 322.45 219.55 320.9 219.25 320.45 218.05 319.55 216.95 318.75 216.65 318.1 215.95 316.7 217.05 314.4 218.85 310.65 224.1 306.95 230.85 302.05 232.35 300.4 235.15 297.25 236.55 292.9 237.85 288.65 237.55 284.25 237.25 279.9 235.4 275.8 233.7 271.75 230.8 268.6 230.75 268.5 230.7 268.45 229.45 267.1 229.4 266.25 229.3 265.55 230.15 263.85 232.55 259.45 232.65 254.15 232.75 248.8 230.5 244.3 228.25 239.65 222.3 234.55 206.95 221.3 187.65 217.1 188.5 213.8 188.2 210.35 187.85 206.9 186.35 204 184.85 201 182.2 199 179.6 196.95 176.55 196.5
M 150.25 208.3
Q 152.15 208.9 153.7 208.6 154.9 208.3 155.45 207.6 155.8 207.5 156.15 207.4
L 165.8 204.5
Q 169.1 203.6 170.75 203.35 173.45 202.85 175.6 203.3 178.15 203.75 180.05 205.65 182 207.65 182.2 210.25 182.25 211.55 181.55 214.6 180.9 217.35 181.15 218.9 181.45 220.55 182.7 221.9 183.8 223.15 185.4 223.9 186.7 224.5 188.55 224.9 189.6 225.1 191.8 225.5 204.7 228.05 218.75 240.3 223.9 244.8 225.5 248.65 226.75 251.65 226.5 255 226.35 258.45 224.65 261.2 224 262.45 222.35 265.05 221.4 266.9 221.6 268.45 221.65 268.8 221.75 269.1 222.15 270.4 223.5 271.5 224.25 272.15 226 273.3 230.15 276.45 231.3 282.4 232.4 288.35 229.65 293 227.75 296.2 222.95 299.65 217.1 304 215.65 305.6 212.6 308.85 211.15 313 210.7 314.15 210.5 314.5 210.05 315.3 209.4 315.55 208.2 316.05 206.55 314.35 201.25 309.3 197.5 303.05 197.2 301.6 196.4 300.5 196.3 300.65 196.25 300.85 195.9 300.15 195.55 299.45 198.95 292 205.7 288.3 207.55 287.3 208.55 286.8 210.1 285.8 210.9 284.7 211.9 283.35 211.8 281.5 211.7 279.55 210.3 278.85 208.8 278.1 206.05 279.8 200.65 283.15 195.95 287.65 190.2 293.1 189.65 298.2 189.3 302.35 192.25 307.15 191.3 308.25 190.3 309.3 187.75 311.95 182.2 316.45 181.5 317.05 180.85 317.5 179.1 318.7 177.9 318.85 178.3 314.8 176.4 313.85 175.7 313.55 174.4 313.75 173.3 313.9 171.75 314.3 170.95 314.45 170.05 314.75 169 315 167.8 315.35 167.45 315.45 167.1 315.55 163.1 316.75 161.2 317.05 159.5 317.4 156.95 317.65 155.25 317.8 153.05 317.95 152.15 318 151.1 318.05 147.5 318.25 145.4 318.05 142.25 317.7 140.1 316.3 138.65 315.45 138.15 315.2 137 314.8 136.2 315.35 135.2 316.05 135.3 318.65
L 135.6 325.5
Q 133.9 326.4 132 326.15 131.3 326.05 130.6 325.85 129.85 325.6 129.1 325.25 128.75 325.1 128.4 324.9 128.3 324.85 128.2 324.8 127.05 324.1 125.9 323.1 125.25 322.5 122.05 319.2 121.9 319 121.75 318.85 121.8 318.65 121.85 318.35 122.7 314.4 122.15 310.95 121.85 309.55 121.3 308.2 120.2 305.05 116.8 301.3 115.95 300.45 115.05 299.5 111.85 296.4 109.85 297.65 108.55 298.45 108.5 300.3 108.45 302 109.45 303.4 110.05 304.35 111.6 305.7 113.15 307.2 113.7 307.9 115.55 310.2 115.85 313.6 116.1 316.8 114.85 319.8 113.5 322.9 110.8 325.25 108.95 326.85 106.5 328.1 105.95 326.65 105.25 325.25 103.65 322.05 101.4 319.2 98.15 315.15 93.95 312.5 92.15 311.4 88.35 309.55 84.55 307.7 82.75 306.55 76.15 302.2 75.2 296.25 74.7 293.2 75.9 289.65 76.65 287.1 78.65 283.4 80.75 279.45 82.6 278.25 83.2 277.9 84.9 277.2 86.5 276.6 87.2 276 89.3 274.35 90.25 269.35 90.35 268.9 90.45 268.45 91.4 263.5 92.55 261.85 94.75 259.5 95.65 258.35 97.35 256.2 96.7 254.45 96.4 253.5 95.35 252.7 94.15 251.9 93.55 251.4 91.4 249.7 90.55 246.7 89.85 243.7 90.85 241 91.95 238.3 94.45 236.8 97.05 235.35 99.6 235.9 100.35 236.05 101.95 236.65 103.4 237.2 104.3 237.35 105.55 237.6 106.7 237.15 108 236.6 108.4 235.4 108.75 234.55 108.55 233.35 108.45 232.8 108.05 231.3 106.65 226.4 107.35 221.2 108.05 216 110.65 211.8 113.3 207.55 117.5 204.9 121.7 202.25 126.3 201.85 131.35 201.5 138.4 204 142.35 205.35 150.25 208.3
M 156.25 292.6
Q 154.1 293.25 153.35 293.6 152.25 294.05 152.2 294.75
L 153.5 295.15
Q 153.65 295.55 154.4 295.75 156.3 296.35 157.3 296.45 158.6 296.6 160.05 296.1 161.15 295.75 161.65 295.1 162.15 294.55 162.5 293.45 162.75 292.6 162.6 292.3 162.4 291.9 161.75 291.7 161.1 291.5 159.75 291.7 158.55 291.9 156.25 292.6 Z"/>

<path fill="#00CCED" stroke="none" d="
M 153.7 208.6
Q 152.15 208.9 150.25 208.3 142.35 205.35 138.4 204 131.35 201.5 126.3 201.85 121.7 202.25 117.5 204.9 113.3 207.55 110.65 211.8 108.05 216 107.35 221.2 106.65 226.4 108.05 231.3 108.45 232.8 108.55 233.35 108.75 234.55 108.4 235.4 108 236.6 106.7 237.15 105.55 237.6 104.3 237.35 103.4 237.2 101.95 236.65 100.35 236.05 99.6 235.9 97.05 235.35 94.45 236.8 91.95 238.3 90.85 241 89.85 243.7 90.55 246.7 91.4 249.7 93.55 251.4 94.15 251.9 95.35 252.7 96.4 253.5 96.7 254.45 97.35 256.2 95.65 258.35 94.75 259.5 92.55 261.85 91.4 263.5 90.45 268.45 90.35 268.9 90.25 269.35 89.3 274.35 87.2 276 86.5 276.6 84.9 277.2 83.2 277.9 82.6 278.25 80.75 279.45 78.65 283.4 76.65 287.1 75.9 289.65 74.7 293.2 75.2 296.25 76.15 302.2 82.75 306.55 84.55 307.7 88.35 309.55 92.15 311.4 93.95 312.5 98.15 315.15 101.4 319.2 103.65 322.05 105.25 325.25 105.95 326.65 106.5 328.1 108.95 326.85 110.8 325.25 113.5 322.9 114.85 319.8 116.1 316.8 115.85 313.6 115.55 310.2 113.7 307.9 113.15 307.2 111.6 305.7 110.05 304.35 109.45 303.4 108.45 302 108.5 300.3 108.55 298.45 109.85 297.65 111.85 296.4 115.05 299.5 115.95 300.45 116.8 301.3 120.2 305.05 121.3 308.2 121.85 309.55 122.15 310.95 122.7 314.4 121.85 318.35 121.8 318.65 121.75 318.85 121.9 319 122.05 319.2 125.25 322.5 125.9 323.1 127.05 324.1 128.2 324.8 128.3 324.85 128.4 324.9 128.75 325.1 129.1 325.25 129.85 325.6 130.6 325.85 131.3 326.05 132 326.15 133.9 326.4 135.6 325.5
L 135.3 318.65
Q 135.2 316.05 136.2 315.35 137 314.8 138.15 315.2 138.65 315.45 140.1 316.3 142.25 317.7 145.4 318.05 147.5 318.25 151.1 318.05 152.15 318 153.05 317.95 155.25 317.8 156.95 317.65 159.5 317.4 161.2 317.05 163.1 316.75 167.1 315.55 167.45 315.45 167.8 315.35 169 315 170.05 314.75 170.95 314.45 171.75 314.3 173.3 313.9 174.4 313.75 175.7 313.55 176.4 313.85 178.3 314.8 177.9 318.85 179.1 318.7 180.85 317.5 181.5 317.05 182.2 316.45 187.75 311.95 190.3 309.3 191.3 308.25 192.25 307.15 189.3 302.35 189.65 298.2 190.2 293.1 195.95 287.65 200.65 283.15 206.05 279.8 208.8 278.1 210.3 278.85 211.7 279.55 211.8 281.5 211.9 283.35 210.9 284.7 210.1 285.8 208.55 286.8 207.55 287.3 205.7 288.3 198.95 292 195.55 299.45 195.9 300.15 196.25 300.85 196.3 300.65 196.4 300.5 197.2 301.6 197.5 303.05 201.25 309.3 206.55 314.35 208.2 316.05 209.4 315.55 210.05 315.3 210.5 314.5 210.7 314.15 211.15 313 212.6 308.85 215.65 305.6 217.1 304 222.95 299.65 227.75 296.2 229.65 293 232.4 288.35 231.3 282.4 230.15 276.45 226 273.3 224.25 272.15 223.5 271.5 222.15 270.4 221.75 269.1 221.65 268.8 221.6 268.45 221.4 266.9 222.35 265.05 224 262.45 224.65 261.2 226.35 258.45 226.5 255 226.75 251.65 225.5 248.65 223.9 244.8 218.75 240.3 204.7 228.05 191.8 225.5 189.6 225.1 188.55 224.9 186.7 224.5 185.4 223.9 183.8 223.15 182.7 221.9 181.45 220.55 181.15 218.9 180.9 217.35 181.55 214.6 182.25 211.55 182.2 210.25 182 207.65 180.05 205.65 178.15 203.75 175.6 203.3 173.45 202.85 170.75 203.35 169.1 203.6 165.8 204.5
L 156.15 207.4
Q 155.8 207.5 155.45 207.6 154.9 208.3 153.7 208.6
M 131.1 215.45
Q 131.45 218.05 129.35 222.35 128.45 223.9 128.25 224.2 127.9 224.9 126.95 225.8 126.1 226.7 125.65 227
L 123.55 228.15
Q 123.05 228.4 122.65 228.45 121.95 228.7 120.15 228.2
L 119.45 228
Q 116.3 227 115.25 225.7 114.05 224.25 113.95 221.9 113.85 220.25 114.6 217.9 115 216.3 115.7 215.2 116.55 214 118.6 212.45
L 120.5 210.95
Q 121.45 210.2 122.15 210.1 122.55 210 123.65 210.25
L 125.75 210.85
Q 126.9 211.15 127.7 211.5 128.35 211.85 129.5 212.75 130.35 213.5 130.6 213.85 131 214.55 131.1 215.45
M 124.9 239.1
Q 124.95 239.1 125 239.15
L 130.8 227.95
Q 132.15 225.45 132.85 224.35 134.05 222.4 135.4 221.25 138.9 218.25 146.05 218.35 155.3 218.5 162.45 222.25 165.65 223.85 170.65 227.65 182 236.4 192.9 247 196.1 250.2 197.8 252.35 200.15 255.6 201 258.85 202.05 263.4 200.55 268.45 200.05 270 199.35 271.55 198.2 274.15 196.2 277.1 195.15 278.65 192.4 282.1 187.45 288.55 184.8 291.45 180.35 296.3 176 299.1 170.8 302.4 163.45 304.15 159.5 305.1 153.05 305.95 151.55 306.1 150 306.3 142.15 307.2 137.55 306.65 132.05 306.1 128.2 303.55 127.3 302.9 126.4 302.15 125.65 301.45 121.85 296.95 119.05 293.7 116.75 292.65 114.65 291.65 111.3 291.65 107.55 291.75 105.65 291.6 103.4 291.5 102.4 290.35 101.1 289 101.5 286.25 101.85 283.65 104.25 278.95
L 111.65 264.9
Q 111.1 264.7 110.7 264.8 110.25 264.85 109.6 265.15 108.65 265.6 108.35 265.65 107.15 265.9 106.4 265.2 104.9 264 105.5 260.95 105.9 259 106.55 257.25 107.05 256 107.25 255.35 107.6 254.25 107.6 253.4 107.55 252.85 107.1 250.95 106.8 249.6 106.45 245.7 106.45 244.2 106.65 243.7 107.15 242.35 108.9 242.15 110 242.05 111.6 242.8 113.6 243.7 115.4 245.05 117.35 243.7 119.2 241.7 120.95 239.75 121.8 239.3 123.2 238.55 124.9 239.1
M 211.6 240.5
Q 214.35 242.35 215.8 243.6 217.9 245.55 219 247.7 220.75 251.35 219.9 256.7 219.4 259.85 218.4 261.95 216.9 265.05 213.1 268.45 212.9 268.65 212.65 268.85 207.75 273 204 272.9 202.6 272.8 202 272.2 200.9 271.1 201.5 268.45 201.55 268.25 201.6 268.05 202.35 265.35 203.55 262.85 204.35 261.15 204.65 260.25 205.05 258.85 205.4 255.9 205.8 252.25 205.2 250.55 204.9 249.4 204 248 202.95 246.4 202.4 245.6 200.5 242.45 201.55 240.05 202.25 239.1 202.5 238.5 202.9 237.25 203.25 236.75 203.9 236.05 204.95 236.35 205.7 236.5 206.7 237.2
L 211.6 240.5 Z"/>

<path fill="#66FFFF" stroke="none" d="
M 215.8 243.6
Q 214.35 242.35 211.6 240.5
L 206.7 237.2
Q 205.7 236.5 204.95 236.35 203.9 236.05 203.25 236.75 202.9 237.25 202.5 238.5 202.25 239.1 201.55 240.05 200.5 242.45 202.4 245.6 202.95 246.4 204 248 204.9 249.4 205.2 250.55 205.8 252.25 205.4 255.9 205.05 258.85 204.65 260.25 204.35 261.15 203.55 262.85 202.35 265.35 201.6 268.05 201.55 268.25 201.5 268.45 200.9 271.1 202 272.2 202.6 272.8 204 272.9 207.75 273 212.65 268.85 212.9 268.65 213.1 268.45 216.9 265.05 218.4 261.95 219.4 259.85 219.9 256.7 220.75 251.35 219 247.7 217.9 245.55 215.8 243.6
M 125 239.15
Q 124.95 239.1 124.9 239.1 123.2 238.55 121.8 239.3 120.95 239.75 119.2 241.7 117.35 243.7 115.4 245.05 113.6 243.7 111.6 242.8 110 242.05 108.9 242.15 107.15 242.35 106.65 243.7 106.45 244.2 106.45 245.7 106.8 249.6 107.1 250.95 107.55 252.85 107.6 253.4 107.6 254.25 107.25 255.35 107.05 256 106.55 257.25 105.9 259 105.5 260.95 104.9 264 106.4 265.2 107.15 265.9 108.35 265.65 108.65 265.6 109.6 265.15 110.25 264.85 110.7 264.8 111.1 264.7 111.65 264.9 112.2 265 112.9 265.5 113.55 265.95 114.95 266.95 116.65 267.9 118.65 267.25 120.65 266.6 121.6 264.8 121.85 264.35 122.5 262.35 122.95 260.8 123.65 260.1 124.65 259.4 125.15 259.05 127.75 257.25 129.45 252.85 130 251.25 130.1 250.35 130.3 249.05 130.05 247.45 129.65 243.2 127.7 240.95 126.5 239.65 125 239.15
M 124.8 244.15
Q 125.4 245.05 125.65 245.8 126.65 248.45 125.75 251.25 124.8 253.95 122.65 255.45 121.65 256.15 121.25 256.45 120.55 257.1 119.85 258.15 119.35 258.85 119 259.75 118.85 260 118.65 260.8 118.5 261.55 118.35 261.9 118.2 262.45 117.75 262.75 117 263.35 115.75 262.4 114.8 261.3 114.15 260.95 114 260.8 113.7 260.75
L 122 244.95
Q 122.35 244.5 122.7 244.1 123.35 243.35 123.75 243.35 124.35 243.35 124.8 244.15
M 129.35 222.35
Q 131.45 218.05 131.1 215.45 131 214.55 130.6 213.85 130.35 213.5 129.5 212.75 128.35 211.85 127.7 211.5 126.9 211.15 125.75 210.85
L 123.65 210.25
Q 122.55 210 122.15 210.1 121.45 210.2 120.5 210.95
L 118.6 212.45
Q 116.55 214 115.7 215.2 115 216.3 114.6 217.9 113.85 220.25 113.95 221.9 114.05 224.25 115.25 225.7 116.3 227 119.45 228
L 120.15 228.2
Q 121.95 228.7 122.65 228.45 123.05 228.4 123.55 228.15
L 125.65 227
Q 126.1 226.7 126.95 225.8 127.9 224.9 128.25 224.2 128.45 223.9 129.35 222.35 Z"/>

<path fill="#007D87" stroke="none" d="
M 127.7 240.95
Q 129.65 243.2 130.05 247.45 130.3 249.05 130.1 250.35 130 251.25 129.45 252.85 127.75 257.25 125.15 259.05 124.65 259.4 123.65 260.1 122.95 260.8 122.5 262.35 121.85 264.35 121.6 264.8 120.65 266.6 118.65 267.25 116.65 267.9 114.95 266.95 113.55 265.95 112.9 265.5 112.2 265 111.65 264.9
L 104.25 278.95
Q 101.85 283.65 101.5 286.25 101.1 289 102.4 290.35 103.4 291.5 105.65 291.6 107.55 291.75 111.3 291.65 114.65 291.65 116.75 292.65 119.05 293.7 121.85 296.95 125.65 301.45 126.4 302.15 127.3 302.9 128.2 303.55 132.05 306.1 137.55 306.65 142.15 307.2 150 306.3 151.55 306.1 153.05 305.95 159.5 305.1 163.45 304.15 170.8 302.4 176 299.1 180.35 296.3 184.8 291.45 187.45 288.55 192.4 282.1 195.15 278.65 196.2 277.1 198.2 274.15 199.35 271.55 200.05 270 200.55 268.45 202.05 263.4 201 258.85 200.15 255.6 197.8 252.35 196.1 250.2 192.9 247 182 236.4 170.65 227.65 165.65 223.85 162.45 222.25 155.3 218.5 146.05 218.35 138.9 218.25 135.4 221.25 134.05 222.4 132.85 224.35 132.15 225.45 130.8 227.95
L 125 239.15
Q 126.5 239.65 127.7 240.95
M 139.85 244.55
L 139.8 244.45 139.9 244.15
Q 139.9 244.2 139.95 244.35 139.9 244.45 139.85 244.55
M 144.35 232.8
Q 145.1 232.6 146.55 233
L 154.7 235.8
Q 156.95 236.65 157.95 237.25 158.65 237.7 159.9 238.65
L 162.5 240.6
Q 163.55 241.5 163.75 241.7 164.25 242.25 165.4 244.3 165.65 244.85 166.15 245.85 166.5 246.85 166.5 247.5
L 166.3 248.95
Q 166.25 249.65 166.35 251.2 166.3 251.85 166.05 252.7 165.7 253.5 165.5 254 165.15 256.15 164.65 257.05 163.55 259.5 158.8 260.75 156 261.55 154.2 261.25 152.75 260.9 150.95 259.55 149.85 258.7 149.2 257.85 148.35 256.6 147.85 254.6 146.95 250.45 148.05 247.7 148.8 246.05 150.3 245.15 151.8 244.25 153.45 244.5 154.4 244.6 155.85 245.35 158.05 246.55 158.85 247.95 159.55 249.1 159.5 250.45 159.3 252.05 158.1 252.7 157.35 252.95 156.5 252.55 155.65 252.2 155.35 251.4 155.25 251.15 155.1 250.2 155 249.6 154.75 249.25 154.35 248.8 153.8 248.7 153.2 248.5 152.7 248.8 151.85 249.25 151.6 250.45 151.4 251.3 151.65 252.65 151.85 254.35 152.4 255.35 153.05 256.8 154.35 257.2 155.3 257.4 156.5 257 157.95 256.7 159.3 256.05 160.55 255.6 160.85 254.95 161 254.7 161.15 254.15 161.2 253.45 161.3 253.2 161.9 251.55 162.1 250.8 162.25 249.95 162.05 248 161.95 245.8 161.4 244.95 160.85 244.1 159.6 243.15 156.9 241 155.45 240.35 154.45 239.8 152 238.95
L 146.4 237.1
Q 144.3 236.5 143.7 235.45 143.5 235.1 143.45 234.8 143.35 234.35 143.5 233.95 143.65 233.05 144.3 232.8
L 144.35 232.8
M 130.55 288.85
Q 130.15 288.95 129.1 289.45 128.2 289.9 127.65 289.8 126.8 289.7 126.4 288.85 126 288 126.25 287.15 126.75 285.7 128.65 284.95 130.75 284.05 134.75 284.25 136.65 284.35 137.55 284.9 138.1 285.25 138.65 285.95 139 286.3 139.6 287.1 140.6 288.45 140.75 288.65 141.3 289.6 141.15 290.4 141.05 291.1 140.5 291.55 139.95 292 139.25 291.95 138.6 291.95 137.8 291.45 136.9 290.75 136.45 290.45 135.2 289.6 132.8 289.05 131.3 288.65 130.55 288.85
M 153.35 293.6
Q 154.1 293.25 156.25 292.6 158.55 291.9 159.75 291.7 161.1 291.5 161.75 291.7 162.4 291.9 162.6 292.3 162.75 292.6 162.5 293.45 162.15 294.55 161.65 295.1 161.15 295.75 160.05 296.1 158.6 296.6 157.3 296.45 156.3 296.35 154.4 295.75 153.65 295.55 153.5 295.15
L 152.2 294.75
Q 152.25 294.05 153.35 293.6
M 178.6 270.4
Q 179.05 270.25 179.45 270.4 180.05 270.6 180.35 271.2 180.4 271.3 180.45 271.4 180 270.55 179.2 270.4 178.95 270.35 178.6 270.4
M 181.95 275.45
Q 181.85 276 181 277.2
L 175.8 283.5
Q 177.75 284.2 179.8 283.75 181.4 283.4 181.8 283.35 183.1 283.25 183.7 283.95 184.25 284.55 184.1 285.4 184 286.25 183.35 286.85 182.35 287.7 180.35 287.9 177.75 288.25 174.8 287.85 172.45 287.45 171.7 286.35 170.85 285.15 171.5 283.5 171.85 282.55 173.05 280.95
L 177.5 275.25
Q 179 273.35 180.2 273.35 180.95 273.4 181.5 274.05 182.05 274.7 181.95 275.45 Z"/>

<path fill="#003333" stroke="none" d="
M 181 277.2
Q 181.85 276 181.95 275.45 182.05 274.7 181.5 274.05 180.95 273.4 180.2 273.35 179 273.35 177.5 275.25
L 173.05 280.95
Q 171.85 282.55 171.5 283.5 170.85 285.15 171.7 286.35 172.45 287.45 174.8 287.85 177.75 288.25 180.35 287.9 182.35 287.7 183.35 286.85 184 286.25 184.1 285.4 184.25 284.55 183.7 283.95 183.1 283.25 181.8 283.35 181.4 283.4 179.8 283.75 177.75 284.2 175.8 283.5
L 181 277.2
M 179.45 270.4
Q 179.05 270.25 178.6 270.4 178.95 270.35 179.2 270.4 180 270.55 180.45 271.4 180.4 271.3 180.35 271.2 180.05 270.6 179.45 270.4
M 129.1 289.45
Q 130.15 288.95 130.55 288.85 131.3 288.65 132.8 289.05 135.2 289.6 136.45 290.45 136.9 290.75 137.8 291.45 138.6 291.95 139.25 291.95 139.95 292 140.5 291.55 141.05 291.1 141.15 290.4 141.3 289.6 140.75 288.65 140.6 288.45 139.6 287.1 139 286.3 138.65 285.95 138.1 285.25 137.55 284.9 136.65 284.35 134.75 284.25 130.75 284.05 128.65 284.95 126.75 285.7 126.25 287.15 126 288 126.4 288.85 126.8 289.7 127.65 289.8 128.2 289.9 129.1 289.45 Z"/>

<path fill="#000033" stroke="none" d="
M 146.55 233
Q 145.1 232.6 144.35 232.8
L 144.3 232.8
Q 143.65 233.05 143.5 233.95 143.35 234.35 143.45 234.8 143.5 235.1 143.7 235.45 144.3 236.5 146.4 237.1
L 152 238.95
Q 154.45 239.8 155.45 240.35 156.9 241 159.6 243.15 160.85 244.1 161.4 244.95 161.95 245.8 162.05 248 162.25 249.95 162.1 250.8 161.9 251.55 161.3 253.2 161.2 253.45 161.15 254.15 161 254.7 160.85 254.95 160.55 255.6 159.3 256.05 157.95 256.7 156.5 257 155.3 257.4 154.35 257.2 153.05 256.8 152.4 255.35 151.85 254.35 151.65 252.65 151.4 251.3 151.6 250.45 151.85 249.25 152.7 248.8 153.2 248.5 153.8 248.7 154.35 248.8 154.75 249.25 155 249.6 155.1 250.2 155.25 251.15 155.35 251.4 155.65 252.2 156.5 252.55 157.35 252.95 158.1 252.7 159.3 252.05 159.5 250.45 159.55 249.1 158.85 247.95 158.05 246.55 155.85 245.35 154.4 244.6 153.45 244.5 151.8 244.25 150.3 245.15 148.8 246.05 148.05 247.7 146.95 250.45 147.85 254.6 148.35 256.6 149.2 257.85 149.85 258.7 150.95 259.55 152.75 260.9 154.2 261.25 156 261.55 158.8 260.75 163.55 259.5 164.65 257.05 165.15 256.15 165.5 254 165.7 253.5 166.05 252.7 166.3 251.85 166.35 251.2 166.25 249.65 166.3 248.95
L 166.5 247.5
Q 166.5 246.85 166.15 245.85 165.65 244.85 165.4 244.3 164.25 242.25 163.75 241.7 163.55 241.5 162.5 240.6
L 159.9 238.65
Q 158.65 237.7 157.95 237.25 156.95 236.65 154.7 235.8
L 146.55 233 Z"/>

<path fill="#66CCCC" stroke="none" d="
M 125.65 245.8
Q 125.4 245.05 124.8 244.15 124.35 243.35 123.75 243.35 123.35 243.35 122.7 244.1 122.35 244.5 122 244.95
L 113.7 260.75
Q 114 260.8 114.15 260.95 114.8 261.3 115.75 262.4 117 263.35 117.75 262.75 118.2 262.45 118.35 261.9 118.5 261.55 118.65 260.8 118.85 260 119 259.75 119.35 258.85 119.85 258.15 120.55 257.1 121.25 256.45 121.65 256.15 122.65 255.45 124.8 253.95 125.75 251.25 126.65 248.45 125.65 245.8 Z"/>

<path fill="#410041" stroke="none" d="
M 420.35 272.2
Q 414.6 271.95 411.8 271.55 409.55 271.25 409.4 271.25 409.25 271.25 409.15 271.25 408.95 271 408.75 270.8 401.1 262.15 392.85 257.3 383.1 251.55 373.45 251.8 367.5 251.95 360.85 254.4 352.2 257.55 344.85 263.4 337.5 269.2 332.45 276.9 329.85 280.85 326.75 287.2 325 290.75 321.6 297.85 315.15 310.45 307.65 315.8 306.7 316.5 304.7 317.9 303.05 319.15 302.2 320.45 300.85 322.6 300.65 326.65 300.3 334 301.95 341.3 303 345.7 304.8 347.8 306.05 349.2 307.75 349.85 309.6 350.5 311.2 349.9 311.9 357.3 316.55 363.5 321.25 369.7 328.2 372.3 329.7 372.85 331.05 372.9
L 330.4 380.05
Q 330.2 382.2 330.45 383.25 330.9 385.1 332.35 385.7 333.65 386.25 335.3 385.35 336.05 384.95 337.7 383.4 340.6 380.75 343.8 378.65 344 378.55 344.2 378.4
L 345.5 379.2
Q 348.85 381.2 350.35 381.85 354.15 383.45 359.25 383.7 362.7 383.85 368.45 383.35 377.2 382.65 383.3 381.65 383.4 381.95 383.6 382.3
L 386.1 386.5
Q 386.1638671875 386.6015625 386.2 386.7 387.7298828125 389.0759765625 388.45 389.7 390.1 391.3 392.05 391.05 394.35 390.8 396.6 386.95
L 400.85 379.75
Q 401 379.5 401.15 379.3 405.95 378.2 410.45 376.15 410.65 376.35 410.95 376.6
L 415.1 380.65
Q 417.2 382.65 418.6 382.85 419.85 383.05 421.1 382.45 422.25 381.85 423.05 380.7 424.1 379.35 425 375.85
L 426 371.95
Q 426.3 370.75 426.2 370.05 426.15 369.8 426.1 369.65 426.3 369.55 426.5 369.5
L 429.7 368.55
Q 432.2 367.75 432.95 367.3 433.85 366.8 434.8 365.75 435.8 364.75 436.25 364.2 437.65 362.5 439.45 359.7 440.1 358.65 440.6 357.75 441.05 358.25 441.7 358.7 442.5 359.25 443.95 359.9 445.9 360.55 447.15 360.55 448.5 360.6 451.1 359.8
L 459.4 357.1
Q 461.1 356.45 462.3 355.55 463.3 354.85 464.7 353.45 467.75 350.3 468.6 348.9 469.5 347.5 470.95 344.5 471.35 343.8 474.35 339.35 474.55 339.05 474.7 338.8 474.8 338.8 474.9 338.8 478.25 339 480.15 338.9 483 338.8 485.2 338.05 487.7 337.2 489.1 335.55 490.55 333.8 490.65 331.3 490.7 328.85 489.55 326.7 487.7 323.2 482.75 320.4 476.55 317.05 469.55 316.35 464.05 316.15 461.4 315.85 456.7 315.3 453.95 313.25 451.15 311.15 448.5 305.5 444.95 297.95 443.1 294.2 439.9 287.7 437.15 283.25 432.9 276.45 428.45 274.15 425.45 272.6 420.35 272.2
M 418 278.1
Q 421.25 278.35 422.75 278.7 425.4 279.2 427.15 280.45 429.35 282 431.85 286.35 437.4 295.95 441.9 305.5 444.5 311.05 446.05 313.4 448.8 317.6 452.2 319.55 455.6 321.5 461.6 322 471.2 322.8 471.55 322.85 477.5 324 482.3 327.45 484.4 328.95 484.3 330.5 484.25 331.6 483.05 332.35 482.05 332.95 480.75 332.95 479.75 332.95 477.4 332.6 475.2 332.2 474 332.35 472.25 332.55 471.1 333.85 470.15 334.45 469.05 336.2
L 465.55 341.75
Q 464.65 343.25 463.45 344.95
L 461.25 347.8
Q 459.9 349.35 459.4 349.8 458.65 350.4 456.95 351.2 453.25 352.85 449.2 353.75 447.4 354.15 446.5 353.95 445.9 353.8 444.55 353.15 443.35 352.55 442.6 352.5 441.4 352.45 440.45 353.3 440.35 353.4 440.25 353.55 439.55 353.5 438.85 353.6 437.5 353.85 436.8 354.5 435.95 355.2 435.15 357.05 433.1 361.35 429.9 364.95 429.1 365.95 428.4 366.35 427.9 366.65 426.7 367.05
L 421.9 368.35
Q 419.9 368.9 419.7 369.9 420.35 370.45 421.35 370.5 421.95 370.55 422.95 370.4 422.85 370.8 422.75 371.3 422.3 374.15 422.1 375 421.55 377.05 420.65 378.4 419.95 379.5 419.15 379.5 418.45 379.55 417.45 378.65 415.15 376.55 413.3 374.6 413.25 374.55 413.2 374.5 413.55 374.2 413.75 373.95 414.15 373.45 414.05 373.1 413.95 372.7 413.2 372.6 410.75 372.4 407.85 373.9 404.6 375.75 402.85 376.4 402.2 376.65 401.25 376.9 401.1 376.7 400.9 376.6 400.1 376.15 399.25 376.8 398.9 377.1 398.6 377.55 397.35 377.85 396.7 378.1 395.3 378.65 395.15 379.4 395.8 380 397.25 379.95
L 393.75 386
Q 393.527734375 386.3916015625 393.3 386.7 392.456640625 387.85 391.55 387.85 390.693359375 387.8072265625 389.9 386.7 389.7791015625 386.5150390625 389.65 386.3 387.95 383.75 386.4 381 386.8 380.8 387.05 380.6 387.55 380.1 387.35 379.75 387.25 379.45 386.65 379.35 385.5 379.15 384.7 379.15 384.5 379.05 384.35 379.05 383.95 379 383.7 379.1 383 379.2 380.3 379.75 378.85 380.05 376.05 380.35
L 368.95 381
Q 365.2 381.3 363.05 381.25 359.8 381.2 357.25 380.5 354.1 379.55 348.75 376.2 345.75 374.35 344.1 374.05 342.8 373.8 341.55 374.2 340.2 374.6 339.5 375.6
L 341.25 376.65 333.5 382.7
Q 333.4 376.8 334.3 371.15 334.8 370 334.15 368.65 333.5 367.2 332.05 366.4 331.1 365.85 329.2 365.25 327.05 364.65 326.25 364.25 323.2 362.85 321.1 359.2 319.6 356.6 318.35 352.1 317.6 349.55 317.2 348.6 316.45 346.7 315.45 345.45 314.25 344 312.5 343.35 310.6 342.7 309 343.4 306.6 336.35 306.85 328.6 306.95 326 307.7 324.6 308.25 323.65 309.35 322.75 309.65 322.55 311.4 321.3 319.05 315.95 325.55 304.05 332.25 290 336.15 283.45 344.25 269.8 355.9 263.25 362.3 259.7 369.4 258.75 376.85 257.75 383.45 259.85 389 261.65 394.65 265.95 398.75 269.1 404.15 274.7 404.3 274.85 404.5 275.05 404.95 277.15 409.25 277.5
L 418 278.1
M 327.9 319.6
Q 327.65 319.7 327.4 319.7 327 319.85 326.5 320.35
L 322.45 326.75
Q 322.5 327.5 322.95 328.25 323.65 329.4 324.9 330.1 327.15 331.4 329.2 330.6 330.25 330.15 331.2 328.95 332.4 327.6 332.9 325.9 333.4 324.1 332.9 322.45 332.45 321.35 331.7 320.7 331.2 320.3 329.45 319.85 328.4 319.6 327.9 319.6
M 329.4 323.1
L 329.85 323.25 330 323.7 330.1 324.5
Q 330.05 325.15 329.6 325.95 329.35 326.4 328.75 327.1 328.05 327.7 327.5 327.7 326.9 327.75 326 327.05 325.5 326.75 325.5 326.35 325.55 326.1 325.85 325.8 327 324.05 327.85 323.55 328.6 323.1 329.4 323.1
M 400.4 329.4
Q 399.35 329.8 398.3 331.25 396.7 333.3 395.5 336.15 394.8 337.8 393.65 341.55
L 390.95 350.4 389.15 350.55
Q 385.8 350.85 384.8 352.25 384.3 353 384.1 354.4 383.8 356.95 384.85 359.2 386 361.6 388.25 362.5 389.35 362.95 391.8 363.15 397.4 363.6 401 363.2 403.55 362.85 406.1 362.15 408.6 361.45 409.95 360.75 410.75 360.4 413.15 358.65 415.15 357.15 415.95 356.2 417.6 354.3 418.45 351.5 419.1 349.4 418.65 348.05 418.3 346.95 416.55 345.4 415.75 344.7 414.95 344.35 414.6 344.25 414.2 344.2 414.2 344.15 414.2 344.05 414.45 338.8 416.45 334 417.15 332.4 417 331.55 416.8 330.6 415.8 330.1 414.8 329.6 413.8 329.8 412.2 330.15 410.5 332.05 408.85 333.9 406.95 336.65
L 404.3 340.35 404.5 334.15
Q 404.6 333.5 404.5 332.8 404.45 332.35 403.85 330.95 403.45 330.05 403.05 329.65 402 328.65 400.4 329.4
M 397 341.4
Q 397.35 339.7 397.6 338.9 398.05 337.5 399.85 334.4 400.7 333.15 401.3 332.85 401.4 333.45 401.4 334.65
L 401.4 337.7
Q 401.35 338.65 401.2 340.55 401.15 342.25 401.4 343.4 401.7 344.8 402.4 345.5 403.4 346.5 404.55 346.1 405.15 345.9 405.4 345.35 405.7 344.8 405.5 344.25 405.45 344.15 405.4 344.05 405.6 343.75 405.85 343.35 409.3 338.15 413 333.9 411.5 339.65 411.1 342.45 410.85 343.85 411.15 344.75 409.95 345.05 409.95 345.8 409.95 346.25 410.55 346.75 411.8 347.95 411.95 348.1 412.65 348.9 412.75 349.7 412.9 350.5 412.5 351.65 412.05 353.45 411.55 354.3 410.85 355.6 409 357.1 406.4 359.25 404.4 359.95 402.05 360.85 398.6 360.75 396.45 360.75 394.25 360.45 392.65 360.25 391.95 359.7 391.4 359.25 391 358.4 390.35 357.1 390.15 355.7 390.95 355.3 392.55 354.5 393.95 353.8 395.05 353.6 395.4 353.55 396.15 353.4 396.75 353.25 397.15 352.95 397.75 352.5 397.8 351.65 397.8 351.4 397.8 351.25 398.15 350.9 398.15 350.45 397.4 349.7 395.55 349.9
L 394.25 350.05 397 341.4
M 382.35 326.7
Q 381.5 326.25 380.6 326.25 379.65 326.25 378.95 326.75
L 377.75 328.1
Q 377.5 328.4 376.1 329.5 375.1 330.35 374.7 331.1 374.1 332.35 374.7 333.8 375.25 335.15 376.5 335.95 377.95 336.9 379.8 336.85 381.6 336.85 383.05 335.85 384.05 335.15 384.6 334.15 385.8 332.15 385.15 329.9 384.4 327.6 382.35 326.7
M 379.35 333.75
Q 378.7 333.7 377.75 332.95
L 377.5 332.65
Q 377.5 332.4 377.7 332.2 378.55 331.2 380.85 329.75 381.05 329.55 381.25 329.55 381.45 329.55 381.55 329.75 381.95 330.15 382.25 331.35
L 382.3 332
Q 382.2 332.4 381.5 332.9 380.15 333.85 379.35 333.75 Z"/>

<path fill="#E57AED" stroke="none" d="
M 422.75 278.7
Q 421.25 278.35 418 278.1
L 409.25 277.5
Q 404.95 277.15 404.5 275.05 404.3 274.85 404.15 274.7 398.75 269.1 394.65 265.95 389 261.65 383.45 259.85 376.85 257.75 369.4 258.75 362.3 259.7 355.9 263.25 344.25 269.8 336.15 283.45 332.25 290 325.55 304.05 319.05 315.95 311.4 321.3 309.65 322.55 309.35 322.75 308.25 323.65 307.7 324.6 306.95 326 306.85 328.6 306.6 336.35 309 343.4 310.6 342.7 312.5 343.35 314.25 344 315.45 345.45 316.45 346.7 317.2 348.6 317.6 349.55 318.35 352.1 319.6 356.6 321.1 359.2 323.2 362.85 326.25 364.25 327.05 364.65 329.2 365.25 331.1 365.85 332.05 366.4 333.5 367.2 334.15 368.65 334.8 370 334.3 371.15 333.4 376.8 333.5 382.7
L 341.25 376.65 339.5 375.6
Q 340.2 374.6 341.55 374.2 342.8 373.8 344.1 374.05 345.75 374.35 348.75 376.2 354.1 379.55 357.25 380.5 359.8 381.2 363.05 381.25 365.2 381.3 368.95 381
L 376.05 380.35
Q 378.85 380.05 380.3 379.75 383 379.2 383.7 379.1 383.95 379 384.35 379.05 384.5 379.05 384.7 379.15 385.5 379.15 386.65 379.35 387.25 379.45 387.35 379.75 387.55 380.1 387.05 380.6 386.8 380.8 386.4 381 387.95 383.75 389.65 386.3 389.7791015625 386.5150390625 389.9 386.7 390.693359375 387.8072265625 391.55 387.85 392.456640625 387.85 393.3 386.7 393.527734375 386.3916015625 393.75 386
L 397.25 379.95
Q 395.8 380 395.15 379.4 395.3 378.65 396.7 378.1 397.35 377.85 398.6 377.55 398.9 377.1 399.25 376.8 400.1 376.15 400.9 376.6 401.1 376.7 401.25 376.9 402.2 376.65 402.85 376.4 404.6 375.75 407.85 373.9 410.75 372.4 413.2 372.6 413.95 372.7 414.05 373.1 414.15 373.45 413.75 373.95 413.55 374.2 413.2 374.5 413.25 374.55 413.3 374.6 415.15 376.55 417.45 378.65 418.45 379.55 419.15 379.5 419.95 379.5 420.65 378.4 421.55 377.05 422.1 375 422.3 374.15 422.75 371.3 422.85 370.8 422.95 370.4 421.95 370.55 421.35 370.5 420.35 370.45 419.7 369.9 419.9 368.9 421.9 368.35
L 426.7 367.05
Q 427.9 366.65 428.4 366.35 429.1 365.95 429.9 364.95 433.1 361.35 435.15 357.05 435.95 355.2 436.8 354.5 437.5 353.85 438.85 353.6 439.55 353.5 440.25 353.55 440.35 353.4 440.45 353.3 441.4 352.45 442.6 352.5 443.35 352.55 444.55 353.15 445.9 353.8 446.5 353.95 447.4 354.15 449.2 353.75 453.25 352.85 456.95 351.2 458.65 350.4 459.4 349.8 459.9 349.35 461.25 347.8
L 463.45 344.95
Q 464.65 343.25 465.55 341.75
L 469.05 336.2
Q 470.15 334.45 471.1 333.85 472.25 332.55 474 332.35 475.2 332.2 477.4 332.6 479.75 332.95 480.75 332.95 482.05 332.95 483.05 332.35 484.25 331.6 484.3 330.5 484.4 328.95 482.3 327.45 477.5 324 471.55 322.85 471.2 322.8 461.6 322 455.6 321.5 452.2 319.55 448.8 317.6 446.05 313.4 444.5 311.05 441.9 305.5 437.4 295.95 431.85 286.35 429.35 282 427.15 280.45 425.4 279.2 422.75 278.7
M 412.4 296
Q 412.1 295.15 411.85 294.3 411.2 292.15 411.8 291.2 412.35 290.25 413.7 289.9 414.5 289.75 416.1 289.75 416.7 289.75 419.35 289.65 421.3 289.55 422.55 289.65 423.95 289.75 424.8 290.05 425.55 290.3 426.85 291.2 427.8 292 428.35 292.65 428.7 293.15 429.1 294
L 430.6 296.75
Q 431.55 298.6 432.25 300.6 432.65 301.75 432.8 302.7 432.95 303.7 432.95 304.6 432.95 306.8 432.65 307.6 432.4 308.3 431.9 308.95 431.95 309 432 309.1 435.85 314.3 440.6 318.6 441.6 319.5 442.25 319.6 442.3 319.6 442.35 319.65 442.35 319.75 442.35 319.9 442.35 321 443 322.15 445.25 326.4 444.45 329.95 443.95 332.3 441.75 334.85 439 337.7 437.7 339.1 435.35 341.65 432.9 345.75 430.25 350.55 428.85 352.9 425.1 359.45 421.3 362.25 418.7 364.1 412.7 366.3
L 400.9 370.55
Q 396.55 372.2 393.9 372.25 392.3 372.3 389.45 371.65 386.3 370.95 384.95 370.85 382.65 370.7 379.35 371.45 375.65 372.4 373.75 372.75 364.8 374.55 354.2 371.2 347.05 369 336.2 363 328.7 358.85 325.4 355.3 321.6 351.3 318.85 343.85 316.95 338.75 317.6 335.65 318 333.7 320.1 330.4
L 322.45 326.75 326.5 320.35 326.95 319.65
Q 327.15 319.7 327.35 319.7
L 327.4 319.7
Q 327.65 319.7 327.9 319.6 328.6 319.3 329.3 318.05 333.75 309.4 339.75 301.9 339.6 299.55 339.85 297.9 340.1 296.3 341.2 293.3 342.7 289.4 343.75 287.6 344.8 285.9 347.4 282.8 351.15 278.45 353.55 276.95 355.7 275.65 359.55 274.6 364.85 273.15 365.8 272.8 367.6 272.25 368.25 272.5 368.8 272.7 369.65 273.5 370.4 274 372.2 274.5 373.8 275.1 374.85 276.45 377.45 276.1 380 276.25 385.1 276.6 389.05 279 391.95 280.75 396.1 285.2 400.65 290.05 403 291.7 405.65 293.55 412.4 296 Z"/>

<path fill="#762583" stroke="none" d="
M 326.95 319.65
L 326.5 320.35
Q 327 319.85 327.4 319.7
L 327.35 319.7
Q 327.15 319.7 326.95 319.65
M 380 276.25
Q 377.45 276.1 374.85 276.45 374.9 276.55 375 276.65 376.15 278.2 376.3 280 376.45 281.8 375.55 283.9 375 285.2 373.6 287.5
L 369.9 293.4
Q 365.95 299.75 363.5 302.8 358.4 309.3 352.95 310.55 350.35 311.2 347.6 310.6 344.9 310 342.75 308.4 341.5 307.45 340.75 306.2 340.1 305.05 339.8 302.65 339.75 302.25 339.75 301.9 333.75 309.4 329.3 318.05 328.6 319.3 327.9 319.6 328.4 319.6 329.45 319.85 331.2 320.3 331.7 320.7 332.45 321.35 332.9 322.45 333.4 324.1 332.9 325.9 332.4 327.6 331.2 328.95 330.25 330.15 329.2 330.6 327.15 331.4 324.9 330.1 323.65 329.4 322.95 328.25 322.5 327.5 322.45 326.75
L 320.1 330.4
Q 318 333.7 317.6 335.65 316.95 338.75 318.85 343.85 321.6 351.3 325.4 355.3 328.7 358.85 336.2 363 347.05 369 354.2 371.2 364.8 374.55 373.75 372.75 375.65 372.4 379.35 371.45 382.65 370.7 384.95 370.85 386.3 370.95 389.45 371.65 392.3 372.3 393.9 372.25 396.55 372.2 400.9 370.55
L 412.7 366.3
Q 418.7 364.1 421.3 362.25 425.1 359.45 428.85 352.9 430.25 350.55 432.9 345.75 435.35 341.65 437.7 339.1 439 337.7 441.75 334.85 443.95 332.3 444.45 329.95 445.25 326.4 443 322.15 442.35 321 442.35 319.9 442.35 319.75 442.35 319.65 442.3 319.6 442.25 319.6 441.6 319.5 440.6 318.6 435.85 314.3 432 309.1 431.95 309 431.9 308.95 431.6 309.3 431.25 309.65 429.5 311.4 427.5 311.9 425.2 312.45 423.15 311.55 421.9 310.95 420.7 309.55 420.15 308.9 418.75 306.95 417.35 305.1 417 304.45
L 414.55 300.35
Q 413.35 298.5 412.4 296 405.65 293.55 403 291.7 400.65 290.05 396.1 285.2 391.95 280.75 389.05 279 385.1 276.6 380 276.25
M 380.6 326.25
Q 381.5 326.25 382.35 326.7 384.4 327.6 385.15 329.9 385.8 332.15 384.6 334.15 384.05 335.15 383.05 335.85 381.6 336.85 379.8 336.85 377.95 336.9 376.5 335.95 375.25 335.15 374.7 333.8 374.1 332.35 374.7 331.1 375.1 330.35 376.1 329.5 377.5 328.4 377.75 328.1
L 378.95 326.75
Q 379.65 326.25 380.6 326.25
M 398.3 331.25
Q 399.35 329.8 400.4 329.4 402 328.65 403.05 329.65 403.45 330.05 403.85 330.95 404.45 332.35 404.5 332.8 404.6 333.5 404.5 334.15
L 404.3 340.35 406.95 336.65
Q 408.85 333.9 410.5 332.05 412.2 330.15 413.8 329.8 414.8 329.6 415.8 330.1 416.8 330.6 417 331.55 417.15 332.4 416.45 334 414.45 338.8 414.2 344.05 414.2 344.15 414.2 344.2 414.6 344.25 414.95 344.35 415.75 344.7 416.55 345.4 418.3 346.95 418.65 348.05 419.1 349.4 418.45 351.5 417.6 354.3 415.95 356.2 415.15 357.15 413.15 358.65 410.75 360.4 409.95 360.75 408.6 361.45 406.1 362.15 403.55 362.85 401 363.2 397.4 363.6 391.8 363.15 389.35 362.95 388.25 362.5 386 361.6 384.85 359.2 383.8 356.95 384.1 354.4 384.3 353 384.8 352.25 385.8 350.85 389.15 350.55
L 390.95 350.4 393.65 341.55
Q 394.8 337.8 395.5 336.15 396.7 333.3 398.3 331.25
M 352.3 337.2
Q 352.7 335.5 353.65 334.95 354.55 335.7 354.55 337.25 354.55 338.25 354 339.7 353.05 342.75 352.45 344.05 351.5 343.95 350.4 343.3 349.85 343 348.55 342 347.55 341.1 347.3 340.75 346.65 339.6 346.95 337.25 347.6 336.95 348.6 337.95
L 349.95 339.05
Q 351.1 339.9 351.85 339.5 352 338.35 352.3 337.2 Z"/>

<path fill="#54B997" stroke="none" d="
M 329.85 323.25
L 329.4 323.1
Q 328.6 323.1 327.85 323.55 327 324.05 325.85 325.8 325.55 326.1 325.5 326.35 325.5 326.75 326 327.05 326.9 327.75 327.5 327.7 328.05 327.7 328.75 327.1 329.35 326.4 329.6 325.95 330.05 325.15 330.1 324.5
L 330 323.7 329.85 323.25
M 377.75 332.95
Q 378.7 333.7 379.35 333.75 380.15 333.85 381.5 332.9 382.2 332.4 382.3 332
L 382.25 331.35
Q 381.95 330.15 381.55 329.75 381.45 329.55 381.25 329.55 381.05 329.55 380.85 329.75 378.55 331.2 377.7 332.2 377.5 332.4 377.5 332.65
L 377.75 332.95 Z"/>

<path fill="#62006C" stroke="none" d="
M 353.65 334.95
Q 352.7 335.5 352.3 337.2 352 338.35 351.85 339.5 351.1 339.9 349.95 339.05
L 348.6 337.95
Q 347.6 336.95 346.95 337.25 346.65 339.6 347.3 340.75 347.55 341.1 348.55 342 349.85 343 350.4 343.3 351.5 343.95 352.45 344.05 353.05 342.75 354 339.7 354.55 338.25 354.55 337.25 354.55 335.7 353.65 334.95 Z"/>

<path fill="#542583" stroke="none" d="
M 397.6 338.9
Q 397.35 339.7 397 341.4
L 394.25 350.05 395.55 349.9
Q 397.4 349.7 398.15 350.45 398.15 350.9 397.8 351.25 397.8 351.4 397.8 351.65 397.75 352.5 397.15 352.95 396.75 353.25 396.15 353.4 395.4 353.55 395.05 353.6 393.95 353.8 392.55 354.5 390.95 355.3 390.15 355.7 390.35 357.1 391 358.4 391.4 359.25 391.95 359.7 392.65 360.25 394.25 360.45 396.45 360.75 398.6 360.75 402.05 360.85 404.4 359.95 406.4 359.25 409 357.1 410.85 355.6 411.55 354.3 412.05 353.45 412.5 351.65 412.9 350.5 412.75 349.7 412.65 348.9 411.95 348.1 411.8 347.95 410.55 346.75 409.95 346.25 409.95 345.8 409.95 345.05 411.15 344.75 410.85 343.85 411.1 342.45 411.5 339.65 413 333.9 409.3 338.15 405.85 343.35 405.6 343.75 405.4 344.05 405.45 344.15 405.5 344.25 405.7 344.8 405.4 345.35 405.15 345.9 404.55 346.1 403.4 346.5 402.4 345.5 401.7 344.8 401.4 343.4 401.15 342.25 401.2 340.55 401.35 338.65 401.4 337.7
L 401.4 334.65
Q 401.4 333.45 401.3 332.85 400.7 333.15 399.85 334.4 398.05 337.5 397.6 338.9 Z"/>

<path fill="#F3BAFF" stroke="none" d="
M 343.75 287.6
Q 342.7 289.4 341.2 293.3 340.1 296.3 339.85 297.9 339.6 299.55 339.75 301.9 339.75 302.25 339.8 302.65 340.1 305.05 340.75 306.2 341.5 307.45 342.75 308.4 344.9 310 347.6 310.6 350.35 311.2 352.95 310.55 358.4 309.3 363.5 302.8 365.95 299.75 369.9 293.4
L 373.6 287.5
Q 375 285.2 375.55 283.9 376.45 281.8 376.3 280 376.15 278.2 375 276.65 374.9 276.55 374.85 276.45 373.8 275.1 372.2 274.5 370.4 274 369.65 273.5 368.8 272.7 368.25 272.5 367.6 272.25 365.8 272.8 364.85 273.15 359.55 274.6 355.7 275.65 353.55 276.95 351.15 278.45 347.4 282.8 344.8 285.9 343.75 287.6
M 370.45 277.4
Q 370.65 277.35 370.85 277.3 371 277.35 371.1 277.4 372.25 277.95 372.8 278.85 373.6 280.15 373.05 281.9 372.7 283.1 371.6 284.75
L 366.7 292.7
Q 362.5 299.55 359.55 302.7 356.05 306.65 352.3 307.5 348.7 308.3 345.5 306.5 344.1 305.7 343.45 304.7 342.9 303.8 342.7 302 342.6 300.2 343.15 297.85 348.15 292.15 354.05 287.1 362.9 279.7 370.45 277.4
M 411.85 294.3
Q 412.1 295.15 412.4 296 413.35 298.5 414.55 300.35
L 417 304.45
Q 417.35 305.1 418.75 306.95 420.15 308.9 420.7 309.55 421.9 310.95 423.15 311.55 425.2 312.45 427.5 311.9 429.5 311.4 431.25 309.65 431.6 309.3 431.9 308.95 432.4 308.3 432.65 307.6 432.95 306.8 432.95 304.6 432.95 303.7 432.8 302.7 432.65 301.75 432.25 300.6 431.55 298.6 430.6 296.75
L 429.1 294
Q 428.7 293.15 428.35 292.65 427.8 292 426.85 291.2 425.55 290.3 424.8 290.05 423.95 289.75 422.55 289.65 421.3 289.55 419.35 289.65 416.7 289.75 416.1 289.75 414.5 289.75 413.7 289.9 412.35 290.25 411.8 291.2 411.2 292.15 411.85 294.3
M 427.5 303.4
Q 428.5 304.4 429.7 305.95 429.4 307 428.65 307.85 427.85 308.75 426.75 308.95 425.1 309.25 423.4 307.9 422.65 307.3 421.1 305.05 418.55 301.15 417.45 299.2 416.95 298.3 416.5 297.4 424.15 300.1 427.5 303.4 Z"/>

<path fill="#E981FF" stroke="none" d="
M 370.85 277.3
Q 370.65 277.35 370.45 277.4 362.9 279.7 354.05 287.1 348.15 292.15 343.15 297.85 342.6 300.2 342.7 302 342.9 303.8 343.45 304.7 344.1 305.7 345.5 306.5 348.7 308.3 352.3 307.5 356.05 306.65 359.55 302.7 362.5 299.55 366.7 292.7
L 371.6 284.75
Q 372.7 283.1 373.05 281.9 373.6 280.15 372.8 278.85 372.25 277.95 371.1 277.4 371 277.35 370.85 277.3
M 429.7 305.95
Q 428.5 304.4 427.5 303.4 424.15 300.1 416.5 297.4 416.95 298.3 417.45 299.2 418.55 301.15 421.1 305.05 422.65 307.3 423.4 307.9 425.1 309.25 426.75 308.95 427.85 308.75 428.65 307.85 429.4 307 429.7 305.95 Z"/>

<path fill="#332301" stroke="none" d="
M 418.25 136.25
Q 417.7 136.15 417.1 136.55 417.0685546875 136.5720703125 417.05 136.6 416.55703125 136.8447265625 416.35 137.3 416.189453125 137.634375 416.2 138 416.103125 138.76171875 416.25 139.9 417.1908203125 150.0705078125 417.25 159.85 416.9025390625 160.1171875 416.55 160.35 414.6 161.6 414.1 162.65 413.7 163.45 413.95 164.35 414.2 165.3 415 165.55 416 165.8 417.4 164.7 417.6294921875 164.5361328125 417.85 164.35 417.9025390625 164.4126953125 417.95 164.45 418.55 164.9 419.35 164.65 420.15 164.35 420.6 163.65 420.9595703125 163.02890625 421.05 161.95 424.06171875 159.51328125 427 156.7 429.65 154.25 430.65 152.4 432.2 149.45 431.2 146.9 430.7 145.6 429.4 144.4 428.7 143.8 426.85 142.5 423.65 140.35 420.6 137.75 419.6099609375 136.943359375 418.95 136.6 418.6451171875 136.332421875 418.25 136.25
M 420.55 148.3
Q 420.3771484375 144.58359375 420.15 141.95
L 425.75 146.2
Q 427.4 147.4 427.65 148.55 427.95 149.95 426.25 151.85 423.8380859375 154.6736328125 420.9 157.1
L 420.55 148.3
M 461.65 142.1
Q 461.75 140.05 461.35 139.15 461.05 138.4 460.4 138 459.7 137.5 459 137.7 457.35 138.15 457.45 141.15 457.55 143.7 458.05 148.85 458.4 153.45 458.05 156.5 457.9 158.3 458 158.65 458.25 159.95 459.25 160.3 459.85 160.5 460.55 160.2 461.15 159.9 461.5 159.35 462 158.6 462.2 156.8 462.4 154.1 462.05 149.45 461.65 144.1 461.65 142.1
M 332 159.95
Q 333.8 160.05 334.5 159.55 335.05 159.15 335.25 158.45 335.45 157.75 335.1 157.15 334.35 155.75 331.7 155.75 326.65 155.65 322.05 157.15 322.6 152.8 322.45 147.3 322.35 144.3 321.9 137.4 321.8 135.85 321.3 135.25 320.75 134.55 319.8 134.6 318.8 134.65 318.3 135.4 317.9 136 317.9 137.65 318.1 141 318.45 147.65 318.6 153.35 317.9 157.55 317.6 159.05 317.7 159.9 317.9 161.35 318.9 161.85 319.85 162.35 322 161.5 326.95 159.65 332 159.95
M 361.15 141.15
Q 360.9 140.7 360.75 140.45 360.5 140.05 360.2 139.85 359.4 139.3 357.6 140.15 356.35 140.75 356 141.35 355.8 141.7 355.6 142.9 355.45 143.9 355 144.8 354.9 145 353.35 147.6 352.3 149.25 352.25 150.55 352.15 152.3 353.5 153.75 354.8 155.15 356.65 155.4 359.9 155.95 363.25 153.15 364.9 151.75 365.3 150.3 365.55 149.25 365.05 147.1 364.2 144 362.75 142.7 361.6 141.75 361.15 141.15
M 360.6 146.6
L 361.15 147.95
Q 361.35 148.55 361.35 148.9 361.3 149.4 360.6 150.1 359.15 151.35 357.9 151.35 357 151.35 356.25 150.7 357.65 147.75 359.4 145.2 360.1 145.35 360.6 146.6
M 384.6 139.6
Q 384.3 140.05 383 143.05 382.658203125 143.876171875 382.05 145.1 380.6189453125 144.2921875 379.65 144.2 378.9 144.15 378.2 144.55 377.55 144.95 377.35 145.6 377.1 146.85 378.25 147.7 378.8173828125 148.1728515625 380.2 148.7 379.3658203125 150.3296875 378.95 151.3 378.05 153.4 376.75 157.8 376.15 159.75 376.65 160.7 377.05 161.35 377.8 161.55 378.6 161.75 379.25 161.35 380.1 160.85 380.6 159.1 381.75 155.2 382.2 154.05 382.416015625 153.4884765625 383.9 150.4 383.925 150.4384765625 383.95 150.45 386.1 151.5 387.6 151.9 388.1033203125 152.02578125 388.55 152.05
L 388.5 152.55
Q 388.4 153.45 388.6 155.25
L 388.9 157.85
Q 389.2 160.2 390.3 160.75 390.9 161.1 391.65 160.85 392.35 160.65 392.8 160.1 393.6 159 393.35 157.4 393.3 157 392.85 155.65 392.55 154.6 392.5 153.9 392.7 152.55 392.7 151.85
L 392.5 150.1
Q 392.5 149.75 392.6 147.75 392.6 147 392.4 145.4
L 392.05 142.45
Q 391.85 141.05 391.6 140.4 391.35 139.8 390.65 138.7 390.05 137.9 389.75 137.65 388.8 136.95 387.5 137.25 385.75 137.65 384.6 139.6
M 388.4 146.05
Q 388.5373046875 147.0107421875 388.55 147.65 387.9095703125 147.5298828125 387.55 147.45 386.7337890625 147.26640625 385.7 146.85
L 385.95 146.4
Q 386.6 145.25 386.85 144.45 387.4 142.75 387.9 142.3
L 388.4 146.05
M 500.05 139
Q 499.2 138.05 497.9 138.3 496.6 138.65 496.35 139.9 496.25 140.55 496.65 141.4 496.85 141.9 497.35 142.9 497.6 143.5 497.8 144.8
L 498.15 147.05
Q 498.55 149.8 497.55 150.8 496.3 151.95 494.15 151.1 492.45 150.45 490 148.1 486.9 145.15 485.05 142.9 484 141.55 483.2 141.4 482.15 141.25 481.5 142.05 480.85 142.75 480.95 143.85 481.15 144.75 481.6 145.3 481.9 145.65 482.55 146.3 482.85 146.75 483.15 147.85 484.75 154.05 485.45 157.15 485.75 158.55 486.3 159.15 486.9 159.75 487.9 159.65 488.85 159.5 489.3 158.75 489.85 157.85 489.3 155.85
L 488.35 152.1
Q 490.75 154.35 493.35 155.1 496.45 156 499.05 154.75 501.45 153.5 502.15 151.15 502.4 150.1 502.3 148.4 502.1 144.85 501.15 141.3 500.75 139.65 500.05 139
M 540.75 146.65
L 543.95 140.85
Q 544.25 140.4 546.6 137.65
L 548.75 135.05
Q 549.6 134 549.65 133.2 549.65 132.3 548.9 131.7 548.35 131.3 547.55 131.4 546.8 131.5 546.15 131.95 545.6 132.4 544.25 134.2 542.35 136.4 541.45 137.5 539.75 139.6 538.2 142.55 537.2 144.4 535.65 148 535.25 148.85 535.05 149.5 534.75 150.4 534.65 151.9 534.45 153.8 534.6 154.75 534.85 156.4 535.9 157.25 537 158.1 539.45 158.1 542.3 158.1 548.1 157.3 551.35 156.85 552.9 156.5 554.9048828125 156.07578125 556.5 155.45 556.7333984375 156.3609375 556.65 157 556.6 157.55 556.45 158.65 556.5 159.65 557.5 160.25 558.5 160.8 559.35 160.35 560.2 159.9 560.65 158.7 561.05 157.5 560.75 155.95 560.6 154.9 559.95 153.15
L 558.05 148
Q 557.3 145.95 556.25 145.55 555.65 145.35 555 145.6 554.35 145.85 554.05 146.4 553.5 147.45 554.3 149.4
L 555.1 151.55 555.1 151.55
Q 552 152.7 545.2 153.5 540.9 154 538.7 153.85 538.5 151.6 539.5 149.15 539.95 148.1 540.75 146.65 Z"/>

<path fill="#660000" stroke="none" d="
M 711.05 320.75
Q 710.40625 320.758984375 709.85 320.65 707.2 320.2 704.95 318.25 702.9 316.45 701.55 313.8 699.95 310.65 699.8 307.9 699.65 305.7 700.6 301.7 701.65 297.45 701.65 295.5 695.3953125 302.553125 693 311.65 692.998828125 311.7255859375 693 311.8 693.15 312.95 693.6 314.5 693.9 315.4 694.5 317.2 696.65 324.65 693.55 333.75 691.45 339.9 685.65 348.65 684.8 350.05 684.65 350.4 684.1 351.4 684.05 352.3 683.95 353.15 684.4 355.25 685.530078125 359.8755859375 686.1 364.5 686.6412109375 364.6875 687 365.45 687.25 365.95 687.65 366.95 688.7 368.9 692.8 368.7 698.9 368.35 702.85 367.5 708.25 366.35 712.1 363.95 716.55 361.2 718.85 356.6 721.3 351.7 720 347.05 718.65 343.65 718 342 716.8 339 717.25 336.9 717.75 334.75 720 332.75 721.3 331.55 724.15 329.45 728 326.3 730.05 321.6 732.15 316.9 731.9 312 730.5 311.95 728.95 313.15 727.25 314.7 726.4 315.45 723.5 318.05 717.05 319.85 715.4640625 320.293359375 714.1 320.5 714.503125 320.9205078125 714.6 321.55 714.7 322.2 714.45 322.75 714.15 323.3 713.6 323.55 713 323.85 712.4 323.75 711.45 323.6 711 322.75 710.6 322.05 710.85 321.25 710.9302734375 320.99296875 711.05 320.75
M 706.15 333.55
Q 702.5 332.7 699.9 331.25 698.4 330.35 696.3 328.8 695.9 328.5 695.85 328.25 695.7 327.8 696.2 327.4 697.35 326.4 699.4 326.95 700.1 327.15 700.95 327.6 701.45 327.85 702.45 328.4 702.7 328.5 705.95 329.8 708 330.65 709.15 331.6 710.5 332.7 710.65 332.75 711.1 332.95 712.1 333.2 713.05 333.5 712.95 334.3 712.95 335.25 711.2 335.45 710.5 335.5 710.3 335.5 709.75 335.5 709.4 335.25 708.8 334.7 708.45 334.45 707.9 334 706.15 333.55
M 695.25 335.45
L 694.7 335.25
Q 694.8 334.7 695.7 334.5 698.55 333.7 703.3 336.35 706.8 338.25 708.45 339.9 708.6115234375 340.0615234375 708.7 340.2 709.08828125 340.593359375 709.4 341 707.75 342.45 706.75 342.7 706 342.85 704.25 342.65 702.15 342.25 700.25 341.75 697.25 340.9 696.1 339.45 695.9 339.2 695.05 337.65 694.45 336.6 693.75 336.15 694.441015625 335.676171875 695.25 335.45
M 692.7 344
Q 694.05 343.85 696.2 344.3 702.4 345.65 707.9 348.9 709.4 349.85 709.75 350.65 710.25 351.7 709.65 352.7 708.7 354.3 705.7 354.1 702.35 353.85 698.65 352.25 696 351.05 692.2 348.7 689.9 347.35 689.9 345.85 690.65 344.35 692.7 344
M 703.2 357.55
Q 703.7 356.95 704.4 356.85
L 704.55 356.8 704.6 356.8 704.55 356.75
Q 705.45 356.75 706.1 357.4 706.75 358.15 706.6 359 706.5 359.7 705.9 360.2 705.3 360.7 704.6 360.65 703.95 360.65 703.4 360.1 702.85 359.55 702.8 358.85 702.75 358.15 703.2 357.55
M 695.85 358.75
Q 696.5 358.1 697.3 358.2 698.5 358.3 699 359.4 699.45 360.55 698.6 361.4 697.75 362.4 696.5 361.9 696 361.7 695.65 361.2 695.3 360.7 695.3 360.15 695.3 359.3 695.85 358.75
M 617.15 340.15
Q 616.05 340.1 613.85 340.3
L 604.35 341.25
Q 603.05 341.45 602.95 342.1 603.6 342.75 605.35 342.65 606.246484375 342.6029296875 607.15 342.5 606.9033203125 343.9607421875 607.2 344.9 607.4 345.6 608.2 346.8 609.95 349.3 610.35 349.75 610.95 350.35 611.35 350.55 611.45 350.6 612.95 351.15 614.15 351.6 614.2 351.6 614.65 351.65 615.6 351.5 615.9 351.5 616.8 351.55 617.55 351.65 618 351.55 618.6 351.45 619.45 350.95 620.6 350.2 620.8 350.1 621.2 349.9 622.05 349.55 622.7 349.15 622.8 349.15 622.95 349.1 623.35 349 623.5865234375 348.8580078125 623.7 348.25 624.28203125 348.321484375 625.7 348.1 626.4 348 626.7 347.75 626.95 347.55 626.9 347.35 626.85 347.15 626.5 347.05 625.9 346.85 625.4 346.4 624.8 345.85 624.1 344.7 623.25 343.3 622.95 342.9 621.75 341.4 619.6 340.65 618.2 340.2 617.15 340.15
M 613.05 341.9
Q 615.55 341.6 616.8 341.95 618.25 342.4 619.3 343.75
L 620.25 345.15
Q 620.479296875 345.6087890625 620.65 345.95 619.6830078125 346.461328125 619.4 346.65 618.45 347.35 618.4 347.35 617.85 347.6 616.85 347.55 615.45 347.5 615.2 347.5 614.2 347.6 614.05 347.6 613.75 347.55 613.15 347.25 611.6 346.7 611.45 346.6 611.2 346.45 610.45 345.7 609.4966796875 344.5560546875 608.1 342.45 610.5720703125 342.2494140625 613.05 341.9 Z"/>

<path fill="#000000" stroke="none" d="
M 697.3 358.2
Q 696.5 358.1 695.85 358.75 695.3 359.3 695.3 360.15 695.3 360.7 695.65 361.2 696 361.7 696.5 361.9 697.75 362.4 698.6 361.4 699.45 360.55 699 359.4 698.5 358.3 697.3 358.2
M 704.4 356.85
Q 703.7 356.95 703.2 357.55 702.75 358.15 702.8 358.85 702.85 359.55 703.4 360.1 703.95 360.65 704.6 360.65 705.3 360.7 705.9 360.2 706.5 359.7 706.6 359 706.75 358.15 706.1 357.4 705.45 356.75 704.55 356.75
L 704.6 356.8 704.55 356.8 704.4 356.85
M 713.7 308.3
Q 712.6193359375 307.8861328125 711.85 307.6 710.9591796875 307.3310546875 710.5 307.25 708.45 307 707.25 307.8 707.25 308.2 707.85 308.4
L 710.7 309.35 714.5 310.65
Q 714.9515625 310.7951171875 715.35 310.9 717.541796875 311.5015625 718.8 311.25 719.2716796875 311.126953125 719.6 310.9 720.1140625 310.6423828125 720.35 310.2 720.20390625 310.1716796875 720.05 310.15 718.03359375 309.7330078125 716 309.1 714.8609375 308.73984375 713.7 308.3
M 723.4 299.1
Q 722.7888671875 298.9626953125 722.2 298.8 720.388671875 298.350390625 718.7 297.75 718.29765625 297.6337890625 717.95 297.5 716.3158203125 297.08203125 715.7 297 714.62578125 296.846484375 713.75 297.1 713.1828125 297.241015625 712.7 297.55 712.8208984375 297.816015625 713.15 298 713.5302734375 298.2451171875 714.15 298.4
L 717 299.2 717.9 299.45
Q 719.8287109375 300.110546875 721.2 300.35 722.474609375 300.620703125 723.3 300.55 724.55 300.55 724.85 299.7 724.5 299.45 723.4 299.1
M 721.65 306.55
Q 721.25 306.05 720.4 305.7 719.5751953125 305.2482421875 718.55 304.7 716.951171875 303.9248046875 714.85 302.95
L 714.85 302.95
Q 713.1 302.3 712.45 302.25 711 302.1 710.2 303.1 710.9 303.55 712.35 304.3
L 713.6 304.9 716.1 306.15
Q 716.7689453125 306.484375 717.3 306.7 718.2529296875 307.1056640625 718.85 307.2 720.5 307.55 721.65 306.55
M 727.5 285.7
Q 726.1708984375 285.2416015625 724.8 284.95 723.1791015625 284.63125 721.5 284.55 721.5 284.75 721.1 284.75 720.8740234375 284.75 720.7 284.75 720.345703125 284.8021484375 720.15 284.9 719.6 285.15 719.55 285.6 719.857421875 285.680859375 720.15 285.75 721.7896484375 286.1646484375 723.55 286.5 723.750390625 286.534375 723.95 286.55 725.4201171875 286.7771484375 726.35 286.6 727.5 286.4 727.5 285.7
M 717.7 290.45
Q 717.4 290.75 717.55 290.95 719.334375 291.4666015625 721.05 291.8 721.1875 291.8287109375 721.3 291.85 723.5 292.25 724.55 292.05 725.55 291.7 725.6 291.15 723.8330078125 290.51015625 721.95 290.2 720.7501953125 290.00859375 719.5 289.95
L 718.2 290.25 717.7 290.45 Z"/>

<path fill="#666666" stroke="none" d="
M 696.2 344.3
Q 694.05 343.85 692.7 344 690.65 344.35 689.9 345.85 689.9 347.35 692.2 348.7 696 351.05 698.65 352.25 702.35 353.85 705.7 354.1 708.7 354.3 709.65 352.7 710.25 351.7 709.75 350.65 709.4 349.85 707.9 348.9 702.4 345.65 696.2 344.3
M 694.7 335.25
L 695.25 335.45
Q 694.441015625 335.676171875 693.75 336.15 694.45 336.6 695.05 337.65 695.9 339.2 696.1 339.45 697.25 340.9 700.25 341.75 702.15 342.25 704.25 342.65 706 342.85 706.75 342.7 707.75 342.45 709.4 341 709.08828125 340.593359375 708.7 340.2 708.6115234375 340.0615234375 708.45 339.9 706.8 338.25 703.3 336.35 698.55 333.7 695.7 334.5 694.8 334.7 694.7 335.25
M 699.9 331.25
Q 702.5 332.7 706.15 333.55 707.9 334 708.45 334.45 708.8 334.7 709.4 335.25 709.75 335.5 710.3 335.5 710.5 335.5 711.2 335.45 712.95 335.25 712.95 334.3 713.05 333.5 712.1 333.2 711.1 332.95 710.65 332.75 710.5 332.7 709.15 331.6 708 330.65 705.95 329.8 702.7 328.5 702.45 328.4 701.45 327.85 700.95 327.6 700.1 327.15 699.4 326.95 697.35 326.4 696.2 327.4 695.7 327.8 695.85 328.25 695.9 328.5 696.3 328.8 698.4 330.35 699.9 331.25 Z"/>

<path fill="#5C0023" stroke="none" d="
M 713.05 319.95
Q 712.4 319.85 711.85 320.1 711.341015625 320.3375 711.05 320.75 710.9302734375 320.99296875 710.85 321.25 710.6 322.05 711 322.75 711.45 323.6 712.4 323.75 713 323.85 713.6 323.55 714.15 323.3 714.45 322.75 714.7 322.2 714.6 321.55 714.503125 320.9205078125 714.1 320.5
L 714.1 320.5
Q 713.7 320.05 713.05 319.95
M 663.7 252.65
Q 659.4 248.5 653.4 247.5 647.15 246.4 642.5 249.55 640.55 250.8 638.7 253.05 637.55 254.45 635.6 257.25 634.25 259.25 633.65 260.5 632.75 262.4 632.7 264.05 631.5 264.6 630.1 263.85 628.9 263.15 628.1 261.8 627.8 261.35 626.9 259.25 626.2 257.7 625.5 256.9 623.8 255.05 619.45 254.35 610.8 253.1 602.05 254.65 593.3 256.25 585.7 260.5 582.4 262.3 581.2 264.2 579.35 267.05 580.4 270.95 580.75 272.25 581.5 274.9 581.9 277.2 580.8 278.4 579.6 279.75 576.65 279.55 575.2 279.45 572.75 279.05 569.95 278.55 568.8 278.45 563.95 278 561.15 279.95 558.35 282 557.15 286.9 555.95 291.6 556.9 295.4 557.45 297.55 558.75 299.3 560.1 301.1 562.05 301.95 562.7 302.25 564 302.7 565.15 303.15 565.7 303.75 567.3 305.55 566.15 308.45 565.95859375 308.9287109375 565.65 309.55 563.8123046875 310.26875 561.25 312
L 556.55 315.25
Q 555.8794921875 315.6892578125 555.4 316.1 554.73203125 315.5181640625 553 315.05 549.45 313.6 547.55 313.2 544 312.55 542.25 314.6 541.3 315.65 540.85 318.75 540.45 322.9 540.75 324.95 541.35 328.45 543.6 330.3 544.25 330.8 545.95 331.65 547.55 332.4 548.3 333.05 549.65 334.15 551.3 337.6 552.0125 339.0939453125 552.7 340.1 554.71328125 341.2173828125 556 341.6 558.55 342.35 563.55 342.05 564.4984375 342.05 564.85 342.3 565.0958984375 342.2146484375 565.35 342.1 567.3490234375 341.3177734375 570.2 341.2 570.2330078125 341.2576171875 570.25 341.3 570.95 342.95 572.55 344.95 573.05 345.55 573.05 345.9 573.1 346.15 572.75 346.85 570.25 351.95 570.8 359.55 571.1 363.8 572.55 366.05 573.9 368.1 576.95 369.7 578.7 370.65 582.3 372.25 583.4 372.8 583.75 373.45 584.1 374.1 583.9 375.75 583.65 377.85 583.95 379.8 584.15 381.1 584.75 381.6 585.1 381.9 586.3 382.1 589.15 382.4 590.5 381.9 591.35 381.6 593.05 380.2 596.55 377.15 597.45 376.3 598.931640625 374.818359375 599.7 373.5 600.467578125 373.940234375 601.5 374.25 602.35 374.5 604.15 374.95 606.35 375.6 609.65 377.4 613.75 379.6 615 380.15 620.25 382.4 626.15 382.1 632.1 381.75 637.1 378.95 637.2412109375 378.865234375 638.45 378.05 638.6107421875 378.500390625 638.8 378.9 639.25 379.8 640.35 381
L 642.85 383.8
Q 644.8 385.85 646.15 386.2 647.15 386.5 647.65 385.9 647.85 385.7 647.95 385.25 648.05 384.7 648.1 384.45 648.2 384 649.3 382.45 650.05 381.4 650.4 379.9
L 650.85 377.8
Q 651.1 377.1 652 375.9 654.85 372.3 658.35 369.45 659.45 368.55 659.75 368.2 660.28515625 367.6265625 660.55 367.05 662.116796875 366.72890625 663.8 366.75 667.85 366.85 671.05 368.85 672.15 369.5 673.8 370.9 675.7 372.5 676.45 373 679.3 375.1 683.05 376.05 685.1 376.55 686.05 375.65 686.85 374.9 686.75 372.95 686.74453125 372.7037109375 686.75 372.45 685.6904296875 371.239453125 685.3 369.45 684.65 366.7 686 364.5 686.06171875 364.5103515625 686.1 364.5 685.530078125 359.8755859375 684.4 355.25 683.95 353.15 684.05 352.3 684.1 351.4 684.65 350.4 684.8 350.05 685.65 348.65 691.45 339.9 693.55 333.75 696.65 324.65 694.5 317.2 693.9 315.4 693.6 314.5 693.15 312.95 693 311.8 692.998828125 311.7255859375 693 311.65 692.692578125 312.809765625 692.45 314 690.75 313.15 691.05 309.65 691.3515625 306.18125 691.7 304 691.4998046875 303.7220703125 691.25 303.5 690.8763671875 302.79609375 690.4 302.1 687.2 297.4 682.1 296.7 683.45 293.6 683.65 290.15 683.8 286.65 682.75 283.45 681.75 280.6 679.95 280.35 679.4 280.25 678.35 280.55 677.2 280.85 676.75 280.85 675.6 280.9 674.6 280.15 673.7 279.45 673.15 278.3 672.65 277.15 672.3 273.7 671.15 259.9 663.7 252.65
M 649.15 253.15
Q 653.4 252.55 657.75 254.5 661.8 256.4 664.65 259.95 669.6 266.15 670.5 276.4 670.6 277.5 670.8 279.6 671 281.45 671.5 282.7 672.15 284.3 673.3 285.35 674.6 286.5 676.15 286.6 677.1 286.65 679.1 286.45 680.8 286.45 681.3 287.5 681.75 288.4 680.9 290.35 679.25 294.5 679.7 299.05 679.9 301.25 680.95 302.2 681.7 302.8 683.2 303.05 685.3 303.35 685.65 303.45 687.6 304.15 689.3 307.2 689.734375 307.99453125 690.1 308.65 689.88828125 311.8845703125 690.8 315.2 690.9 315.55 691.85 318.35 692.5 320.25 692.7 321.55 693.05 324.55 691.7 328.9 689.4 336.3 684.95 342.3 683.7 344 683.1 344.85 682.1 346.4 681.65 347.65 680.3 351.35 682.45 358.6 684.8 366.25 684 369.7 680.25 370.2 675.6 366.4 673.25 364.4 672 363.45 669.9 361.8 668 361.15 663.45 359.55 657.25 362.2 655.4 363 652.3 364.7 648.9 366.55 647.4 367.25 642.75 369.1 640.5 370.25 639.5 370.75 636.25 372.7 633.65 374.25 631.9 374.95 627.5 376.7 622.15 376.05 617.35 375.45 612.5 373.05 608.95 371.2 607.15 370.3 603.95 368.7 601.55 368.2 600.6380859375 367.9916015625 599.95 368.05 599.6923828125 367.6884765625 599.35 367.4
L 597.7 369.2
Q 593.8 373.3 591.55 374.95 588.9 376.95 587.25 375.8 586.9 376.15 586.3 376.15 586.85 373.5 586.95 372.15 587.25 369.7 586 368.4 585.5 367.85 584 367.1
L 578.05 364.35
Q 574.6 362.7 573.65 361.05 572.75 359.35 573 356.75 573.15 355.15 573.8 353.5 575.3 350.65 575.75 349.15 576.6 346 574.9 342.5 574.6791015625 342.034765625 574.35 341.45 575.1548828125 341.594140625 575.9 341.75 576.9 341.95 578.9 342.45 580.005078125 342.66484375 580.9 342.75 581.0501953125 342.6421875 581.2 342.55 581.85 342.15 582.55 342.25 583.0509765625 342.321484375 583.45 342.65 584.271484375 342.5181640625 585.3 342.25 585.34765625 342.5044921875 585.45 342.65 586.5654296875 342.2572265625 587.85 341.8
L 593.8 337.45
Q 594.228515625 337.1642578125 594.55 336.85 595.05390625 336.7876953125 595.65 336.3 597.25 334.95 598.5 332.7 599.35 331.1 600.35 328.4 601.7 324.65 602 321.95 602.45 318.8 601.85 315.7
L 601.85 315.65 600.1 315.05
Q 597.7994140625 314.256640625 596.35 314.1 593.9326171875 315.108203125 592.8 315.75 591.15 316.75 590.3 317.2 588.8 317.95 587.6 318.05 585.3 318.3 582.35 316.4 581.1 315.6 578.85 313.85 576.5 312.05 575.35 311.3 575.1572265625 311.1751953125 574.95 311.05 574.5201171875 311.2583984375 574 311.15 573.04921875 311.007421875 572.65 309.85 570.727734375 309.04609375 568.9 308.95 569.3548828125 305.655859375 568.4 302.6 567.3 299.15 564.65 297.3 564.45 297.15 562.2 295.85 560.7 295 560 294.1 558.95 292.7 559.1 290.8 559.2 288.95 560.3 287.55 562.45 284.8 566.45 284.55 567.65 284.45 574.2 285.2 578.9 285.7 581.4 284.15 584.15 282.4 584.7 278.75 585.25 275.25 583.65 272.1 583 270.85 583 270.75 582.65 269.95 582.8 269.35 583 268.15 584.95 267.05 592.45 262.8 601 261 609.55 259.2 618.15 260 622.6 260.5 624.35 262.2 625.2 263.05 626.05 264.65 627.4 267.35 627.45 267.4 628.3 268.85 629.5 269.65 630.95 270.6 632.3 270.2 633.6 269.85 634.45 268.3 634.9 267.55 635.7 265.4 637.4 260.7 640.85 257.4 644.6 253.85 649.15 253.15
M 649.1 373.05
Q 648.8544921875 373.6111328125 648.75 374.05
L 648.4 375.7
Q 648.25 376.4 647.65 377.45 646.8 379.4 646.55 380.1 645.8 380.6 644.65 379.55 642.9078125 378.046875 641.35 376.25 643.475 374.903515625 645.1 374.3 645.75 374.05 647.8 373.5 648.521484375 373.2876953125 649.1 373.05
M 550.05 319.9
L 552.7 320.85
Q 553.958203125 320.6783203125 554.35 320.6 556.1279296875 320.2580078125 557.55 319.7
L 557.8 319.5
Q 557.95 319.35 559.25 318.6
L 561.1 317.65
Q 563.45 316.4 564.85 315.95 565.878515625 315.6369140625 566.8 315.55 566.8875 315.4158203125 566.95 315.25 568.128515625 314.9189453125 569.15 314.9 571.6 314.85 574.35 316.55 575.3 317.15 579 319.95 581 321.45 582.6 322.45 585.2 324.1 587 324.2 588.35 324.25 589.95 323.55 590.55 323.3 592.75 322.1 596 320.3 599.75 319.15 599.3 322.25 598.15 325.25 596.75 328.8 594.9 330.3
L 594.05 331.05 587.55 335.75
Q 586.9533203125 335.6818359375 585.95 336.1 582.8 337.2 576.25 336 569.5 334.8 566.4 335.65 565.6 335.85 563.45 336.75 561.6 337.55 560.45 337.7 558.4 338 556.4 337.1 554.45 336.25 553.3 334.5 552.85 333.85 552.3 332.65 551.65 331.15 551.45 330.75 550 328.05 547.45 326.5 545.3 325.4 544.35 324.65 542.55 323.25 542.85 321.5 543.05 320.55 543.95 319.85 544.85 319.15 545.95 319.05 547.25 318.95 550.05 319.9
M 639.25 333.35
Q 639.3 333.05 639.25 332.45 639.2 331.8 639.2 331.55 639.35 330.5 639.35 330.4 639.25 329.75 638.45 329.05
L 637.05 328.1
Q 636.55 327.6 636.25 327.4 635.8 326.95 635.4 326.85 634.6 326.55 633.7 327.1 632.35 327.8 631.7 329.3 631.05 330.75 631.25 332.35 631.5 334.5 632.85 335.6 633.55 336.2 634.45 336.45 635.45 336.7 636.3 336.4 637.1 336.1 638 335.2 639.1 334.2 639.25 333.35
M 635.6 330.65
L 635.7 331
Q 635.8 331.2 636.1 331.45 636.25 331.6 636.25 331.8 636.4 332.85 635.5 333.25
L 635.2 333.35
Q 634.7 333.4 634.4 332.7 634.15 332.15 634.15 331.2
L 634.2 330.75 634.85 330
Q 634.95 330 635.25 330.2 635.55 330.4 635.6 330.65 Z"/>

<path fill="#31230F" stroke="none" d="
M 717.95 314.1
Q 718.09140625 313.811328125 718.25 313.5 718.8111328125 312.394140625 719.6 310.9 719.2716796875 311.126953125 718.8 311.25 717.541796875 311.5015625 715.35 310.9 714.990625 312.4240234375 715.3 313.7 715.3685546875 314.0201171875 715.5 314.3 715.6787109375 314.605859375 715.95 314.85 716.5 315.35 717.05 315.15 717.5 315 717.95 314.1
M 714.85 302.95
L 714.85 302.95
Q 715.631640625 301.674609375 717 299.2
L 714.15 298.4
Q 713.5302734375 298.2451171875 713.15 298 712.0283203125 299.8658203125 710.5 302.25 707.45 307 706.5 308.5 705.446875 310.1646484375 704.85 311.5 704.5763671875 312.1390625 704.4 312.7 703.6 315.15 704.35 317.05 704.7 317.7 705.05 317.65 705.4 317.65 705.7 317.15
L 707.6 314.2 710.7 309.35 707.85 308.4
Q 707.25 308.2 707.25 307.8 708.45 307 710.5 307.25 710.9591796875 307.3310546875 711.85 307.6
L 713.6 304.9 712.35 304.3
Q 710.9 303.55 710.2 303.1 711 302.1 712.45 302.25 713.1 302.3 714.85 302.95
M 717.55 290.95
Q 717.4 290.75 717.7 290.45
L 718.2 290.25 719.5 289.95
Q 720.7501953125 290.00859375 721.95 290.2
L 723.95 286.55
Q 723.750390625 286.534375 723.55 286.5 721.7896484375 286.1646484375 720.15 285.75 716.443359375 292.665625 714.45 295.9 714.1205078125 296.4568359375 713.75 297.1 714.62578125 296.846484375 715.7 297 716.3158203125 297.08203125 717.95 297.5 718.259375 296.9666015625 718.6 296.35
L 721.05 291.8
Q 719.334375 291.4666015625 717.55 290.95
M 742.3 257.55
Q 741.55 255.95 739.7 254.65 738.5 253.75 736.2 252.65 732.85 251.05 731 251.8 729.4 252.45 727.85 255.6
L 727.5 256.3
Q 728.1232421875 256.7869140625 728.3 257.45 728.5 258.25 728.05 259 727.6 259.8 726.8 259.95 726.4837890625 259.989453125 725.85 259.9
L 725.6 260.45
Q 724.53984375 262.6625 723.95 264.45 725.19296875 264.6341796875 725.75 265.4 726.15 266 726.05 266.8 725.95 267.6 725.4 268.05 724.607421875 268.710546875 723.25 268.55 723.37421875 269.9158203125 723.95 273 724.5 276.05 724.05 277.9 723.8 278.9 722.8 280.8 721.6875 282.9080078125 720.7 284.75 720.8740234375 284.75 721.1 284.75 721.5 284.75 721.5 284.55 723.1791015625 284.63125 724.8 284.95 726.178125 282.2412109375 726.5 281 727.2 278.25 726.35 273.75 725.8 270.55 726 269.15 726.15 267.5 727.55 264.5
L 729.6 260.1
Q 730.4 258.4 731.3 257.9 732.45 257.35 734.25 257.9 737.45 258.9 740 261 738.25 268.95 734.15 277.7 731 284.35 725.55 293.35
L 722.2 298.8
Q 722.7888671875 298.9626953125 723.4 299.1 724.5 299.45 724.85 299.7 724.55 300.55 723.3 300.55 722.474609375 300.620703125 721.2 300.35
L 718.55 304.7
Q 719.5751953125 305.2482421875 720.4 305.7 721.25 306.05 721.65 306.55 720.5 307.55 718.85 307.2 718.2529296875 307.1056640625 717.3 306.7 716.5072265625 308.0767578125 716 309.1 718.03359375 309.7330078125 720.05 310.15 722.8796875 305.0759765625 728.3 296.2 735.1 285.1 737.85 277.9 738.15 277.1 739.85 272.2
L 741.7 266.65
Q 742.65 263.75 742.9 262.05 743.2 259.45 742.3 257.55 Z"/>

<path fill="#4C351D" stroke="none" d="
M 715.35 310.9
Q 714.9515625 310.7951171875 714.5 310.65
L 710.7 309.35 707.6 314.2
Q 708.7708984375 314.75 710.55 314.75 713.0857421875 314.814453125 715.5 314.3 715.3685546875 314.0201171875 715.3 313.7 714.990625 312.4240234375 715.35 310.9
M 711.85 307.6
Q 712.6193359375 307.8861328125 713.7 308.3 714.8609375 308.73984375 716 309.1 716.5072265625 308.0767578125 717.3 306.7 716.7689453125 306.484375 716.1 306.15
L 713.6 304.9 711.85 307.6
M 717 299.2
Q 715.631640625 301.674609375 714.85 302.95 716.951171875 303.9248046875 718.55 304.7
L 721.2 300.35
Q 719.8287109375 300.110546875 717.9 299.45
L 717 299.2
M 734.25 257.9
Q 732.45 257.35 731.3 257.9 730.4 258.4 729.6 260.1
L 727.55 264.5
Q 726.15 267.5 726 269.15 725.8 270.55 726.35 273.75 727.2 278.25 726.5 281 726.178125 282.2412109375 724.8 284.95 726.1708984375 285.2416015625 727.5 285.7 727.5 286.4 726.35 286.6 725.4201171875 286.7771484375 723.95 286.55
L 721.95 290.2
Q 723.8330078125 290.51015625 725.6 291.15 725.55 291.7 724.55 292.05 723.5 292.25 721.3 291.85 721.1875 291.8287109375 721.05 291.8
L 718.6 296.35
Q 718.259375 296.9666015625 717.95 297.5 718.29765625 297.6337890625 718.7 297.75 720.388671875 298.350390625 722.2 298.8
L 725.55 293.35
Q 731 284.35 734.15 277.7 738.25 268.95 740 261 737.45 258.9 734.25 257.9 Z"/>

<path fill="#330000" stroke="none" d="
M 705.2 291.95
Q 705.05 290.75 704.55 289.9 703.95 288.85 703 288.7 701.9 288.5 700.1 290 695.8 293.9 694.35 296.25 692.7 298.9 691.95 302.7 691.826953125 303.2779296875 691.7 304 691.3515625 306.18125 691.05 309.65 690.75 313.15 692.45 314 692.692578125 312.809765625 693 311.65 695.3953125 302.553125 701.65 295.5 701.65 297.45 700.6 301.7 699.65 305.7 699.8 307.9 699.95 310.65 701.55 313.8 702.9 316.45 704.95 318.25 707.2 320.2 709.85 320.65 710.40625 320.758984375 711.05 320.75 711.341015625 320.3375 711.85 320.1 712.4 319.85 713.05 319.95 713.7 320.05 714.1 320.5
L 714.1 320.5
Q 715.4640625 320.293359375 717.05 319.85 723.5 318.05 726.4 315.45 727.25 314.7 728.95 313.15 730.5 311.95 731.9 312 732.15 316.9 730.05 321.6 728 326.3 724.15 329.45 721.3 331.55 720 332.75 717.75 334.75 717.25 336.9 716.8 339 718 342 718.65 343.65 720 347.05 721.3 351.7 718.85 356.6 716.55 361.2 712.1 363.95 708.25 366.35 702.85 367.5 698.9 368.35 692.8 368.7 688.7 368.9 687.65 366.95 687.25 365.95 687 365.45 686.6412109375 364.6875 686.1 364.5 686.06171875 364.5103515625 686 364.5 684.65 366.7 685.3 369.45 685.6904296875 371.239453125 686.75 372.45 687.2990234375 373.1109375 688.05 373.6 689.95 374.85 692.75 374.95 694.6 375 697.75 374.45 704.4 373.35 707.95 372.15 713.4 370.3 716.7 367.1 721.5 362.45 722.4 355.1 723.25 348.85 721 341.75 720.5 340.15 720.7 339.4 720.95 338.4 722.8 337.1 729.5 332.4 732.5 324.35 735.55 316.3 733.6 308.4 733.2 306.55 732.2 306.1 731.1 305.55 729.2 306.7 728.1 307.4 725.5 309.3 723.15 311.05 721.75 311.85 720.034765625 312.837109375 718.25 313.5 718.09140625 313.811328125 717.95 314.1 717.5 315 717.05 315.15 716.5 315.35 715.95 314.85 715.6787109375 314.605859375 715.5 314.3 713.0857421875 314.814453125 710.55 314.75 708.7708984375 314.75 707.6 314.2
L 705.7 317.15
Q 705.4 317.65 705.05 317.65 704.7 317.7 704.35 317.05 703.6 315.15 704.4 312.7 704.5763671875 312.1390625 704.85 311.5
L 703.8 310.45
Q 703.2 309.8 702.9 309.25 701.95 307.6 702.65 304.5 703.9 300.35 704.45 298.25 705.5 294.55 705.2 291.95 Z"/>

<path fill="#996633" stroke="none" d="
M 717.65 262.35
Q 717.4 262.8 717.3 264.1
L 717.2 267.1
Q 717.1 268.15 717.35 268.75 717.75 269.9 718.95 270.05 720.15 270.2 720.9 269.3
L 721.5 268.55
Q 721.9 268.3 722.9 268.5 723.091015625 268.5357421875 723.25 268.55 724.607421875 268.710546875 725.4 268.05 725.95 267.6 726.05 266.8 726.15 266 725.75 265.4 725.19296875 264.6341796875 723.95 264.45 723.418359375 264.36953125 722.75 264.4 722.2 264.4 722 264.25 721.85 264.15 721.75 263.55 721.45 262.35 720.8 261.8 720.1 261.2 719.1 261.4 718.1 261.55 717.65 262.35
M 726.2 252.45
Q 725.95 251.65 725.2 251.15 724.4 250.6 723.65 250.9 722.95 251.15 722.35 252.2
L 721.75 254
Q 721.6 254.4 720.6 256.4 720 257.8 720.25 258.95 720.4 259.6 720.95 260.05 721.5 260.55 722.15 260.5 722.5 260.5 723.2 260.15 723.85 259.8 724.2 259.75 724.65 259.65 725.5 259.85 725.6884765625 259.8814453125 725.85 259.9 726.4837890625 259.989453125 726.8 259.95 727.6 259.8 728.05 259 728.5 258.25 728.3 257.45 728.1232421875 256.7869140625 727.5 256.3 727.4369140625 256.2580078125 727.35 256.2 726.6 255.7 725.75 255.75 726.6 253.75 726.2 252.45 Z"/>

<path fill="#CC3300" stroke="none" d="
M 552.7 320.85
L 550.05 319.9
Q 547.25 318.95 545.95 319.05 544.85 319.15 543.95 319.85 543.05 320.55 542.85 321.5 542.55 323.25 544.35 324.65 545.3 325.4 547.45 326.5 550 328.05 551.45 330.75 551.65 331.15 552.3 332.65 552.85 333.85 553.3 334.5 554.45 336.25 556.4 337.1 558.4 338 560.45 337.7 561.6 337.55 563.45 336.75 565.6 335.85 566.4 335.65 569.5 334.8 576.25 336 582.8 337.2 585.95 336.1 586.9533203125 335.6818359375 587.55 335.75
L 594.05 331.05 594.9 330.3
Q 596.75 328.8 598.15 325.25 599.3 322.25 599.75 319.15 596 320.3 592.75 322.1 590.55 323.3 589.95 323.55 588.35 324.25 587 324.2 585.2 324.1 582.6 322.45 581 321.45 579 319.95 575.3 317.15 574.35 316.55 571.6 314.85 569.15 314.9 568.128515625 314.9189453125 566.95 315.25 566.8875 315.4158203125 566.8 315.55 565.878515625 315.6369140625 564.85 315.95 563.45 316.4 561.1 317.65
L 559.25 318.6
Q 557.95 319.35 557.8 319.5
L 557.55 319.7
Q 556.1279296875 320.2580078125 554.35 320.6 553.958203125 320.6783203125 552.7 320.85
M 557.75 320.1
Q 559.65 318.85 560.45 318.5 561.65 318.05 563.35 317.8
L 566.9 317.2
Q 568.55 316.9 569.25 317.35 569.55 317.5 570 318 570.1 318.05 571.75 318.9 572.2 319.1 573.9 320.2 575.65 321.5 576.15 322.1 576.3 322.25 577.05 323.4 577.85 324.9 577.85 325.85 577.9 327.4 576.25 329.05 575.45 329.95 574.5 330.3 573.3 330.45 572.65 330.55
L 570.95 331
Q 568.6 331.65 564.85 331.7 559.45 331.75 558.6 331.8 556.1 331.9 555.5 331.8 554.3 331.5 553.45 330.85 551.75 329.6 551.4 327.9 551.1 326.65 551.7 325.3 552.2 324.05 553.25 323.1 554.05 322.3 555.4 321.5 556.2 321 557.75 320.1 Z"/>

<path fill="#FF6600" stroke="none" d="
M 560.45 318.5
Q 559.65 318.85 557.75 320.1 556.2 321 555.4 321.5 554.05 322.3 553.25 323.1 552.2 324.05 551.7 325.3 551.1 326.65 551.4 327.9 551.75 329.6 553.45 330.85 554.3 331.5 555.5 331.8 556.1 331.9 558.6 331.8 559.45 331.75 564.85 331.7 568.6 331.65 570.95 331
L 572.65 330.55
Q 573.3 330.45 574.5 330.3 575.45 329.95 576.25 329.05 577.9 327.4 577.85 325.85 577.85 324.9 577.05 323.4 576.3 322.25 576.15 322.1 575.65 321.5 573.9 320.2 572.2 319.1 571.75 318.9 570.1 318.05 570 318 569.55 317.5 569.25 317.35 568.55 316.9 566.9 317.2
L 563.35 317.8
Q 561.65 318.05 560.45 318.5
M 660.1 282.15
Q 658.15 279.1 654.15 277.7 650.7 276.5 646.4 276.7 644.75 276.75 638.7 277.5 634 278.1 631.05 277.85 628.95 277.65 625.8 276.9 621.15 275.75 620.65 275.65 618.1 275.15 613.1 274.75 608.8 274.35 606.4 274.85 603.4 275.55 600.25 277.95 598.55 279.25 594.95 282.75 590.65 286.9 586.4 290.35 583.4 292.8 582.6 293.55 580.55 295.45 579.45 297.3 577.35 300.7 576.55 307.6 576.35 309.4 576 310 575.5466796875 310.793359375 574.95 311.05 575.1572265625 311.1751953125 575.35 311.3 576.5 312.05 578.85 313.85 581.1 315.6 582.35 316.4 585.3 318.3 587.6 318.05 588.8 317.95 590.3 317.2 591.15 316.75 592.8 315.75 593.9326171875 315.108203125 596.35 314.1 597.7994140625 314.256640625 600.1 315.05
L 601.85 315.65 601.85 315.7
Q 602.45 318.8 602 321.95 601.7 324.65 600.35 328.4 599.35 331.1 598.5 332.7 597.25 334.95 595.65 336.3 595.05390625 336.7876953125 594.55 336.85 594.228515625 337.1642578125 593.8 337.45
L 587.85 341.8
Q 586.5654296875 342.2572265625 585.45 342.65 585.34765625 342.5044921875 585.3 342.25 584.271484375 342.5181640625 583.45 342.65 583.6078125 342.7794921875 583.75 342.95 584.25 343.55 584.25 344.25 584.25 344.3 584.1 345.5
L 584.05 346.35
Q 584.05 346.8 583.9 347.65
L 583 353.2
Q 583.45 354.65 584.6 355.65 585.24765625 356.1125 585.5 356.45 585.8537109375 356.522265625 586.25 356.65
L 589.35 357.6
Q 589.661328125 357.6837890625 589.9 357.75 590.3384765625 357.7923828125 590.8 357.85 596.55 358.5 611.45 360.8 616.05 361.5 617.95 361.7 621.6 362.1 624.45 362.05 633.75 361.9 643.65 357.25 651.75 353.45 660.65 346.4 664.85 343.05 667.2 340.35 670.35 336.6 671.35 332.75 671.95 330.5 672.05 325.9 672.15 320.15 671.7 317.3 671.2 313.85 669.25 308.6 668.05 305.15 665.35 298.35 663.55 294.05 662.9 291.55 662.2 288.3 661.85 286.7 661.15 283.85 660.1 282.15
M 658.25 291.45
Q 658.65 293.85 658.45 295.05 657.9 297.45 654.25 300.2 651.95 302 650.7 302.75 647.55 304.55 644.1 304.9 640.5 305 638.8 305.5 636.85 306.3 635.9 306.65 634.2 307.3 632.95 307 631.2 306.6 629.8 304.45 628.5 302 627.65 300.9 627.15 300.25 626.35 299.4 625.4 298.45 624.9 297.95 623.05 295.9 622 293.3 621.5 292 621.6 291.2 621.65 290.25 622.5 289.05 625 285.65 631.55 283.25 634.55 282.15 640.75 280.35 642.95 279.75 644.1 279.55
L 646.1 279.3
Q 649.9 278.9 651.75 279.05 653.3 279.25 654.25 279.8 655.25 280.45 656 282 657 284.05 657.7 288.25
L 658.25 291.45
M 656.6 321.7
L 656.5 320.85 656.25 319.9
Q 656.05 318.95 656.5 317.7 656.95 316.45 658.35 314.5 659.9 312.25 660.35 311.35 661 310.05 661.35 309.7 662.2 309 663.25 309.25 664.3 309.5 665.4 311.15 666.25 312.45 666.35 312.8 666.6 313.4 666.9 314.65
L 667.35 315.5
Q 668.4 317.4 668.6 321.5 668.6 322.55 668.55 322.75
L 668.3 323.85
Q 668.25 324.15 668.35 324.9 668.45 325.55 668.35 325.95 668.1 327 666.6 327.5 665.65 327.85 663.05 328.05 661.5 328.15 660.75 327.9 659.25 327.45 658.25 325.9 657.85 325.25 656.9 322.95 656.6 322.15 656.6 321.7
M 613.85 340.3
Q 616.05 340.1 617.15 340.15 618.2 340.2 619.6 340.65 621.75 341.4 622.95 342.9 623.25 343.3 624.1 344.7 624.8 345.85 625.4 346.4 625.9 346.85 626.5 347.05 626.85 347.15 626.9 347.35 626.95 347.55 626.7 347.75 626.4 348 625.7 348.1 624.28203125 348.321484375 623.7 348.25 623.5865234375 348.8580078125 623.35 349 622.95 349.1 622.8 349.15 622.7 349.15 622.05 349.55 621.2 349.9 620.8 350.1 620.6 350.2 619.45 350.95 618.6 351.45 618 351.55 617.55 351.65 616.8 351.55 615.9 351.5 615.6 351.5 614.65 351.65 614.2 351.6 614.15 351.6 612.95 351.15 611.45 350.6 611.35 350.55 610.95 350.35 610.35 349.75 609.95 349.3 608.2 346.8 607.4 345.6 607.2 344.9 606.9033203125 343.9607421875 607.15 342.5 606.246484375 342.6029296875 605.35 342.65 603.6 342.75 602.95 342.1 603.05 341.45 604.35 341.25
L 613.85 340.3
M 639.25 332.45
Q 639.3 333.05 639.25 333.35 639.1 334.2 638 335.2 637.1 336.1 636.3 336.4 635.45 336.7 634.45 336.45 633.55 336.2 632.85 335.6 631.5 334.5 631.25 332.35 631.05 330.75 631.7 329.3 632.35 327.8 633.7 327.1 634.6 326.55 635.4 326.85 635.8 326.95 636.25 327.4 636.55 327.6 637.05 328.1
L 638.45 329.05
Q 639.25 329.75 639.35 330.4 639.35 330.5 639.2 331.55 639.2 331.8 639.25 332.45 Z"/>

<path fill="#CC3333" stroke="none" d="
M 648.75 374.05
Q 648.8544921875 373.6111328125 649.1 373.05 648.521484375 373.2876953125 647.8 373.5 645.75 374.05 645.1 374.3 643.475 374.903515625 641.35 376.25 642.9078125 378.046875 644.65 379.55 645.8 380.6 646.55 380.1 646.8 379.4 647.65 377.45 648.25 376.4 648.4 375.7
L 648.75 374.05 Z"/>

<path fill="#663300" stroke="none" d="
M 635.7 331
L 635.6 330.65
Q 635.55 330.4 635.25 330.2 634.95 330 634.85 330
L 634.2 330.75 634.15 331.2
Q 634.15 332.15 634.4 332.7 634.7 333.4 635.2 333.35
L 635.5 333.25
Q 636.4 332.85 636.25 331.8 636.25 331.6 636.1 331.45 635.8 331.2 635.7 331 Z"/>

<path fill="#FF3366" stroke="none" d="
M 616.8 341.95
Q 615.55 341.6 613.05 341.9 610.5720703125 342.2494140625 608.1 342.45 609.4966796875 344.5560546875 610.45 345.7 611.2 346.45 611.45 346.6 611.6 346.7 613.15 347.25 613.75 347.55 614.05 347.6 614.2 347.6 615.2 347.5 615.45 347.5 616.85 347.55 617.85 347.6 618.4 347.35 618.45 347.35 619.4 346.65 619.6830078125 346.461328125 620.65 345.95 620.479296875 345.6087890625 620.25 345.15
L 619.3 343.75
Q 618.25 342.4 616.8 341.95 Z"/>

<path fill="#FFCC99" stroke="none" d="
M 656.5 320.85
L 656.6 321.7
Q 656.6 322.15 656.9 322.95 657.85 325.25 658.25 325.9 659.25 327.45 660.75 327.9 661.5 328.15 663.05 328.05 665.65 327.85 666.6 327.5 668.1 327 668.35 325.95 668.45 325.55 668.35 324.9 668.25 324.15 668.3 323.85
L 668.55 322.75
Q 668.6 322.55 668.6 321.5 668.4 317.4 667.35 315.5
L 666.9 314.65
Q 666.6 313.4 666.35 312.8 666.25 312.45 665.4 311.15 664.3 309.5 663.25 309.25 662.2 309 661.35 309.7 661 310.05 660.35 311.35 659.9 312.25 658.35 314.5 656.95 316.45 656.5 317.7 656.05 318.95 656.25 319.9
L 656.5 320.85
M 658.45 295.05
Q 658.65 293.85 658.25 291.45
L 657.7 288.25
Q 657 284.05 656 282 655.25 280.45 654.25 279.8 653.3 279.25 651.75 279.05 649.9 278.9 646.1 279.3
L 644.1 279.55
Q 642.95 279.75 640.75 280.35 634.55 282.15 631.55 283.25 625 285.65 622.5 289.05 621.65 290.25 621.6 291.2 621.5 292 622 293.3 623.05 295.9 624.9 297.95 625.4 298.45 626.35 299.4 627.15 300.25 627.65 300.9 628.5 302 629.8 304.45 631.2 306.6 632.95 307 634.2 307.3 635.9 306.65 636.85 306.3 638.8 305.5 640.5 305 644.1 304.9 647.55 304.55 650.7 302.75 651.95 302 654.25 300.2 657.9 297.45 658.45 295.05 Z"/>

<path fill="#FF9900" stroke="none" d="
M 657.75 254.5
Q 653.4 252.55 649.15 253.15 644.6 253.85 640.85 257.4 637.4 260.7 635.7 265.4 634.9 267.55 634.45 268.3 633.6 269.85 632.3 270.2 630.95 270.6 629.5 269.65 628.3 268.85 627.45 267.4 627.4 267.35 626.05 264.65 625.2 263.05 624.35 262.2 622.6 260.5 618.15 260 609.55 259.2 601 261 592.45 262.8 584.95 267.05 583 268.15 582.8 269.35 582.65 269.95 583 270.75 583 270.85 583.65 272.1 585.25 275.25 584.7 278.75 584.15 282.4 581.4 284.15 578.9 285.7 574.2 285.2 567.65 284.45 566.45 284.55 562.45 284.8 560.3 287.55 559.2 288.95 559.1 290.8 558.95 292.7 560 294.1 560.7 295 562.2 295.85 564.45 297.15 564.65 297.3 567.3 299.15 568.4 302.6 569.3548828125 305.655859375 568.9 308.95 570.727734375 309.04609375 572.65 309.85 573.04921875 311.007421875 574 311.15 574.5201171875 311.2583984375 574.95 311.05 575.5466796875 310.793359375 576 310 576.35 309.4 576.55 307.6 577.35 300.7 579.45 297.3 580.55 295.45 582.6 293.55 583.4 292.8 586.4 290.35 590.65 286.9 594.95 282.75 598.55 279.25 600.25 277.95 603.4 275.55 606.4 274.85 608.8 274.35 613.1 274.75 618.1 275.15 620.65 275.65 621.15 275.75 625.8 276.9 628.95 277.65 631.05 277.85 634 278.1 638.7 277.5 644.75 276.75 646.4 276.7 650.7 276.5 654.15 277.7 658.15 279.1 660.1 282.15 661.15 283.85 661.85 286.7 662.2 288.3 662.9 291.55 663.55 294.05 665.35 298.35 668.05 305.15 669.25 308.6 671.2 313.85 671.7 317.3 672.15 320.15 672.05 325.9 671.95 330.5 671.35 332.75 670.35 336.6 667.2 340.35 664.85 343.05 660.65 346.4 651.75 353.45 643.65 357.25 633.75 361.9 624.45 362.05 621.6 362.1 617.95 361.7 616.05 361.5 611.45 360.8 596.55 358.5 590.8 357.85 590.3384765625 357.7923828125 589.9 357.75 589.661328125 357.6837890625 589.35 357.6
L 586.25 356.65
Q 585.8537109375 356.522265625 585.5 356.45 585.24765625 356.1125 584.6 355.65 583.45 354.65 583 353.2
L 583.9 347.65
Q 584.05 346.8 584.05 346.35
L 584.1 345.5
Q 584.25 344.3 584.25 344.25 584.25 343.55 583.75 342.95 583.6078125 342.7794921875 583.45 342.65 583.0509765625 342.321484375 582.55 342.25 581.85 342.15 581.2 342.55 581.0501953125 342.6421875 580.9 342.75 580.005078125 342.66484375 578.9 342.45 576.9 341.95 575.9 341.75 575.1548828125 341.594140625 574.35 341.45 574.6791015625 342.034765625 574.9 342.5 576.6 346 575.75 349.15 575.3 350.65 573.8 353.5 573.15 355.15 573 356.75 572.75 359.35 573.65 361.05 574.6 362.7 578.05 364.35
L 584 367.1
Q 585.5 367.85 586 368.4 587.25 369.7 586.95 372.15 586.85 373.5 586.3 376.15 586.9 376.15 587.25 375.8 588.9 376.95 591.55 374.95 593.8 373.3 597.7 369.2
L 599.35 367.4
Q 599.6923828125 367.6884765625 599.95 368.05 600.6380859375 367.9916015625 601.55 368.2 603.95 368.7 607.15 370.3 608.95 371.2 612.5 373.05 617.35 375.45 622.15 376.05 627.5 376.7 631.9 374.95 633.65 374.25 636.25 372.7 639.5 370.75 640.5 370.25 642.75 369.1 647.4 367.25 648.9 366.55 652.3 364.7 655.4 363 657.25 362.2 663.45 359.55 668 361.15 669.9 361.8 672 363.45 673.25 364.4 675.6 366.4 680.25 370.2 684 369.7 684.8 366.25 682.45 358.6 680.3 351.35 681.65 347.65 682.1 346.4 683.1 344.85 683.7 344 684.95 342.3 689.4 336.3 691.7 328.9 693.05 324.55 692.7 321.55 692.5 320.25 691.85 318.35 690.9 315.55 690.8 315.2 689.88828125 311.8845703125 690.1 308.65 689.734375 307.99453125 689.3 307.2 687.6 304.15 685.65 303.45 685.3 303.35 683.2 303.05 681.7 302.8 680.95 302.2 679.9 301.25 679.7 299.05 679.25 294.5 680.9 290.35 681.75 288.4 681.3 287.5 680.8 286.45 679.1 286.45 677.1 286.65 676.15 286.6 674.6 286.5 673.3 285.35 672.15 284.3 671.5 282.7 671 281.45 670.8 279.6 670.6 277.5 670.5 276.4 669.6 266.15 664.65 259.95 661.8 256.4 657.75 254.5
M 601.9 265.85
L 606.45 265.95
Q 607.8 265.95 608.4 266.15 609.55 266.55 609.75 267.45 609.8 267.6 609.8 268.45 609.7 269.75 609.45 270.35 609.35 270.6 608.75 271.4 607.6 272.6 606.45 273.2 605.55 273.7 604.25 274.15
L 598.25 276.3
Q 596.45 276.8 595.5 276.85 593.4 276.85 590.55 275.05 588.95 273.9 588.2 272.95 587.2 271.4 587.55 269.95 587.75 269.1 588.45 268.4 589.05 267.7 589.9 267.4 590.7 267.05 591.8 266.9
L 596.25 266.15
Q 597.95 265.85 598.8 265.8 599.5 265.75 601.9 265.85
M 574.25 286.3
Q 575.35 286.25 576.65 286.75 578.45 287.6 579.15 289.1 579.55 289.9 579.5 290.8 579.45 291.75 578.95 292.4 578.4 293.15 576.95 293.8 575.25 294.6 573.85 294.55 572.4 294.5 571.05 293.5 569.85 292.6 569.15 291.15 568.6 290.25 568.8 289.45 569.05 288.7 570.15 288.1
L 572.15 287
Q 573.55 286.35 574.25 286.3
M 578.05 349.45
Q 578.9 349.1 579.75 349.7 580.6 350.25 580.85 351.2 580.95 351.6 581.05 352.95 581.15 354.05 581.45 354.6 581.75 355.1 582.35 355.55 582.7 355.85 583.45 356.3 584.9 357.2 585 358.3
L 584.95 359.35
Q 584.95 359.8 585.2 360.65 585.3 361.9 584.25 362.65 583.4 363.3 582.05 363.4 579.45 363.6 576.9 361.6 575.25 360.35 574.9 358.9 574.75 357.95 575.25 356.15
L 576.5 351.75
Q 577.15 349.8 578.05 349.45 Z"/>

<path fill="#FFCC66" stroke="none" d="
M 579.75 349.7
Q 578.9 349.1 578.05 349.45 577.15 349.8 576.5 351.75
L 575.25 356.15
Q 574.75 357.95 574.9 358.9 575.25 360.35 576.9 361.6 579.45 363.6 582.05 363.4 583.4 363.3 584.25 362.65 585.3 361.9 585.2 360.65 584.95 359.8 584.95 359.35
L 585 358.3
Q 584.9 357.2 583.45 356.3 582.7 355.85 582.35 355.55 581.75 355.1 581.45 354.6 581.15 354.05 581.05 352.95 580.95 351.6 580.85 351.2 580.6 350.25 579.75 349.7
M 576.65 286.75
Q 575.35 286.25 574.25 286.3 573.55 286.35 572.15 287
L 570.15 288.1
Q 569.05 288.7 568.8 289.45 568.6 290.25 569.15 291.15 569.85 292.6 571.05 293.5 572.4 294.5 573.85 294.55 575.25 294.6 576.95 293.8 578.4 293.15 578.95 292.4 579.45 291.75 579.5 290.8 579.55 289.9 579.15 289.1 578.45 287.6 576.65 286.75
M 606.45 265.95
L 601.9 265.85
Q 599.5 265.75 598.8 265.8 597.95 265.85 596.25 266.15
L 591.8 266.9
Q 590.7 267.05 589.9 267.4 589.05 267.7 588.45 268.4 587.75 269.1 587.55 269.95 587.2 271.4 588.2 272.95 588.95 273.9 590.55 275.05 593.4 276.85 595.5 276.85 596.45 276.8 598.25 276.3
L 604.25 274.15
Q 605.55 273.7 606.45 273.2 607.6 272.6 608.75 271.4 609.35 270.6 609.45 270.35 609.7 269.75 609.8 268.45 609.8 267.6 609.75 267.45 609.55 266.55 608.4 266.15 607.8 265.95 606.45 265.95 Z"/>
</g>
</defs>

<g transform="matrix( 1, 0, 0, 1, 0,0) ">
<use xlink:href="#Layer1_0_FILL"/>
</g>

<g transform="matrix( 1, 0, 0, 1, 0,0) ">
<use xlink:href="#Layer0_0_FILL"/>
</g>
</svg>
