
<svg xmlns="http://www.w3.org/2000/svg" version="1.1" xmlns:xlink="http://www.w3.org/1999/xlink" preserveAspectRatio="none" x="0px" y="0px" width="800px" height="480px" viewBox="0 0 800 480">
<defs>
<g id="Layer1_0_FILL">
<path fill="#74775D" stroke="none" d="
M 160.3 382.25
Q 157.4 381.2 153.25 381.2 149.1 381.2 146.15 382.25 143.25 383.3 143.25 384.75 143.25 386.2 146.15 387.25 149.1 388.3 153.25 388.3 157.4 388.3 160.3 387.25 163.25 386.2 163.25 384.75 163.25 383.3 160.3 382.25
M 362.15 384.75
Q 355.1 385.85 355.1 387.4 355.1 388.95 362.15 390.05 369.2 391.15 379.2 391.15 389.2 391.15 396.25 390.05 403.3 388.95 403.3 387.4 403.3 385.85 396.25 384.75 389.2 383.65 379.2 383.65 369.2 383.65 362.15 384.75
M 659.95 381.5
Q 659.95 379.1 652.55 377.4 645.2 375.75 634.8 375.75 624.4 375.75 617 377.4 609.65 379.1 609.65 381.5 609.65 383.9 617 385.55 624.4 387.25 634.8 387.25 645.2 387.25 652.55 385.55 659.95 383.9 659.95 381.5 Z"/>
</g>

<g id="Layer0_0_FILL">
<path fill="#003F5F" stroke="none" d="
M 212.05 141.5
Q 209 138 204.55 136 199.95 134 195.1 134.05 192.4 129.2 190.9 127.05 188.3 123.25 185.35 121 179.15 115.95 168.85 114.6 168.75 114.6 168.7 114.6 168.05 115.75 167.4 116.2 166.3 117 165.25 116.6 164 116.05 164.25 114.55 164.35 113.7 165.3 112.45
L 169.65 106.2
Q 170.4 105 170.6 104.45 170.7 104.15 170.8 102.8 170.95 101.2 171.05 100.4 171.1 100.05 171.1 99.75 170.95 99.5 170.8 99.25
L 170.75 99.15
Q 170.8 99.95 170.65 100.95 170.6 102.95 169.95 104.25 169.65 104.85 169.1 105.6
L 168.1 106.9
Q 167 108.65 166.75 108.95 166 109.9 164.55 111
L 160.45 114.15 160.45 114.2
Q 156.1 114.25 150.7 114.7 146.1 115.05 143.4 115.55 139.45 116.25 136.65 117.7 134.05 119 129.8 122.7 126.5 125.65 125.05 127.3 122.6 130 121.75 132.65 121.15 134.65 120.5 135.15 119.8 135.65 118.6 135.7 117.8 135.75 116.4 135.6 108.3 134.4 102.8 136.35 101.95 136.7 101.15 137 100.8 137.15 100.5 137.3 99.9 137.5 99.3 137.9 98.1 138.65 96.85 139.5 95 140.85 91.65 143.7 89.7 145.4 88.85 146.5 87.45 148.15 87.15 149.8 86.85 151.45 87.6 153.45 88.05 154.65 89.35 156.8
L 93.1 163.05
Q 92.85 163.25 92.15 163.45 90.45 163.85 88.4 166.4 85.85 169.5 84.7 171.25 82.8 173.95 82 176.45 81.05 179.4 81.65 182.25 82.3 185.4 84.55 187.3 82.6 188.9 77.9 190.8 76.85 191.2 75.9 191.6 72.65 193.05 71.15 194.2 67.4 196.95 65.1 202.45 62.3 208.85 62.35 215.7 62.4 219.55 63.65 222.5 65.15 226 68.1 227.75 69.5 228.55 71.55 229.1
L 71.6 229.1
Q 72.25 229.3 75.15 229.95 80.95 231.25 92.55 235.35 98.4 237.45 98.55 240.4 98.6 241.35 97.95 242.7 97 244.75 96.95 244.9 96.5 246.1 96.9 247.35 97.35 248.6 98.6 248.8 99.85 249 100.85 247.8 101.45 247.15 102.3 245.5 104.25 241.7 109.75 237.85 115.55 233.75 117.7 232.3 118.4 233.8 118.9 234.7 120.15 236.85 121.7 238.1 123.45 239.5 126.15 240.4 127.8 240.95 131.2 241.55
L 137.7 242.8
Q 140.6 243.35 142 243.05 143.15 242.8 143.9 242.2 144.8 241.45 144.9 240.55 144.9 240.4 144.75 239.1 144.7 238.15 145.1 237.7 145.5 237.25 146.35 237.2 146.75 237.2 147.8 237.3 153.45 238.15 159.2 237.4 164.95 236.6 169.95 234.2 170.4 235.05 170.45 236.25 170.45 237 170.4 238.45 170.4 241.3 172 242.35 173.3 243.15 175.15 242.7 176.7 242.35 178.25 241.3 180.8 239.55 183.5 237.25 188.4 233.25 190.65 230.85 192.8 228.6 194.15 226.5 195.05 226.65 196.2 226.9 199.05 227.65 201.95 228.5 205.65 229.6 209.3 231.05 211.5 232 212.65 232.75 213.25 233 213.8 233.4 214.7 234.2 215.2 235.05 215.85 236.2 216.35 239.1 216.45 239.25 216.45 239.45
L 216.45 239.5
Q 216.5 239.8 216.6 240.15 217 241.95 217.7 242.95 218.5 242.6 219 241.85 219.35 241.4 219.6 240.85 219.65 240.65 219.7 240.55 219.75 240.25 219.8 240.05 220.1 238.9 220.1 236.2 220.05 230.15 222.9 224.8 225.5 220.6 226.5 218.4 228 215.05 228.25 211.1 228.85 203.8 225.8 197.1 222.85 190.7 217.35 186.7 216.8 186.3 216.3 185.95 217.25 184.65 217.95 183.25 220.5 178.15 219.6 172 218.7 165.9 214.8 161.5 216.5 160.8 216.95 158.05 217.55 153.5 216.3 149.25 215 144.85 212.05 141.5
M 162.4 121.1
Q 164.1 121.1 165.55 121.2 167.3 121.4 168.9 121.75 176.85 123.5 182.9 129.15 184.95 131.15 186.6 133.35 187.05 134.1 187.45 135 188.45 137.3 188.8 137.75 189.3 138.65 189.95 139.15 190.5 140.55 190.9 142.05 191.5 144.05 192.6 144.25 193.25 144.4 194 144 194.45 143.75 195.3 143.2 197.6 141.95 200.7 143.15 203.1 144.1 205.55 146.4 208.15 148.8 209.4 151.05 209.85 152.5 209.9 153.95 209.95 154.9 209.9 156.65 209.9 156.85 209.95 157.15 209.55 157.8 208.95 158.7 207.9 160.2 207.65 160.75 207 161.9 207.05 163.05 207.1 164.35 207.95 165.1 208.6 165.6 209.7 165.9 210.35 166.15 211.7 166.35 214.1 167.05 215.6 169.4 217 171.55 216.9 174.05 216.75 177.25 214.05 181.7 213.65 182.4 213.2 183 211.7 185.25 211.25 186.8 210.6 189 211.8 190.5 211.85 190.55 211.95 190.65 212.65 191.35 214.55 192.3 220.15 195.25 223 200.2 224.9 203.3 225.35 206.75 225.8 210.3 224.5 213.5 223.6 215.65 220.9 219.75 218.9 223.3 217.25 230.65 213.6 225.5 204.9 222.9 202.45 222.1 197.55 221 196.2 220.65 195.05 220.4 194.9 220.35 194.8 220.35 191.8 219.7 190.1 219.15 188.8 218.75 187.8 218.35 187.6 218.05 187.4 217.75 186.7 216.7 186.65 215.3 186.55 213.3 188.1 210.4 189.35 208.3 190.1 206.9 190.45 206.6 190.75 206.3 191.05 206 191.35 205.8 193.1 204.05 193.75 202.1 194.7 199.45 193.15 197.6 184.55 202.5 181.85 208.6 180.75 211.05 180.7 213.6 180.6 214.9 180.85 216.1 181.45 220.15 184.5 222.65 186.55 224.35 190 225.4 190.05 225.4 190.15 225.45 188.75 228.2 186 231 183.85 233.2 179.35 236.75 176.5 238.95 174.95 239.9
L 174.75 233.55
Q 174.75 232.45 174.35 231.9 173.35 230.65 170.7 231.45 168.9 232 165.4 233.3 161.9 234.6 160.1 235.1 153.5 237 149 235.1 146.8 234.05 145.55 233.65 143.25 233 142 234.1 141.15 234.8 140.75 237.1
L 140.3 241.05 134.05 239.95
Q 130.15 239.3 127.95 238.35 124.8 237.1 123.45 234.9 123.05 234.25 122.6 233 122.05 231.6 121.8 231.15 121.35 230.2 120.8 229.7 123.5 226.8 125.35 223.3 127.85 218.65 128.25 213.65 128.5 210.3 127.65 208.05 127.85 207.85 127.95 207.6 128.25 206.9 127.55 206.35
L 127.5 206.3
Q 126.55 205.75 126.1 205.4 125.55 205.1 124.85 204.35 123.95 203.35 123.75 203.2 123.15 202.6 122.45 202.25 122.1 202 121.7 201.7 121.65 201.65 121.6 201.65 121.7 201.45 121.75 201.25 121.35 201.1 120.85 200.95 120.5 200.6 120.2 200.35 120.3 200.2 120.3 200.05 120 199.85 119.7 199.8 118.3 198.2 118.1 196.65 116.8 198.2 116.7 200.2 116.55 200.35 116.55 200.5 116.25 200.55 115.9 200.75
L 116.7 201.6
Q 116.75 202.1 116.9 202.55 116.9 203.2 117.15 203.9 117.35 204.55 117.9 205.4 118.5 206.55 119.55 208.05 119.75 208.4 119.95 208.7 120 209.2 120.3 210.15 120.65 211.2 120.7 211.65 120.75 212.45 120.35 213.9 119.55 216.4 119.45 216.6 118.6 219 117.45 221.35 116.2 224.1 114.9 225.85 113.8 227.2 111.65 229.15
L 106.75 233.6
Q 106.35 234.05 106.05 234.35
L 101.05 237.9
Q 101.35 236.05 100.2 234.1 99.2 232.3 97.35 231.05 95.05 229.45 89.3 227.8
L 73.35 223.2
Q 72.75 223.1 72.3 222.95 70.9 222.45 70.25 222.2 68.55 221.6 67.45 220.55 65.55 218.85 65.2 216.1 64.85 213.6 65.7 210.95 67.35 205.65 71.8 201.4 73.35 199.95 75.1 198.75 78.2 196.55 81.9 195.25 82.95 194.85 85.1 194.05 86.95 193.35 88.05 192.55 89.45 191.5 90 189.95 90.6 188.35 89.8 187.1 89.35 186.35 88.2 185.55 86.8 184.55 86.45 184.2 84.45 182.2 85.1 178.95 85.75 176.2 87.95 173.5 90.45 170.45 92.95 169.6 94.35 169 97.45 168.35 98.95 169.1 100.3 168.35 101.75 167.65 101.65 165.75 101.6 164.2 100.6 162.4 98.55 158.55 95.6 154.3 94.3 152.35 94.35 151.35 94.4 150.45 95.25 149.55 95.55 149.15 96.85 148 98.85 146.15 99.9 145.3 100.85 144.4 101.75 143.8 107.4 142 115.65 143.7 117.35 144.05 118.15 144.2 118.2 144.2 118.3 144.2 119.1 144.3 119.8 144.3 120.9 144.1 122.2 144.35 122.6 144.45 123.35 144.6 124 144.8 124.5 144.65 124.85 144.55 125.2 144.45 125.35 144.3 125.6 144.2 125.75 143.95 125.95 143.65 126.2 143.15 126.4 142.5 126.15 142.45 125.9 142.45 124.65 142.35 124.1 142.2 123.15 141.9 122.85 141.1 122.65 140.5 123.1 139.35 123.8 137.85 125.15 135.75
L 126.5 133.8
Q 127.75 132.1 128.6 131.2 129.3 130.5 130.8 129.15
L 133.45 126.75
Q 135.45 125.05 136.65 124.45 138.4 123.7 140.95 123.7 142.1 123.6 142.8 123.95 142.85 124 142.95 124.05 144.9 123.4 147.2 122.85 152.75 121.55 157.6 121.15 160.2 121.1 162.4 121.1
M 132.3 181.25
Q 133.85 180.25 134.65 180.7 135.1 180.9 135.35 181.45 135.5 181.8 135.75 182.55 135.85 182.8 136.35 183.5 136.75 184.2 136.95 184.6 137.2 185.4 137.45 186.95 138.05 188.6 139.9 189.1 141.7 189.6 143.25 188.5 142.25 188 141.8 186.1 140.95 182.95 139.4 180.9 138.45 179.45 137.1 178.6 135.55 177.7 134 177.85 132.55 177.9 130.6 179.2 126.05 182.05 122.15 185.75 122.65 186.3 123.55 186.45 124.4 186.65 125.25 186.3 126.2 186 127.95 184.55 130.45 182.5 132.3 181.25
M 174.4 189.25
Q 174.1 189.85 174.15 190.2 174.35 190.75 175.45 190.85 176.9 191 177.7 190.7 178.55 190.25 179.05 189 180.15 186.8 181.4 183.8 182.2 183.8 183.35 185 184.95 186.85 186.75 187.5 189.2 188.15 191 186.95
L 187.05 183.8
Q 184.9 182 183.2 181.5 182.05 181.25 180.4 181.35 178.8 181.6 178.15 182.05 177.45 182.6 176.75 184.55 175.9 187.05 174.4 189.25
M 162.45 163.2
Q 162.7 162.5 162.65 161.5 162.6 160.35 162.6 159.85 162.6 158.1 162 157.6 161.55 157.15 160.15 156.9 158.35 156.7 157 156.25 155.85 155.9 155.15 155.95 154.3 156 153.2 156.95 152.55 157.4 152.05 158.05 150.95 159.4 151.4 161.95 151.65 163.25 152.05 163.75 152.45 164.35 153.5 165 155.05 166.05 156.5 166.4 158.4 166.8 160.2 165.8 162 164.85 162.45 163.2
M 155.2 158.1
Q 155.5 158.05 156.5 158.1
L 159.5 158.7
Q 159.3 159.05 159.2 159.45 158.25 159.65 156.85 159.4 155.3 158.95 154.5 158.75 154.4 158.75 154.35 158.75 154.4 158.7 154.45 158.6 154.85 158.15 155.2 158.1 Z"/>

<path fill="#66FFFF" stroke="none" d="
M 105.1 172.1
Q 103.15 171.7 101.4 171.15 98.9 170.25 97.85 170.95 96.9 171.5 96.7 173.55 96.6 175.5 97 176.2 97.15 176.5 98.1 177.5
L 99.8 179.1
Q 100.4 179.6 100.55 179.95 100.8 180.65 99.95 182 98.65 184.25 98.4 185.8 98.15 186.95 98.55 187.8 98.75 188.3 99.15 188.65 99.6 189.05 100.25 189.2 101.15 189.3 102.75 188.45 106 186.4 107.35 184.3 109.05 185 110.85 184.75 112.8 184.5 113.9 183.3 114.65 182.55 115.2 180.9 115.6 179.8 115.65 179.25
L 115.65 177.85
Q 115.5 174.95 115.75 172.65 115.85 171.35 116.05 170.8
L 116.55 169.2
Q 117.1 167.5 116.85 165.65 116.65 163.6 115.35 162.75 115.1 162.6 114.9 162.5 113.85 162.05 112.55 162.3 111.4 162.55 110 163.5 107.85 165.05 106.55 167.35 105.25 169.65 105.1 172.1
M 112.2 169.3
Q 111.85 170.8 111.7 172.7 111.6 174.75 111.5 179 111.4 180.75 110.3 181 109.85 181.05 108.6 180.6 107.3 180.05 106 180.35 107.2 178.55 108.35 176.5 109.75 174.1 112.2 169.3
M 136.65 124.45
Q 135.45 125.05 133.45 126.75
L 130.8 129.15
Q 129.3 130.5 128.6 131.2 127.75 132.1 126.5 133.8
L 125.15 135.75
Q 123.8 137.85 123.1 139.35 122.65 140.5 122.85 141.1 123.15 141.9 124.1 142.2 124.65 142.35 125.9 142.45 126.15 142.45 126.4 142.5 128.2 142.5 129.85 142.25 131.9 142 134.5 141.15 138.1 140.1 140.05 139 142.05 137.95 143.9 136.5 145.15 135.5 146.1 134.6 147.85 133 147.75 131.6 147.65 130.95 147 129.95
L 144.15 125.4
Q 143.55 124.4 142.95 124.05 142.85 124 142.8 123.95 142.1 123.6 140.95 123.7 138.4 123.7 136.65 124.45
M 211 169.6
Q 209.45 169.25 208.65 169.15 207.3 169 206.3 169.1 205.25 169.3 204.7 169.8 204.05 170.6 204.25 172 204.35 173.1 204.85 175.15
L 205.15 176.4
Q 205.7 179.05 205.75 179.95 205.85 180.95 206.1 181.2 206.3 181.4 207.15 181.65 208.4 181.85 209.75 181.55 210.95 181.3 211.6 180.75 211.95 180.5 212.45 179.85
L 213.9 177.95
Q 214.65 176.9 214.8 176.35 214.9 175.95 214.75 175.15 214.65 174.35 214.7 173.95 214.95 173.1 214.9 172.75 214.9 172.45 214.45 171.6 213.85 170.6 213.35 170.25 212.8 169.85 211 169.6
M 199.95 147.05
Q 198.95 147.05 197.55 147.35 195.7 147.75 195.3 148.75 195 149.55 195.65 150.45 195.9 150.8 196.9 151.85 199.05 154 199.35 156.85 199.45 157.6 199.65 157.85 200 158.2 200.85 158.2 202.05 158.3 203.35 158.05 204.65 157.9 205.3 157.2 205.65 156.75 205.85 155.8 206.35 153.6 206.3 152.55 206.25 151.5 205.75 150.45 204.8 148.2 202.75 147.35 201.6 147 199.95 147.05 Z"/>

<path fill="#66CCCC" stroke="none" d="
M 111.7 172.7
Q 111.85 170.8 112.2 169.3 109.75 174.1 108.35 176.5 107.2 178.55 106 180.35 107.3 180.05 108.6 180.6 109.85 181.05 110.3 181 111.4 180.75 111.5 179 111.6 174.75 111.7 172.7 Z"/>

<path fill="#007D87" stroke="none" d="
M 199.55 167.35
Q 197.75 161.7 196.95 159.9 192.5 149.6 181.85 142.95 171.2 136.4 159 136.35 146.8 136.35 135.25 142.8 124.45 148.75 117 158.7 115.4 160.75 114.9 162.5 115.1 162.6 115.35 162.75 116.65 163.6 116.85 165.65 117.1 167.5 116.55 169.2
L 116.05 170.8
Q 115.85 171.35 115.75 172.65 115.5 174.95 115.65 177.85
L 115.65 179.25
Q 115.6 179.8 115.2 180.9 114.65 182.55 113.9 183.3 112.8 184.5 110.85 184.75 109.05 185 107.35 184.3 106 186.4 102.75 188.45 101.15 189.3 100.25 189.2 99.6 189.05 99.15 188.65 97.8 189.95 97.35 190.6 96.4 191.85 95.45 194.55
L 95 195.7
Q 93.9 198.75 93.85 200.4 93.75 203.2 96 207.2 96.75 208.5 97.5 209.05 98.5 209.8 100.1 209.85 101.2 209.85 103 209.45 105.15 209.05 106.25 208.7 108 208.15 109.1 207.25 109.8 206.6 110.15 206.25 110.75 205.7 111.35 205.5 112.1 205.3 113.3 205.4 114 205.55 115.35 205.8 116.75 205.9 117.9 205.4 117.35 204.55 117.15 203.9 116.9 203.2 116.9 202.55 116.75 202.1 116.7 201.6
L 115.9 200.75
Q 116.25 200.55 116.55 200.5 116.55 200.35 116.7 200.2 116.8 198.2 118.1 196.65 118.3 198.2 119.7 199.8 120 199.85 120.3 200.05 120.3 200.2 120.2 200.35 120.5 200.6 120.85 200.95 121.35 201.1 121.75 201.25 121.7 201.45 121.6 201.65 121.65 201.65 121.7 201.7 122.1 202 122.45 202.25 123.15 202.6 123.75 203.2 123.95 203.35 124.85 204.35 125.55 205.1 126.1 205.4 126.55 205.75 127.5 206.3
L 127.55 206.35
Q 137.95 210.05 149.7 209.7 164.1 209.35 176.15 203.05 176.5 202.85 181.25 200.2 184.35 198.45 186.5 197.55 192.95 194.85 198.15 196.1 198.95 196.3 200.45 196.75 201.8 197.1 202.8 197.05 205.05 196.95 206.6 195 208.05 193.15 208.05 190.9 208 189.05 207.1 186.75 206.9 186.15 205.25 182.7 202.55 177.2 199.55 167.35
M 184.75 154.45
Q 186.2 153.9 187.55 154.35 189.15 154.7 190.3 156.05 191.4 157.35 191.8 159 192.2 160.15 191.9 161.25 191.65 162.35 190.7 163.25 189.75 164.1 188.45 164.45 186.1 165.05 183.45 164.1 181.9 163.4 181.15 162.6 180.15 161.45 180.15 158.65 180.15 156.9 180.8 156.25 181.15 155.95 181.75 155.7 182.1 155.55 182.8 155.25 183.5 155.05 184.75 154.45
M 162.65 161.5
Q 162.7 162.5 162.45 163.2 162 164.85 160.2 165.8 158.4 166.8 156.5 166.4 155.05 166.05 153.5 165 152.45 164.35 152.05 163.75 151.65 163.25 151.4 161.95 150.95 159.4 152.05 158.05 152.55 157.4 153.2 156.95 154.3 156 155.15 155.95 155.85 155.9 157 156.25 158.35 156.7 160.15 156.9 161.55 157.15 162 157.6 162.6 158.1 162.6 159.85 162.6 160.35 162.65 161.5
M 174.15 190.2
Q 174.1 189.85 174.4 189.25 175.9 187.05 176.75 184.55 177.45 182.6 178.15 182.05 178.8 181.6 180.4 181.35 182.05 181.25 183.2 181.5 184.9 182 187.05 183.8
L 191 186.95
Q 189.2 188.15 186.75 187.5 184.95 186.85 183.35 185 182.2 183.8 181.4 183.8 180.15 186.8 179.05 189 178.55 190.25 177.7 190.7 176.9 191 175.45 190.85 174.35 190.75 174.15 190.2
M 123.55 160.65
Q 124.6 158.75 125.5 158.05 126.55 157.2 127.85 156.85 129.65 156.45 131.5 157.15 133.4 157.9 134.35 159.4 135.25 160.75 135.1 162.6 134.95 164.35 133.85 165.75 131.9 168.05 128.8 168.1 125.6 168.25 123.7 165.95 122.55 164.5 122.7 163.15 122.8 162 123.55 160.65
M 134.65 180.7
Q 133.85 180.25 132.3 181.25 130.45 182.5 127.95 184.55 126.2 186 125.25 186.3 124.4 186.65 123.55 186.45 122.65 186.3 122.15 185.75 126.05 182.05 130.6 179.2 132.55 177.9 134 177.85 135.55 177.7 137.1 178.6 138.45 179.45 139.4 180.9 140.95 182.95 141.8 186.1 142.25 188 143.25 188.5 141.7 189.6 139.9 189.1 138.05 188.6 137.45 186.95 137.2 185.4 136.95 184.6 136.75 184.2 136.35 183.5 135.85 182.8 135.75 182.55 135.5 181.8 135.35 181.45 135.1 180.9 134.65 180.7 Z"/>

<path fill="#003D3D" stroke="none" d="
M 125.5 158.05
Q 124.6 158.75 123.55 160.65 122.8 162 122.7 163.15 122.55 164.5 123.7 165.95 125.6 168.25 128.8 168.1 131.9 168.05 133.85 165.75 134.95 164.35 135.1 162.6 135.25 160.75 134.35 159.4 133.4 157.9 131.5 157.15 129.65 156.45 127.85 156.85 126.55 157.2 125.5 158.05
M 187.55 154.35
Q 186.2 153.9 184.75 154.45 183.5 155.05 182.8 155.25 182.1 155.55 181.75 155.7 181.15 155.95 180.8 156.25 180.15 156.9 180.15 158.65 180.15 161.45 181.15 162.6 181.9 163.4 183.45 164.1 186.1 165.05 188.45 164.45 189.75 164.1 190.7 163.25 191.65 162.35 191.9 161.25 192.2 160.15 191.8 159 191.4 157.35 190.3 156.05 189.15 154.7 187.55 154.35 Z"/>

<path fill="#00CCED" stroke="none" d="
M 165.55 121.2
Q 164.1 121.1 162.4 121.1 160.2 121.1 157.6 121.15 152.75 121.55 147.2 122.85 144.9 123.4 142.95 124.05 143.55 124.4 144.15 125.4
L 147 129.95
Q 147.65 130.95 147.75 131.6 147.85 133 146.1 134.6 145.15 135.5 143.9 136.5 142.05 137.95 140.05 139 138.1 140.1 134.5 141.15 131.9 142 129.85 142.25 128.2 142.5 126.4 142.5 126.2 143.15 125.95 143.65 125.75 143.95 125.6 144.2 125.35 144.3 125.2 144.45 124.85 144.55 124.5 144.65 124 144.8 123.35 144.6 122.6 144.45 122.2 144.35 120.9 144.1 119.8 144.3 119.1 144.3 118.3 144.2 118.2 144.2 118.15 144.2 117.35 144.05 115.65 143.7 107.4 142 101.75 143.8 100.85 144.4 99.9 145.3 98.85 146.15 96.85 148 95.55 149.15 95.25 149.55 94.4 150.45 94.35 151.35 94.3 152.35 95.6 154.3 98.55 158.55 100.6 162.4 101.6 164.2 101.65 165.75 101.75 167.65 100.3 168.35 98.95 169.1 97.45 168.35 94.35 169 92.95 169.6 90.45 170.45 87.95 173.5 85.75 176.2 85.1 178.95 84.45 182.2 86.45 184.2 86.8 184.55 88.2 185.55 89.35 186.35 89.8 187.1 90.6 188.35 90 189.95 89.45 191.5 88.05 192.55 86.95 193.35 85.1 194.05 82.95 194.85 81.9 195.25 78.2 196.55 75.1 198.75 73.35 199.95 71.8 201.4 67.35 205.65 65.7 210.95 64.85 213.6 65.2 216.1 65.55 218.85 67.45 220.55 68.55 221.6 70.25 222.2 70.9 222.45 72.3 222.95 72.75 223.1 73.35 223.2
L 89.3 227.8
Q 95.05 229.45 97.35 231.05 99.2 232.3 100.2 234.1 101.35 236.05 101.05 237.9
L 106.05 234.35
Q 106.35 234.05 106.75 233.6
L 111.65 229.15
Q 113.8 227.2 114.9 225.85 116.2 224.1 117.45 221.35 118.6 219 119.45 216.6 119.55 216.4 120.35 213.9 120.75 212.45 120.7 211.65 120.65 211.2 120.3 210.15 120 209.2 119.95 208.7 119.75 208.4 119.55 208.05 118.5 206.55 117.9 205.4 116.75 205.9 115.35 205.8 114 205.55 113.3 205.4 112.1 205.3 111.35 205.5 110.75 205.7 110.15 206.25 109.8 206.6 109.1 207.25 108 208.15 106.25 208.7 105.15 209.05 103 209.45 101.2 209.85 100.1 209.85 98.5 209.8 97.5 209.05 96.75 208.5 96 207.2 93.75 203.2 93.85 200.4 93.9 198.75 95 195.7
L 95.45 194.55
Q 96.4 191.85 97.35 190.6 97.8 189.95 99.15 188.65 98.75 188.3 98.55 187.8 98.15 186.95 98.4 185.8 98.65 184.25 99.95 182 100.8 180.65 100.55 179.95 100.4 179.6 99.8 179.1
L 98.1 177.5
Q 97.15 176.5 97 176.2 96.6 175.5 96.7 173.55 96.9 171.5 97.85 170.95 98.9 170.25 101.4 171.15 103.15 171.7 105.1 172.1 105.25 169.65 106.55 167.35 107.85 165.05 110 163.5 111.4 162.55 112.55 162.3 113.85 162.05 114.9 162.5 115.4 160.75 117 158.7 124.45 148.75 135.25 142.8 146.8 136.35 159 136.35 171.2 136.4 181.85 142.95 192.5 149.6 196.95 159.9 197.75 161.7 199.55 167.35 202.55 177.2 205.25 182.7 206.9 186.15 207.1 186.75 208 189.05 208.05 190.9 208.05 193.15 206.6 195 205.05 196.95 202.8 197.05 201.8 197.1 200.45 196.75 198.95 196.3 198.15 196.1 192.95 194.85 186.5 197.55 184.35 198.45 181.25 200.2 176.5 202.85 176.15 203.05 164.1 209.35 149.7 209.7 137.95 210.05 127.55 206.35 128.25 206.9 127.95 207.6 127.85 207.85 127.65 208.05 128.5 210.3 128.25 213.65 127.85 218.65 125.35 223.3 123.5 226.8 120.8 229.7 121.35 230.2 121.8 231.15 122.05 231.6 122.6 233 123.05 234.25 123.45 234.9 124.8 237.1 127.95 238.35 130.15 239.3 134.05 239.95
L 140.3 241.05 140.75 237.1
Q 141.15 234.8 142 234.1 143.25 233 145.55 233.65 146.8 234.05 149 235.1 153.5 237 160.1 235.1 161.9 234.6 165.4 233.3 168.9 232 170.7 231.45 173.35 230.65 174.35 231.9 174.75 232.45 174.75 233.55
L 174.95 239.9
Q 176.5 238.95 179.35 236.75 183.85 233.2 186 231 188.75 228.2 190.15 225.45 190.05 225.4 190 225.4 186.55 224.35 184.5 222.65 181.45 220.15 180.85 216.1 180.6 214.9 180.7 213.6 180.75 211.05 181.85 208.6 184.55 202.5 193.15 197.6 194.7 199.45 193.75 202.1 193.1 204.05 191.35 205.8 191.05 206 190.75 206.3 190.45 206.6 190.1 206.9 189.35 208.3 188.1 210.4 186.55 213.3 186.65 215.3 186.7 216.7 187.4 217.75 187.6 218.05 187.8 218.35 188.8 218.75 190.1 219.15 191.8 219.7 194.8 220.35 194.9 220.35 195.05 220.4 196.2 220.65 197.55 221 202.45 222.1 204.9 222.9 213.6 225.5 217.25 230.65 218.9 223.3 220.9 219.75 223.6 215.65 224.5 213.5 225.8 210.3 225.35 206.75 224.9 203.3 223 200.2 220.15 195.25 214.55 192.3 212.65 191.35 211.95 190.65 211.85 190.55 211.8 190.5 210.6 189 211.25 186.8 211.7 185.25 213.2 183 213.65 182.4 214.05 181.7 216.75 177.25 216.9 174.05 217 171.55 215.6 169.4 214.1 167.05 211.7 166.35 210.35 166.15 209.7 165.9 208.6 165.6 207.95 165.1 207.1 164.35 207.05 163.05 207 161.9 207.65 160.75 207.9 160.2 208.95 158.7 209.55 157.8 209.95 157.15 209.9 156.85 209.9 156.65 209.95 154.9 209.9 153.95 209.85 152.5 209.4 151.05 208.15 148.8 205.55 146.4 203.1 144.1 200.7 143.15 197.6 141.95 195.3 143.2 194.45 143.75 194 144 193.25 144.4 192.6 144.25 191.5 144.05 190.9 142.05 190.5 140.55 189.95 139.15 189.3 138.65 188.8 137.75 188.45 137.3 187.45 135 187.05 134.1 186.6 133.35 184.95 131.15 182.9 129.15 176.85 123.5 168.9 121.75 167.3 121.4 165.55 121.2
M 197.55 147.35
Q 198.95 147.05 199.95 147.05 201.6 147 202.75 147.35 204.8 148.2 205.75 150.45 206.25 151.5 206.3 152.55 206.35 153.6 205.85 155.8 205.65 156.75 205.3 157.2 204.65 157.9 203.35 158.05 202.05 158.3 200.85 158.2 200 158.2 199.65 157.85 199.45 157.6 199.35 156.85 199.05 154 196.9 151.85 195.9 150.8 195.65 150.45 195 149.55 195.3 148.75 195.7 147.75 197.55 147.35
M 208.65 169.15
Q 209.45 169.25 211 169.6 212.8 169.85 213.35 170.25 213.85 170.6 214.45 171.6 214.9 172.45 214.9 172.75 214.95 173.1 214.7 173.95 214.65 174.35 214.75 175.15 214.9 175.95 214.8 176.35 214.65 176.9 213.9 177.95
L 212.45 179.85
Q 211.95 180.5 211.6 180.75 210.95 181.3 209.75 181.55 208.4 181.85 207.15 181.65 206.3 181.4 206.1 181.2 205.85 180.95 205.75 179.95 205.7 179.05 205.15 176.4
L 204.85 175.15
Q 204.35 173.1 204.25 172 204.05 170.6 204.7 169.8 205.25 169.3 206.3 169.1 207.3 169 208.65 169.15 Z"/>

<path fill="#000033" stroke="none" d="
M 168.55 95.4
Q 168.85 95.7 169.25 96.4
L 170.75 99.15 170.8 99.25
Q 170.95 99.5 171.1 99.75 171.1 100.05 171.05 100.4 170.95 101.2 170.8 102.8 170.7 104.15 170.6 104.45 170.4 105 169.65 106.2
L 165.3 112.45
Q 164.35 113.7 164.25 114.55 164 116.05 165.25 116.6 166.3 117 167.4 116.2 168.05 115.75 168.7 114.6 168.7 114.55 168.75 114.5 170.85 111.2 172.7 108.7 173.9 107.3 174.3 106.2 174.5 105.7 174.75 104
L 175.15 99.95
Q 175.15 99.8 175.2 99.65 175.2 99.4 175.2 99.2 175.3 97.4 175.1 96.5 174.75 95.15 173.75 93.8 172.7 92.3 171.5 91.55 169.95 90.45 168.05 90.45 168 90.45 167.95 90.45 167 90.05 166.55 90 165.65 89.85 163.75 90.15 159.25 90.85 156.9 92.3 155.85 93 153.95 94.75 151.85 96.7 151 97.8 149.5 99.75 149.3 101.65 149.25 102.5 149.45 104.05 149.65 105.6 150.05 106.5 151.05 108.7 154 109.6 156.3 110.15 159.2 109.6 162.65 109.05 164.05 107.2 164.95 106.05 165.2 104.05 165.6 101.4 164.65 100 163.8 98.75 161.65 98.15 159.5 97.55 158.45 98.5 157.75 99.15 157.85 100.15 157.95 101.15 158.75 101.6 159.1 101.85 159.95 102 160.75 102.2 161.1 102.4 160.95 102.7 160.95 103.4 161 104.1 160.8 104.4 160.55 104.8 159.9 105.05 158.05 105.85 156 105.75 154.8 105.65 154.3 105.25 153.7 104.8 153.5 103.65 153.25 102.1 154.05 100.75 154.25 100.35 155.2 99.35 158.75 95.6 161.7 94.8 162.55 94.55 164.35 94.35 165.5 94.25 165.85 94.3 166.3 94.4 167.35 94.8 168.4 95.3 168.55 95.4 Z"/>

<path fill="#62006C" stroke="none" d="
M 521.9 331.9
L 522.2 332.3 522.2 332.25 521.9 331.9
M 340.55 332.5
Q 340.35 332.8 340.35 333.2 340.3 334.7 341.4 337.6 342.4 340.1 342.85 340.95 343.4 342.15 344.15 342.65 344.7 342.95 345.6 343.05 347.25 343.45 348.15 343 349.4 342.5 350.15 339.8 350.55 338.1 350.55 337.25 350.45 335.7 349.6 334.9 348.75 335.3 348.55 336.65 348.25 338.15 347.7 338.6 347.1 339.15 345.8 338.95 344.7 338.75 344.1 338.3 343.25 337.65 342.65 335.9
L 341.6 332.9
Q 341.4 332.3 341.05 332.25 340.75 332.2 340.55 332.5 Z"/>

<path fill="#410041" stroke="none" d="
M 416.2 272.2
Q 410.45 271.95 407.65 271.55 405.4 271.25 405.25 271.25 405.1 271.25 405 271.25 404.8 271 404.6 270.8 396.95 262.15 388.7 257.3 378.95 251.55 369.3 251.8 363.35 251.95 356.7 254.4 348.05 257.55 340.7 263.4 333.35 269.2 328.3 276.9 325.7 280.85 322.6 287.2 320.85 290.75 317.45 297.85 311 310.45 303.5 315.8 302.55 316.5 300.55 317.9 298.9 319.15 298.05 320.45 296.7 322.6 296.5 326.65 296.15 334 297.8 341.3 298.85 345.7 300.65 347.8 301.9 349.2 303.6 349.85 305.45 350.5 307.05 349.9 307.75 357.3 312.4 363.5 317.1 369.7 324.05 372.3 324.8912109375 372.6083984375 325.65 372.75
L 327.05 374.15
Q 328 375.1 328.2 375.45 328.5 375.9 329.2 377.3 329.65 378.3 330.5 379.7 330.95 380.45 331.9 382 332.65 383.4 333.25 384.25 334 385.25 335.85 387 336.95 388 337.6 388.3 338.55 388.75 339.8 388.65 341 388.65 341.6 388.15 342.15 387.7 342.6 386.15
L 343.1 384.15
Q 343.35 383.05 343.35 382.8 343.3 381.75 343.4 381.25 343.433984375 381.0126953125 343.55 380.5 345.25703125 381.44140625 346.2 381.85 350 383.45 355.1 383.7 358.55 383.85 364.3 383.35 372.7109375 382.6771484375 378.65 381.7 379.2642578125 381.366796875 380.1 381.2
L 381.1 386.4
Q 381.65 389.15 383.1 389.5 384 389.75 385.45 388.8 390.3 385.9 394.1 381.9 395.15 380.75 395.4 379.95 395.50546875 379.6333984375 395.5 379.35 395.8029296875 379.21015625 396.2 379 396.85 378.65 397.3 378.6 397.95 378.45 399.25 378.6 399.718359375 378.521875 400.5 378.35 401.7623046875 377.9673828125 402.95 377.5 403.41484375 377.102734375 404.15 376.8 404.65 376.6 405.7 376.25 405.859375 376.181640625 406 376.1 406.106640625 376.36328125 406.2 376.65 406.35 377.3 406.45 378.65 406.7 379.75 407.3 380.3 408.4 381.2 410.45 380.4 415.15 378.55 418.75 371.7 419.18984375 370.9251953125 419.3 370.3 419.9875 370.10703125 420.75 369.95 421.3861328125 369.82890625 421.95 369.7 421.961328125 369.6841796875 421.95 369.65 422.15 369.55 422.35 369.5
L 425.55 368.55
Q 428.05 367.75 428.8 367.3 429.7 366.8 430.65 365.75 431.65 364.75 432.1 364.2 433.5 362.5 435.3 359.7 435.95 358.65 436.45 357.75 436.9 358.25 437.55 358.7 438.35 359.25 439.8 359.9 441.75 360.55 443 360.55 444.35 360.6 446.95 359.8
L 455.25 357.1
Q 456.95 356.45 458.15 355.55 459.15 354.85 460.55 353.45 463.6 350.3 464.45 348.9 465.35 347.5 466.8 344.5 467.2 343.8 470.2 339.35 470.4 339.05 470.55 338.8 470.65 338.8 470.75 338.8 474.1 339 476 338.9 478.85 338.8 481.05 338.05 483.55 337.2 484.95 335.55 486.4 333.8 486.5 331.3 486.55 328.85 485.4 326.7 483.55 323.2 478.6 320.4 472.4 317.05 465.4 316.35 459.9 316.15 457.25 315.85 452.55 315.3 449.8 313.25 447 311.15 444.35 305.5 440.8 297.95 438.95 294.2 435.75 287.7 433 283.25 428.75 276.45 424.3 274.15 421.3 272.6 416.2 272.2
M 418.6 278.7
Q 421.25 279.2 423 280.45 425.2 282 427.7 286.35 433.25 295.95 437.75 305.5 440.35 311.05 441.9 313.4 444.65 317.6 448.05 319.55 451.45 321.5 457.45 322 467.05 322.8 467.4 322.85 473.35 324 478.15 327.45 480.25 328.95 480.15 330.5 480.1 331.6 478.9 332.35 477.9 332.95 476.6 332.95 475.6 332.95 473.25 332.6 471.05 332.2 469.85 332.35 468.1 332.55 466.95 333.85 466 334.45 464.9 336.2
L 461.4 341.75
Q 460.5 343.25 459.3 344.95
L 457.1 347.8
Q 455.75 349.35 455.25 349.8 454.5 350.4 452.8 351.2 449.1 352.85 445.05 353.75 443.25 354.15 442.35 353.95 441.75 353.8 440.4 353.15 439.2 352.55 438.45 352.5 437.25 352.45 436.3 353.3 436.2 353.4 436.1 353.55 435.4 353.5 434.7 353.6 433.35 353.85 432.65 354.5 431.8 355.2 431 357.05 428.95 361.35 425.75 364.95 424.95 365.95 424.25 366.35 423.75 366.65 422.55 367.05
L 418.35 368.2
Q 418.0568359375 368.1 417.7 368.1 416.7 368.1 415.95 368.7 415.4 369.2 414.9 370.15 414.4 371.3 414.1 371.8 413.5845703125 372.8134765625 412.95 373.6 411.741015625 375.1623046875 410.1 375.95 409.85 375.4 409.7 374.35 409.6201171875 373.8705078125 409.55 373.5 409.7263671875 373.4212890625 409.9 373.35 409.934375 373.2205078125 409.9 373.1 409.820703125 372.783203125 409.3 372.65 409.033984375 371.83515625 408.45 371.3 407.75 370.65 407 370.75 406.2 370.9 405.75 371.7 405.3607421875 372.3919921875 405.35 373.15 404.5615234375 373.454296875 403.7 373.9 400.45 375.75 398.7 376.4 398.05 376.65 397.1 376.9 396.95 376.7 396.75 376.6 395.95 376.15 395.1 376.8 394.7822265625 377.072265625 394.5 377.45 394.1474609375 377.3201171875 393.7 377.35 393 377.4 392.4 377.85 391.9548828125 378.1169921875 391.5 378.65 391.19375 378.9068359375 391.05 379.15 390.7103515625 379.6046875 390.5 379.85 389.2927734375 381.28359375 386.7 383.1 385.8818359375 383.7119140625 384.9 384.35 384.4 383.45 384.2 381.4 384.1515625 380.9158203125 384.05 380.5 383.818359375 379.194140625 383.25 378.55 382.7 377.9 381.9 377.75 381.1 377.6 380.5 378.1 380.103125 378.4306640625 379.95 379 379.7234375 379.0306640625 379.55 379.1 378.85 379.2 376.15 379.75 374.7 380.05 371.9 380.35
L 364.8 381
Q 361.05 381.3 358.9 381.25 355.65 381.2 353.1 380.5 349.95 379.55 344.6 376.2 341.6 374.35 339.95 374.05 338.65 373.8 337.4 374.2 336.188671875 374.558984375 335.5 375.4 336.526171875 375.7017578125 337.85 376.45 339.1322265625 377.1623046875 340.05 377.9 339.994140625 377.9765625 339.95 378.05 339.45 378.9 339.45 380.1 339.45 381.75 339.35 382.05 339.35 382.1 339 382.95 338.8 383.5 338.85 383.9 337.1 383.05 335.1 379.7 333.75 377.45 332.95 375.85 332.15 374.3 331.9 373.85 331.3 372.9 329.75 371.25
L 329.2 370.7
Q 329.9005859375 370.3912109375 330.35 370.05 330.360546875 369.3986328125 330 368.65 329.35 367.2 327.9 366.4 326.95 365.85 325.05 365.25 322.9 364.65 322.1 364.25 319.05 362.85 316.95 359.2 315.45 356.6 314.2 352.1 313.45 349.55 313.05 348.6 312.3 346.7 311.3 345.45 310.1 344 308.35 343.35 306.45 342.7 304.85 343.4 302.45 336.35 302.7 328.6 302.8 326 303.55 324.6 304.1 323.65 305.2 322.75 305.5 322.55 307.25 321.3 314.9 315.95 321.4 304.05 328.1 290 332 283.45 340.1 269.8 351.75 263.25 358.15 259.7 365.25 258.75 372.7 257.75 379.3 259.85 384.85 261.65 390.5 265.95 394.6 269.1 400 274.7 400.15 274.85 400.35 275.05 400.8 277.15 405.1 277.5
L 413.85 278.1
Q 417.1 278.35 418.6 278.7
M 327.55 320.7
Q 327.05 320.3 325.3 319.85 324.25 319.6 323.75 319.6 323.5 319.7 323.25 319.7 322.85 319.85 322.35 320.35
L 318.3 326.75
Q 318.35 327.5 318.8 328.25 319.5 329.4 320.75 330.1 323 331.4 325.05 330.6 326.1 330.15 327.05 328.95 328.25 327.6 328.75 325.9 329.25 324.1 328.75 322.45 328.3 321.35 327.55 320.7
M 325.25 323.1
L 325.7 323.25 325.85 323.7 325.95 324.5
Q 325.9 325.15 325.45 325.95 325.2 326.4 324.6 327.1 323.9 327.7 323.35 327.7 322.75 327.75 321.85 327.05 321.35 326.75 321.35 326.35 321.4 326.1 321.7 325.8 322.85 324.05 323.7 323.55 324.45 323.1 325.25 323.1
M 396.45 330.05
Q 395.8 329.3 395.3 329 394.6 328.65 393.85 328.85 393.25 328.95 392.7 329.5 392.6 329.5 392.55 329.6 391.75 330.3 391.15 331.8 390.1 334.2 389.7 337.25 389.45 339.05 389.35 342.95
L 389 352.2 387.3 352.8
Q 384.15 354 383.55 355.6 383.25 356.4 383.4 357.8 383.8 360.4 385.4 362.25 387.15 364.35 389.5 364.6 390.75 364.75 393.15 364.3 398.65 363.3 402.05 361.95 404.4 361 406.7 359.6 408.9 358.35 410 357.3 410.7 356.7 412.55 354.45 414.15 352.5 414.65 351.3 415.1201171875 350.359765625 415.4 349.25 415.7927734375 347.8392578125 415.85 346.15 415.8716796875 345.6716796875 415.85 345.25 415.7869140625 343.7 415.2 342.8 414.55 341.8 412.45 340.75 411.5 340.3 410.6 340.15 410.25 340.1 409.9 340.2 409.85 340.15 409.85 340.1 408.7 334.9 409.4 329.75 409.7 328 409.3 327.25 408.85 326.4 407.75 326.15 406.65 325.9 405.75 326.4 404.3 327.15 403.15 329.45 402 331.6 400.95 334.8
L 399.3 339.05 397.9 333
Q 397.8 332.35 397.55 331.7 397.35 331.3 396.45 330.05
M 392.5 341.95
Q 392.4 340.25 392.45 339.35 392.55 337.9 393.45 334.45 393.95 333 394.45 332.55 394.7 333.15 395 334.3
L 395.8 337.25
Q 396 338.15 396.35 340.05 396.75 341.7 397.25 342.75 397.95 344 398.8 344.55 400.05 345.2 401 344.5 401.55 344.15 401.7 343.6 401.8 343 401.45 342.5 401.4 342.4 401.35 342.35 401.4 342 401.55 341.55 403.55 335.65 406 330.55 406.05 336.55 406.45 339.35 406.55 340.75 407.05 341.5 405.95 342.15 406.15 342.85 406.25 343.3 407 343.6 408.5 344.45 408.7 344.55 409.6 345.15 409.9 345.9 410.2 346.6 410.15 347.8 410.15 349.7 409.9 350.65 409.6 352.1 408.15 354 406.25 356.75 404.45 357.95 402.45 359.4 399.05 360.2 397 360.75 394.8 361.05 393.2 361.3 392.4 360.95 391.75 360.65 391.1 359.95 390.15 358.85 389.6 357.55 390.25 356.95 391.6 355.75 392.75 354.7 393.8 354.25 394.1 354.1 394.8 353.75 395.3 353.45 395.65 353.05 396.15 352.5 395.95 351.6 395.9 351.4 395.85 351.25 396.1 350.85 396 350.4 395.05 349.9 393.3 350.55
L 392.1 351 392.5 341.95
M 378.2 326.7
Q 377.35 326.25 376.45 326.25 375.5 326.25 374.8 326.75
L 373.6 328.1
Q 373.35 328.4 371.95 329.5 370.95 330.35 370.55 331.1 369.95 332.35 370.55 333.8 371.1 335.15 372.35 335.95 373.8 336.9 375.65 336.85 377.45 336.85 378.9 335.85 379.9 335.15 380.45 334.15 381.65 332.15 381 329.9 380.25 327.6 378.2 326.7
M 377.4 329.75
Q 377.8 330.15 378.1 331.35
L 378.15 332
Q 378.05 332.4 377.35 332.9 376 333.85 375.2 333.75 374.55 333.7 373.6 332.95
L 373.35 332.65
Q 373.35 332.4 373.55 332.2 374.4 331.2 376.7 329.75 376.9 329.55 377.1 329.55 377.3 329.55 377.4 329.75 Z"/>

<path fill="#E57AED" stroke="none" d="
M 423 280.45
Q 421.25 279.2 418.6 278.7 417.1 278.35 413.85 278.1
L 405.1 277.5
Q 400.8 277.15 400.35 275.05 400.15 274.85 400 274.7 394.6 269.1 390.5 265.95 384.85 261.65 379.3 259.85 372.7 257.75 365.25 258.75 358.15 259.7 351.75 263.25 340.1 269.8 332 283.45 328.1 290 321.4 304.05 314.9 315.95 307.25 321.3 305.5 322.55 305.2 322.75 304.1 323.65 303.55 324.6 302.8 326 302.7 328.6 302.45 336.35 304.85 343.4 306.45 342.7 308.35 343.35 310.1 344 311.3 345.45 312.3 346.7 313.05 348.6 313.45 349.55 314.2 352.1 315.45 356.6 316.95 359.2 319.05 362.85 322.1 364.25 322.9 364.65 325.05 365.25 326.95 365.85 327.9 366.4 329.35 367.2 330 368.65 330.360546875 369.3986328125 330.35 370.05 329.9005859375 370.3912109375 329.2 370.7
L 329.75 371.25
Q 331.3 372.9 331.9 373.85 332.15 374.3 332.95 375.85 333.75 377.45 335.1 379.7 337.1 383.05 338.85 383.9 338.8 383.5 339 382.95 339.35 382.1 339.35 382.05 339.45 381.75 339.45 380.1 339.45 378.9 339.95 378.05 339.994140625 377.9765625 340.05 377.9 339.1322265625 377.1623046875 337.85 376.45 336.526171875 375.7017578125 335.5 375.4 336.188671875 374.558984375 337.4 374.2 338.65 373.8 339.95 374.05 341.6 374.35 344.6 376.2 349.95 379.55 353.1 380.5 355.65 381.2 358.9 381.25 361.05 381.3 364.8 381
L 371.9 380.35
Q 374.7 380.05 376.15 379.75 378.85 379.2 379.55 379.1 379.7234375 379.0306640625 379.95 379 380.103125 378.4306640625 380.5 378.1 381.1 377.6 381.9 377.75 382.7 377.9 383.25 378.55 383.818359375 379.194140625 384.05 380.5 384.1515625 380.9158203125 384.2 381.4 384.4 383.45 384.9 384.35 385.8818359375 383.7119140625 386.7 383.1 389.2927734375 381.28359375 390.5 379.85 390.7103515625 379.6046875 391.05 379.15 391.19375 378.9068359375 391.5 378.65 391.9548828125 378.1169921875 392.4 377.85 393 377.4 393.7 377.35 394.1474609375 377.3201171875 394.5 377.45 394.7822265625 377.072265625 395.1 376.8 395.95 376.15 396.75 376.6 396.95 376.7 397.1 376.9 398.05 376.65 398.7 376.4 400.45 375.75 403.7 373.9 404.5615234375 373.454296875 405.35 373.15 405.3607421875 372.3919921875 405.75 371.7 406.2 370.9 407 370.75 407.75 370.65 408.45 371.3 409.033984375 371.83515625 409.3 372.65 409.820703125 372.783203125 409.9 373.1 409.934375 373.2205078125 409.9 373.35 409.7263671875 373.4212890625 409.55 373.5 409.6201171875 373.8705078125 409.7 374.35 409.85 375.4 410.1 375.95 411.741015625 375.1623046875 412.95 373.6 413.5845703125 372.8134765625 414.1 371.8 414.4 371.3 414.9 370.15 415.4 369.2 415.95 368.7 416.7 368.1 417.7 368.1 418.0568359375 368.1 418.35 368.2
L 422.55 367.05
Q 423.75 366.65 424.25 366.35 424.95 365.95 425.75 364.95 428.95 361.35 431 357.05 431.8 355.2 432.65 354.5 433.35 353.85 434.7 353.6 435.4 353.5 436.1 353.55 436.2 353.4 436.3 353.3 437.25 352.45 438.45 352.5 439.2 352.55 440.4 353.15 441.75 353.8 442.35 353.95 443.25 354.15 445.05 353.75 449.1 352.85 452.8 351.2 454.5 350.4 455.25 349.8 455.75 349.35 457.1 347.8
L 459.3 344.95
Q 460.5 343.25 461.4 341.75
L 464.9 336.2
Q 466 334.45 466.95 333.85 468.1 332.55 469.85 332.35 471.05 332.2 473.25 332.6 475.6 332.95 476.6 332.95 477.9 332.95 478.9 332.35 480.1 331.6 480.15 330.5 480.25 328.95 478.15 327.45 473.35 324 467.4 322.85 467.05 322.8 457.45 322 451.45 321.5 448.05 319.55 444.65 317.6 441.9 313.4 440.35 311.05 437.75 305.5 433.25 295.95 427.7 286.35 425.2 282 423 280.45
M 408.25 296
Q 407.95 295.15 407.7 294.3 407.05 292.15 407.65 291.2 408.2 290.25 409.55 289.9 410.35 289.75 411.95 289.75 412.55 289.75 415.2 289.65 417.15 289.55 418.4 289.65 419.8 289.75 420.65 290.05 421.4 290.3 422.7 291.2 423.65 292 424.2 292.65 424.55 293.15 424.95 294
L 426.45 296.75
Q 427.4 298.6 428.1 300.6 428.5 301.75 428.65 302.7 428.8 303.7 428.8 304.6 428.8 306.8 428.5 307.6 428.25 308.3 427.75 308.95 427.8 309 427.85 309.1 431.7 314.3 436.45 318.6 437.45 319.5 438.1 319.6 438.15 319.6 438.2 319.65 438.2 319.75 438.2 319.9 438.2 321 438.85 322.15 441.1 326.4 440.3 329.95 439.8 332.3 437.6 334.85 434.85 337.7 433.55 339.1 431.2 341.65 428.75 345.75 426.1 350.55 424.7 352.9 420.95 359.45 417.15 362.25 414.55 364.1 408.55 366.3
L 396.75 370.55
Q 392.4 372.2 389.75 372.25 388.15 372.3 385.3 371.65 382.15 370.95 380.8 370.85 378.5 370.7 375.2 371.45 371.5 372.4 369.6 372.75 360.65 374.55 350.05 371.2 342.9 369 332.05 363 324.55 358.85 321.25 355.3 317.45 351.3 314.7 343.85 312.8 338.75 313.45 335.65 313.85 333.7 315.95 330.4
L 318.3 326.75 322.35 320.35 322.8 319.65
Q 323 319.7 323.2 319.7
L 323.25 319.7
Q 323.5 319.7 323.75 319.6 324.45 319.3 325.15 318.05 329.6 309.4 335.6 301.9 335.45 299.55 335.7 297.9 335.95 296.3 337.05 293.3 338.55 289.4 339.6 287.6 340.65 285.9 343.25 282.8 347 278.45 349.4 276.95 351.55 275.65 355.4 274.6 360.7 273.15 361.65 272.8 363.45 272.25 364.1 272.5 364.65 272.7 365.5 273.5 366.25 274 368.05 274.5 369.65 275.1 370.7 276.45 373.3 276.1 375.85 276.25 380.95 276.6 384.9 279 387.8 280.75 391.95 285.2 396.5 290.05 398.85 291.7 401.5 293.55 408.25 296 Z"/>

<path fill="#762583" stroke="none" d="
M 322.8 319.65
L 322.35 320.35
Q 322.85 319.85 323.25 319.7
L 323.2 319.7
Q 323 319.7 322.8 319.65
M 370.7 276.45
Q 370.75 276.55 370.85 276.65 372 278.2 372.15 280 372.3 281.8 371.4 283.9 370.85 285.2 369.45 287.5
L 365.75 293.4
Q 361.8 299.75 359.35 302.8 354.25 309.3 348.8 310.55 346.2 311.2 343.45 310.6 340.75 310 338.6 308.4 337.35 307.45 336.6 306.2 335.95 305.05 335.65 302.65 335.6 302.25 335.6 301.9 329.6 309.4 325.15 318.05 324.45 319.3 323.75 319.6 324.25 319.6 325.3 319.85 327.05 320.3 327.55 320.7 328.3 321.35 328.75 322.45 329.25 324.1 328.75 325.9 328.25 327.6 327.05 328.95 326.1 330.15 325.05 330.6 323 331.4 320.75 330.1 319.5 329.4 318.8 328.25 318.35 327.5 318.3 326.75
L 315.95 330.4
Q 313.85 333.7 313.45 335.65 312.8 338.75 314.7 343.85 317.45 351.3 321.25 355.3 324.55 358.85 332.05 363 342.9 369 350.05 371.2 360.65 374.55 369.6 372.75 371.5 372.4 375.2 371.45 378.5 370.7 380.8 370.85 382.15 370.95 385.3 371.65 388.15 372.3 389.75 372.25 392.4 372.2 396.75 370.55
L 408.55 366.3
Q 414.55 364.1 417.15 362.25 420.95 359.45 424.7 352.9 426.1 350.55 428.75 345.75 431.2 341.65 433.55 339.1 434.85 337.7 437.6 334.85 439.8 332.3 440.3 329.95 441.1 326.4 438.85 322.15 438.2 321 438.2 319.9 438.2 319.75 438.2 319.65 438.15 319.6 438.1 319.6 437.45 319.5 436.45 318.6 431.7 314.3 427.85 309.1 427.8 309 427.75 308.95 427.45 309.3 427.1 309.65 425.35 311.4 423.35 311.9 421.05 312.45 419 311.55 417.75 310.95 416.55 309.55 416 308.9 414.6 306.95 413.2 305.1 412.85 304.45
L 410.4 300.35
Q 409.2 298.5 408.25 296 401.5 293.55 398.85 291.7 396.5 290.05 391.95 285.2 387.8 280.75 384.9 279 380.95 276.6 375.85 276.25 373.3 276.1 370.7 276.45
M 376.45 326.25
Q 377.35 326.25 378.2 326.7 380.25 327.6 381 329.9 381.65 332.15 380.45 334.15 379.9 335.15 378.9 335.85 377.45 336.85 375.65 336.85 373.8 336.9 372.35 335.95 371.1 335.15 370.55 333.8 369.95 332.35 370.55 331.1 370.95 330.35 371.95 329.5 373.35 328.4 373.6 328.1
L 374.8 326.75
Q 375.5 326.25 376.45 326.25
M 395.3 329
Q 395.8 329.3 396.45 330.05 397.35 331.3 397.55 331.7 397.8 332.35 397.9 333
L 399.3 339.05 400.95 334.8
Q 402 331.6 403.15 329.45 404.3 327.15 405.75 326.4 406.65 325.9 407.75 326.15 408.85 326.4 409.3 327.25 409.7 328 409.4 329.75 408.7 334.9 409.85 340.1 409.85 340.15 409.9 340.2 410.25 340.1 410.6 340.15 411.5 340.3 412.45 340.75 414.55 341.8 415.2 342.8 415.7869140625 343.7 415.85 345.25 415.8716796875 345.6716796875 415.85 346.15 415.7927734375 347.8392578125 415.4 349.25 415.1201171875 350.359765625 414.65 351.3 414.15 352.5 412.55 354.45 410.7 356.7 410 357.3 408.9 358.35 406.7 359.6 404.4 361 402.05 361.95 398.65 363.3 393.15 364.3 390.75 364.75 389.5 364.6 387.15 364.35 385.4 362.25 383.8 360.4 383.4 357.8 383.25 356.4 383.55 355.6 384.15 354 387.3 352.8
L 389 352.2 389.35 342.95
Q 389.45 339.05 389.7 337.25 390.1 334.2 391.15 331.8 391.75 330.3 392.55 329.6 392.6 329.5 392.7 329.5 393.25 328.95 393.85 328.85 394.6 328.65 395.3 329
M 340.35 333.2
Q 340.35 332.8 340.55 332.5 340.75 332.2 341.05 332.25 341.4 332.3 341.6 332.9
L 342.65 335.9
Q 343.25 337.65 344.1 338.3 344.7 338.75 345.8 338.95 347.1 339.15 347.7 338.6 348.25 338.15 348.55 336.65 348.75 335.3 349.6 334.9 350.45 335.7 350.55 337.25 350.55 338.1 350.15 339.8 349.4 342.5 348.15 343 347.25 343.45 345.6 343.05 344.7 342.95 344.15 342.65 343.4 342.15 342.85 340.95 342.4 340.1 341.4 337.6 340.3 334.7 340.35 333.2
M 353.05 340
L 353.2 340
Q 353.2 340.4 353.5 341.15
L 353.65 341.9
Q 353.57421875 342.278515625 353.45 342.45 353.390625 342.4435546875 353.3 342.4 353.1447265625 340.804296875 353.05 340 Z"/>

<path fill="#54B997" stroke="none" d="
M 325.7 323.25
L 325.25 323.1
Q 324.45 323.1 323.7 323.55 322.85 324.05 321.7 325.8 321.4 326.1 321.35 326.35 321.35 326.75 321.85 327.05 322.75 327.75 323.35 327.7 323.9 327.7 324.6 327.1 325.2 326.4 325.45 325.95 325.9 325.15 325.95 324.5
L 325.85 323.7 325.7 323.25
M 378.1 331.35
Q 377.8 330.15 377.4 329.75 377.3 329.55 377.1 329.55 376.9 329.55 376.7 329.75 374.4 331.2 373.55 332.2 373.35 332.4 373.35 332.65
L 373.6 332.95
Q 374.55 333.7 375.2 333.75 376 333.85 377.35 332.9 378.05 332.4 378.15 332
L 378.1 331.35 Z"/>

<path fill="#850085" stroke="none" d="
M 353.2 340
L 353.05 340
Q 353.1447265625 340.804296875 353.3 342.4 353.390625 342.4435546875 353.45 342.45 353.57421875 342.278515625 353.65 341.9
L 353.5 341.15
Q 353.2 340.4 353.2 340 Z"/>

<path fill="#542583" stroke="none" d="
M 392.45 339.35
Q 392.4 340.25 392.5 341.95
L 392.1 351 393.3 350.55
Q 395.05 349.9 396 350.4 396.1 350.85 395.85 351.25 395.9 351.4 395.95 351.6 396.15 352.5 395.65 353.05 395.3 353.45 394.8 353.75 394.1 354.1 393.8 354.25 392.75 354.7 391.6 355.75 390.25 356.95 389.6 357.55 390.15 358.85 391.1 359.95 391.75 360.65 392.4 360.95 393.2 361.3 394.8 361.05 397 360.75 399.05 360.2 402.45 359.4 404.45 357.95 406.25 356.75 408.15 354 409.6 352.1 409.9 350.65 410.15 349.7 410.15 347.8 410.2 346.6 409.9 345.9 409.6 345.15 408.7 344.55 408.5 344.45 407 343.6 406.25 343.3 406.15 342.85 405.95 342.15 407.05 341.5 406.55 340.75 406.45 339.35 406.05 336.55 406 330.55 403.55 335.65 401.55 341.55 401.4 342 401.35 342.35 401.4 342.4 401.45 342.5 401.8 343 401.7 343.6 401.55 344.15 401 344.5 400.05 345.2 398.8 344.55 397.95 344 397.25 342.75 396.75 341.7 396.35 340.05 396 338.15 395.8 337.25
L 395 334.3
Q 394.7 333.15 394.45 332.55 393.95 333 393.45 334.45 392.55 337.9 392.45 339.35 Z"/>

<path fill="#F3BAFF" stroke="none" d="
M 343.25 282.8
Q 340.65 285.9 339.6 287.6 338.55 289.4 337.05 293.3 335.95 296.3 335.7 297.9 335.45 299.55 335.6 301.9 335.6 302.25 335.65 302.65 335.95 305.05 336.6 306.2 337.35 307.45 338.6 308.4 340.75 310 343.45 310.6 346.2 311.2 348.8 310.55 354.25 309.3 359.35 302.8 361.8 299.75 365.75 293.4
L 369.45 287.5
Q 370.85 285.2 371.4 283.9 372.3 281.8 372.15 280 372 278.2 370.85 276.65 370.75 276.55 370.7 276.45 369.65 275.1 368.05 274.5 366.25 274 365.5 273.5 364.65 272.7 364.1 272.5 363.45 272.25 361.65 272.8 360.7 273.15 355.4 274.6 351.55 275.65 349.4 276.95 347 278.45 343.25 282.8
M 366.7 277.3
Q 366.85 277.35 366.95 277.4 368.1 277.95 368.65 278.85 369.45 280.15 368.9 281.9 368.55 283.1 367.45 284.75
L 362.55 292.7
Q 358.35 299.55 355.4 302.7 351.9 306.65 348.15 307.5 344.55 308.3 341.35 306.5 339.95 305.7 339.3 304.7 338.75 303.8 338.55 302 338.45 300.2 339 297.85 344 292.15 349.9 287.1 358.75 279.7 366.3 277.4 366.5 277.35 366.7 277.3
M 407.7 294.3
Q 407.95 295.15 408.25 296 409.2 298.5 410.4 300.35
L 412.85 304.45
Q 413.2 305.1 414.6 306.95 416 308.9 416.55 309.55 417.75 310.95 419 311.55 421.05 312.45 423.35 311.9 425.35 311.4 427.1 309.65 427.45 309.3 427.75 308.95 428.25 308.3 428.5 307.6 428.8 306.8 428.8 304.6 428.8 303.7 428.65 302.7 428.5 301.75 428.1 300.6 427.4 298.6 426.45 296.75
L 424.95 294
Q 424.55 293.15 424.2 292.65 423.65 292 422.7 291.2 421.4 290.3 420.65 290.05 419.8 289.75 418.4 289.65 417.15 289.55 415.2 289.65 412.55 289.75 411.95 289.75 410.35 289.75 409.55 289.9 408.2 290.25 407.65 291.2 407.05 292.15 407.7 294.3
M 424.5 307.85
Q 423.7 308.75 422.6 308.95 420.95 309.25 419.25 307.9 418.5 307.3 416.95 305.05 414.4 301.15 413.3 299.2 412.8 298.3 412.35 297.4 420 300.1 423.35 303.4 424.35 304.4 425.55 305.95 425.25 307 424.5 307.85 Z"/>

<path fill="#E981FF" stroke="none" d="
M 366.95 277.4
Q 366.85 277.35 366.7 277.3 366.5 277.35 366.3 277.4 358.75 279.7 349.9 287.1 344 292.15 339 297.85 338.45 300.2 338.55 302 338.75 303.8 339.3 304.7 339.95 305.7 341.35 306.5 344.55 308.3 348.15 307.5 351.9 306.65 355.4 302.7 358.35 299.55 362.55 292.7
L 367.45 284.75
Q 368.55 283.1 368.9 281.9 369.45 280.15 368.65 278.85 368.1 277.95 366.95 277.4
M 422.6 308.95
Q 423.7 308.75 424.5 307.85 425.25 307 425.55 305.95 424.35 304.4 423.35 303.4 420 300.1 412.35 297.4 412.8 298.3 413.3 299.2 414.4 301.15 416.95 305.05 418.5 307.3 419.25 307.9 420.95 309.25 422.6 308.95 Z"/>

<path fill="#332301" stroke="none" d="
M 415.1 139.25
Q 413.8 139.25 413.35 140.25 412.75 141.75 415.55 143.15
L 418.25 144.35 416.75 152.4
Q 416.4 154.55 415.9 155.95 415.25 157.45 415.45 158.15 415.57734375 158.5958984375 415.95 158.9 415.769921875 159.2072265625 415.65 159.55 415.25 160.65 415.9 161.35 416.65 162.2 418 161.7 418.4 161.6 420 160.6 421.2 159.85 422.9 159.2 423.95 158.8 425.95 158.05 429.75 156.65 431.55 154.8 432.75 153.55 433.15 151.95 433.65 150.3 433.1 148.8 432.55 147.3 430.9 146.15 429.85 145.4 427.65 144.4
L 422.65 142.25
Q 422.7013671875 141.95546875 422.75 141.7 423.15 139.65 422.7 138.6 422.4 137.85 421.65 137.5 420.9 137.1 420.2 137.45 419.45 137.9 419.15 139.6
L 418.95 140.65 417.1 139.85
Q 415.8 139.25 415.1 139.25
M 421.45 147.95
Q 421.6771484375 146.9029296875 421.85 145.95
L 427.25 148.4
Q 429.05 149.2 429.3 150.3 429.5 151.3 428.2 152.5 426.6 153.95 422.55 155.25 421.27109375 155.65546875 420.2 156.05 420.354296875 155.3275390625 420.45 154.25 420.7 151.65 421.45 147.95
M 459 137.7
Q 458.629296875 137.801171875 458.35 138
L 460.15 137.85
Q 459.5794921875 137.534375 459 137.7
M 463.85 141.25
Q 463.75 139.75 463.3 138.95 463 138.45 462.5 138.15 461.95 137.8 461.4 137.95 459.8 138.25 459.9 141.3
L 460.3 149.55
Q 460.65 155.8 460.95 158 461.25 160.2 462.1 161.1 462.7 161.75 463.6 161.8 464.55 161.85 465.05 161.2 465.6 160.5 465.15 158.55 464.3 155.15 464.15 149.95 464.05 144.15 463.85 141.25
M 361.85 139.45
Q 361.6 138.15 360.7 137.15 359.8 136.1 358.55 135.7 356.5 135.05 355.3 136.3 354.7 136.95 354.8 137.9 354.95 138.9 355.75 139.2 354.05 143.45 352.85 148.4 352.25 150.75 352.85 152.05 353.4 153.3 354.9 153.8 356.25 154.3 357.75 154 359.8 153.6 361.1 152.2 363.2 149.95 362.6 146.25 362.05 144 361.95 142.9 362.05 140.55 361.85 139.45
M 358.45 144.1
Q 358.45 145.05 358.75 145.85 358.95 146.35 358.95 146.6 358.95 146.95 358.75 147.55 358.65 147.85 358.6 148.6 358.55 149.3 358.4 149.65
L 357.35 149.75
Q 356.6 149.85 356.45 149.3 356.7 148.95 357.05 147.45
L 358 144.05 358.45 144.1
M 324.75 139.25
Q 324.75 136.65 324.25 135.5 323.8 134.55 323 134 322.15 133.4 321.2 133.5 319.7 133.7 318.95 135.55 318.6 136.35 318.5 138.65
L 318.15 156
Q 318.05 160.05 318.9 162 319.6 163.65 320.9 164.25 322.1 164.85 323.75 164.45 324.75 164.2 326.6 163.35 329.7 161.8 333.95 160.3 338.95 158.65 338.95 155.9 338.95 155 338.4 154.25 337.8 153.45 336.9 153.25 335.75 152.9 333.8 153.6
L 324.65 156.55 324.75 139.25
M 384.1 137.6
Q 382.9 138.25 381.35 140.7 379.5 143.8 378.95 145.3 378.1 147.5 377.6 151.7
L 376.8 158.05
Q 376.6 159.65 376.85 160.4 377 161 377.5 161.4 378 161.8 378.55 161.75 379.85 161.7 380.4 159.45 380.8 157.75 381.1 154.85 381.194921875 153.74375 381.25 152.85
L 381.45 153 382.6 153.4 382.9 153.35
Q 383.8 153 383.9 152.85 384.65 152.2 384.3 151.2 384.15 150.65 383.55 150.3
L 383.1 150.1
Q 382.35 149.85 381.7 150.15 381.64921875 150.175390625 381.6 150.2 382.5 144.5 385.6 141.95 385.8 143.1 386.25 145.4 386.65 147.45 386.7 148.9 386.75 150.45 386.6 153.5 386.6 155.45 387.05 157.3 387.45 159.2 388.55 159.55 389.45 159.85 390.25 159 390.95 158.2 391 157.15 391.05 156.45 390.75 155.2 390.45 153.8 390.45 153.2 390.45 152.55 390.6 151.35 390.8 150.1 390.8 149.5 390.8 148.6 390.5 147.25 390.05 145.5 390 145 389.95 142.9 389.85 141.85 389.75 140.05 389.1 139 388.35 137.75 386.85 137.35 385.4 136.95 384.1 137.6
M 619.65 159.1
L 620.05 158.7
Q 620.45 158.05 620.2 157.3 620 156.6 619.25 156.3 618.5 155.9 617.7 156.2 616.85 156.55 616.75 157.45 616.75 157.95 617.05 158.95 617.25 159 617.85 159.25 618.35 159.5 618.65 159.45
L 619.65 159.1
M 646.55 154.4
L 646.45 153.85 646.1 153.45
Q 645.7 153.15 645.3 153 644.15 152.6 643.3 153.6
L 643.05 154.15
Q 643.05 154.3 643.15 155
L 643.3 155.55
Q 643.35 155.6 643.45 155.75 643.5 155.85 643.65 155.9
L 644.45 156.2 644.85 156.3 645.2 156.25
Q 645.9 156.05 646.25 155.75 646.75 155.2 646.55 154.4
M 591.05 157.7
Q 590.7 156.95 589.85 156.7 589.1 156.45 588.6 156.75 588 157 587.75 157.65 587.55 158.2 587.95 159.25 588.05 159.5 588.1 159.5
L 589 159.9 589.35 160 589.9 159.9
Q 590.6 159.65 590.8 159.5 591.55 158.85 591.05 157.7
M 493.85 137.8
Q 491.95 138.05 491.5 141.6 490.3 150.3 488.05 158.65 487.35 161.3 488.55 162.05 489.15 162.4 489.9 162.2 490.55 162 491.05 161.45 491.65 160.75 492.05 158.9
L 493.2 153.7
Q 494.5 156.7 495.05 157.5 496.35 159.55 498.1 159.95 499.8 160.4 501.5 159.2 503.1 158.15 503.85 156.35 504.5 154.85 504.7 152.75 504.7 152.5 504.85 149 505.15 145.5 505.2 143.75 505.25 140.75 504.55 138.65 503.95 136.85 502.7 136.7 502.1 136.65 501.55 137.1 501.05 137.5 500.85 138.15 500.55 139.1 500.85 140.7 501.6 147.35 500.5 153.75 500.2 155.5 499.25 155.6 498.45 155.65 497.85 154.7 496.95 153.3 497.05 150.65 497.2 147.1 497.05 146.3 496.95 145.5 496.4 144 495.85 142.45 495.7 141.65 495.6 140.1 495.4 139.35 494.95 137.95 493.85 137.8
M 537.55 148.05
L 546.65 137.3
Q 547.6 136.15 547.9 135.3 548.05 134.7 547.9 134.1 547.7 133.5 547.25 133.2 545.85 132.3 543.85 134.65
L 535.15 145.2
Q 532.15 148.85 532.4 151.3 532.8 154.45 537.35 156.45 540.75 157.9 543.3 157.6 545 157.4 547.55 156.15 550.65 154.6 551.7 154.3 552.1 154.2 553.5 153.85 553.96328125 153.7447265625 554.35 153.65 554.5658203125 154.6466796875 554.75 155.6 555.15 157.6 555 158.6 554.95 159 554.7 159.95 554.5 160.75 554.45 161.25 554.25 163.1 555.45 163.6 556.25 164 557.15 163.4 558 162.85 558.4 161.85 558.668359375 161.23671875 558.8 160.5 559.085546875 160.4900390625 559.35 160.35 559.4732421875 160.284765625 559.6 160.2 559.4341796875 159.93671875 559.3 159.65 559.1185546875 159.66484375 558.9 159.65 559.00859375 158.9107421875 558.95 158.05 558.85 156.65 558.25 154.05
L 557.65 151.6
Q 557.8666015625 151.3181640625 558 151 558.35 150.1 558.05 149.2 557.7 148.25 556.85 147.9 556.822265625 147.890234375 556.8 147.85
L 555.85 143.9
Q 555.4 141.2 554.15 140.9 553.45 140.7 552.75 141.25 552.1 141.8 551.9 142.6 551.65 143.55 552.3 145.65 552.7955078125 147.3689453125 553.2 148.95 550.6064453125 150.5349609375 547.95 151.7 544.8 153.05 542.8 153.2 540.7 153.4 538.55 152.7 536.65 152 536.4 150.8 536.2 149.75 537.55 148.05 Z"/>

<path fill="#31230F" stroke="none" d="
M 731.55 331.8
Q 731.5 332.15 731.55 332.5 731.7 333.25 732.25 333.35 732.7 333.55 733.6 333.1 733.9 332.95 734.25 332.75 735.3 332.25 736.9 331.6 736.45 331.55 736 331.35 734.9 330.75 733.55 329 732.3 329.95 731.75 331.15 731.6 331.45 731.55 331.8
M 755.1 314.85
Q 754.95 314.75 754.85 314.55 753.65 313.3 752.65 311.95 745.5 315.15 741.85 316.5 741.3 316.7 740.6 317.05 741.45 317.4 742.2 318.15 742.65 318.6 743.65 319.95 744.3 319.65 744.95 319.35
L 749.7 317.3
Q 748.5 315.95 747.3 314.45 747.35 314.25 747.75 314.15
L 748.35 314.25 749.55 314.85
Q 750.45 315.7 751.3 316.55
L 755.1 314.85
M 724.8 323.1
Q 724.2 323.45 723.75 323.75 721.55 325.2 721.05 327.15 720.95 327.95 721.25 328.1 721.55 328.25 722 328.05
L 725.35 326.9 730.75 325 729 322.45
Q 728.7 321.9 728.95 321.6 730.45 321.7 731.9 323.15 732.25 323.5 732.7 324.2
L 735.7 323.15 735.15 321.9
Q 734.45 320.45 734.15 319.65 735.4 319.35 736.4 320.35 736.9 320.75 737.95 322.35
L 737.95 322.4
Q 739.4 321.8 741.95 320.65
L 740.15 318.3
Q 739.8 317.8 739.55 317.5 737.55 318.2 734.9 319.2 729.55 321.1 727.95 321.65 726.1 322.35 724.8 323.1
M 772.9 294.85
L 772.3 295.15
Q 770.1 296.25 768.55 297.3 769.45 298.25 769.4 299.15 769.35 299.9 768.8 300.5 768.2 301.05 767.5 301.1 766.45 301.1 765.55 300.2 764.8 301.25 763.35 304.1 761.9 306.85 760.5 308.05 759.65 308.7 757.7 309.6 755.55 310.6 753.6 311.5 753.8 311.5 753.95 311.7 754.25 312 754.4 311.85 755.65 312.9 756.8 314.1 759.55 312.8 760.55 312 762.75 310.25 764.8 306.15 766.35 303.25 767.3 302.3 768.45 301.1 771.4 299.55
L 775.7 297.25
Q 777.4 296.4 778.45 296.55 779.6 296.85 780.75 298.4 782.65 301.1 783.45 304.35 777.2 309.6 768.65 314.05 762.05 317.4 752.3 321.2
L 746.3 323.55
Q 746.7 323.95 747.05 324.5 747.7 325.45 747.8 325.85 747.1 326.35 746.1 325.6 745.45 325.15 744.55 324.2
L 739.8 326
Q 740.3 327.05 740.65 327.9 741.15 328.7 741.15 329.35 739.6 329.45 738.5 328.15 738.15 327.7 737.55 326.9 736.15 327.45 735.15 327.95 736.35 329.65 737.7 331.2 743 328.95 752.75 325.2 764.85 320.45 771.4 316.45 772.15 316 776.45 313.2
L 781.35 309.85
Q 783.85 308.1 785.05 307 786.9 305.05 787.3 303.05 787.7 301.25 787 299.15 786.65 297.7 785.45 295.4 783.8 292.1 781.85 291.6 780.2 291.1 777.05 292.7
L 776.35 293.1
Q 776.55 293.8 776.25 294.4 776 295.1 775.15 295.45 774.35 295.85 773.55 295.5 773.3 295.35 772.9 294.85 Z"/>

<path fill="#000000" stroke="none" d="
M 729 322.45
L 730.75 325 733 328.2
Q 733.3 328.65 733.55 329 734.9 330.75 736 331.35 736.45 331.55 736.9 331.6 737.45 331.65 737.9 331.45 737.85 331.3 737.7 331.2 736.35 329.65 735.15 327.95 734.4 326.95 733.75 325.9 733.15 324.9 732.7 324.2 732.25 323.5 731.9 323.15 730.45 321.7 728.95 321.6 728.7 321.9 729 322.45
M 740.6 317.05
Q 740.1 316.85 739.5 316.8 739.4 317 739.55 317.5 739.8 317.8 740.15 318.3
L 741.95 320.65 742.5 321.4
Q 743.7 323.15 744.55 324.2 745.45 325.15 746.1 325.6 747.1 326.35 747.8 325.85 747.7 325.45 747.05 324.5 746.7 323.95 746.3 323.55 745.15 322.05 744.1 320.55 743.9 320.2 743.65 319.95 742.65 318.6 742.2 318.15 741.45 317.4 740.6 317.05
M 736.4 320.35
Q 735.4 319.35 734.15 319.65 734.45 320.45 735.15 321.9
L 735.7 323.15 737 325.6
Q 737.3 326.3 737.55 326.9 738.15 327.7 738.5 328.15 739.6 329.45 741.15 329.35 741.15 328.7 740.65 327.9 740.3 327.05 739.8 326 739 324.4 737.95 322.4
L 737.95 322.35
Q 736.9 320.75 736.4 320.35
M 749.7 317.3
Q 749.7 317.45 749.85 317.45 751.3 319.15 752.25 319.6 753.25 319.95 753.6 319.55 752.6 317.95 751.3 316.55 750.45 315.7 749.55 314.85
L 748.35 314.25 747.75 314.15
Q 747.35 314.25 747.3 314.45 748.5 315.95 749.7 317.3
M 756.8 314.1
Q 755.65 312.9 754.4 311.85 754.25 312 753.95 311.7 753.8 311.5 753.6 311.5 753.35 311.3 753.15 311.25 752.5 311.1 752.2 311.4 752.4 311.7 752.65 311.95 753.65 313.3 754.85 314.55 754.95 314.75 755.1 314.85 756.15 315.95 756.95 316.4 758.05 316.95 758.45 316.4 757.65 315.15 756.8 314.1
M 696.9 358.8
Q 696.25 358.45 695.45 358.6 694.75 358.8 694.35 359.4 694 360 694.1 360.75 694.2 361.55 694.7 361.95 695.25 362.4 696 362.35 696.8 362.3 697.3 361.8 697.9 361.25 697.9 360.2 697.8 359.3 697.05 358.8
L 697.05 358.85 696.9 358.8
M 687.6 355.9
Q 687.3 356.3 687.2 356.95 687.25 357.5 687.55 357.95 688.2 359.15 689.5 358.9 690.7 358.75 691 357.55 691.3 356.35 690.4 355.55 689.85 354.95 688.95 355.05 688.15 355.2 687.6 355.9 Z"/>

<path fill="#4C351D" stroke="none" d="
M 737.55 326.9
Q 737.3 326.3 737 325.6
L 735.7 323.15 732.7 324.2
Q 733.15 324.9 733.75 325.9 734.4 326.95 735.15 327.95 736.15 327.45 737.55 326.9
M 742.5 321.4
L 741.95 320.65
Q 739.4 321.8 737.95 322.4 739 324.4 739.8 326
L 744.55 324.2
Q 743.7 323.15 742.5 321.4
M 775.7 297.25
L 771.4 299.55
Q 768.45 301.1 767.3 302.3 766.35 303.25 764.8 306.15 762.75 310.25 760.55 312 759.55 312.8 756.8 314.1 757.65 315.15 758.45 316.4 758.05 316.95 756.95 316.4 756.15 315.95 755.1 314.85
L 751.3 316.55
Q 752.6 317.95 753.6 319.55 753.25 319.95 752.25 319.6 751.3 319.15 749.85 317.45 749.7 317.45 749.7 317.3
L 744.95 319.35
Q 744.3 319.65 743.65 319.95 743.9 320.2 744.1 320.55 745.15 322.05 746.3 323.55
L 752.3 321.2
Q 762.05 317.4 768.65 314.05 777.2 309.6 783.45 304.35 782.65 301.1 780.75 298.4 779.6 296.85 778.45 296.55 777.4 296.4 775.7 297.25
M 725.35 326.9
Q 725.9 328 727.3 329.15 729.3 330.7 731.55 331.8 731.6 331.45 731.75 331.15 732.3 329.95 733.55 329 733.3 328.65 733 328.2
L 730.75 325 725.35 326.9 Z"/>

<path fill="#666666" stroke="none" d="
M 692.3 341.2
Q 691.958984375 341.88203125 691.55 342.6 691.5515625 343.55625 692.1 344.9 693.7 349.05 695.1 351.65 697.05 355.2 699.55 357.35 701.85 359.35 703.55 358.7 704.7 358.25 704.9 357.1 705.05 356.3 704.5 354.65 702.1 348.7 698 343.85 696.5 342.15 695.4 341.5 693.7517578125 340.608984375 692.35 341.1 692.3208984375 341.1541015625 692.3 341.2
M 702.3 335.7
L 702.6 336.2
Q 701.8 335.95 700.95 335.9 701.2 336.65 701.1 337.85 700.85 339.55 700.85 339.95 700.85 341.8 702.75 344.25 703.9 345.85 705.4 347.4 706.6 348.65 707.25 349 708.25 349.4 710.45 349.25 710.5 348.75 710.4 348.2 710.4 348.05 710.4 347.8 710.05 345.5 708.45 341.85 706.3 336.85 703.55 335.75 702.7 335.3 702.3 335.7
M 708.25 330.4
Q 707.6 330.4 707.5 330.85 707.35 331.1 707.45 331.6 708.25 334.1 708.8 335.7 710 338.5 712.4 341.3 713.55 342.8 713.7 343.45 713.8 343.85 713.95 344.7 714.1 345.15 714.6 345.45 714.75 345.6 715.3 345.9 716.8 346.8 717.4 346.05 717.95 345.45 717.4 344.7 716.75 343.9 716.5 343.45 716.35 343.35 716 341.6 715.65 340.2 714.55 338.25 712.8 335.2 712.6 335.05 712.15 333.9 711.9 333.45 711.55 332.55 711.1 332.05 709.8 330.35 708.25 330.4 Z"/>

<path fill="#660000" stroke="none" d="
M 712.3 319.65
Q 710.9212890625 320.8318359375 709.9 321.4 709.379296875 321.7455078125 708.95 321.9 707.7 322.4 705.9 322.35 703.85 322.25 702.8 322.2 699.4 322.05 695.95 322.9 695.9576171875 323.1654296875 695.95 323.4 696.2697265625 325.307421875 696.35 326.35 696.5 328.55 696.15 330.25 695.856640625 331.59140625 695.15 332.2 695.6658203125 332.09609375 696.25 331.95 695.5478515625 332.266015625 694.95 332.5 694.7970703125 333.3240234375 694.6 334.15 693.567578125 338.378125 692.35 341.1 693.7517578125 340.608984375 695.4 341.5 696.5 342.15 698 343.85 702.1 348.7 704.5 354.65 705.05 356.3 704.9 357.1 704.7 358.25 703.55 358.7 701.85 359.35 699.55 357.35 697.05 355.2 695.1 351.65 693.7 349.05 692.1 344.9 691.5515625 343.55625 691.55 342.6 690.7193359375 344.1595703125 689.65 345.85
L 686.85 350.4
Q 685.6 352.5 685.45 353.55 685.35 354.4 685.9 356.65 686.9482421875 361.045703125 687.2 365.25 688.2208984375 365.8484375 689.15 366.3 694.15 368.75 698.65 369.05 703.85 369.65 708.5 367.4 713.45 364.95 715.2 360.5 716.2 357 716.7 355.3 717.6 352.15 719.2 350.75 720.9 349.4 723.9 349.1 725.65 349 729.2 349.05 734.15 348.9 738.7 346.4 743.2 343.95 746 339.9 744.9 339 742.9 339 740.6 339.25 739.5 339.3 735.6 339.6 729.4 337.1 724.9 335.3 723.25 333.35 721.35 331.35 720.8 328.5 720.25 325.75 720.75 322.9 721.4 319.35 722.95 317.15 724.25 315.25 727.35 312.7 730.75 310 731.95 308.4 723.714453125 309.9666015625 716.9 314.8 716.8857421875 314.858984375 716.85 314.9 715.8 316.25 715.2 316.9 714.995703125 317.1451171875 714.45 317.65 713.7193359375 318.378515625 712.3 319.65
M 707.5 330.85
Q 707.6 330.4 708.25 330.4 709.8 330.35 711.1 332.05 711.55 332.55 711.9 333.45 712.15 333.9 712.6 335.05 712.8 335.2 714.55 338.25 715.65 340.2 716 341.6 716.35 343.35 716.5 343.45 716.75 343.9 717.4 344.7 717.95 345.45 717.4 346.05 716.8 346.8 715.3 345.9 714.75 345.6 714.6 345.45 714.1 345.15 713.95 344.7 713.8 343.85 713.7 343.45 713.55 342.8 712.4 341.3 710 338.5 708.8 335.7 708.25 334.1 707.45 331.6 707.35 331.1 707.5 330.85
M 702.6 336.2
L 702.3 335.7
Q 702.7 335.3 703.55 335.75 706.3 336.85 708.45 341.85 710.05 345.5 710.4 347.8 710.4 348.05 710.4 348.2 710.5 348.75 710.45 349.25 708.25 349.4 707.25 349 706.6 348.65 705.4 347.4 703.9 345.85 702.75 344.25 700.85 341.8 700.85 339.95 700.85 339.55 701.1 337.85 701.2 336.65 700.95 335.9 701.8 335.95 702.6 336.2
M 687.2 356.95
Q 687.3 356.3 687.6 355.9 688.15 355.2 688.95 355.05 689.85 354.95 690.4 355.55 691.3 356.35 691 357.55 690.7 358.75 689.5 358.9 688.2 359.15 687.55 357.95 687.25 357.5 687.2 356.95
M 695.45 358.6
Q 696.25 358.45 696.9 358.8
L 697.05 358.85 697.05 358.8
Q 697.8 359.3 697.9 360.2 697.9 361.25 697.3 361.8 696.8 362.3 696 362.35 695.25 362.4 694.7 361.95 694.2 361.55 694.1 360.75 694 360 694.35 359.4 694.75 358.8 695.45 358.6
M 681.9 357
Q 681.810546875 356.578125 681.7 356.2 681.691015625 357.1595703125 681.8 358.25 681.912109375 359.37109375 682.2 361.25 682.3228515625 359.15625 681.9 357
M 617.15 338.55
Q 616.05 338.5 613.85 338.7
L 604.35 339.65
Q 603.05 339.85 602.95 340.5 603.6 341.15 605.35 341.05 606.25 341 607.15 340.95 606.9 342.35 607.2 343.3 607.4 344 608.2 345.2 609.95 347.7 610.35 348.15 610.95 348.75 611.35 348.95 611.45 349 612.95 349.55 614.15 350 614.2 350 614.65 350.05 615.6 349.9 615.9 349.9 616.8 349.95 617.55 350.05 618 349.95 618.6 349.85 619.45 349.35 620.6 348.6 620.8 348.5 621.2 348.3 622.05 347.95 622.7 347.55 622.8 347.55 622.95 347.5 623.35 347.4 623.6 347.25 623.7 346.7 624.3 346.7 625.7 346.5 626.4 346.4 626.7 346.15 626.95 345.95 626.9 345.75 626.85 345.55 626.5 345.45 625.9 345.25 625.4 344.8 624.8 344.25 624.1 343.1 623.25 341.7 622.95 341.3 621.75 339.8 619.6 339.05 618.2 338.6 617.15 338.55
M 611.45 345
Q 611.2 344.85 610.45 344.1 609.5 342.95 608.15 340.85 610.55 340.65 613.05 340.3 615.55 340 616.8 340.35 618.25 340.8 619.3 342.15
L 620.25 343.55
Q 620.5 344 620.7 344.35 619.7 344.85 619.4 345.05 618.45 345.75 618.4 345.75 617.85 346 616.85 345.95 615.45 345.9 615.2 345.9 614.2 346 614.05 346 613.75 345.95 613.15 345.65 611.6 345.1 611.45 345 Z"/>

<path fill="#330000" stroke="none" d="
M 723.8 305.8
Q 723.127734375 305.5953125 722.3 305.95 722.2564453125 305.971875 721.9 306.15 721.6947265625 306.3171875 721.3 306.55 721.0111328125 306.7431640625 720.6 307 720.05 307.35 718.25 308.25 716.75 309.05 715.95 309.65 715.05 310.35 714 311.7 712.3 313.8 712.15 313.95 710.95 315.2 708.65 316.95 707.45 317.95 706.65 318.1 706.1 318.25 704.1 318 701.11875 317.62734375 695.5 318.8 695.324609375 318.8646484375 695.1 318.9 695.1353515625 319.0021484375 695.15 319.1
L 695.8 322.45
Q 695.84140625 322.6892578125 695.85 322.9 695.9146484375 322.9087890625 695.95 322.9 699.4 322.05 702.8 322.2 703.85 322.25 705.9 322.35 707.7 322.4 708.95 321.9 709.379296875 321.7455078125 709.9 321.4 710.9212890625 320.8318359375 712.3 319.65 713.7193359375 318.378515625 714.45 317.65 714.995703125 317.1451171875 715.2 316.9 715.8 316.25 716.85 314.9 716.8857421875 314.858984375 716.9 314.8 723.714453125 309.9666015625 731.95 308.4 730.75 310 727.35 312.7 724.25 315.25 722.95 317.15 721.4 319.35 720.75 322.9 720.25 325.75 720.8 328.5 721.35 331.35 723.25 333.35 724.9 335.3 729.4 337.1 735.6 339.6 739.5 339.3 740.6 339.25 742.9 339 744.9 339 746 339.9 743.2 343.95 738.7 346.4 734.15 348.9 729.2 349.05 725.65 349 723.9 349.1 720.9 349.4 719.2 350.75 717.6 352.15 716.7 355.3 716.2 357 715.2 360.5 713.45 364.95 708.5 367.4 703.85 369.65 698.65 369.05 694.15 368.75 689.15 366.3 688.2208984375 365.8484375 687.2 365.25 687.31484375 367.308984375 687.25 369.3 687.191796875 370.7564453125 686.8 371.65 688.8216796875 372.5759765625 690.35 373.1 695.8 374.95 700.4 374.45 707.05 373.65 712.2 368.35 716.65 363.9 719.25 356.85 719.85 355.35 720.4 354.85 721.2 354.2 723.45 354.3 731.6 354.65 738.95 350.05 746.25 345.55 749.45 338.1 750.3 336.35 749.75 335.4 749.25 334.3 747 334.05 745.8 334 742.55 333.85 739.6 333.8 738 333.6 736.05 333.35 734.25 332.75 733.9 332.95 733.6 333.1 732.7 333.55 732.25 333.35 731.7 333.25 731.55 332.5 731.5 332.15 731.55 331.8 729.3 330.7 727.3 329.15 725.9 328 725.35 326.9
L 722 328.05
Q 721.55 328.25 721.25 328.1 720.95 327.95 721.05 327.15 721.55 325.2 723.75 323.75 724.2 323.45 724.8 323.1
L 724.65 321.55
Q 724.55 320.7 724.6 320.15 724.85 318.2 727.3 316.15 730.8 313.65 732.55 312.3 735.6 310 736.95 307.8 737.6 306.7 737.7 305.75 737.9 304.55 737.2 303.85 736.45 303 734.05 303.1 730.45 303.4 728.1 303.9 727.5 304.3 726.75 304.55 725.6 304.9 724.55 305.4 724.15 305.55 723.8 305.8 Z"/>

<path fill="#5C0023" stroke="none" d="
M 721.9 306.15
Q 722.004296875 305.842578125 722.05 305.5 721.6826171875 306.0232421875 721.3 306.55 721.6947265625 306.3171875 721.9 306.15
M 682.75 281.85
Q 681.75 279 679.95 278.75 679.4 278.65 678.35 278.95 677.2 279.25 676.75 279.25 675.6 279.3 674.6 278.55 673.7 277.85 673.15 276.7 672.65 275.55 672.3 272.1 671.15 258.3 663.7 251.05 659.4 246.9 653.4 245.9 647.15 244.8 642.5 247.95 640.55 249.2 638.7 251.45 637.55 252.85 635.6 255.65 634.25 257.65 633.65 258.9 632.75 260.8 632.7 262.45 631.5 263 630.1 262.25 628.9 261.55 628.1 260.2 627.8 259.75 626.9 257.65 626.2 256.1 625.5 255.3 623.8 253.45 619.45 252.75 610.8 251.5 602.05 253.05 593.3 254.65 585.7 258.9 582.4 260.7 581.2 262.6 579.35 265.45 580.4 269.35 580.75 270.65 581.5 273.3 581.9 275.6 580.8 276.8 579.6 278.15 576.65 277.95 575.2 277.85 572.75 277.45 569.95 276.95 568.8 276.85 563.95 276.4 561.15 278.35 558.35 280.4 557.15 285.3 555.95 290 556.9 293.8 557.45 295.95 558.75 297.7 560.1 299.5 562.05 300.35 562.7 300.65 564 301.1 565.15 301.55 565.7 302.15 566.787890625 303.3740234375 566.6 305.1 567 305.35 567 306.15 567.05 307.15 566.55 308.35 566.25 308.95 565.9 309.05 565.7 309.15 565.2 309.05 564.6869140625 308.962890625 564.2 308.85 563.9595703125 309.0587890625 563.45 309.35 562.85 309.65 562.6 310 562.05 310.65 562 310.7 561.8640625 310.760546875 561.7 310.75 561.7 310.91015625 561.7 311.05 561.05 311.55 560.4 312.15 560.2 312.3 560.05 312.45 559.55 312.9 559.15 313.3
L 555 317.3
Q 554.5 317.9 554.1 318.45 553.35 317.85 551.5 317.75 551 317.65 550.55 317.55 549.85 317.35 549.15 317.3 547.1 316.9 545.85 316.9 542.2 316.9 540.85 319.2 540.1 320.4 540.2 323.5 540.55 327.7 541.15 329.65 542.05 332.05 543.6 333.45 544.15 334 544.9 334.4 545.6 334.75 547.45 335.3 549.2 335.75 550 336.3 551.3 336.95 553 339.25 553.4 339.7 553.8 340.2 554.8 341.6 555.65 342.5 557.8 343.2 559.1 343.4 561.7 343.7 566.65 342.55 567.55 342.35 567.95 342.6 568.2 342.35 568.45 342.25 569.52578125 341.5626953125 570.95 341.1 571.59609375 342.1578125 572.55 343.35 573.05 343.95 573.05 344.3 573.1 344.55 572.75 345.25 570.25 350.35 570.8 357.95 571.1 362.2 572.55 364.45 573.9 366.5 576.95 368.1 578.7 369.05 582.3 370.65 583.4 371.2 583.75 371.85 584.1 372.5 583.9 374.15 583.65 376.25 583.95 378.2 584.15 379.5 584.75 380 585.1 380.3 586.3 380.5 589.15 380.8 590.5 380.3 591.35 380 593.05 378.6 596.55 375.55 597.45 374.7 598.95 373.2 599.75 371.9 600.45 372.35 601.5 372.65 602.35 372.9 604.15 373.35 606.35 374 609.65 375.8 613.75 378 615 378.55 620.25 380.8 626.15 380.5 632.1 380.15 637.1 377.35 637.25 377.25 638.5 376.5 638.6 376.9 638.8 377.3 639.25 378.2 640.35 379.4
L 642.85 382.2
Q 644.8 384.25 646.15 384.6 647.15 384.9 647.65 384.3 647.85 384.1 647.95 383.65 648.05 383.1 648.1 382.85 648.2 382.4 649.3 380.85 650.05 379.8 650.4 378.3
L 650.85 376.2
Q 651.1 375.5 652 374.3 654.85 370.7 658.35 367.85 659.45 366.95 659.75 366.6 660.3 366.05 660.55 365.45 662.1 365.15 663.8 365.15 667.85 365.25 671.05 367.25 672.15 367.9 673.8 369.3 675.7 370.9 676.45 371.4 679.3 373.5 683.05 374.45 685.1 374.95 686.05 374.05 686.4974609375 373.63046875 686.65 372.85 686.855859375 372.6849609375 687 372.45 686.9205078125 372.0646484375 686.8 371.65 687.191796875 370.7564453125 687.25 369.3 687.31484375 367.308984375 687.2 365.25 686.9482421875 361.045703125 685.9 356.65 685.35 354.4 685.45 353.55 685.6 352.5 686.85 350.4
L 689.65 345.85
Q 690.7193359375 344.1595703125 691.55 342.6 691.958984375 341.88203125 692.3 341.2 692.3208984375 341.1541015625 692.35 341.1 693.567578125 338.378125 694.6 334.15 694.7970703125 333.3240234375 694.95 332.5 695.5478515625 332.266015625 696.25 331.95 695.6658203125 332.09609375 695.15 332.2 695.856640625 331.59140625 696.15 330.25 696.5 328.55 696.35 326.35 696.2697265625 325.307421875 695.95 323.4 695.9576171875 323.1654296875 695.95 322.9 695.9146484375 322.9087890625 695.85 322.9 695.84140625 322.6892578125 695.8 322.45
L 695.15 319.1
Q 695.1353515625 319.0021484375 695.1 318.9 695.324609375 318.8646484375 695.5 318.8 695.2712890625 317.42265625 694.85 316.15 693.8 313.55 693.3 312.2 692.4 309.85 692.25 308.15 692.2 307.05 692.15 306.5 692.05 305.6 691.8 304.95 691.579296875 304.398046875 691.15 304 690.7775390625 302.3302734375 690.45 300.6 690.436328125 300.55078125 690.4 300.5 687.2 295.8 682.1 295.1 683.45 292 683.65 288.55 683.8 285.05 682.75 281.85
M 649.15 251.55
Q 653.4 250.95 657.75 252.9 661.8 254.8 664.65 258.35 669.6 264.55 670.5 274.8 670.6 275.9 670.8 278 671 279.85 671.5 281.1 672.15 282.7 673.3 283.75 674.6 284.9 676.15 285 677.1 285.05 679.1 284.85 680.8 284.85 681.3 285.9 681.75 286.8 680.9 288.75 679.25 292.9 679.7 297.45 679.9 299.65 680.95 300.6 681.7 301.2 683.2 301.45 685.3 301.75 685.65 301.85 687.127734375 302.38046875 688.45 304.25 687.989453125 305.082421875 688.05 306.75 688.25 310.15 688.55 311.35 688.9 312.8 690.25 315.95 690.8623046875 317.4296875 691.25 318.6 691.094921875 319.4517578125 691.3 320.75 691.506640625 321.8654296875 691.85 323.85 691.834375 324.8748046875 691.7 326.05 691.5755859375 327.130859375 691.4 328.15 691.2634765625 328.64140625 691.1 329.1
L 691.1 330.05
Q 689.2765625 339.953515625 684.35 346.55 682.65 348.85 682.45 349.15 681.5 350.7 681.3 352.05 681.15 353.1 681.4 354.55 681.51171875 355.1455078125 681.7 356.2 681.810546875 356.578125 681.9 357 682.3228515625 359.15625 682.2 361.25 682.0755859375 364.1716796875 680.95 367 680.556640625 368.106640625 680.35 368.75 680.273828125 368.7783203125 680.2 368.8 678.1 369.45 675.55 366.9 673.078125 364.45234375 671.3 361.3 669.5802734375 360.090625 668 359.55 663.45 357.95 657.25 360.6 655.4 361.4 652.3 363.1 648.9 364.95 647.4 365.65 642.75 367.5 640.5 368.65 639.5 369.15 636.25 371.1 633.65 372.65 631.9 373.35 627.5 375.1 622.15 374.45 617.35 373.85 612.5 371.45 608.95 369.6 607.15 368.7 603.95 367.1 601.55 366.6 600.65 366.4 599.95 366.45 599.7 366.1 599.35 365.8
L 597.7 367.6
Q 593.8 371.7 591.55 373.35 588.9 375.35 587.25 374.2 586.9 374.55 586.3 374.55 586.85 371.9 586.95 370.55 587.25 368.1 586 366.8 585.5 366.25 584 365.5
L 578.05 362.75
Q 574.6 361.1 573.65 359.45 572.75 357.75 573 355.15 573.15 353.55 573.8 351.9 575.3 349.05 575.75 347.55 576.6 344.4 574.9 340.9 574.884375 340.8646484375 574.85 340.8 574.835546875 340.7548828125 574.8 340.65 574.776953125 340.6302734375 574.75 340.55
L 575.2 339.65
Q 575.9 339.75 576.6 339.85
L 576.65 339.8
Q 577.75 339.9 578.9 340.05 578.7 339.9 578.6 339.75 579.15 339.7 579.7 339.65 580.55 339.4 581.25 339.55 583 339.75 584.65 339.55 585 339.4 585.3 339.35 585.5 339.4 585.7 339.45 586.95 339.2 588.25 338.85 588.45 338.75 588.75 338.65 589.7 338.35 590.65 338
L 595.65 332.7
Q 596 332.35 596.3 331.95 596.75 331.8 597.25 331.25 598.55 329.6 599.4 327.2 599.95 325.45 600.45 322.65 601.15 318.7 601 316 600.85 312.8 599.7 309.9
L 599.7 309.85 597.9 309.6
Q 595.5 309.15 594.05 309.35 591.9 310.65 590.8 311.5 589.45 312.7 588.65 313.35 587.25 314.3 586.1 314.6 583.9 315.25 580.65 313.95 579.3 313.4 576.8 312.05 575.831640625 311.5447265625 575.05 311.15
L 575.05 311.2
Q 574.7 311.4 573.85 311.2 572.3392578125 310.7916015625 571.55 310.25
L 571.5 310.25
Q 571.2 310.3 570.95 310.2 570.7 310.05 570.5 309.85 570.25 309.65 570 309.25 569.5 309.1 568.95 309.05 568.85 309 568.8 309.2 568.7169921875 309.2103515625 568.65 309.2 568.702734375 308.90546875 568.75 308.6 568.8708984375 307.93203125 568.9 307.35 568.9259765625 306.8294921875 568.9 306.25
L 569 306.25
Q 569.18828125 303.530859375 568.4 301 567.3 297.55 564.65 295.7 564.45 295.55 562.2 294.25 560.7 293.4 560 292.5 558.95 291.1 559.1 289.2 559.2 287.35 560.3 285.95 562.45 283.2 566.45 282.95 567.65 282.85 574.2 283.6 578.9 284.1 581.4 282.55 584.15 280.8 584.7 277.15 585.25 273.65 583.65 270.5 583 269.25 583 269.15 582.65 268.35 582.8 267.75 583 266.55 584.95 265.45 592.45 261.2 601 259.4 609.55 257.6 618.15 258.4 622.6 258.9 624.35 260.6 625.2 261.45 626.05 263.05 627.4 265.75 627.45 265.8 628.3 267.25 629.5 268.05 630.95 269 632.3 268.6 633.6 268.25 634.45 266.7 634.9 265.95 635.7 263.8 637.4 259.1 640.85 255.8 644.6 252.25 649.15 251.55
M 649.1 371.5
Q 648.85 372 648.75 372.45
L 648.4 374.1
Q 648.25 374.8 647.65 375.85 646.8 377.8 646.55 378.5 645.8 379 644.65 377.95 642.9 376.45 641.4 374.65 643.5 373.3 645.1 372.7 645.75 372.45 647.8 371.9 648.5 371.7 649.1 371.5
M 557 321.3
Q 557.1 321.1 558.25 320.15
L 559.95 318.85
Q 562 317.2 563.35 316.55 563.95 316.25 564.55 316.1 564.9 315.95 565.3 315.85 565.3 315.65 565.3 315.6 566.45 315 567.4 314.8 569.8 314.3 572.8 315.45 573.85 315.9 578 318 580.2 319.2 581.95 319.85 584.8 321 586.6 320.8 587.95 320.6 589.4 319.7 589.9 319.3 591.9 317.75 594.75 315.4 598.25 313.6 598.35 316.75 597.75 319.9 597 323.7 595.45 325.45
L 594.8 326.35 589.2 332.05
Q 588.6 332.2 587.6 332.7 586.95 333.1 586.05 333.4 583.15 334.4 578.05 334.35 571.15 334.3 568.35 335.7 567.6 336.05 565.6 337.25 563.95 338.4 562.8 338.75 560.85 339.45 558.65 338.85 556.7 338.35 555.2 336.8 554.7 336.3 553.9 335.2 553 333.8 552.7 333.45 552.35 332.9 551.85 332.45 550.3 330.8 548.1 330 546.5 329.5 545.5 329.1 545.05 328.85 544.65 328.7 542.6 327.65 542.65 325.9 542.7 324.85 543.45 324.05 544.15 323.15 545.25 322.85 546.25 322.6 548.25 322.85 548.75 322.9 549.45 323
L 552.25 323.6
Q 553.45 323.15 553.85 323 555.55 322.3 556.8 321.55
L 557 321.3
M 574.6 340.35
L 574.6 340.4
Q 574.5830078125 340.383203125 574.55 340.35 574.56953125 340.3576171875 574.6 340.35
M 643.35 317.9
Q 642.4 319.2 640.2 321.6 639.66171875 322.13828125 639.4 322.3 639.37578125 322.3345703125 639.35 322.35 638.55 322.75 638.5 322.8 638.1 323.55 637.8 323.75 637.6 323.9 637.3 323.95
L 636.75 324.05
Q 636.4515625 324.1138671875 636.2 324.25 635.2541015625 324.7017578125 634.9 326 634.804296875 326.3345703125 634.75 326.75 634.663671875 327.6236328125 634.8 328.85 634.858203125 329.5474609375 634.95 330.05 635.0744140625 330.3986328125 635.2 330.65 635.4 331.05 635.95 331.8
L 636.8 333.2
Q 636.956640625 333.356640625 637.2 333.5 637.572265625 333.8154296875 638.15 334.15 638.2255859375 334.200390625 638.6 334.55 638.9798828125 334.9298828125 639.65 335.6 640.4 336.25 642 337
L 643.7 337.8
Q 644.2 338.1 644.55 338 644.85 337.85 645.05 337.2 645.3 335.65 645.2 334.7 645.1 333.55 644.6 332.9 644.2 332.35 643.35 331.9 642.4 331.45 641.9 331.2 640.4 330.5 639.1 329.1 639.2 329 640.4 328.05 641.08359375 327.4640625 642.15 326 642.1744140625 325.9849609375 642.2 325.95 642.65 325.45 643.6 324.5 643.85 324.25 644.85 322.6 645.55 321.5 647.1 319.5 648.4 317.55 648.35 315.9 648.35 314.95 647.8 313.55 647.5 312.9 647.1 312.9 646.85 312.9 646.55 313.3 645.85 314.1 644.9 315.6 643.75 317.35 643.35 317.9
M 571.25 310.05
Q 571.35 310.15 571.45 310.25
L 571.45 310.2
Q 571.4369140625 310.1677734375 571.4 310.1 571.3263671875 310.10078125 571.25 310.05 Z"/>

<path fill="#CC3300" stroke="none" d="
M 558.25 320.15
Q 557.1 321.1 557 321.3
L 556.8 321.55
Q 555.55 322.3 553.85 323 553.45 323.15 552.25 323.6
L 549.45 323
Q 548.75 322.9 548.25 322.85 546.25 322.6 545.25 322.85 544.15 323.15 543.45 324.05 542.7 324.85 542.65 325.9 542.6 327.65 544.65 328.7 545.05 328.85 545.5 329.1 546.5 329.5 548.1 330 550.3 330.8 551.85 332.45 552.35 332.9 552.7 333.45 553 333.8 553.9 335.2 554.7 336.3 555.2 336.8 556.7 338.35 558.65 338.85 560.85 339.45 562.8 338.75 563.95 338.4 565.6 337.25 567.6 336.05 568.35 335.7 571.15 334.3 578.05 334.35 583.15 334.4 586.05 333.4 586.95 333.1 587.6 332.7 588.6 332.2 589.2 332.05
L 594.8 326.35 595.45 325.45
Q 597 323.7 597.75 319.9 598.35 316.75 598.25 313.6 594.75 315.4 591.9 317.75 589.9 319.3 589.4 319.7 587.95 320.6 586.6 320.8 584.8 321 581.95 319.85 580.2 319.2 578 318 573.85 315.9 572.8 315.45 569.8 314.3 567.4 314.8 566.45 315 565.3 315.6 565.3 315.65 565.3 315.85 564.9 315.95 564.55 316.1 563.95 316.25 563.35 316.55 562 317.2 559.95 318.85
L 558.25 320.15
M 565.6 317.4
Q 565.8 317.35 566 317.25 567.2 316.85 567.95 317.15 568.2 317.25 568.75 317.7 568.85 317.7 570.65 318.25 571.1 318.4 573.05 319.15 574.9 320.15 575.5 320.6 575.75 320.75 576.7 321.75 577.7 323.1 577.9 324.05 578.15 325.15 577.5 326.5 577.25 327 576.9 327.55 576.25 328.45 575.35 329 574.2 329.35 573.55 329.55
L 571.95 330.3
Q 569.75 331.3 566.1 332.1 560.8 333.1 560 333.25 557.45 333.8 556.9 333.8 555.7 333.7 554.7 333.2 552.8 332.25 552.2 330.7 551.65 329.5 552.05 328.1 552.35 326.7 553.25 325.65 553.85 324.7 554.95 323.7 555.7 323.05 557.1 321.9 558.7 320.35 559.5 319.8 560.55 319.15 562.25 318.6
L 565.6 317.4 Z"/>

<path fill="#FF6600" stroke="none" d="
M 566 317.25
Q 565.8 317.35 565.6 317.4
L 562.25 318.6
Q 560.55 319.15 559.5 319.8 558.7 320.35 557.1 321.9 555.7 323.05 554.95 323.7 553.85 324.7 553.25 325.65 552.35 326.7 552.05 328.1 551.65 329.5 552.2 330.7 552.8 332.25 554.7 333.2 555.7 333.7 556.9 333.8 557.45 333.8 560 333.25 560.8 333.1 566.1 332.1 569.75 331.3 571.95 330.3
L 573.55 329.55
Q 574.2 329.35 575.35 329 576.25 328.45 576.9 327.55 577.25 327 577.5 326.5 578.15 325.15 577.9 324.05 577.7 323.1 576.7 321.75 575.75 320.75 575.5 320.6 574.9 320.15 573.05 319.15 571.1 318.4 570.65 318.25 568.85 317.7 568.75 317.7 568.2 317.25 567.95 317.15 567.2 316.85 566 317.25
M 665.35 296.75
Q 663.55 292.45 662.9 289.95 662.2 286.7 661.85 285.1 661.15 282.25 660.1 280.55 658.15 277.5 654.15 276.1 650.7 274.9 646.4 275.1 644.75 275.15 638.7 275.9 634 276.5 631.05 276.25 628.95 276.05 625.8 275.3 621.15 274.15 620.65 274.05 618.1 273.55 613.1 273.15 608.8 272.75 606.4 273.25 603.4 273.95 600.25 276.35 598.55 277.65 594.95 281.15 590.65 285.3 586.4 288.75 583.4 291.2 582.6 291.95 580.55 293.85 579.45 295.7 577.35 299.1 576.55 306 576.4107421875 307.253515625 576.2 307.9
L 575.9 308.4
Q 575.8529296875 308.9521484375 575.55 310.25 575.3587890625 310.9671875 575.05 311.15 575.831640625 311.5447265625 576.8 312.05 579.3 313.4 580.65 313.95 583.9 315.25 586.1 314.6 587.25 314.3 588.65 313.35 589.45 312.7 590.8 311.5 591.9 310.65 594.05 309.35 595.5 309.15 597.9 309.6
L 599.7 309.85 599.7 309.9
Q 600.85 312.8 601 316 601.15 318.7 600.45 322.65 599.95 325.45 599.4 327.2 598.55 329.6 597.25 331.25 596.75 331.8 596.3 331.95 596 332.35 595.65 332.7
L 590.65 338
Q 589.7 338.35 588.75 338.65 588.45 338.75 588.25 338.85 588.3328125 338.960546875 588.4 339.05
L 587.2 339.55
Q 586.728515625 339.7494140625 586.35 339.9 585.7548828125 340.26328125 585.5 340.55 585.15 340.9 584.7 342.25 584.6720703125 342.3619140625 584.65 342.45 584.448828125 342.461328125 584.25 342.45 584.25 342.549609375 584.25 342.65 584.25 342.7 584.1 343.9
L 584.05 344.75
Q 584.05 345.2 583.9 346.05
L 583 351.6
Q 583.45 353.05 584.6 354.05 585.25 354.5 585.5 354.85 585.85 354.9 586.25 355.05
L 589.35 356
Q 589.65 356.1 589.95 356.2 590.35 356.2 590.8 356.25 596.55 356.9 611.45 359.2 616.05 359.9 617.95 360.1 621.6 360.5 624.45 360.45 633.75 360.3 643.65 355.65 651.75 351.85 660.65 344.8 664.85 341.45 667.2 338.75 670.35 335 671.35 331.15 671.95 328.9 672.05 324.3 672.15 318.55 671.7 315.7 671.2 312.25 669.25 307 668.05 303.55 665.35 296.75
M 651.75 277.45
Q 653.3 277.65 654.25 278.2 655.25 278.85 656 280.4 657 282.45 657.7 286.65
L 658.25 289.85
Q 658.65 292.25 658.45 293.45 657.9 295.85 654.25 298.6 651.95 300.4 650.7 301.15 647.55 302.95 644.1 303.3 640.5 303.4 638.8 303.9 636.85 304.7 635.9 305.05 634.2 305.7 632.95 305.4 631.2 305 629.8 302.85 628.5 300.4 627.65 299.3 627.15 298.65 626.35 297.8 625.4 296.85 624.9 296.35 623.05 294.3 622 291.7 621.5 290.4 621.6 289.6 621.65 288.65 622.5 287.45 625 284.05 631.55 281.65 634.55 280.55 640.75 278.75 642.95 278.15 644.1 277.95
L 646.1 277.7
Q 649.9 277.3 651.75 277.45
M 668.6 319.9
Q 668.6 320.95 668.55 321.15
L 668.3 322.25
Q 668.25 322.55 668.35 323.3 668.45 323.95 668.35 324.35 668.1 325.4 666.6 325.9 665.65 326.25 663.05 326.45 661.5 326.55 660.75 326.3 659.25 325.85 658.25 324.3 657.85 323.65 656.9 321.35 656.6 320.55 656.6 320.1
L 656.5 319.25 656.25 318.3
Q 656.05 317.35 656.5 316.1 656.95 314.85 658.35 312.9 659.9 310.65 660.35 309.75 661 308.45 661.35 308.1 662.2 307.4 663.25 307.65 664.3 307.9 665.4 309.55 666.25 310.85 666.35 311.2 666.6 311.8 666.9 313.05
L 667.35 313.9
Q 668.4 315.8 668.6 319.9
M 640.2 321.6
Q 642.4 319.2 643.35 317.9 643.75 317.35 644.9 315.6 645.85 314.1 646.55 313.3 646.85 312.9 647.1 312.9 647.5 312.9 647.8 313.55 648.35 314.95 648.35 315.9 648.4 317.55 647.1 319.5 645.55 321.5 644.85 322.6 643.85 324.25 643.6 324.5 642.65 325.45 642.2 325.95 642.1744140625 325.9849609375 642.15 326 641.08359375 327.4640625 640.4 328.05 639.2 329 639.1 329.1 640.4 330.5 641.9 331.2 642.4 331.45 643.35 331.9 644.2 332.35 644.6 332.9 645.1 333.55 645.2 334.7 645.3 335.65 645.05 337.2 644.85 337.85 644.55 338 644.2 338.1 643.7 337.8
L 642 337
Q 640.4 336.25 639.65 335.6 638.9798828125 334.9298828125 638.6 334.55 638.2255859375 334.200390625 638.15 334.15 637.572265625 333.8154296875 637.2 333.5 636.956640625 333.356640625 636.8 333.2
L 635.95 331.8
Q 635.4 331.05 635.2 330.65 635.0744140625 330.3986328125 634.95 330.05 634.858203125 329.5474609375 634.8 328.85 634.663671875 327.6236328125 634.75 326.75 634.804296875 326.3345703125 634.9 326 635.2541015625 324.7017578125 636.2 324.25 636.4515625 324.1138671875 636.75 324.05
L 637.3 323.95
Q 637.6 323.9 637.8 323.75 638.1 323.55 638.5 322.8 638.55 322.75 639.35 322.35 639.37578125 322.3345703125 639.4 322.3 639.66171875 322.13828125 640.2 321.6
M 613.85 338.7
Q 616.05 338.5 617.15 338.55 618.2 338.6 619.6 339.05 621.75 339.8 622.95 341.3 623.25 341.7 624.1 343.1 624.8 344.25 625.4 344.8 625.9 345.25 626.5 345.45 626.85 345.55 626.9 345.75 626.95 345.95 626.7 346.15 626.4 346.4 625.7 346.5 624.3 346.7 623.7 346.7 623.6 347.25 623.35 347.4 622.95 347.5 622.8 347.55 622.7 347.55 622.05 347.95 621.2 348.3 620.8 348.5 620.6 348.6 619.45 349.35 618.6 349.85 618 349.95 617.55 350.05 616.8 349.95 615.9 349.9 615.6 349.9 614.65 350.05 614.2 350 614.15 350 612.95 349.55 611.45 349 611.35 348.95 610.95 348.75 610.35 348.15 609.95 347.7 608.2 345.2 607.4 344 607.2 343.3 606.9 342.35 607.15 340.95 606.25 341 605.35 341.05 603.6 341.15 602.95 340.5 603.05 339.85 604.35 339.65
L 613.85 338.7
M 571.25 310
L 571.25 310.05
Q 571.3263671875 310.10078125 571.4 310.1 571.3228515625 310.06796875 571.25 310 Z"/>

<path fill="#CC3333" stroke="none" d="
M 648.75 372.45
Q 648.85 372 649.1 371.5 648.5 371.7 647.8 371.9 645.75 372.45 645.1 372.7 643.5 373.3 641.4 374.65 642.9 376.45 644.65 377.95 645.8 379 646.55 378.5 646.8 377.8 647.65 375.85 648.25 374.8 648.4 374.1
L 648.75 372.45 Z"/>

<path fill="#FF3366" stroke="none" d="
M 610.45 344.1
Q 611.2 344.85 611.45 345 611.6 345.1 613.15 345.65 613.75 345.95 614.05 346 614.2 346 615.2 345.9 615.45 345.9 616.85 345.95 617.85 346 618.4 345.75 618.45 345.75 619.4 345.05 619.7 344.85 620.7 344.35 620.5 344 620.25 343.55
L 619.3 342.15
Q 618.25 340.8 616.8 340.35 615.55 340 613.05 340.3 610.55 340.65 608.15 340.85 609.5 342.95 610.45 344.1 Z"/>

<path fill="#FFCC99" stroke="none" d="
M 668.55 321.15
Q 668.6 320.95 668.6 319.9 668.4 315.8 667.35 313.9
L 666.9 313.05
Q 666.6 311.8 666.35 311.2 666.25 310.85 665.4 309.55 664.3 307.9 663.25 307.65 662.2 307.4 661.35 308.1 661 308.45 660.35 309.75 659.9 310.65 658.35 312.9 656.95 314.85 656.5 316.1 656.05 317.35 656.25 318.3
L 656.5 319.25 656.6 320.1
Q 656.6 320.55 656.9 321.35 657.85 323.65 658.25 324.3 659.25 325.85 660.75 326.3 661.5 326.55 663.05 326.45 665.65 326.25 666.6 325.9 668.1 325.4 668.35 324.35 668.45 323.95 668.35 323.3 668.25 322.55 668.3 322.25
L 668.55 321.15
M 654.25 278.2
Q 653.3 277.65 651.75 277.45 649.9 277.3 646.1 277.7
L 644.1 277.95
Q 642.95 278.15 640.75 278.75 634.55 280.55 631.55 281.65 625 284.05 622.5 287.45 621.65 288.65 621.6 289.6 621.5 290.4 622 291.7 623.05 294.3 624.9 296.35 625.4 296.85 626.35 297.8 627.15 298.65 627.65 299.3 628.5 300.4 629.8 302.85 631.2 305 632.95 305.4 634.2 305.7 635.9 305.05 636.85 304.7 638.8 303.9 640.5 303.4 644.1 303.3 647.55 302.95 650.7 301.15 651.95 300.4 654.25 298.6 657.9 295.85 658.45 293.45 658.65 292.25 658.25 289.85
L 657.7 286.65
Q 657 282.45 656 280.4 655.25 278.85 654.25 278.2 Z"/>

<path fill="#FF9900" stroke="none" d="
M 657.75 252.9
Q 653.4 250.95 649.15 251.55 644.6 252.25 640.85 255.8 637.4 259.1 635.7 263.8 634.9 265.95 634.45 266.7 633.6 268.25 632.3 268.6 630.95 269 629.5 268.05 628.3 267.25 627.45 265.8 627.4 265.75 626.05 263.05 625.2 261.45 624.35 260.6 622.6 258.9 618.15 258.4 609.55 257.6 601 259.4 592.45 261.2 584.95 265.45 583 266.55 582.8 267.75 582.65 268.35 583 269.15 583 269.25 583.65 270.5 585.25 273.65 584.7 277.15 584.15 280.8 581.4 282.55 578.9 284.1 574.2 283.6 567.65 282.85 566.45 282.95 562.45 283.2 560.3 285.95 559.2 287.35 559.1 289.2 558.95 291.1 560 292.5 560.7 293.4 562.2 294.25 564.45 295.55 564.65 295.7 567.3 297.55 568.4 301 569.18828125 303.530859375 569 306.25
L 568.9 306.25
Q 568.9259765625 306.8294921875 568.9 307.35 568.8708984375 307.93203125 568.75 308.6 568.702734375 308.90546875 568.65 309.2 568.7169921875 309.2103515625 568.8 309.2 568.85 309 568.95 309.05 569.5 309.1 570 309.25 570.25 309.65 570.5 309.85 570.7 310.05 570.95 310.2 571.2 310.3 571.5 310.25
L 571.55 310.25
Q 572.3392578125 310.7916015625 573.85 311.2 574.7 311.4 575.05 311.2
L 575.05 311.15
Q 575.3587890625 310.9671875 575.55 310.25 575.8529296875 308.9521484375 575.9 308.4
L 576.2 307.9
Q 576.4107421875 307.253515625 576.55 306 577.35 299.1 579.45 295.7 580.55 293.85 582.6 291.95 583.4 291.2 586.4 288.75 590.65 285.3 594.95 281.15 598.55 277.65 600.25 276.35 603.4 273.95 606.4 273.25 608.8 272.75 613.1 273.15 618.1 273.55 620.65 274.05 621.15 274.15 625.8 275.3 628.95 276.05 631.05 276.25 634 276.5 638.7 275.9 644.75 275.15 646.4 275.1 650.7 274.9 654.15 276.1 658.15 277.5 660.1 280.55 661.15 282.25 661.85 285.1 662.2 286.7 662.9 289.95 663.55 292.45 665.35 296.75 668.05 303.55 669.25 307 671.2 312.25 671.7 315.7 672.15 318.55 672.05 324.3 671.95 328.9 671.35 331.15 670.35 335 667.2 338.75 664.85 341.45 660.65 344.8 651.75 351.85 643.65 355.65 633.75 360.3 624.45 360.45 621.6 360.5 617.95 360.1 616.05 359.9 611.45 359.2 596.55 356.9 590.8 356.25 590.35 356.2 589.95 356.2 589.65 356.1 589.35 356
L 586.25 355.05
Q 585.85 354.9 585.5 354.85 585.25 354.5 584.6 354.05 583.45 353.05 583 351.6
L 583.9 346.05
Q 584.05 345.2 584.05 344.75
L 584.1 343.9
Q 584.25 342.7 584.25 342.65 584.25 342.549609375 584.25 342.45 584.448828125 342.461328125 584.65 342.45 584.6720703125 342.3619140625 584.7 342.25 585.15 340.9 585.5 340.55 585.7548828125 340.26328125 586.35 339.9 586.728515625 339.7494140625 587.2 339.55
L 588.4 339.05
Q 588.3328125 338.960546875 588.25 338.85 586.95 339.2 585.7 339.45 585.5 339.4 585.3 339.35 585 339.4 584.65 339.55 583 339.75 581.25 339.55 580.55 339.4 579.7 339.65 579.15 339.7 578.6 339.75 578.7 339.9 578.9 340.05 577.75 339.9 576.65 339.8
L 576.6 339.85
Q 575.9 339.75 575.2 339.65
L 574.75 340.55
Q 574.776953125 340.6302734375 574.8 340.65 574.835546875 340.7548828125 574.85 340.8 574.884375 340.8646484375 574.9 340.9 576.6 344.4 575.75 347.55 575.3 349.05 573.8 351.9 573.15 353.55 573 355.15 572.75 357.75 573.65 359.45 574.6 361.1 578.05 362.75
L 584 365.5
Q 585.5 366.25 586 366.8 587.25 368.1 586.95 370.55 586.85 371.9 586.3 374.55 586.9 374.55 587.25 374.2 588.9 375.35 591.55 373.35 593.8 371.7 597.7 367.6
L 599.35 365.8
Q 599.7 366.1 599.95 366.45 600.65 366.4 601.55 366.6 603.95 367.1 607.15 368.7 608.95 369.6 612.5 371.45 617.35 373.85 622.15 374.45 627.5 375.1 631.9 373.35 633.65 372.65 636.25 371.1 639.5 369.15 640.5 368.65 642.75 367.5 647.4 365.65 648.9 364.95 652.3 363.1 655.4 361.4 657.25 360.6 663.45 357.95 668 359.55 669.5802734375 360.090625 671.3 361.3 673.078125 364.45234375 675.55 366.9 678.1 369.45 680.2 368.8 680.273828125 368.7783203125 680.35 368.75 680.556640625 368.106640625 680.95 367 682.0755859375 364.1716796875 682.2 361.25 681.912109375 359.37109375 681.8 358.25 681.691015625 357.1595703125 681.7 356.2 681.51171875 355.1455078125 681.4 354.55 681.15 353.1 681.3 352.05 681.5 350.7 682.45 349.15 682.65 348.85 684.35 346.55 689.2765625 339.953515625 691.1 330.05
L 691.1 329.1
Q 691.2634765625 328.64140625 691.4 328.15 691.5755859375 327.130859375 691.7 326.05 691.834375 324.8748046875 691.85 323.85 691.506640625 321.8654296875 691.3 320.75 691.094921875 319.4517578125 691.25 318.6 690.8623046875 317.4296875 690.25 315.95 688.9 312.8 688.55 311.35 688.25 310.15 688.05 306.75 687.989453125 305.082421875 688.45 304.25 687.127734375 302.38046875 685.65 301.85 685.3 301.75 683.2 301.45 681.7 301.2 680.95 300.6 679.9 299.65 679.7 297.45 679.25 292.9 680.9 288.75 681.75 286.8 681.3 285.9 680.8 284.85 679.1 284.85 677.1 285.05 676.15 285 674.6 284.9 673.3 283.75 672.15 282.7 671.5 281.1 671 279.85 670.8 278 670.6 275.9 670.5 274.8 669.6 264.55 664.65 258.35 661.8 254.8 657.75 252.9
M 601.9 264.25
L 606.45 264.35
Q 607.8 264.35 608.4 264.55 609.55 264.95 609.75 265.85 609.8 266 609.8 266.85 609.7 268.15 609.45 268.75 609.35 269 608.75 269.8 607.6 271 606.45 271.6 605.55 272.1 604.25 272.55
L 598.25 274.7
Q 596.45 275.2 595.5 275.25 593.4 275.25 590.55 273.45 588.95 272.3 588.2 271.35 587.2 269.8 587.55 268.35 587.75 267.5 588.45 266.8 589.05 266.1 589.9 265.8 590.7 265.45 591.8 265.3
L 596.25 264.55
Q 597.95 264.25 598.8 264.2 599.5 264.15 601.9 264.25
M 574.25 284.7
Q 575.35 284.65 576.65 285.15 578.45 286 579.15 287.5 579.55 288.3 579.5 289.2 579.45 290.15 578.95 290.8 578.4 291.55 576.95 292.2 575.25 293 573.85 292.95 572.4 292.9 571.05 291.9 569.85 291 569.15 289.55 568.6 288.65 568.8 287.85 569.05 287.1 570.15 286.5
L 572.15 285.4
Q 573.55 284.75 574.25 284.7
M 571.45 310.25
Q 571.35 310.15 571.25 310.05
L 571.25 310
Q 571.3228515625 310.06796875 571.4 310.1 571.4369140625 310.1677734375 571.45 310.2
L 571.45 310.25
M 578.05 347.85
Q 578.9 347.5 579.75 348.1 580.6 348.65 580.85 349.6 580.95 350 581.05 351.35 581.15 352.45 581.45 353 581.75 353.5 582.35 353.95 582.7 354.25 583.45 354.7 584.9 355.6 585 356.7
L 584.95 357.75
Q 584.95 358.2 585.2 359.05 585.3 360.3 584.25 361.05 583.4 361.7 582.05 361.8 579.45 362 576.9 360 575.25 358.75 574.9 357.3 574.75 356.35 575.25 354.55
L 576.5 350.15
Q 577.15 348.2 578.05 347.85 Z"/>

<path fill="#FFCC66" stroke="none" d="
M 579.75 348.1
Q 578.9 347.5 578.05 347.85 577.15 348.2 576.5 350.15
L 575.25 354.55
Q 574.75 356.35 574.9 357.3 575.25 358.75 576.9 360 579.45 362 582.05 361.8 583.4 361.7 584.25 361.05 585.3 360.3 585.2 359.05 584.95 358.2 584.95 357.75
L 585 356.7
Q 584.9 355.6 583.45 354.7 582.7 354.25 582.35 353.95 581.75 353.5 581.45 353 581.15 352.45 581.05 351.35 580.95 350 580.85 349.6 580.6 348.65 579.75 348.1
M 576.65 285.15
Q 575.35 284.65 574.25 284.7 573.55 284.75 572.15 285.4
L 570.15 286.5
Q 569.05 287.1 568.8 287.85 568.6 288.65 569.15 289.55 569.85 291 571.05 291.9 572.4 292.9 573.85 292.95 575.25 293 576.95 292.2 578.4 291.55 578.95 290.8 579.45 290.15 579.5 289.2 579.55 288.3 579.15 287.5 578.45 286 576.65 285.15
M 606.45 264.35
L 601.9 264.25
Q 599.5 264.15 598.8 264.2 597.95 264.25 596.25 264.55
L 591.8 265.3
Q 590.7 265.45 589.9 265.8 589.05 266.1 588.45 266.8 587.75 267.5 587.55 268.35 587.2 269.8 588.2 271.35 588.95 272.3 590.55 273.45 593.4 275.25 595.5 275.25 596.45 275.2 598.25 274.7
L 604.25 272.55
Q 605.55 272.1 606.45 271.6 607.6 271 608.75 269.8 609.35 269 609.45 268.75 609.7 268.15 609.8 266.85 609.8 266 609.75 265.85 609.55 264.95 608.4 264.55 607.8 264.35 606.45 264.35 Z"/>

<path fill="#996633" stroke="none" d="
M 768.95 290.7
Q 768.7 291.3 768.85 292 769 292.75 769.55 293.05 769.85 293.3 770.6 293.45 771.35 293.55 771.6 293.7 772.05 293.9 772.65 294.6 772.75 294.75 772.9 294.85 773.3 295.35 773.55 295.5 774.35 295.85 775.15 295.45 776 295.1 776.25 294.4 776.55 293.8 776.35 293.1 776.3 292.95 776.3 292.8 776.05 292 775.3 291.5 777.2 290.45 777.7 289.1 777.95 288.35 777.6 287.55 777.35 286.55 776.55 286.35 775.85 286.15 774.8 286.65
L 773.15 287.7
Q 772.8 287.9 770.8 288.9 769.45 289.65 768.95 290.7
M 763.5 293
L 761.6 295.3
Q 760.85 296.1 760.7 296.7 760.3 297.85 761.25 298.75 762.1 299.6 763.2 299.35
L 764.1 299.15
Q 764.6 299.2 765.25 299.85 765.35 300.1 765.55 300.2 766.45 301.1 767.5 301.1 768.2 301.05 768.8 300.5 769.35 299.9 769.4 299.15 769.45 298.25 768.55 297.3 768.2 296.9 767.65 296.5 767.25 296.25 767.2 295.95 767.1 295.8 767.35 295.25 767.85 294.15 767.7 293.3 767.5 292.4 766.6 291.95 765.65 291.45 764.8 291.8 764.3 292.05 763.5 293 Z"/>
</g>
</defs>

<g transform="matrix( 1, 0, 0, 1, 0,0) ">
<use xlink:href="#Layer1_0_FILL"/>
</g>

<g transform="matrix( 1, 0, 0, 1, 0,0) ">
<use xlink:href="#Layer0_0_FILL"/>
</g>
</svg>
