
<svg xmlns="http://www.w3.org/2000/svg" version="1.1" xmlns:xlink="http://www.w3.org/1999/xlink" preserveAspectRatio="none" x="0px" y="0px" width="800px" height="480px" viewBox="0 0 800 480">
<defs>
<g id="Layer1_0_FILL">
<path fill="#74775D" stroke="none" d="
M 651.2 390.6
Q 660.05 387.65 660.05 383.5 660.05 379.35 651.2 376.4 642.4 373.45 629.9 373.45 617.4 373.45 608.55 376.4 599.75 379.35 599.75 383.5 599.75 387.65 608.55 390.6 617.4 393.55 629.9 393.55 642.4 393.55 651.2 390.6
M 351.65 389.35
Q 351.65 392.25 359.7 394.3 367.8 396.35 379.2 396.35 390.6 396.35 398.65 394.3 406.75 392.25 406.75 389.35 406.75 386.45 398.65 384.4 390.6 382.35 379.2 382.35 367.8 382.35 359.7 384.4 351.65 386.45 351.65 389.35
M 132.2 392.7
Q 140.05 394.4 151.15 394.4 162.25 394.4 170.1 392.7 177.95 391.05 177.95 388.65 177.95 386.25 170.1 384.55 162.25 382.9 151.15 382.9 140.05 382.9 132.2 384.55 124.35 386.25 124.35 388.65 124.35 391.05 132.2 392.7 Z"/>
</g>

<g id="Layer0_0_FILL">
<path fill="#003F5F" stroke="none" d="
M 109.95 260.35
Q 105.5 262.9 102.5 266.9 96.75 274.7 96.3 288.4 91.85 287.75 87.55 289.95 83.25 292.15 81.25 296.2 79.25 300.25 80.05 305 80.8 309.75 84.05 312.9 82.45 314.75 81 319.7 79.6 324.5 77.85 326.35 77.2 327 76.15 327.8 75.55 328.25 74.3 329.1 71 331.75 67.95 336.9 64.7 342.35 64.2 346.65 63.55 352.55 67.35 358.15 70.8 363.35 76.6 366.45 77.95 367.15 81.05 368.5 84 369.8 85.5 370.6 89.9 373 93.35 376.75 95.6 379.3 95.5 381.25 95.45 382.4 94.6 383.8 94.1 384.6 93.05 386.2 92.35 387.5 92.55 389 92.7 390.6 93.95 391 94.95 391.3 96.95 390.35 102.65 387.4 105.5 385.6 106.275 385.1115234375 107 384.6 110.580078125 382.1525390625 112.95 379.45 114.55 377.6 115.7 375.6 116.25 376.1 117.1 376.8 118.05 377.55 120.05 379.4 121.85 381.1 122.95 381.95 126.7 384.75 130.2 384.4 132.25 384.25 133.2 382.9 134 381.8 134 379.55 133.9076171875 377.057421875 133.6 374.65 133.576953125 374.449609375 133.55 374.25 134.0548828125 374.4587890625 134.55 374.65 137.65 375.880859375 139.9 376.4 142.5 376.95 145.85 376.95 148 376.95 151.85 376.6 152.45 376.55 153.05 376.5 157.15 376.15 159.2 375.75
L 170.1 372.85
Q 169.48046875 373.7044921875 169.15 374.65 168.7568359375 375.91796875 168.9 377.35 169.1 378.85 170 379.5 171.55 380.6 174.35 378.45
L 181.2 373.3
Q 184.55 370.85 186.3 369.35 189 367.05 190.85 364.85 191.15 364.5 191.45 364.15 197.05 370.45 206.75 376.35 210.75 378.85 213.35 378.4 215.15 378.1 216.15 376.35 217.15 374.6 216.15 373.2 215.8 372.75 214.6 371.95 213.5 371.2 213.2 370.6 212.5 369.3 213.6 367.2 215.4 363.75 220.7 360.3 227.5 355.8 229.05 354.25 231.85 351.35 233.25 347.35 234.6 343.45 234.3 339.35 234 335.35 232.15 331.55 230.4 327.85 227.45 324.95 226.1 323.6 226.05 322.75 225.95 322.1 226.85 320.55 229.25 316.5 229.35 311.6 229.45 306.65 227.2 302.5 224.85 298.2 218.9 293.5 203.45 281.3 183.95 277.4 184.8 274.35 184.5 271.2 184.15 268 182.65 265.3 181.15 262.55 178.5 260.7 175.85 258.8 172.8 258.4 169.65 257.95 163.5 259.45
L 150.35 262.7
Q 148.95 263.05 147.95 263.6 136.15 259.4 130.2 258.15 124.05 256.85 119.4 257.3 114.4 257.85 109.95 260.35
M 97.55 295.45
Q 99.05 295.95 99.9 296.1 101.2 296.3 102.35 295.9 103.65 295.4 104.1 294.3 104.45 293.5 104.25 292.4 104.15 291.9 103.7 290.5 102.3 286 103 281.2 103.7 276.4 106.35 272.5 109 268.6 113.25 266.15 117.45 263.7 122.15 263.35 127.2 263 134.3 265.3 138.3 266.55 146.25 269.3 148.15 269.85 149.75 269.55 150.95 269.3 151.5 268.65 151.85 268.55 152.2 268.45
L 161.95 265.8
Q 165.3 264.95 166.9 264.7 169.65 264.25 171.8 264.65 174.4 265.1 176.3 266.85 178.3 268.7 178.5 271.1 178.55 272.3 177.8 275.1 177.15 277.65 177.4 279.05 177.7 280.6 178.95 281.85 180.1 283 181.7 283.7 183 284.25 184.85 284.6 185.95 284.8 188.15 285.15 201.15 287.5 215.3 298.8 220.5 302.95 222.15 306.5 223.4 309.3 223.15 312.4 222.95 315.55 221.3 318.1 220.6 319.25 218.95 321.65 217.8 323.75 218.35 325.4 218.75 326.6 220.1 327.6 220.85 328.2 222.6 329.25 226.85 332.15 227.95 337.65 229.1 343.15 226.3 347.45 224.4 350.4 219.6 353.6 213.65 357.6 212.15 359.05 209.15 362.05 207.65 365.9 207.2 366.95 207 367.3 206.55 368 205.9 368.25 204.65 368.7 203 367.15 197.65 362.5 193.9 356.7 193.6 355.4 192.8 354.35 192.7 354.5 192.65 354.7 192.25 354.05 191.9 353.4 195.35 346.5 202.15 343.1 204.05 342.2 205 341.7 206.6 340.8 207.4 339.8 208.4 338.55 208.3 336.85 208.2 335.05 206.85 334.4 205.3 333.7 202.5 335.25 197.05 338.35 192.3 342.5 186.5 347.55 186 352.25 185.65 356.05 188.6 360.5 187.65 361.5 186.6 362.5 184.05 364.95 178.5 369.1 175.8 371.1 174.1 371.3 174.55 367.55 172.65 366.7 171.9 366.4 170.6 366.6 169.5 366.75 167.95 367.1 167.15 367.25 166.2 367.5 165.15 367.75 163.95 368.05 163.6 368.15 163.25 368.25 159.2 369.35 157.3 369.65 155.6 369.95 153.05 370.2 150.5 370.4 147.1 370.55 143.45 370.75 141.35 370.55 138.2 370.25 136 368.95 134.6 368.15 134.05 367.95 132.9 367.55 132.1 368.05 131.1 368.7 131.2 371.1
L 131.5 377.45
Q 129.25 378.55 126.45 377.75 124 377.1 121.7 375.2 121.50625 375.0361328125 121.05 374.65 120.0814453125 373.7412109375 117.8 371.6 117.65 371.45 117.5 371.3 117.55 371.1 117.6 370.85 118.5 367.2 117.9 364 117.6 362.7 117.1 361.45 115.95 358.55 112.5 355.1 111.7 354.3 110.75 353.45 107.55 350.6 105.5 351.75 104.25 352.45 104.2 354.2 104.15 355.75 105.1 357.05 105.75 357.9 107.25 359.15 108.85 360.55 109.45 361.2 111.3 363.3 111.6 366.45 111.85 369.4 110.55 372.15 109.922265625 373.473828125 109 374.65 108.136328125 375.7806640625 107 376.75 104.985546875 378.5251953125 102.15 379.85 100.25 375.35 97 371.6 93.75 367.9 89.5 365.45 87.7 364.4 83.85 362.7 80 361 78.2 359.95 71.55 355.95 70.6 350.45 70.1 347.65 71.25 344.35 72.05 342 74.05 338.6 76.2 334.95 78.05 333.85 78.7 333.5 80.4 332.85 81.95 332.3 82.7 331.75 84.8 330.25 85.75 325.6 86.8 320.35 88.1 318.7 90.3 316.55 91.25 315.45 92.9 313.5 92.25 311.85 91.95 311 90.9 310.25 89.7 309.5 89.1 309.05 86.9 307.5 86.1 304.7 85.35 301.95 86.4 299.45 87.45 296.95 90 295.6 92.6 294.25 95.2 294.75 95.95 294.9 97.55 295.45
M 155.8 348.3
Q 154.75 348.05 153.55 348.55 152.2 349.3 151.5 349.6 150.95 349.85 149.85 350.35 148.95 350.85 148.65 351.5 148.2 352.45 148.75 353.3 149.3 354.2 150.3 354.2 150.85 354.25 151.75 353.85 153.15 353.3 154.6 352.45 155.55 353.5 156.75 353.4 157.35 353.35 157.85 352.95 158.4 352.55 158.5 351.95 158.75 350.85 157.6 349.6 156.6 348.5 155.8 348.3 Z"/>

<path fill="#00CCED" stroke="none" d="
M 99.9 296.1
Q 99.05 295.95 97.55 295.45 95.95 294.9 95.2 294.75 92.6 294.25 90 295.6 87.45 296.95 86.4 299.45 85.35 301.95 86.1 304.7 86.9 307.5 89.1 309.05 89.7 309.5 90.9 310.25 91.95 311 92.25 311.85 92.9 313.5 91.25 315.45 90.3 316.55 88.1 318.7 86.8 320.35 85.75 325.6 84.8 330.25 82.7 331.75 81.95 332.3 80.4 332.85 78.7 333.5 78.05 333.85 76.2 334.95 74.05 338.6 72.05 342 71.25 344.35 70.1 347.65 70.6 350.45 71.55 355.95 78.2 359.95 80 361 83.85 362.7 87.7 364.4 89.5 365.45 93.75 367.9 97 371.6 100.25 375.35 102.15 379.85 104.985546875 378.5251953125 107 376.75 108.136328125 375.7806640625 109 374.65 109.922265625 373.473828125 110.55 372.15 111.85 369.4 111.6 366.45 111.3 363.3 109.45 361.2 108.85 360.55 107.25 359.15 105.75 357.9 105.1 357.05 104.15 355.75 104.2 354.2 104.25 352.45 105.5 351.75 107.55 350.6 110.75 353.45 111.7 354.3 112.5 355.1 115.95 358.55 117.1 361.45 117.6 362.7 117.9 364 118.5 367.2 117.6 370.85 117.55 371.1 117.5 371.3 117.65 371.45 117.8 371.6 120.0814453125 373.7412109375 121.05 374.65 121.50625 375.0361328125 121.7 375.2 124 377.1 126.45 377.75 129.25 378.55 131.5 377.45
L 131.2 371.1
Q 131.1 368.7 132.1 368.05 132.9 367.55 134.05 367.95 134.6 368.15 136 368.95 138.2 370.25 141.35 370.55 143.45 370.75 147.1 370.55 150.5 370.4 153.05 370.2 155.6 369.95 157.3 369.65 159.2 369.35 163.25 368.25 163.6 368.15 163.95 368.05 165.15 367.75 166.2 367.5 167.15 367.25 167.95 367.1 169.5 366.75 170.6 366.6 171.9 366.4 172.65 366.7 174.55 367.55 174.1 371.3 175.8 371.1 178.5 369.1 184.05 364.95 186.6 362.5 187.65 361.5 188.6 360.5 185.65 356.05 186 352.25 186.5 347.55 192.3 342.5 197.05 338.35 202.5 335.25 205.3 333.7 206.85 334.4 208.2 335.05 208.3 336.85 208.4 338.55 207.4 339.8 206.6 340.8 205 341.7 204.05 342.2 202.15 343.1 195.35 346.5 191.9 353.4 192.25 354.05 192.65 354.7 192.7 354.5 192.8 354.35 193.6 355.4 193.9 356.7 197.65 362.5 203 367.15 204.65 368.7 205.9 368.25 206.55 368 207 367.3 207.2 366.95 207.65 365.9 209.15 362.05 212.15 359.05 213.65 357.6 219.6 353.6 224.4 350.4 226.3 347.45 229.1 343.15 227.95 337.65 226.85 332.15 222.6 329.25 220.85 328.2 220.1 327.6 218.75 326.6 218.35 325.4 217.8 323.75 218.95 321.65 220.6 319.25 221.3 318.1 222.95 315.55 223.15 312.4 223.4 309.3 222.15 306.5 220.5 302.95 215.3 298.8 201.15 287.5 188.15 285.15 185.95 284.8 184.85 284.6 183 284.25 181.7 283.7 180.1 283 178.95 281.85 177.7 280.6 177.4 279.05 177.15 277.65 177.8 275.1 178.55 272.3 178.5 271.1 178.3 268.7 176.3 266.85 174.4 265.1 171.8 264.65 169.65 264.25 166.9 264.7 165.3 264.95 161.95 265.8
L 152.2 268.45
Q 151.85 268.55 151.5 268.65 150.95 269.3 149.75 269.55 148.15 269.85 146.25 269.3 138.3 266.55 134.3 265.3 127.2 263 122.15 263.35 117.45 263.7 113.25 266.15 109 268.6 106.35 272.5 103.7 276.4 103 281.2 102.3 286 103.7 290.5 104.15 291.9 104.25 292.4 104.45 293.5 104.1 294.3 103.65 295.4 102.35 295.9 101.2 296.3 99.9 296.1
M 117.9 270.95
Q 118.3 270.85 119.45 271.1
L 121.55 271.65
Q 122.7 271.9 123.5 272.25 124.2 272.55 125.3 273.4 126.2 274.1 126.45 274.4 126.85 275.05 126.95 275.9 127.3 278.3 125.15 282.25 124.3 283.7 124.1 283.95 123.7 284.6 122.75 285.45 121.95 286.25 121.45 286.55
L 119.35 287.6
Q 118.85 287.85 118.45 287.9 117.7 288.1 115.9 287.65
L 115.2 287.45
Q 112.05 286.55 110.95 285.35 109.75 284 109.65 281.85 109.6 280.3 110.3 278.15 110.7 276.65 111.45 275.65 112.25 274.55 114.35 273.1
L 116.25 271.75
Q 117.25 271.05 117.9 270.95
M 128.7 284.1
Q 129.95 282.3 131.3 281.25 134.85 278.45 142.05 278.55 151.35 278.7 158.55 282.15 161.8 283.65 166.8 287.15 178.3 295.2 189.25 305 192.5 307.95 194.15 309.95 196.6 312.95 197.4 315.95 198.85 321.4 195.75 327.65 194.6 330.05 192.6 332.75 191.5 334.2 188.8 337.4 183.8 343.35 181.1 346 176.6 350.5 172.2 353.05 166.95 356.1 159.55 357.75 154.75 358.8 146 359.7 138.05 360.55 133.45 360.05 126.55 359.4 122.25 355.9 121.45 355.25 117.6 351.1 114.8 348.1 112.45 347.1 110.35 346.2 107 346.2 103.2 346.3 101.3 346.15 99.05 346.05 98 345 96.75 343.75 97.1 341.2 97.45 338.8 99.85 334.5
L 107.25 321.45
Q 106.8052734375 321.357421875 106.4 321.4 105.95 321.45 105.25 321.75 104.35 322.15 104.05 322.2 102.8 322.45 102 321.8 100.55 320.7 101.15 317.85 101.55 316.05 102.2 314.45 102.7 313.3 102.9 312.7 103.25 311.7 103.25 310.9 103.2 310.4 102.75 308.65 102.45 307.4 102.1 303.8 102.1 302.4 102.3 301.95 102.8 300.7 104.55 300.5 105.65 300.45 107.25 301.1 109.35 301.95 111.15 303.2 113.1 301.95 114.95 300.1 116.75 298.3 117.55 297.9 119 297.2 120.7 297.7 120.7408203125 297.7115234375 120.75 297.7
L 126.65 287.4
Q 128 285.1 128.7 284.1
M 199.7 295.55
Q 200.35 294.9 201.45 295.15 202.15 295.3 203.15 295.95
L 208.1 299
Q 210.9 300.7 212.35 301.85 214.5 303.65 215.55 305.65 217.3 309 216.5 313.95 216 316.85 214.95 318.8 213.35 321.85 209.2 325.15 204.25 329 200.45 328.9 199.05 328.8 198.45 328.25 197.2 327.15 198.05 324.4 198.8 321.95 200 319.6 200.8 318.05 201.1 317.2 201.55 315.95 201.85 313.2 202.25 309.85 201.7 308.25 201.35 307.2 200.45 305.9 199.35 304.45 198.85 303.7 196.9 300.8 198 298.6 198.7 297.7 198.95 297.15 199.3 296 199.7 295.55 Z"/>

<path fill="#66FFFF" stroke="none" d="
M 201.45 295.15
Q 200.35 294.9 199.7 295.55 199.3 296 198.95 297.15 198.7 297.7 198 298.6 196.9 300.8 198.85 303.7 199.35 304.45 200.45 305.9 201.35 307.2 201.7 308.25 202.25 309.85 201.85 313.2 201.55 315.95 201.1 317.2 200.8 318.05 200 319.6 198.8 321.95 198.05 324.4 197.2 327.15 198.45 328.25 199.05 328.8 200.45 328.9 204.25 329 209.2 325.15 213.35 321.85 214.95 318.8 216 316.85 216.5 313.95 217.3 309 215.55 305.65 214.5 303.65 212.35 301.85 210.9 300.7 208.1 299
L 203.15 295.95
Q 202.15 295.3 201.45 295.15
M 125.25 310.4
Q 125.85 308.9 125.95 308.1 126.15 306.9 125.9 305.4 125.45 301.5 123.5 299.4 122.3306640625 298.1818359375 120.75 297.7 120.7408203125 297.7115234375 120.7 297.7 119 297.2 117.55 297.9 116.75 298.3 114.95 300.1 113.1 301.95 111.15 303.2 109.35 301.95 107.25 301.1 105.65 300.45 104.55 300.5 102.8 300.7 102.3 301.95 102.1 302.4 102.1 303.8 102.45 307.4 102.75 308.65 103.2 310.4 103.25 310.9 103.25 311.7 102.9 312.7 102.7 313.3 102.2 314.45 101.55 316.05 101.15 317.85 100.55 320.7 102 321.8 102.8 322.45 104.05 322.2 104.35 322.15 105.25 321.75 105.95 321.45 106.4 321.4 106.8052734375 321.357421875 107.25 321.45 107.8833984375 321.619921875 108.6 322.05 109.25 322.5 110.65 323.4 112.35 324.3 114.4 323.7 116.4 323.1 117.35 321.4 117.6 321 118.25 319.15 118.75 317.75 119.45 317.1 120.45 316.45 120.95 316.1 123.55 314.45 125.25 310.4
M 118.5 302.3
Q 119.15 301.65 119.55 301.65 120.1 301.65 120.6 302.35 121.2 303.2 121.45 303.9 122.45 306.35 121.55 308.9 120.6 311.4 118.45 312.8 117.4 313.45 117.05 313.7 116.3 314.3 115.6 315.3 115.1 315.95 114.7 316.75 114.6 317 114.4 317.75 114.25 318.4 114.1 318.75 113.95 319.25 113.5 319.55 112.7 320.1 111.5 319.2 110.5 318.2 109.85 317.85 109.6814453125 317.7658203125 109.4 317.65
L 117.7 303.1
Q 118.11640625 302.701953125 118.5 302.3
M 119.45 271.1
Q 118.3 270.85 117.9 270.95 117.25 271.05 116.25 271.75
L 114.35 273.1
Q 112.25 274.55 111.45 275.65 110.7 276.65 110.3 278.15 109.6 280.3 109.65 281.85 109.75 284 110.95 285.35 112.05 286.55 115.2 287.45
L 115.9 287.65
Q 117.7 288.1 118.45 287.9 118.85 287.85 119.35 287.6
L 121.45 286.55
Q 121.95 286.25 122.75 285.45 123.7 284.6 124.1 283.95 124.3 283.7 125.15 282.25 127.3 278.3 126.95 275.9 126.85 275.05 126.45 274.4 126.2 274.1 125.3 273.4 124.2 272.55 123.5 272.25 122.7 271.9 121.55 271.65
L 119.45 271.1 Z"/>

<path fill="#66CCCC" stroke="none" d="
M 119.55 301.65
Q 119.15 301.65 118.5 302.3 118.11640625 302.701953125 117.7 303.1
L 109.4 317.65
Q 109.6814453125 317.7658203125 109.85 317.85 110.5 318.2 111.5 319.2 112.7 320.1 113.5 319.55 113.95 319.25 114.1 318.75 114.25 318.4 114.4 317.75 114.6 317 114.7 316.75 115.1 315.95 115.6 315.3 116.3 314.3 117.05 313.7 117.4 313.45 118.45 312.8 120.6 311.4 121.55 308.9 122.45 306.35 121.45 303.9 121.2 303.2 120.6 302.35 120.1 301.65 119.55 301.65 Z"/>

<path fill="#007D87" stroke="none" d="
M 131.3 281.25
Q 129.95 282.3 128.7 284.1 128 285.1 126.65 287.4
L 120.75 297.7
Q 122.3306640625 298.1818359375 123.5 299.4 125.45 301.5 125.9 305.4 126.15 306.9 125.95 308.1 125.85 308.9 125.25 310.4 123.55 314.45 120.95 316.1 120.45 316.45 119.45 317.1 118.75 317.75 118.25 319.15 117.6 321 117.35 321.4 116.4 323.1 114.4 323.7 112.35 324.3 110.65 323.4 109.25 322.5 108.6 322.05 107.8833984375 321.619921875 107.25 321.45
L 99.85 334.5
Q 97.45 338.8 97.1 341.2 96.75 343.75 98 345 99.05 346.05 101.3 346.15 103.2 346.3 107 346.2 110.35 346.2 112.45 347.1 114.8 348.1 117.6 351.1 121.45 355.25 122.25 355.9 126.55 359.4 133.45 360.05 138.05 360.55 146 359.7 154.75 358.8 159.55 357.75 166.95 356.1 172.2 353.05 176.6 350.5 181.1 346 183.8 343.35 188.8 337.4 191.5 334.2 192.6 332.75 194.6 330.05 195.75 327.65 198.85 321.4 197.4 315.95 196.6 312.95 194.15 309.95 192.5 307.95 189.25 305 178.3 295.2 166.8 287.15 161.8 283.65 158.55 282.15 151.35 278.7 142.05 278.55 134.85 278.45 131.3 281.25
M 153.05 288.5
Q 153.65 288.8 154.4 290.05
L 158.25 297.25
Q 159.25 299.25 159.55 300.3 159.75 301 159.95 302.4
L 160.4 305.45
Q 160.55 306.7 160.5 307 160.5 307.65 159.8 309.75 159.6 310.25 159.2 311.25 158.8 312.1 158.3 312.55
L 157.15 313.35
Q 156.6 313.8 155.55 314.85 155.1 315.2 154.3 315.6 153.45 315.95 153 316.15 151.2 317.25 150.25 317.55 147.7 318.4 143.35 316.15 140.8 314.85 139.8 313.55 138.95 312.35 138.65 310.25 138.5 308.95 138.6 308.05 138.85 306.65 140.05 305 142.3 301.7 145.05 300.65 146.7 300.05 148.4 300.4 150.2 300.8 151.2 302.05 151.8 302.8 152.25 304.2 153 306.35 152.55 307.8 152.25 309.05 151.2 309.85 149.95 310.85 148.65 310.4 147.95 310.1 147.65 309.3 147.3 308.5 147.65 307.8 147.75 307.6 148.25 306.9 148.65 306.4 148.7 306 148.75 305.5 148.45 305 148.1 304.55 147.6 304.4 146.6 304.1 145.6 304.75 144.9 305.15 144.05 306.2 143 307.45 142.65 308.4 142.1 309.85 142.75 310.95 143.25 311.7 144.45 312.25 145.7 313 147.1 313.45 148.25 313.95 148.95 313.75 149.3 313.65 149.8 313.35 150.3 313 150.55 312.85 152.15 312.2 152.85 311.8 153.55 311.4 154.85 310 156.25 308.5 156.5 307.55 156.7 306.65 156.5 305.25 156.1 302.05 155.6 300.65 155.25 299.65 154.05 297.5
L 151.4 292.65
Q 150.4 290.9 150.65 289.8 150.85 289.05 151.6 288.65 152.35 288.2 153.05 288.5
M 124.85 336.9
Q 125.05 336.2 125.8 335.95 126.5 335.65 127.25 335.85 128.2 336.15 129.55 337.6
L 133.6 342
Q 134.7 343.3 134.85 343.9 135.35 345.55 133.95 347.05 133.2 347.85 131.1 348.9 129.2 349.75 126.95 350.55 124.95 351.2 124.05 350.5 123.4 349.95 123.5 348.95 123.65 348.05 124.3 347.4 125 346.75 127.45 345.95 129.65 345.3 130.35 344.1
L 125.95 339.4
Q 124.55 337.9 124.85 336.9
M 153.55 348.55
Q 154.75 348.05 155.8 348.3 156.6 348.5 157.6 349.6 158.75 350.85 158.5 351.95 158.4 352.55 157.85 352.95 157.35 353.35 156.75 353.4 155.55 353.5 154.6 352.45 153.15 353.3 151.75 353.85 150.85 354.25 150.3 354.2 149.3 354.2 148.75 353.3 148.2 352.45 148.65 351.5 148.95 350.85 149.85 350.35 150.95 349.85 151.5 349.6 152.2 349.3 153.55 348.55
M 180.5 330
Q 181.15 331.35 179.4 333.4
L 175.15 338.8
Q 176.05 339.5 178.4 338.95 180.75 338.4 181.6 339.4 182.1 340 181.95 340.85 181.8 341.7 181.2 342.25 180.3 343.1 178.2 343.3 176.5 343.35 174.6 343.05 171.5 342.35 170.95 340.45 170.65 339.4 171.2 338.2 171.55 337.4 172.5 336.1
L 176.95 330.3
Q 177.7 329.35 178.2 329.1 178.85 328.85 179.55 329.1 180.25 329.35 180.5 330 Z"/>

<path fill="#003333" stroke="none" d="
M 179.4 333.4
Q 181.15 331.35 180.5 330 180.25 329.35 179.55 329.1 178.85 328.85 178.2 329.1 177.7 329.35 176.95 330.3
L 172.5 336.1
Q 171.55 337.4 171.2 338.2 170.65 339.4 170.95 340.45 171.5 342.35 174.6 343.05 176.5 343.35 178.2 343.3 180.3 343.1 181.2 342.25 181.8 341.7 181.95 340.85 182.1 340 181.6 339.4 180.75 338.4 178.4 338.95 176.05 339.5 175.15 338.8
L 179.4 333.4
M 125.8 335.95
Q 125.05 336.2 124.85 336.9 124.55 337.9 125.95 339.4
L 130.35 344.1
Q 129.65 345.3 127.45 345.95 125 346.75 124.3 347.4 123.65 348.05 123.5 348.95 123.4 349.95 124.05 350.5 124.95 351.2 126.95 350.55 129.2 349.75 131.1 348.9 133.2 347.85 133.95 347.05 135.35 345.55 134.85 343.9 134.7 343.3 133.6 342
L 129.55 337.6
Q 128.2 336.15 127.25 335.85 126.5 335.65 125.8 335.95 Z"/>

<path fill="#000033" stroke="none" d="
M 154.4 290.05
Q 153.65 288.8 153.05 288.5 152.35 288.2 151.6 288.65 150.85 289.05 150.65 289.8 150.4 290.9 151.4 292.65
L 154.05 297.5
Q 155.25 299.65 155.6 300.65 156.1 302.05 156.5 305.25 156.7 306.65 156.5 307.55 156.25 308.5 154.85 310 153.55 311.4 152.85 311.8 152.15 312.2 150.55 312.85 150.3 313 149.8 313.35 149.3 313.65 148.95 313.75 148.25 313.95 147.1 313.45 145.7 313 144.45 312.25 143.25 311.7 142.75 310.95 142.1 309.85 142.65 308.4 143 307.45 144.05 306.2 144.9 305.15 145.6 304.75 146.6 304.1 147.6 304.4 148.1 304.55 148.45 305 148.75 305.5 148.7 306 148.65 306.4 148.25 306.9 147.75 307.6 147.65 307.8 147.3 308.5 147.65 309.3 147.95 310.1 148.65 310.4 149.95 310.85 151.2 309.85 152.25 309.05 152.55 307.8 153 306.35 152.25 304.2 151.8 302.8 151.2 302.05 150.2 300.8 148.4 300.4 146.7 300.05 145.05 300.65 142.3 301.7 140.05 305 138.85 306.65 138.6 308.05 138.5 308.95 138.65 310.25 138.95 312.35 139.8 313.55 140.8 314.85 143.35 316.15 147.7 318.4 150.25 317.55 151.2 317.25 153 316.15 153.45 315.95 154.3 315.6 155.1 315.2 155.55 314.85 156.6 313.8 157.15 313.35
L 158.3 312.55
Q 158.8 312.1 159.2 311.25 159.6 310.25 159.8 309.75 160.5 307.65 160.5 307 160.55 306.7 160.4 305.45
L 159.95 302.4
Q 159.75 301 159.55 300.3 159.25 299.25 158.25 297.25
L 154.4 290.05 Z"/>

<path fill="#410041" stroke="none" d="
M 409.15 271.25
Q 408.95 271 408.75 270.8 401.1 262.15 392.85 257.3 383.1 251.55 373.45 251.8 367.5 251.95 360.85 254.4 352.2 257.55 344.85 263.4 337.5 269.2 332.45 276.9 329.85 280.85 326.75 287.2 325 290.75 321.6 297.85 315.15 310.45 307.65 315.8 306.7 316.5 304.7 317.9 303.05 319.15 302.2 320.45 300.85 322.6 300.65 326.65 300.3 334 301.95 341.3 303 345.7 304.8 347.8 306.05 349.2 307.75 349.85 309.6 350.5 311.2 349.9 311.9 357.3 316.55 363.5 321.25 369.7 328.2 372.3 329.7 372.85 331.05 372.9
L 330.4 380.05
Q 330.2 382.2 330.45 383.25 330.9 385.1 332.35 385.7 333.65 386.25 335.3 385.35 336.05 384.95 337.7 383.4 340.6 380.75 343.8 378.65 344 378.55 344.2 378.4
L 345.5 379.2
Q 348.85 381.2 350.35 381.85 354.15 383.45 359.25 383.7 362.7 383.85 368.45 383.35 377.2 382.65 383.3 381.65 383.4 381.95 383.6 382.3
L 386.1 386.5
Q 387.7 389.05 388.45 389.7 390.1 391.3 392.05 391.05 394.35 390.8 396.6 386.95
L 400.85 379.75
Q 401 379.5 401.15 379.3 405.95 378.2 410.45 376.15 410.65 376.35 410.95 376.6
L 415.1 380.65
Q 417.2 382.65 418.6 382.85 419.85 383.05 421.1 382.45 422.25 381.85 423.05 380.7 424.1 379.35 425 375.85
L 426 371.95
Q 426.3 370.75 426.2 370.05 426.15 369.8 426.1 369.65 426.3 369.55 426.5 369.5
L 429.7 368.55
Q 432.2 367.75 432.95 367.3 433.85 366.8 434.8 365.75 435.8 364.75 436.25 364.2 437.65 362.5 439.45 359.7 440.1 358.65 440.6 357.75 441.05 358.25 441.7 358.7 442.5 359.25 443.95 359.9 445.9 360.55 447.15 360.55 448.5 360.6 451.1 359.8
L 459.4 357.1
Q 461.1 356.45 462.3 355.55 463.3 354.85 464.7 353.45 467.75 350.3 468.6 348.9 469.5 347.5 470.95 344.5 471.35 343.8 474.35 339.35 474.55 339.05 474.7 338.8 474.8 338.8 474.9 338.8 478.25 339 480.15 338.9 483 338.8 485.2 338.05 487.7 337.2 489.1 335.55 490.55 333.8 490.65 331.3 490.7 328.85 489.55 326.7 487.7 323.2 482.75 320.4 476.55 317.05 469.55 316.35 464.05 316.15 461.4 315.85 456.7 315.3 453.95 313.25 451.15 311.15 448.5 305.5 444.95 297.95 443.1 294.2 439.9 287.7 437.15 283.25 432.9 276.45 428.45 274.15 425.45 272.6 420.35 272.2 414.6 271.95 411.8 271.55 409.55 271.25 409.4 271.25 409.25 271.25 409.15 271.25
M 418 278.1
Q 421.25 278.35 422.75 278.7 425.4 279.2 427.15 280.45 429.35 282 431.85 286.35 437.4 295.95 441.9 305.5 444.5 311.05 446.05 313.4 448.8 317.6 452.2 319.55 455.6 321.5 461.6 322 471.2 322.8 471.55 322.85 477.5 324 482.3 327.45 484.4 328.95 484.3 330.5 484.25 331.6 483.05 332.35 482.05 332.95 480.75 332.95 479.75 332.95 477.4 332.6 475.2 332.2 474 332.35 472.25 332.55 471.1 333.85 470.15 334.45 469.05 336.2
L 465.55 341.75
Q 464.65 343.25 463.45 344.95
L 461.25 347.8
Q 459.9 349.35 459.4 349.8 458.65 350.4 456.95 351.2 453.25 352.85 449.2 353.75 447.4 354.15 446.5 353.95 445.9 353.8 444.55 353.15 443.35 352.55 442.6 352.5 441.4 352.45 440.45 353.3 440.35 353.4 440.25 353.55 439.55 353.5 438.85 353.6 437.5 353.85 436.8 354.5 435.95 355.2 435.15 357.05 433.1 361.35 429.9 364.95 429.1 365.95 428.4 366.35 427.9 366.65 426.7 367.05
L 421.9 368.35
Q 419.9 368.9 419.7 369.9 420.35 370.45 421.35 370.5 421.95 370.55 422.95 370.4 422.85 370.8 422.75 371.3 422.3 374.15 422.1 375 421.55 377.05 420.65 378.4 419.95 379.5 419.15 379.5 418.45 379.55 417.45 378.65 415.15 376.55 413.3 374.6 413.25 374.55 413.2 374.5 413.55 374.2 413.75 373.95 414.15 373.45 414.05 373.1 413.95 372.7 413.2 372.6 410.75 372.4 407.85 373.9 404.6 375.75 402.85 376.4 402.2 376.65 401.25 376.9 401.1 376.7 400.9 376.6 400.1 376.15 399.25 376.8 398.9 377.1 398.6 377.55 397.35 377.85 396.7 378.1 395.3 378.65 395.15 379.4 395.8 380 397.25 379.95
L 393.75 386
Q 392.7 387.85 391.55 387.85 390.55 387.8 389.65 386.3 387.95 383.75 386.4 381 386.8 380.8 387.05 380.6 387.55 380.1 387.35 379.75 387.25 379.45 386.65 379.35 385.5 379.15 384.7 379.15 384.5 379.05 384.35 379.05 383.95 379 383.7 379.1 383 379.2 380.3 379.75 378.85 380.05 376.05 380.35
L 368.95 381
Q 365.2 381.3 363.05 381.25 359.8 381.2 357.25 380.5 354.1 379.55 348.75 376.2 345.75 374.35 344.1 374.05 342.8 373.8 341.55 374.2 340.2 374.6 339.5 375.6
L 341.25 376.65 333.5 382.7
Q 333.4 376.8 334.3 371.15 334.8 370 334.15 368.65 333.5 367.2 332.05 366.4 331.1 365.85 329.2 365.25 327.05 364.65 326.25 364.25 323.2 362.85 321.1 359.2 319.6 356.6 318.35 352.1 317.6 349.55 317.2 348.6 316.45 346.7 315.45 345.45 314.25 344 312.5 343.35 310.6 342.7 309 343.4 306.6 336.35 306.85 328.6 306.95 326 307.7 324.6 308.25 323.65 309.35 322.75 309.65 322.55 311.4 321.3 319.05 315.95 325.55 304.05 332.25 290 336.15 283.45 344.25 269.8 355.9 263.25 362.3 259.7 369.4 258.75 376.85 257.75 383.45 259.85 389 261.65 394.65 265.95 398.75 269.1 404.15 274.7 404.3 274.85 404.5 275.05 404.95 277.15 409.25 277.5
L 418 278.1
M 327.9 319.6
Q 327.65 319.7 327.4 319.7 327 319.85 326.5 320.35
L 322.45 326.75
Q 322.5 327.5 322.95 328.25 323.65 329.4 324.9 330.1 327.15 331.4 329.2 330.6 330.25 330.15 331.2 328.95 332.4 327.6 332.9 325.9 333.4 324.1 332.9 322.45 332.45 321.35 331.7 320.7 331.2 320.3 329.45 319.85 328.4 319.6 327.9 319.6
M 330 323.7
L 330.1 324.5
Q 330.05 325.15 329.6 325.95 329.35 326.4 328.75 327.1 328.05 327.7 327.5 327.7 326.9 327.75 326 327.05 325.5 326.75 325.5 326.35 325.55 326.1 325.85 325.8 327 324.05 327.85 323.55 328.6 323.1 329.4 323.1
L 329.85 323.25 330 323.7
M 404.5 332.8
Q 404.45 332.35 403.85 330.95 403.45 330.05 403.05 329.65 402 328.65 400.4 329.4 399.35 329.8 398.3 331.25 396.7 333.3 395.5 336.15 394.8 337.8 393.65 341.55
L 390.95 350.4 389.15 350.55
Q 385.8 350.85 384.8 352.25 384.3 353 384.1 354.4 383.8 356.95 384.85 359.2 386 361.6 388.25 362.5 389.35 362.95 391.8 363.15 397.4 363.6 401 363.2 403.55 362.85 406.1 362.15 408.6 361.45 409.95 360.75 410.75 360.4 413.15 358.65 415.15 357.15 415.95 356.2 417.6 354.3 418.45 351.5 419.1 349.4 418.65 348.05 418.3 346.95 416.55 345.4 415.75 344.7 414.95 344.35 414.6 344.25 414.2 344.2 414.2 344.15 414.2 344.05 414.45 338.8 416.45 334 417.15 332.4 417 331.55 416.8 330.6 415.8 330.1 414.8 329.6 413.8 329.8 412.2 330.15 410.5 332.05 408.85 333.9 406.95 336.65
L 404.3 340.35 404.5 334.15
Q 404.6 333.5 404.5 332.8
M 401.4 334.65
L 401.4 337.7
Q 401.35 338.65 401.2 340.55 401.15 342.25 401.4 343.4 401.7 344.8 402.4 345.5 403.4 346.5 404.55 346.1 405.15 345.9 405.4 345.35 405.7 344.8 405.5 344.25 405.45 344.15 405.4 344.05 405.6 343.75 405.85 343.35 409.3 338.15 413 333.9 411.5 339.65 411.1 342.45 410.85 343.85 411.15 344.75 409.95 345.05 409.95 345.8 409.95 346.25 410.55 346.75 411.8 347.95 411.95 348.1 412.65 348.9 412.75 349.7 412.9 350.5 412.5 351.65 412.05 353.45 411.55 354.3 410.85 355.6 409 357.1 406.4 359.25 404.4 359.95 402.05 360.85 398.6 360.75 396.45 360.75 394.25 360.45 392.65 360.25 391.95 359.7 391.4 359.25 391 358.4 390.35 357.1 390.15 355.7 390.95 355.3 392.55 354.5 393.95 353.8 395.05 353.6 395.4 353.55 396.15 353.4 396.75 353.25 397.15 352.95 397.75 352.5 397.8 351.65 397.8 351.4 397.8 351.25 398.15 350.9 398.15 350.45 397.4 349.7 395.55 349.9
L 394.25 350.05 397 341.4
Q 397.35 339.7 397.6 338.9 398.05 337.5 399.85 334.4 400.7 333.15 401.3 332.85 401.4 333.45 401.4 334.65
M 382.35 326.7
Q 381.5 326.25 380.6 326.25 379.65 326.25 378.95 326.75
L 377.75 328.1
Q 377.5 328.4 376.1 329.5 375.1 330.35 374.7 331.1 374.1 332.35 374.7 333.8 375.25 335.15 376.5 335.95 377.95 336.9 379.8 336.85 381.6 336.85 383.05 335.85 384.05 335.15 384.6 334.15 385.8 332.15 385.15 329.9 384.4 327.6 382.35 326.7
M 377.75 332.95
L 377.5 332.65
Q 377.5 332.4 377.7 332.2 378.55 331.2 380.85 329.75 381.05 329.55 381.25 329.55 381.45 329.55 381.55 329.75 381.95 330.15 382.25 331.35
L 382.3 332
Q 382.2 332.4 381.5 332.9 380.15 333.85 379.35 333.75 378.7 333.7 377.75 332.95 Z"/>

<path fill="#E57AED" stroke="none" d="
M 422.75 278.7
Q 421.25 278.35 418 278.1
L 409.25 277.5
Q 404.95 277.15 404.5 275.05 404.3 274.85 404.15 274.7 398.75 269.1 394.65 265.95 389 261.65 383.45 259.85 376.85 257.75 369.4 258.75 362.3 259.7 355.9 263.25 344.25 269.8 336.15 283.45 332.25 290 325.55 304.05 319.05 315.95 311.4 321.3 309.65 322.55 309.35 322.75 308.25 323.65 307.7 324.6 306.95 326 306.85 328.6 306.6 336.35 309 343.4 310.6 342.7 312.5 343.35 314.25 344 315.45 345.45 316.45 346.7 317.2 348.6 317.6 349.55 318.35 352.1 319.6 356.6 321.1 359.2 323.2 362.85 326.25 364.25 327.05 364.65 329.2 365.25 331.1 365.85 332.05 366.4 333.5 367.2 334.15 368.65 334.8 370 334.3 371.15 333.4 376.8 333.5 382.7
L 341.25 376.65 339.5 375.6
Q 340.2 374.6 341.55 374.2 342.8 373.8 344.1 374.05 345.75 374.35 348.75 376.2 354.1 379.55 357.25 380.5 359.8 381.2 363.05 381.25 365.2 381.3 368.95 381
L 376.05 380.35
Q 378.85 380.05 380.3 379.75 383 379.2 383.7 379.1 383.95 379 384.35 379.05 384.5 379.05 384.7 379.15 385.5 379.15 386.65 379.35 387.25 379.45 387.35 379.75 387.55 380.1 387.05 380.6 386.8 380.8 386.4 381 387.95 383.75 389.65 386.3 390.55 387.8 391.55 387.85 392.7 387.85 393.75 386
L 397.25 379.95
Q 395.8 380 395.15 379.4 395.3 378.65 396.7 378.1 397.35 377.85 398.6 377.55 398.9 377.1 399.25 376.8 400.1 376.15 400.9 376.6 401.1 376.7 401.25 376.9 402.2 376.65 402.85 376.4 404.6 375.75 407.85 373.9 410.75 372.4 413.2 372.6 413.95 372.7 414.05 373.1 414.15 373.45 413.75 373.95 413.55 374.2 413.2 374.5 413.25 374.55 413.3 374.6 415.15 376.55 417.45 378.65 418.45 379.55 419.15 379.5 419.95 379.5 420.65 378.4 421.55 377.05 422.1 375 422.3 374.15 422.75 371.3 422.85 370.8 422.95 370.4 421.95 370.55 421.35 370.5 420.35 370.45 419.7 369.9 419.9 368.9 421.9 368.35
L 426.7 367.05
Q 427.9 366.65 428.4 366.35 429.1 365.95 429.9 364.95 433.1 361.35 435.15 357.05 435.95 355.2 436.8 354.5 437.5 353.85 438.85 353.6 439.55 353.5 440.25 353.55 440.35 353.4 440.45 353.3 441.4 352.45 442.6 352.5 443.35 352.55 444.55 353.15 445.9 353.8 446.5 353.95 447.4 354.15 449.2 353.75 453.25 352.85 456.95 351.2 458.65 350.4 459.4 349.8 459.9 349.35 461.25 347.8
L 463.45 344.95
Q 464.65 343.25 465.55 341.75
L 469.05 336.2
Q 470.15 334.45 471.1 333.85 472.25 332.55 474 332.35 475.2 332.2 477.4 332.6 479.75 332.95 480.75 332.95 482.05 332.95 483.05 332.35 484.25 331.6 484.3 330.5 484.4 328.95 482.3 327.45 477.5 324 471.55 322.85 471.2 322.8 461.6 322 455.6 321.5 452.2 319.55 448.8 317.6 446.05 313.4 444.5 311.05 441.9 305.5 437.4 295.95 431.85 286.35 429.35 282 427.15 280.45 425.4 279.2 422.75 278.7
M 412.4 296
Q 412.1 295.15 411.85 294.3 411.2 292.15 411.8 291.2 412.35 290.25 413.7 289.9 414.5 289.75 416.1 289.75 416.7 289.75 419.35 289.65 421.3 289.55 422.55 289.65 423.95 289.75 424.8 290.05 425.55 290.3 426.85 291.2 427.8 292 428.35 292.65 428.7 293.15 429.1 294
L 430.6 296.75
Q 431.55 298.6 432.25 300.6 432.65 301.75 432.8 302.7 432.95 303.7 432.95 304.6 432.95 306.8 432.65 307.6 432.4 308.3 431.9 308.95 431.95 309 432 309.1 435.85 314.3 440.6 318.6 441.6 319.5 442.25 319.6 442.3 319.6 442.35 319.65 442.35 319.75 442.35 319.9 442.35 321 443 322.15 445.25 326.4 444.45 329.95 443.95 332.3 441.75 334.85 439 337.7 437.7 339.1 435.35 341.65 432.9 345.75 430.25 350.55 428.85 352.9 425.1 359.45 421.3 362.25 418.7 364.1 412.7 366.3
L 400.9 370.55
Q 396.55 372.2 393.9 372.25 392.3 372.3 389.45 371.65 386.3 370.95 384.95 370.85 382.65 370.7 379.35 371.45 375.65 372.4 373.75 372.75 364.8 374.55 354.2 371.2 347.05 369 336.2 363 328.7 358.85 325.4 355.3 321.6 351.3 318.85 343.85 316.95 338.75 317.6 335.65 318 333.7 320.1 330.4
L 322.45 326.75 326.5 320.35 326.95 319.65
Q 327.15 319.7 327.35 319.7
L 327.4 319.7
Q 327.65 319.7 327.9 319.6 328.6 319.3 329.3 318.05 333.75 309.4 339.75 301.9 339.6 299.55 339.85 297.9 340.1 296.3 341.2 293.3 342.7 289.4 343.75 287.6 344.8 285.9 347.4 282.8 351.15 278.45 353.55 276.95 355.7 275.65 359.55 274.6 364.85 273.15 365.8 272.8 367.6 272.25 368.25 272.5 368.8 272.7 369.65 273.5 370.4 274 372.2 274.5 373.8 275.1 374.85 276.45 377.45 276.1 380 276.25 385.1 276.6 389.05 279 391.95 280.75 396.1 285.2 400.65 290.05 403 291.7 405.65 293.55 412.4 296 Z"/>

<path fill="#762583" stroke="none" d="
M 327.4 319.7
L 327.35 319.7
Q 327.15 319.7 326.95 319.65
L 326.5 320.35
Q 327 319.85 327.4 319.7
M 380 276.25
Q 377.45 276.1 374.85 276.45 374.9 276.55 375 276.65 376.15 278.2 376.3 280 376.45 281.8 375.55 283.9 375 285.2 373.6 287.5
L 369.9 293.4
Q 365.95 299.75 363.5 302.8 358.4 309.3 352.95 310.55 350.35 311.2 347.6 310.6 344.9 310 342.75 308.4 341.5 307.45 340.75 306.2 340.1 305.05 339.8 302.65 339.75 302.25 339.75 301.9 333.75 309.4 329.3 318.05 328.6 319.3 327.9 319.6 328.4 319.6 329.45 319.85 331.2 320.3 331.7 320.7 332.45 321.35 332.9 322.45 333.4 324.1 332.9 325.9 332.4 327.6 331.2 328.95 330.25 330.15 329.2 330.6 327.15 331.4 324.9 330.1 323.65 329.4 322.95 328.25 322.5 327.5 322.45 326.75
L 320.1 330.4
Q 318 333.7 317.6 335.65 316.95 338.75 318.85 343.85 321.6 351.3 325.4 355.3 328.7 358.85 336.2 363 347.05 369 354.2 371.2 364.8 374.55 373.75 372.75 375.65 372.4 379.35 371.45 382.65 370.7 384.95 370.85 386.3 370.95 389.45 371.65 392.3 372.3 393.9 372.25 396.55 372.2 400.9 370.55
L 412.7 366.3
Q 418.7 364.1 421.3 362.25 425.1 359.45 428.85 352.9 430.25 350.55 432.9 345.75 435.35 341.65 437.7 339.1 439 337.7 441.75 334.85 443.95 332.3 444.45 329.95 445.25 326.4 443 322.15 442.35 321 442.35 319.9 442.35 319.75 442.35 319.65 442.3 319.6 442.25 319.6 441.6 319.5 440.6 318.6 435.85 314.3 432 309.1 431.95 309 431.9 308.95 431.6 309.3 431.25 309.65 429.5 311.4 427.5 311.9 425.2 312.45 423.15 311.55 421.9 310.95 420.7 309.55 420.15 308.9 418.75 306.95 417.35 305.1 417 304.45
L 414.55 300.35
Q 413.35 298.5 412.4 296 405.65 293.55 403 291.7 400.65 290.05 396.1 285.2 391.95 280.75 389.05 279 385.1 276.6 380 276.25
M 380.6 326.25
Q 381.5 326.25 382.35 326.7 384.4 327.6 385.15 329.9 385.8 332.15 384.6 334.15 384.05 335.15 383.05 335.85 381.6 336.85 379.8 336.85 377.95 336.9 376.5 335.95 375.25 335.15 374.7 333.8 374.1 332.35 374.7 331.1 375.1 330.35 376.1 329.5 377.5 328.4 377.75 328.1
L 378.95 326.75
Q 379.65 326.25 380.6 326.25
M 403.85 330.95
Q 404.45 332.35 404.5 332.8 404.6 333.5 404.5 334.15
L 404.3 340.35 406.95 336.65
Q 408.85 333.9 410.5 332.05 412.2 330.15 413.8 329.8 414.8 329.6 415.8 330.1 416.8 330.6 417 331.55 417.15 332.4 416.45 334 414.45 338.8 414.2 344.05 414.2 344.15 414.2 344.2 414.6 344.25 414.95 344.35 415.75 344.7 416.55 345.4 418.3 346.95 418.65 348.05 419.1 349.4 418.45 351.5 417.6 354.3 415.95 356.2 415.15 357.15 413.15 358.65 410.75 360.4 409.95 360.75 408.6 361.45 406.1 362.15 403.55 362.85 401 363.2 397.4 363.6 391.8 363.15 389.35 362.95 388.25 362.5 386 361.6 384.85 359.2 383.8 356.95 384.1 354.4 384.3 353 384.8 352.25 385.8 350.85 389.15 350.55
L 390.95 350.4 393.65 341.55
Q 394.8 337.8 395.5 336.15 396.7 333.3 398.3 331.25 399.35 329.8 400.4 329.4 402 328.65 403.05 329.65 403.45 330.05 403.85 330.95
M 341.4 339.55
Q 342 337.85 342.5 337.05 343.7 335.45 344.3 334.6 345.4 332.85 345.7 332.6 346.85 331.55 347.9 331.95 348.3 332.1 349.05 332.85 349.85 333.6 353.05 335.75 354.1 336.5 354.4 337.05
L 354.45 337.1
Q 354.45 337.05 354.5 337.05 354.7 337 354.75 336.9 355.65 336.8 356.15 337.6 356.15 337.65 356.2 337.65 356.15 336.9 357 336.25 357.7 335.8 359 335.6 360.4 335.35 361.35 335.4 362.7 335.5 363.45 336.25 364.55 337.3 364.35 340.3 364.05 343.85 363.2 345.4 362.15 347.3 359.35 348.9 355.9 350.9 352.05 351.5 349.6 351.95 347.9 351.25 346.95 350.85 345.85 349.8 344.65 348.55 344 347.95 342.7 346.85 342.1 346.2 341.05 345.15 340.75 344.15 340.3 342.6 341.4 339.55 Z"/>

<path fill="#54B997" stroke="none" d="
M 330.1 324.5
L 330 323.7 329.85 323.25 329.4 323.1
Q 328.6 323.1 327.85 323.55 327 324.05 325.85 325.8 325.55 326.1 325.5 326.35 325.5 326.75 326 327.05 326.9 327.75 327.5 327.7 328.05 327.7 328.75 327.1 329.35 326.4 329.6 325.95 330.05 325.15 330.1 324.5
M 377.5 332.65
L 377.75 332.95
Q 378.7 333.7 379.35 333.75 380.15 333.85 381.5 332.9 382.2 332.4 382.3 332
L 382.25 331.35
Q 381.95 330.15 381.55 329.75 381.45 329.55 381.25 329.55 381.05 329.55 380.85 329.75 378.55 331.2 377.7 332.2 377.5 332.4 377.5 332.65 Z"/>

<path fill="#850085" stroke="none" d="
M 344 341.15
Q 343.5 342.5 343.8 343.3 344 343.95 344.8 344.6 345.2 344.95 346.1 345.65 346.35 345.85 347.35 347 348.05 347.9 348.7 348.2 349.65 348.65 351.5 348.35 355.65 347.7 358.75 345.65 360.35 344.65 360.8 343.55 361.15 342.75 361.15 341.05 361.1 339.25 361.4 338.5 360.85 338.4 360 338.6 359.1 338.9 358.65 338.95 357.9 339.1 357.25 338.9 356.7 338.7 356.4 338.35 356.4 337.95 356.2 337.65 356.15 337.65 356.15 337.6 355.65 336.8 354.75 336.9 354.7 337 354.5 337.05 354.45 337.05 354.45 337.1 354.25 337.15 354.2 337.15 354.1 337.2 353.7 337.55
L 353.5 337.95 353.45 338.3
Q 353.45 338.75 353.65 339.15 353.25 339.15 352.85 339.05 352.4 338.95 351.5 338.35
L 347.55 335.55
Q 345.2 337.95 344 341.15 Z"/>

<path fill="#62006C" stroke="none" d="
M 342.5 337.05
Q 342 337.85 341.4 339.55 340.3 342.6 340.75 344.15 341.05 345.15 342.1 346.2 342.7 346.85 344 347.95 344.65 348.55 345.85 349.8 346.95 350.85 347.9 351.25 349.6 351.95 352.05 351.5 355.9 350.9 359.35 348.9 362.15 347.3 363.2 345.4 364.05 343.85 364.35 340.3 364.55 337.3 363.45 336.25 362.7 335.5 361.35 335.4 360.4 335.35 359 335.6 357.7 335.8 357 336.25 356.15 336.9 356.2 337.65 356.4 337.95 356.4 338.35 356.7 338.7 357.25 338.9 357.9 339.1 358.65 338.95 359.1 338.9 360 338.6 360.85 338.4 361.4 338.5 361.1 339.25 361.15 341.05 361.15 342.75 360.8 343.55 360.35 344.65 358.75 345.65 355.65 347.7 351.5 348.35 349.65 348.65 348.7 348.2 348.05 347.9 347.35 347 346.35 345.85 346.1 345.65 345.2 344.95 344.8 344.6 344 343.95 343.8 343.3 343.5 342.5 344 341.15 345.2 337.95 347.55 335.55
L 351.5 338.35
Q 352.4 338.95 352.85 339.05 353.25 339.15 353.65 339.15 353.45 338.75 353.45 338.3
L 353.5 337.95 353.7 337.55
Q 354.1 337.2 354.2 337.15 354.25 337.15 354.45 337.1
L 354.4 337.05
Q 354.1 336.5 353.05 335.75 349.85 333.6 349.05 332.85 348.3 332.1 347.9 331.95 346.85 331.55 345.7 332.6 345.4 332.85 344.3 334.6 343.7 335.45 342.5 337.05 Z"/>

<path fill="#542583" stroke="none" d="
M 401.4 337.7
L 401.4 334.65
Q 401.4 333.45 401.3 332.85 400.7 333.15 399.85 334.4 398.05 337.5 397.6 338.9 397.35 339.7 397 341.4
L 394.25 350.05 395.55 349.9
Q 397.4 349.7 398.15 350.45 398.15 350.9 397.8 351.25 397.8 351.4 397.8 351.65 397.75 352.5 397.15 352.95 396.75 353.25 396.15 353.4 395.4 353.55 395.05 353.6 393.95 353.8 392.55 354.5 390.95 355.3 390.15 355.7 390.35 357.1 391 358.4 391.4 359.25 391.95 359.7 392.65 360.25 394.25 360.45 396.45 360.75 398.6 360.75 402.05 360.85 404.4 359.95 406.4 359.25 409 357.1 410.85 355.6 411.55 354.3 412.05 353.45 412.5 351.65 412.9 350.5 412.75 349.7 412.65 348.9 411.95 348.1 411.8 347.95 410.55 346.75 409.95 346.25 409.95 345.8 409.95 345.05 411.15 344.75 410.85 343.85 411.1 342.45 411.5 339.65 413 333.9 409.3 338.15 405.85 343.35 405.6 343.75 405.4 344.05 405.45 344.15 405.5 344.25 405.7 344.8 405.4 345.35 405.15 345.9 404.55 346.1 403.4 346.5 402.4 345.5 401.7 344.8 401.4 343.4 401.15 342.25 401.2 340.55 401.35 338.65 401.4 337.7 Z"/>

<path fill="#F3BAFF" stroke="none" d="
M 343.75 287.6
Q 342.7 289.4 341.2 293.3 340.1 296.3 339.85 297.9 339.6 299.55 339.75 301.9 339.75 302.25 339.8 302.65 340.1 305.05 340.75 306.2 341.5 307.45 342.75 308.4 344.9 310 347.6 310.6 350.35 311.2 352.95 310.55 358.4 309.3 363.5 302.8 365.95 299.75 369.9 293.4
L 373.6 287.5
Q 375 285.2 375.55 283.9 376.45 281.8 376.3 280 376.15 278.2 375 276.65 374.9 276.55 374.85 276.45 373.8 275.1 372.2 274.5 370.4 274 369.65 273.5 368.8 272.7 368.25 272.5 367.6 272.25 365.8 272.8 364.85 273.15 359.55 274.6 355.7 275.65 353.55 276.95 351.15 278.45 347.4 282.8 344.8 285.9 343.75 287.6
M 370.45 277.4
Q 370.65 277.35 370.85 277.3 371 277.35 371.1 277.4 372.25 277.95 372.8 278.85 373.6 280.15 373.05 281.9 372.7 283.1 371.6 284.75
L 366.7 292.7
Q 362.5 299.55 359.55 302.7 356.05 306.65 352.3 307.5 348.7 308.3 345.5 306.5 344.1 305.7 343.45 304.7 342.9 303.8 342.7 302 342.6 300.2 343.15 297.85 348.15 292.15 354.05 287.1 362.9 279.7 370.45 277.4
M 411.85 294.3
Q 412.1 295.15 412.4 296 413.35 298.5 414.55 300.35
L 417 304.45
Q 417.35 305.1 418.75 306.95 420.15 308.9 420.7 309.55 421.9 310.95 423.15 311.55 425.2 312.45 427.5 311.9 429.5 311.4 431.25 309.65 431.6 309.3 431.9 308.95 432.4 308.3 432.65 307.6 432.95 306.8 432.95 304.6 432.95 303.7 432.8 302.7 432.65 301.75 432.25 300.6 431.55 298.6 430.6 296.75
L 429.1 294
Q 428.7 293.15 428.35 292.65 427.8 292 426.85 291.2 425.55 290.3 424.8 290.05 423.95 289.75 422.55 289.65 421.3 289.55 419.35 289.65 416.7 289.75 416.1 289.75 414.5 289.75 413.7 289.9 412.35 290.25 411.8 291.2 411.2 292.15 411.85 294.3
M 427.5 303.4
Q 428.5 304.4 429.7 305.95 429.4 307 428.65 307.85 427.85 308.75 426.75 308.95 425.1 309.25 423.4 307.9 422.65 307.3 421.1 305.05 418.55 301.15 417.45 299.2 416.95 298.3 416.5 297.4 424.15 300.1 427.5 303.4 Z"/>

<path fill="#E981FF" stroke="none" d="
M 370.85 277.3
Q 370.65 277.35 370.45 277.4 362.9 279.7 354.05 287.1 348.15 292.15 343.15 297.85 342.6 300.2 342.7 302 342.9 303.8 343.45 304.7 344.1 305.7 345.5 306.5 348.7 308.3 352.3 307.5 356.05 306.65 359.55 302.7 362.5 299.55 366.7 292.7
L 371.6 284.75
Q 372.7 283.1 373.05 281.9 373.6 280.15 372.8 278.85 372.25 277.95 371.1 277.4 371 277.35 370.85 277.3
M 429.7 305.95
Q 428.5 304.4 427.5 303.4 424.15 300.1 416.5 297.4 416.95 298.3 417.45 299.2 418.55 301.15 421.1 305.05 422.65 307.3 423.4 307.9 425.1 309.25 426.75 308.95 427.85 308.75 428.65 307.85 429.4 307 429.7 305.95 Z"/>

<path fill="#332301" stroke="none" d="
M 410.25 137.45
Q 410.4 138.15 410.9 138.6 411.5 139.25 413.25 139.85
L 414.45 140.25
Q 414.4166015625 140.5515625 414.4 140.9
L 414.4 152.8
Q 414.4 155.7 414 157.1 413.8666015625 157.6 413.75 158 411.468359375 159.86015625 410.45 161.65 410 162.5 409.95 163.4 409.95 164.4 410.65 164.8 411.6 165.35 413.4 164.1
L 416.5 161.85
Q 416.9705078125 161.6294921875 417.3 161.25
L 419.65 159.55
Q 423.15 157.05 425 155.4 427.75 152.95 429.3 150.35 430.85 147.65 430.55 145.55 430.25 143.7 428.35 141.9 426 139.7 421.65 138.25 419.4751953125 137.6193359375 417.75 137.1 417.608984375 136.9419921875 417.4 136.85 417.04296875 136.7224609375 416.65 136.75 415.2228515625 136.27578125 414.2 135.9 411.3 134.9 410.45 136.15 410.1 136.7 410.25 137.45
M 418.6 141.6
L 420.75 142.3
Q 425.6 143.9 425.85 146.65 425.95 148.25 424.45 150.15 422.9662109375 151.895703125 418.45 154.75
L 418.6 141.6
M 461.65 147.1
Q 461.75 144.4 461.65 139.05 461.65 137.25 461.15 136.55 460.6 135.75 459.55 135.65 458.45 135.55 457.9 136.3 457.5 136.9 457.5 138.35
L 457.5 150.6
Q 457.55 152.15 457.9 153.95 458.2 155.5 458.95 155.95 459.5 156.3 460.25 156.15 460.9 155.95 461.35 155.4 462.15 154.55 462.05 152.85
L 461.65 150.2
Q 461.55 149.15 461.65 147.1
M 331.55 161.5
L 325.35 162.35
Q 322.2 162.75 320.95 161.6 320 160.7 319.8 158.6 319.55 155.35 320.55 149
L 322.55 136.2
Q 322.9 133.7 322.35 132.7 321.9 131.9 321 131.6 320 131.3 319.4 131.9 318.95 132.3 318.75 133.6
L 316.5 149.55
Q 315.5 156.45 315.8 160 316.3 165.2 319.4 166.7 320.35 167.15 321.75 167.2 322.6 167.25 324.25 167.1
L 331.85 166.05
Q 333.6 165.75 334.45 165.2 335.05 164.75 335.35 164.1 335.65 163.4 335.45 162.8 334.9 161.05 331.55 161.5
M 378.25 148.3
Q 378.4134765625 148.38984375 378.6 148.45 378.3908203125 148.5830078125 378.2 148.75 377.75 149.2 377.7 149.6 377.653125 149.974609375 378.15 151.1
L 375.55 156.55
Q 374.35 159.3 375.55 160.3 376.05 160.7 376.8 160.65 377.5 160.55 378.05 160.1 378.7 159.6 379.55 157.9
L 383.85 148.8
Q 384.988671875 148.7982421875 386.5 148.75 388.0171875 148.7060546875 389.25 148.75 389.872265625 152.8798828125 390.15 156.85 390.25 158.6 390.9 159.3 391.4 159.85 392.15 159.95 392.95 160 393.55 159.6 394.85 158.65 394.45 155.6
L 393.55 149.25
Q 394.033203125 149.32109375 394.35 149.3 395.75 149.2 396.2 148.15 396.5 147.5 396.2 146.75 395.95 146.1 395.3 145.65 394.4994140625 145.1162109375 392.95 144.9 392.561328125 142.6685546875 392.1 141.1 390.85 137.05 388.25 136.75 386.45 136.5 384.8 138.15 383.8 139.25 382.8 141.45
L 381.3 144.6
Q 380.878515625 144.5947265625 380.45 144.6 377.75 144.6 377.25 146.05 377.05 146.65 377.35 147.35 377.65 147.95 378.25 148.3
M 388.6 144.65
Q 387.3548828125 144.6099609375 385.85 144.6
L 385.95 144.45
Q 387 142.3 388.15 142.05 388.4056640625 143.3533203125 388.6 144.65
M 366.9 140.45
Q 365.85 138.1 364.5 137.25 362.85 136.15 359.45 136.65 356.65 137.15 355.55 138.05 354.7 138.75 354.4 139.8 354.1 140.95 354.6 141.8 354.75 142 355.3 142.65 355.75 143.15 355.9 143.5 356.2 144.2 355.8 145.65 355 149.05 354.85 152 354.75 154.5 355.5 155.7 356.25 156.85 357.7 157.2 359.15 157.55 360.5 157.1 362.65 156.35 364.7 153.55 366.6 150.85 367.6 147.55 368.15 145.4 368.05 144.1 367.95 142.7 366.9 140.45
M 360.75 141.25
Q 361.15 140.9 362 141 363.6 142.5 363.6 143.75 363.6 144 363.35 145 363.2 145.7 363.05 147.05 362.85 148.3 362.45 149 361.6 149.95 361.2 150.45 360.45 151.4 360.55 152.2
L 358.95 152.75
Q 359 149.15 360.4 142.15 360.5 141.6 360.75 141.25
M 499.45 133.95
Q 498.75 132.95 497.4 133.05 496.05 133.1 495.7 134.2 495.6 134.6 495.65 135.25 495.65 135.6 495.75 136.25 495.8 137.05 495.5 138.5 495.2 140 495.2 140.7 495.2 141 495.85 144.2 496.3 146.3 495.55 147.45
L 488.85 141.3
Q 485.9 138.55 483.85 139.1 482.9 139.3 482.15 140.2 481.45 141.05 481.2 142.15 480.9 143.5 481.3 146.35
L 482.75 156.4
Q 483.05 158.35 483.6 159.1 484.05 159.75 484.75 160 485.5 160.3 486.1 160 487.45 159.35 487.1 156.55
L 485.5 144.4 491.6 150.1
Q 494.5 152.8 496.6 152.65 498.45 152.45 499.55 150.6 500.6 148.85 500.55 146.75 500.55 145.55 500.1 142.9 499.65 140.4 499.75 139 500 137.25 500.05 136.35 500.1 134.85 499.45 133.95
M 543.85 129.55
Q 543.95 128.9 543.65 128.3 543.4 127.65 542.85 127.45 541.35 126.85 539.75 129.2 537 133.3 533.45 140.45 530.65 146 532.4 148.85 533.95 151.15 537.3 151.35 539.35 151.4 542.9 150.35
L 547.05 149.15
Q 547.17109375 149.1197265625 547.25 149.1 548.030859375 149.76015625 549.05 149.45 550.25 149.1 550.5 148 550.6169921875 147.45390625 550.3 146.4 550.299609375 146.198828125 550.25 146 550.1673828125 145.6486328125 549.95 145.35
L 548.15 140.65
Q 547.5 139.2 546.95 138.8 546.25 138.3 545.3 138.55 544.35 138.85 544 139.65 543.65 140.65 544.35 142.45
L 545.25 144.7
Q 544.5689453125 144.91171875 543.8 145.2 541.6 146.1 540.45 146.45 538.9 147 537.85 146.75 537.15 146.6 536.65 146.1 536.15 145.6 536.1 145 536.1 144.35 536.55 143.55 539.2 137.95 542.9 131.85 543.75 130.2 543.85 129.55 Z"/>

<path fill="#660000" stroke="none" d="
M 717.05 319.85
Q 712.4 321.15 709.85 320.65 707.2 320.2 704.95 318.25 702.9 316.45 701.55 313.8 699.95 310.65 699.8 307.9 699.65 305.7 700.6 301.7 701.65 297.45 701.65 295.5 695.3953125 302.553125 693 311.65 692.998828125 311.7255859375 693 311.8 693.15 312.95 693.6 314.5 693.9 315.4 694.5 317.2 696.65 324.65 693.55 333.75 691.45 339.9 685.65 348.65 684.8 350.05 684.65 350.4 684.1 351.4 684.05 352.3 683.95 353.15 684.4 355.25 685.530078125 359.8755859375 686.1 364.5 686.6412109375 364.6875 687 365.45 687.25 365.95 687.65 366.95 688.7 368.9 692.8 368.7 698.9 368.35 702.85 367.5 708.25 366.35 712.1 363.95 716.55 361.2 718.85 356.6 721.3 351.7 720 347.05 718.65 343.65 718 342 716.8 339 717.25 336.9 717.75 334.75 720 332.75 721.3 331.55 724.15 329.45 728 326.3 730.05 321.6 732.15 316.9 731.9 312 730.5 311.95 728.95 313.15 727.25 314.7 726.4 315.45 723.5 318.05 717.05 319.85
M 702.45 328.4
Q 702.7 328.5 705.95 329.8 708 330.65 709.15 331.6 710.5 332.7 710.65 332.75 711.1 332.95 712.1 333.2 713.05 333.5 712.95 334.3 712.95 335.25 711.2 335.45 710.5 335.5 710.3 335.5 709.75 335.5 709.4 335.25 708.8 334.7 708.45 334.45 707.9 334 706.15 333.55 702.5 332.7 699.9 331.25 698.4 330.35 696.3 328.8 695.9 328.5 695.85 328.25 695.7 327.8 696.2 327.4 697.35 326.4 699.4 326.95 700.1 327.15 700.95 327.6 701.45 327.85 702.45 328.4
M 689.9 345.85
Q 690.65 344.35 692.7 344 694.05 343.85 696.2 344.3 702.4 345.65 707.9 348.9 709.4 349.85 709.75 350.65 710.25 351.7 709.65 352.7 708.7 354.3 705.7 354.1 702.35 353.85 698.65 352.25 696 351.05 692.2 348.7 689.9 347.35 689.9 345.85
M 694.7 335.25
Q 694.8 334.7 695.7 334.5 698.55 333.7 703.3 336.35 706.8 338.25 708.45 339.9 708.6115234375 340.0615234375 708.7 340.2 709.08828125 340.593359375 709.4 341 707.75 342.45 706.75 342.7 706 342.85 704.25 342.65 702.15 342.25 700.25 341.75 697.25 340.9 696.1 339.45 695.9 339.2 695.05 337.65 694.45 336.6 693.75 336.15 694.441015625 335.676171875 695.25 335.45
L 694.7 335.25
M 704.55 356.75
Q 705.45 356.75 706.1 357.4 706.75 358.15 706.6 359 706.5 359.7 705.9 360.2 705.3 360.7 704.6 360.65 703.95 360.65 703.4 360.1 702.85 359.55 702.8 358.85 702.75 358.15 703.2 357.55 703.7 356.95 704.4 356.85
L 704.55 356.8 704.6 356.8 704.55 356.75
M 695.85 358.75
Q 696.5 358.1 697.3 358.2 698.5 358.3 699 359.4 699.45 360.55 698.6 361.4 697.75 362.4 696.5 361.9 696 361.7 695.65 361.2 695.3 360.7 695.3 360.15 695.3 359.3 695.85 358.75
M 617.15 340.15
Q 616.05 340.1 613.85 340.3
L 604.35 341.25
Q 603.05 341.45 602.95 342.1 603.6 342.75 605.35 342.65 606.246484375 342.6029296875 607.15 342.5 606.9033203125 343.9607421875 607.2 344.9 607.4 345.6 608.2 346.8 609.95 349.3 610.35 349.75 610.95 350.35 611.35 350.55 611.45 350.6 612.95 351.15 614.15 351.6 614.2 351.6 614.65 351.65 615.6 351.5 615.9 351.5 616.8 351.55 617.55 351.65 618 351.55 618.6 351.45 619.45 350.95 620.6 350.2 620.8 350.1 621.2 349.9 622.05 349.55 622.7 349.15 622.8 349.15 622.95 349.1 623.35 349 623.5865234375 348.8580078125 623.7 348.25 624.28203125 348.321484375 625.7 348.1 626.4 348 626.7 347.75 626.95 347.55 626.9 347.35 626.85 347.15 626.5 347.05 625.9 346.85 625.4 346.4 624.8 345.85 624.1 344.7 623.25 343.3 622.95 342.9 621.75 341.4 619.6 340.65 618.2 340.2 617.15 340.15
M 608.1 342.45
Q 610.5720703125 342.2494140625 613.05 341.9 615.55 341.6 616.8 341.95 618.25 342.4 619.3 343.75
L 620.25 345.15
Q 620.479296875 345.6087890625 620.65 345.95 619.6830078125 346.461328125 619.4 346.65 618.45 347.35 618.4 347.35 617.85 347.6 616.85 347.55 615.45 347.5 615.2 347.5 614.2 347.6 614.05 347.6 613.75 347.55 613.15 347.25 611.6 346.7 611.45 346.6 611.2 346.45 610.45 345.7 609.4966796875 344.5560546875 608.1 342.45 Z"/>

<path fill="#000000" stroke="none" d="
M 697.3 358.2
Q 696.5 358.1 695.85 358.75 695.3 359.3 695.3 360.15 695.3 360.7 695.65 361.2 696 361.7 696.5 361.9 697.75 362.4 698.6 361.4 699.45 360.55 699 359.4 698.5 358.3 697.3 358.2
M 706.1 357.4
Q 705.45 356.75 704.55 356.75
L 704.6 356.8 704.55 356.8 704.4 356.85
Q 703.7 356.95 703.2 357.55 702.75 358.15 702.8 358.85 702.85 359.55 703.4 360.1 703.95 360.65 704.6 360.65 705.3 360.7 705.9 360.2 706.5 359.7 706.6 359 706.75 358.15 706.1 357.4
M 713.7 308.3
Q 712.6193359375 307.8861328125 711.85 307.6 710.9591796875 307.3310546875 710.5 307.25 708.45 307 707.25 307.8 707.25 308.2 707.85 308.4
L 710.7 309.35 714.5 310.65
Q 714.9515625 310.7951171875 715.35 310.9 717.541796875 311.5015625 718.8 311.25 719.2716796875 311.126953125 719.6 310.9 720.1140625 310.6423828125 720.35 310.2 720.20390625 310.1716796875 720.05 310.15 718.03359375 309.7330078125 716 309.1 714.8609375 308.73984375 713.7 308.3
M 721.65 306.55
Q 721.25 306.05 720.4 305.7 719.5751953125 305.2482421875 718.55 304.7 716.951171875 303.9248046875 714.85 302.95
L 714.85 302.95
Q 713.1 302.3 712.45 302.25 711 302.1 710.2 303.1 710.9 303.55 712.35 304.3
L 713.6 304.9 716.1 306.15
Q 716.7689453125 306.484375 717.3 306.7 718.2529296875 307.1056640625 718.85 307.2 720.5 307.55 721.65 306.55
M 721.2 300.35
Q 722.474609375 300.620703125 723.3 300.55 724.55 300.55 724.85 299.7 724.5 299.45 723.4 299.1 722.7888671875 298.9626953125 722.2 298.8 720.388671875 298.350390625 718.7 297.75 718.29765625 297.6337890625 717.95 297.5 716.3158203125 297.08203125 715.7 297 714.62578125 296.846484375 713.75 297.1 713.1828125 297.241015625 712.7 297.55 712.8208984375 297.816015625 713.15 298 713.5302734375 298.2451171875 714.15 298.4
L 717 299.2 717.9 299.45
Q 719.8287109375 300.110546875 721.2 300.35
M 723.95 286.55
Q 725.4201171875 286.7771484375 726.35 286.6 727.5 286.4 727.5 285.7 726.1708984375 285.2416015625 724.8 284.95 723.1791015625 284.63125 721.5 284.55 721.5 284.75 721.1 284.75 720.8740234375 284.75 720.7 284.75 720.345703125 284.8021484375 720.15 284.9 719.6 285.15 719.55 285.6 719.857421875 285.680859375 720.15 285.75 721.7896484375 286.1646484375 723.55 286.5 723.750390625 286.534375 723.95 286.55
M 717.7 290.45
Q 717.4 290.75 717.55 290.95 719.334375 291.4666015625 721.05 291.8 721.1875 291.8287109375 721.3 291.85 723.5 292.25 724.55 292.05 725.55 291.7 725.6 291.15 723.8330078125 290.51015625 721.95 290.2 720.7501953125 290.00859375 719.5 289.95
L 718.2 290.25 717.7 290.45 Z"/>

<path fill="#666666" stroke="none" d="
M 695.7 334.5
Q 694.8 334.7 694.7 335.25
L 695.25 335.45
Q 694.441015625 335.676171875 693.75 336.15 694.45 336.6 695.05 337.65 695.9 339.2 696.1 339.45 697.25 340.9 700.25 341.75 702.15 342.25 704.25 342.65 706 342.85 706.75 342.7 707.75 342.45 709.4 341 709.08828125 340.593359375 708.7 340.2 708.6115234375 340.0615234375 708.45 339.9 706.8 338.25 703.3 336.35 698.55 333.7 695.7 334.5
M 692.7 344
Q 690.65 344.35 689.9 345.85 689.9 347.35 692.2 348.7 696 351.05 698.65 352.25 702.35 353.85 705.7 354.1 708.7 354.3 709.65 352.7 710.25 351.7 709.75 350.65 709.4 349.85 707.9 348.9 702.4 345.65 696.2 344.3 694.05 343.85 692.7 344
M 705.95 329.8
Q 702.7 328.5 702.45 328.4 701.45 327.85 700.95 327.6 700.1 327.15 699.4 326.95 697.35 326.4 696.2 327.4 695.7 327.8 695.85 328.25 695.9 328.5 696.3 328.8 698.4 330.35 699.9 331.25 702.5 332.7 706.15 333.55 707.9 334 708.45 334.45 708.8 334.7 709.4 335.25 709.75 335.5 710.3 335.5 710.5 335.5 711.2 335.45 712.95 335.25 712.95 334.3 713.05 333.5 712.1 333.2 711.1 332.95 710.65 332.75 710.5 332.7 709.15 331.6 708 330.65 705.95 329.8 Z"/>

<path fill="#31230F" stroke="none" d="
M 715.5 314.3
Q 715.6787109375 314.605859375 715.95 314.85 716.5 315.35 717.05 315.15 717.5 315 717.95 314.1 718.09140625 313.811328125 718.25 313.5 718.8111328125 312.394140625 719.6 310.9 719.2716796875 311.126953125 718.8 311.25 717.541796875 311.5015625 715.35 310.9 714.990625 312.4240234375 715.3 313.7 715.3685546875 314.0201171875 715.5 314.3
M 714.85 302.95
L 714.85 302.95
Q 715.631640625 301.674609375 717 299.2
L 714.15 298.4
Q 713.5302734375 298.2451171875 713.15 298 712.0283203125 299.8658203125 710.5 302.25 707.45 307 706.5 308.5 705.446875 310.1646484375 704.85 311.5 704.5763671875 312.1390625 704.4 312.7 703.6 315.15 704.35 317.05 704.7 317.7 705.05 317.65 705.4 317.65 705.7 317.15
L 707.6 314.2 710.7 309.35 707.85 308.4
Q 707.25 308.2 707.25 307.8 708.45 307 710.5 307.25 710.9591796875 307.3310546875 711.85 307.6
L 713.6 304.9 712.35 304.3
Q 710.9 303.55 710.2 303.1 711 302.1 712.45 302.25 713.1 302.3 714.85 302.95
M 717.55 290.95
Q 717.4 290.75 717.7 290.45
L 718.2 290.25 719.5 289.95
Q 720.7501953125 290.00859375 721.95 290.2
L 723.95 286.55
Q 723.750390625 286.534375 723.55 286.5 721.7896484375 286.1646484375 720.15 285.75 716.443359375 292.665625 714.45 295.9 714.1205078125 296.4568359375 713.75 297.1 714.62578125 296.846484375 715.7 297 716.3158203125 297.08203125 717.95 297.5 718.259375 296.9666015625 718.6 296.35
L 721.05 291.8
Q 719.334375 291.4666015625 717.55 290.95
M 742.3 257.55
Q 741.55 255.95 739.7 254.65 738.5 253.75 736.2 252.65 732.85 251.05 731 251.8 729.4 252.45 727.85 255.6
L 727.5 256.3
Q 728.1232421875 256.7869140625 728.3 257.45 728.5 258.25 728.05 259 727.6 259.8 726.8 259.95 726.4837890625 259.989453125 725.85 259.9
L 725.6 260.45
Q 724.53984375 262.6625 723.95 264.45 725.19296875 264.6341796875 725.75 265.4 726.15 266 726.05 266.8 725.95 267.6 725.4 268.05 724.607421875 268.710546875 723.25 268.55 723.37421875 269.9158203125 723.95 273 724.5 276.05 724.05 277.9 723.8 278.9 722.8 280.8 721.6875 282.9080078125 720.7 284.75 720.8740234375 284.75 721.1 284.75 721.5 284.75 721.5 284.55 723.1791015625 284.63125 724.8 284.95 726.178125 282.2412109375 726.5 281 727.2 278.25 726.35 273.75 725.8 270.55 726 269.15 726.15 267.5 727.55 264.5
L 729.6 260.1
Q 730.4 258.4 731.3 257.9 732.45 257.35 734.25 257.9 737.45 258.9 740 261 738.25 268.95 734.15 277.7 731 284.35 725.55 293.35
L 722.2 298.8
Q 722.7888671875 298.9626953125 723.4 299.1 724.5 299.45 724.85 299.7 724.55 300.55 723.3 300.55 722.474609375 300.620703125 721.2 300.35
L 718.55 304.7
Q 719.5751953125 305.2482421875 720.4 305.7 721.25 306.05 721.65 306.55 720.5 307.55 718.85 307.2 718.2529296875 307.1056640625 717.3 306.7 716.5072265625 308.0767578125 716 309.1 718.03359375 309.7330078125 720.05 310.15 722.8796875 305.0759765625 728.3 296.2 735.1 285.1 737.85 277.9 738.15 277.1 739.85 272.2
L 741.7 266.65
Q 742.65 263.75 742.9 262.05 743.2 259.45 742.3 257.55 Z"/>

<path fill="#4C351D" stroke="none" d="
M 715.35 310.9
Q 714.9515625 310.7951171875 714.5 310.65
L 710.7 309.35 707.6 314.2
Q 708.7708984375 314.75 710.55 314.75 713.0857421875 314.814453125 715.5 314.3 715.3685546875 314.0201171875 715.3 313.7 714.990625 312.4240234375 715.35 310.9
M 711.85 307.6
Q 712.6193359375 307.8861328125 713.7 308.3 714.8609375 308.73984375 716 309.1 716.5072265625 308.0767578125 717.3 306.7 716.7689453125 306.484375 716.1 306.15
L 713.6 304.9 711.85 307.6
M 717.9 299.45
L 717 299.2
Q 715.631640625 301.674609375 714.85 302.95 716.951171875 303.9248046875 718.55 304.7
L 721.2 300.35
Q 719.8287109375 300.110546875 717.9 299.45
M 734.25 257.9
Q 732.45 257.35 731.3 257.9 730.4 258.4 729.6 260.1
L 727.55 264.5
Q 726.15 267.5 726 269.15 725.8 270.55 726.35 273.75 727.2 278.25 726.5 281 726.178125 282.2412109375 724.8 284.95 726.1708984375 285.2416015625 727.5 285.7 727.5 286.4 726.35 286.6 725.4201171875 286.7771484375 723.95 286.55
L 721.95 290.2
Q 723.8330078125 290.51015625 725.6 291.15 725.55 291.7 724.55 292.05 723.5 292.25 721.3 291.85 721.1875 291.8287109375 721.05 291.8
L 718.6 296.35
Q 718.259375 296.9666015625 717.95 297.5 718.29765625 297.6337890625 718.7 297.75 720.388671875 298.350390625 722.2 298.8
L 725.55 293.35
Q 731 284.35 734.15 277.7 738.25 268.95 740 261 737.45 258.9 734.25 257.9 Z"/>

<path fill="#330000" stroke="none" d="
M 700.1 290
Q 695.8 293.9 694.35 296.25 692.7 298.9 691.95 302.7 691.826953125 303.2779296875 691.7 304 691.3515625 306.18125 691.05 309.65 690.75 313.15 692.45 314 692.692578125 312.809765625 693 311.65 695.3953125 302.553125 701.65 295.5 701.65 297.45 700.6 301.7 699.65 305.7 699.8 307.9 699.95 310.65 701.55 313.8 702.9 316.45 704.95 318.25 707.2 320.2 709.85 320.65 712.4 321.15 717.05 319.85 723.5 318.05 726.4 315.45 727.25 314.7 728.95 313.15 730.5 311.95 731.9 312 732.15 316.9 730.05 321.6 728 326.3 724.15 329.45 721.3 331.55 720 332.75 717.75 334.75 717.25 336.9 716.8 339 718 342 718.65 343.65 720 347.05 721.3 351.7 718.85 356.6 716.55 361.2 712.1 363.95 708.25 366.35 702.85 367.5 698.9 368.35 692.8 368.7 688.7 368.9 687.65 366.95 687.25 365.95 687 365.45 686.6412109375 364.6875 686.1 364.5 686.06171875 364.5103515625 686 364.5 684.65 366.7 685.3 369.45 685.6904296875 371.239453125 686.75 372.45 687.2990234375 373.1109375 688.05 373.6 689.95 374.85 692.75 374.95 694.6 375 697.75 374.45 704.4 373.35 707.95 372.15 713.4 370.3 716.7 367.1 721.5 362.45 722.4 355.1 723.25 348.85 721 341.75 720.5 340.15 720.7 339.4 720.95 338.4 722.8 337.1 729.5 332.4 732.5 324.35 735.55 316.3 733.6 308.4 733.2 306.55 732.2 306.1 731.1 305.55 729.2 306.7 728.1 307.4 725.5 309.3 723.15 311.05 721.75 311.85 720.034765625 312.837109375 718.25 313.5 718.09140625 313.811328125 717.95 314.1 717.5 315 717.05 315.15 716.5 315.35 715.95 314.85 715.6787109375 314.605859375 715.5 314.3 713.0857421875 314.814453125 710.55 314.75 708.7708984375 314.75 707.6 314.2
L 705.7 317.15
Q 705.4 317.65 705.05 317.65 704.7 317.7 704.35 317.05 703.6 315.15 704.4 312.7 704.5763671875 312.1390625 704.85 311.5
L 703.8 310.45
Q 703.2 309.8 702.9 309.25 701.95 307.6 702.65 304.5 703.9 300.35 704.45 298.25 705.5 294.55 705.2 291.95 705.05 290.75 704.55 289.9 703.95 288.85 703 288.7 701.9 288.5 700.1 290 Z"/>

<path fill="#996633" stroke="none" d="
M 717.2 267.1
Q 717.1 268.15 717.35 268.75 717.75 269.9 718.95 270.05 720.15 270.2 720.9 269.3
L 721.5 268.55
Q 721.9 268.3 722.9 268.5 723.091015625 268.5357421875 723.25 268.55 724.607421875 268.710546875 725.4 268.05 725.95 267.6 726.05 266.8 726.15 266 725.75 265.4 725.19296875 264.6341796875 723.95 264.45 723.418359375 264.36953125 722.75 264.4 722.2 264.4 722 264.25 721.85 264.15 721.75 263.55 721.45 262.35 720.8 261.8 720.1 261.2 719.1 261.4 718.1 261.55 717.65 262.35 717.4 262.8 717.3 264.1
L 717.2 267.1
M 726.2 252.45
Q 725.95 251.65 725.2 251.15 724.4 250.6 723.65 250.9 722.95 251.15 722.35 252.2
L 721.75 254
Q 721.6 254.4 720.6 256.4 720 257.8 720.25 258.95 720.4 259.6 720.95 260.05 721.5 260.55 722.15 260.5 722.5 260.5 723.2 260.15 723.85 259.8 724.2 259.75 724.65 259.65 725.5 259.85 725.6884765625 259.8814453125 725.85 259.9 726.4837890625 259.989453125 726.8 259.95 727.6 259.8 728.05 259 728.5 258.25 728.3 257.45 728.1232421875 256.7869140625 727.5 256.3 727.4369140625 256.2580078125 727.35 256.2 726.6 255.7 725.75 255.75 726.6 253.75 726.2 252.45 Z"/>

<path fill="#5C0023" stroke="none" d="
M 663.7 252.65
Q 659.4 248.5 653.4 247.5 647.15 246.4 642.5 249.55 640.55 250.8 638.7 253.05 637.55 254.45 635.6 257.25 634.25 259.25 633.65 260.5 632.75 262.4 632.7 264.05 631.5 264.6 630.1 263.85 628.9 263.15 628.1 261.8 627.8 261.35 626.9 259.25 626.2 257.7 625.5 256.9 623.8 255.05 619.45 254.35 610.8 253.1 602.05 254.65 593.3 256.25 585.7 260.5 582.4 262.3 581.2 264.2 579.35 267.05 580.4 270.95 580.75 272.25 581.5 274.9 581.9 277.2 580.8 278.4 579.6 279.75 576.65 279.55 575.2 279.45 572.75 279.05 569.95 278.55 568.8 278.45 563.95 278 561.15 279.95 558.35 282 557.15 286.9 555.95 291.6 556.9 295.4 557.45 297.55 558.75 299.3 560.1 301.1 562.05 301.95 562.7 302.25 564 302.7 565.15 303.15 565.7 303.75 567.3 305.55 566.15 308.45 565.95859375 308.9287109375 565.65 309.55 563.8123046875 310.26875 561.25 312
L 556.55 315.25
Q 555.8794921875 315.6892578125 555.4 316.1 554.73203125 315.5181640625 553 315.05 549.45 313.6 547.55 313.2 544 312.55 542.25 314.6 541.3 315.65 540.85 318.75 540.45 322.9 540.75 324.95 541.35 328.45 543.6 330.3 544.25 330.8 545.95 331.65 547.55 332.4 548.3 333.05 549.65 334.15 551.3 337.6 552.0125 339.0939453125 552.7 340.1 554.71328125 341.2173828125 556 341.6 558.55 342.35 563.55 342.05 564.4984375 342.05 564.85 342.3 565.0958984375 342.2146484375 565.35 342.1 567.3490234375 341.3177734375 570.2 341.2 570.2330078125 341.2576171875 570.25 341.3 570.95 342.95 572.55 344.95 573.05 345.55 573.05 345.9 573.1 346.15 572.75 346.85 570.25 351.95 570.8 359.55 571.1 363.8 572.55 366.05 573.9 368.1 576.95 369.7 578.7 370.65 582.3 372.25 583.4 372.8 583.75 373.45 584.1 374.1 583.9 375.75 583.65 377.85 583.95 379.8 584.15 381.1 584.75 381.6 585.1 381.9 586.3 382.1 589.15 382.4 590.5 381.9 591.35 381.6 593.05 380.2 596.55 377.15 597.45 376.3 598.931640625 374.818359375 599.7 373.5 600.467578125 373.940234375 601.5 374.25 602.35 374.5 604.15 374.95 606.35 375.6 609.65 377.4 613.75 379.6 615 380.15 620.25 382.4 626.15 382.1 632.1 381.75 637.1 378.95 637.2412109375 378.865234375 638.45 378.05 638.6107421875 378.500390625 638.8 378.9 639.25 379.8 640.35 381
L 642.85 383.8
Q 644.8 385.85 646.15 386.2 647.15 386.5 647.65 385.9 647.85 385.7 647.95 385.25 648.05 384.7 648.1 384.45 648.2 384 649.3 382.45 650.05 381.4 650.4 379.9
L 650.85 377.8
Q 651.1 377.1 652 375.9 654.85 372.3 658.35 369.45 659.45 368.55 659.75 368.2 660.28515625 367.6265625 660.55 367.05 662.116796875 366.72890625 663.8 366.75 667.85 366.85 671.05 368.85 672.15 369.5 673.8 370.9 675.7 372.5 676.45 373 679.3 375.1 683.05 376.05 685.1 376.55 686.05 375.65 686.85 374.9 686.75 372.95 686.74453125 372.7037109375 686.75 372.45 685.6904296875 371.239453125 685.3 369.45 684.65 366.7 686 364.5 686.06171875 364.5103515625 686.1 364.5 685.530078125 359.8755859375 684.4 355.25 683.95 353.15 684.05 352.3 684.1 351.4 684.65 350.4 684.8 350.05 685.65 348.65 691.45 339.9 693.55 333.75 696.65 324.65 694.5 317.2 693.9 315.4 693.6 314.5 693.15 312.95 693 311.8 692.998828125 311.7255859375 693 311.65 692.692578125 312.809765625 692.45 314 690.75 313.15 691.05 309.65 691.3515625 306.18125 691.7 304 691.4998046875 303.7220703125 691.25 303.5 690.8763671875 302.79609375 690.4 302.1 687.2 297.4 682.1 296.7 683.45 293.6 683.65 290.15 683.8 286.65 682.75 283.45 681.75 280.6 679.95 280.35 679.4 280.25 678.35 280.55 677.2 280.85 676.75 280.85 675.6 280.9 674.6 280.15 673.7 279.45 673.15 278.3 672.65 277.15 672.3 273.7 671.15 259.9 663.7 252.65
M 649.1 373.05
Q 648.8544921875 373.6111328125 648.75 374.05
L 648.4 375.7
Q 648.25 376.4 647.65 377.45 646.8 379.4 646.55 380.1 645.8 380.6 644.65 379.55 642.9078125 378.046875 641.35 376.25 643.475 374.903515625 645.1 374.3 645.75 374.05 647.8 373.5 648.521484375 373.2876953125 649.1 373.05
M 552.7 320.85
Q 553.958203125 320.6783203125 554.35 320.6 556.1279296875 320.2580078125 557.55 319.7
L 557.8 319.5
Q 557.95 319.35 559.25 318.6
L 561.1 317.65
Q 563.45 316.4 564.85 315.95 565.878515625 315.6369140625 566.8 315.55 566.8875 315.4158203125 566.95 315.25 568.128515625 314.9189453125 569.15 314.9 571.6 314.85 574.35 316.55 575.3 317.15 579 319.95 581 321.45 582.6 322.45 585.2 324.1 587 324.2 588.35 324.25 589.95 323.55 590.55 323.3 592.75 322.1 596 320.3 599.75 319.15 599.3 322.25 598.15 325.25 596.75 328.8 594.9 330.3
L 594.05 331.05 587.55 335.75
Q 586.9533203125 335.6818359375 585.95 336.1 582.8 337.2 576.25 336 569.5 334.8 566.4 335.65 565.6 335.85 563.45 336.75 561.6 337.55 560.45 337.7 558.4 338 556.4 337.1 554.45 336.25 553.3 334.5 552.85 333.85 552.3 332.65 551.65 331.15 551.45 330.75 550 328.05 547.45 326.5 545.3 325.4 544.35 324.65 542.55 323.25 542.85 321.5 543.05 320.55 543.95 319.85 544.85 319.15 545.95 319.05 547.25 318.95 550.05 319.9
L 552.7 320.85
M 649.15 253.15
Q 653.4 252.55 657.75 254.5 661.8 256.4 664.65 259.95 669.6 266.15 670.5 276.4 670.6 277.5 670.8 279.6 671 281.45 671.5 282.7 672.15 284.3 673.3 285.35 674.6 286.5 676.15 286.6 677.1 286.65 679.1 286.45 680.8 286.45 681.3 287.5 681.75 288.4 680.9 290.35 679.25 294.5 679.7 299.05 679.9 301.25 680.95 302.2 681.7 302.8 683.2 303.05 685.3 303.35 685.65 303.45 687.6 304.15 689.3 307.2 689.734375 307.99453125 690.1 308.65 689.88828125 311.8845703125 690.8 315.2 690.9 315.55 691.85 318.35 692.5 320.25 692.7 321.55 693.05 324.55 691.7 328.9 689.4 336.3 684.95 342.3 683.7 344 683.1 344.85 682.1 346.4 681.65 347.65 680.3 351.35 682.45 358.6 684.8 366.25 684 369.7 680.25 370.2 675.6 366.4 673.25 364.4 672 363.45 669.9 361.8 668 361.15 663.45 359.55 657.25 362.2 655.4 363 652.3 364.7 648.9 366.55 647.4 367.25 642.75 369.1 640.5 370.25 639.5 370.75 636.25 372.7 633.65 374.25 631.9 374.95 627.5 376.7 622.15 376.05 617.35 375.45 612.5 373.05 608.95 371.2 607.15 370.3 603.95 368.7 601.55 368.2 600.6380859375 367.9916015625 599.95 368.05 599.6923828125 367.6884765625 599.35 367.4
L 597.7 369.2
Q 593.8 373.3 591.55 374.95 588.9 376.95 587.25 375.8 586.9 376.15 586.3 376.15 586.85 373.5 586.95 372.15 587.25 369.7 586 368.4 585.5 367.85 584 367.1
L 578.05 364.35
Q 574.6 362.7 573.65 361.05 572.75 359.35 573 356.75 573.15 355.15 573.8 353.5 575.3 350.65 575.75 349.15 576.6 346 574.9 342.5 574.6791015625 342.034765625 574.35 341.45 575.1548828125 341.594140625 575.9 341.75 576.9 341.95 578.9 342.45 580.005078125 342.66484375 580.9 342.75 581.0501953125 342.6421875 581.2 342.55 581.85 342.15 582.55 342.25 583.0509765625 342.321484375 583.45 342.65 584.271484375 342.5181640625 585.3 342.25 585.34765625 342.5044921875 585.45 342.65 586.5654296875 342.2572265625 587.85 341.8
L 593.8 337.45
Q 594.228515625 337.1642578125 594.55 336.85 595.05390625 336.7876953125 595.65 336.3 597.25 334.95 598.5 332.7 599.35 331.1 600.35 328.4 601.7 324.65 602 321.95 602.45 318.8 601.85 315.7
L 601.85 315.65 600.1 315.05
Q 597.7994140625 314.256640625 596.35 314.1 593.9326171875 315.108203125 592.8 315.75 591.15 316.75 590.3 317.2 588.8 317.95 587.6 318.05 585.3 318.3 582.35 316.4 581.1 315.6 578.85 313.85 576.5 312.05 575.35 311.3 575.1572265625 311.1751953125 574.95 311.05 574.5201171875 311.2583984375 574 311.15 573.04921875 311.007421875 572.65 309.85 570.727734375 309.04609375 568.9 308.95 569.3548828125 305.655859375 568.4 302.6 567.3 299.15 564.65 297.3 564.45 297.15 562.2 295.85 560.7 295 560 294.1 558.95 292.7 559.1 290.8 559.2 288.95 560.3 287.55 562.45 284.8 566.45 284.55 567.65 284.45 574.2 285.2 578.9 285.7 581.4 284.15 584.15 282.4 584.7 278.75 585.25 275.25 583.65 272.1 583 270.85 583 270.75 582.65 269.95 582.8 269.35 583 268.15 584.95 267.05 592.45 262.8 601 261 609.55 259.2 618.15 260 622.6 260.5 624.35 262.2 625.2 263.05 626.05 264.65 627.4 267.35 627.45 267.4 628.3 268.85 629.5 269.65 630.95 270.6 632.3 270.2 633.6 269.85 634.45 268.3 634.9 267.55 635.7 265.4 637.4 260.7 640.85 257.4 644.6 253.85 649.15 253.15
M 639.35 330.4
Q 639.25 329.75 638.45 329.05
L 637.05 328.1
Q 636.55 327.6 636.25 327.4 635.8 326.95 635.4 326.85 635.0875 326.7328125 634.75 326.75 634.2484375 326.76484375 633.7 327.1 632.35 327.8 631.7 329.3 631.05 330.75 631.25 332.35 631.5 334.5 632.85 335.6 633.55 336.2 634.45 336.45 635.45 336.7 636.3 336.4 637.1 336.1 638 335.2 638.3541015625 334.878125 638.6 334.55 639.1482421875 333.9263671875 639.25 333.35 639.3 333.05 639.25 332.45 639.2 331.8 639.2 331.55 639.35 330.5 639.35 330.4
M 635.6 330.65
L 635.7 331
Q 635.8 331.2 636.1 331.45 636.25 331.6 636.25 331.8 636.2892578125 332.074609375 636.25 332.3 636.1646484375 332.9546875 635.5 333.25
L 635.2 333.35
Q 634.7 333.4 634.4 332.7 634.15 332.15 634.15 331.2
L 634.2 330.75 634.85 330
Q 634.8958984375 330 634.95 330.05 635.0875 330.0916015625 635.25 330.2 635.55 330.4 635.6 330.65 Z"/>

<path fill="#FF6600" stroke="none" d="
M 662.9 291.55
Q 662.2 288.3 661.85 286.7 661.15 283.85 660.1 282.15 658.15 279.1 654.15 277.7 650.7 276.5 646.4 276.7 644.75 276.75 638.7 277.5 634 278.1 631.05 277.85 628.95 277.65 625.8 276.9 621.15 275.75 620.65 275.65 618.1 275.15 613.1 274.75 608.8 274.35 606.4 274.85 603.4 275.55 600.25 277.95 598.55 279.25 594.95 282.75 590.65 286.9 586.4 290.35 583.4 292.8 582.6 293.55 580.55 295.45 579.45 297.3 577.35 300.7 576.55 307.6 576.35 309.4 576 310 575.5466796875 310.793359375 574.95 311.05 575.1572265625 311.1751953125 575.35 311.3 576.5 312.05 578.85 313.85 581.1 315.6 582.35 316.4 585.3 318.3 587.6 318.05 588.8 317.95 590.3 317.2 591.15 316.75 592.8 315.75 593.9326171875 315.108203125 596.35 314.1 597.7994140625 314.256640625 600.1 315.05
L 601.85 315.65 601.85 315.7
Q 602.45 318.8 602 321.95 601.7 324.65 600.35 328.4 599.35 331.1 598.5 332.7 597.25 334.95 595.65 336.3 595.05390625 336.7876953125 594.55 336.85 594.228515625 337.1642578125 593.8 337.45
L 587.85 341.8
Q 586.5654296875 342.2572265625 585.45 342.65 585.34765625 342.5044921875 585.3 342.25 584.271484375 342.5181640625 583.45 342.65 583.6078125 342.7794921875 583.75 342.95 584.25 343.55 584.25 344.25 584.25 344.3 584.1 345.5
L 584.05 346.35
Q 584.05 346.8 583.9 347.65
L 583 353.2
Q 583.45 354.65 584.6 355.65 585.24765625 356.1125 585.5 356.45 585.8537109375 356.522265625 586.25 356.65
L 589.35 357.6
Q 589.661328125 357.6837890625 589.9 357.75 590.3384765625 357.7923828125 590.8 357.85 596.55 358.5 611.45 360.8 616.05 361.5 617.95 361.7 621.6 362.1 624.45 362.05 633.75 361.9 643.65 357.25 651.75 353.45 660.65 346.4 664.85 343.05 667.2 340.35 670.35 336.6 671.35 332.75 671.95 330.5 672.05 325.9 672.15 320.15 671.7 317.3 671.2 313.85 669.25 308.6 668.05 305.15 665.35 298.35 663.55 294.05 662.9 291.55
M 654.25 279.8
Q 655.25 280.45 656 282 657 284.05 657.7 288.25
L 658.25 291.45
Q 658.65 293.85 658.45 295.05 657.9 297.45 654.25 300.2 651.95 302 650.7 302.75 647.55 304.55 644.1 304.9 640.5 305 638.8 305.5 636.85 306.3 635.9 306.65 634.2 307.3 632.95 307 631.2 306.6 629.8 304.45 628.5 302 627.65 300.9 627.15 300.25 626.35 299.4 625.4 298.45 624.9 297.95 623.05 295.9 622 293.3 621.5 292 621.6 291.2 621.65 290.25 622.5 289.05 625 285.65 631.55 283.25 634.55 282.15 640.75 280.35 642.95 279.75 644.1 279.55
L 646.1 279.3
Q 649.9 278.9 651.75 279.05 653.3 279.25 654.25 279.8
M 656.25 319.9
Q 656.05 318.95 656.5 317.7 656.95 316.45 658.35 314.5 659.9 312.25 660.35 311.35 661 310.05 661.35 309.7 662.2 309 663.25 309.25 664.3 309.5 665.4 311.15 666.25 312.45 666.35 312.8 666.6 313.4 666.9 314.65
L 667.35 315.5
Q 668.4 317.4 668.6 321.5 668.6 322.55 668.55 322.75
L 668.3 323.85
Q 668.25 324.15 668.35 324.9 668.45 325.55 668.35 325.95 668.1 327 666.6 327.5 665.65 327.85 663.05 328.05 661.5 328.15 660.75 327.9 659.25 327.45 658.25 325.9 657.85 325.25 656.9 322.95 656.6 322.15 656.6 321.7
L 656.5 320.85 656.25 319.9
M 613.85 340.3
Q 616.05 340.1 617.15 340.15 618.2 340.2 619.6 340.65 621.75 341.4 622.95 342.9 623.25 343.3 624.1 344.7 624.8 345.85 625.4 346.4 625.9 346.85 626.5 347.05 626.85 347.15 626.9 347.35 626.95 347.55 626.7 347.75 626.4 348 625.7 348.1 624.28203125 348.321484375 623.7 348.25 623.5865234375 348.8580078125 623.35 349 622.95 349.1 622.8 349.15 622.7 349.15 622.05 349.55 621.2 349.9 620.8 350.1 620.6 350.2 619.45 350.95 618.6 351.45 618 351.55 617.55 351.65 616.8 351.55 615.9 351.5 615.6 351.5 614.65 351.65 614.2 351.6 614.15 351.6 612.95 351.15 611.45 350.6 611.35 350.55 610.95 350.35 610.35 349.75 609.95 349.3 608.2 346.8 607.4 345.6 607.2 344.9 606.9033203125 343.9607421875 607.15 342.5 606.246484375 342.6029296875 605.35 342.65 603.6 342.75 602.95 342.1 603.05 341.45 604.35 341.25
L 613.85 340.3
M 638.45 329.05
Q 639.25 329.75 639.35 330.4 639.35 330.5 639.2 331.55 639.2 331.8 639.25 332.45 639.3 333.05 639.25 333.35 639.1482421875 333.9263671875 638.6 334.55 638.3541015625 334.878125 638 335.2 637.1 336.1 636.3 336.4 635.45 336.7 634.45 336.45 633.55 336.2 632.85 335.6 631.5 334.5 631.25 332.35 631.05 330.75 631.7 329.3 632.35 327.8 633.7 327.1 634.2484375 326.76484375 634.75 326.75 635.0875 326.7328125 635.4 326.85 635.8 326.95 636.25 327.4 636.55 327.6 637.05 328.1
L 638.45 329.05
M 560.45 318.5
Q 559.65 318.85 557.75 320.1 556.2 321 555.4 321.5 554.05 322.3 553.25 323.1 552.2 324.05 551.7 325.3 551.1 326.65 551.4 327.9 551.75 329.6 553.45 330.85 554.3 331.5 555.5 331.8 556.1 331.9 558.6 331.8 559.45 331.75 564.85 331.7 568.6 331.65 570.95 331
L 572.65 330.55
Q 573.3 330.45 574.5 330.3 575.45 329.95 576.25 329.05 577.9 327.4 577.85 325.85 577.85 324.9 577.05 323.4 576.3 322.25 576.15 322.1 575.65 321.5 573.9 320.2 572.2 319.1 571.75 318.9 570.1 318.05 570 318 569.55 317.5 569.25 317.35 568.55 316.9 566.9 317.2
L 563.35 317.8
Q 561.65 318.05 560.45 318.5 Z"/>

<path fill="#663300" stroke="none" d="
M 635.7 331
L 635.6 330.65
Q 635.55 330.4 635.25 330.2 635.0875 330.0916015625 634.95 330.05 634.8958984375 330 634.85 330
L 634.2 330.75 634.15 331.2
Q 634.15 332.15 634.4 332.7 634.7 333.4 635.2 333.35
L 635.5 333.25
Q 636.1646484375 332.9546875 636.25 332.3 636.2892578125 332.074609375 636.25 331.8 636.25 331.6 636.1 331.45 635.8 331.2 635.7 331 Z"/>

<path fill="#FF3366" stroke="none" d="
M 613.05 341.9
Q 610.5720703125 342.2494140625 608.1 342.45 609.4966796875 344.5560546875 610.45 345.7 611.2 346.45 611.45 346.6 611.6 346.7 613.15 347.25 613.75 347.55 614.05 347.6 614.2 347.6 615.2 347.5 615.45 347.5 616.85 347.55 617.85 347.6 618.4 347.35 618.45 347.35 619.4 346.65 619.6830078125 346.461328125 620.65 345.95 620.479296875 345.6087890625 620.25 345.15
L 619.3 343.75
Q 618.25 342.4 616.8 341.95 615.55 341.6 613.05 341.9 Z"/>

<path fill="#FFCC99" stroke="none" d="
M 656.5 317.7
Q 656.05 318.95 656.25 319.9
L 656.5 320.85 656.6 321.7
Q 656.6 322.15 656.9 322.95 657.85 325.25 658.25 325.9 659.25 327.45 660.75 327.9 661.5 328.15 663.05 328.05 665.65 327.85 666.6 327.5 668.1 327 668.35 325.95 668.45 325.55 668.35 324.9 668.25 324.15 668.3 323.85
L 668.55 322.75
Q 668.6 322.55 668.6 321.5 668.4 317.4 667.35 315.5
L 666.9 314.65
Q 666.6 313.4 666.35 312.8 666.25 312.45 665.4 311.15 664.3 309.5 663.25 309.25 662.2 309 661.35 309.7 661 310.05 660.35 311.35 659.9 312.25 658.35 314.5 656.95 316.45 656.5 317.7
M 656 282
Q 655.25 280.45 654.25 279.8 653.3 279.25 651.75 279.05 649.9 278.9 646.1 279.3
L 644.1 279.55
Q 642.95 279.75 640.75 280.35 634.55 282.15 631.55 283.25 625 285.65 622.5 289.05 621.65 290.25 621.6 291.2 621.5 292 622 293.3 623.05 295.9 624.9 297.95 625.4 298.45 626.35 299.4 627.15 300.25 627.65 300.9 628.5 302 629.8 304.45 631.2 306.6 632.95 307 634.2 307.3 635.9 306.65 636.85 306.3 638.8 305.5 640.5 305 644.1 304.9 647.55 304.55 650.7 302.75 651.95 302 654.25 300.2 657.9 297.45 658.45 295.05 658.65 293.85 658.25 291.45
L 657.7 288.25
Q 657 284.05 656 282 Z"/>

<path fill="#FF9900" stroke="none" d="
M 657.75 254.5
Q 653.4 252.55 649.15 253.15 644.6 253.85 640.85 257.4 637.4 260.7 635.7 265.4 634.9 267.55 634.45 268.3 633.6 269.85 632.3 270.2 630.95 270.6 629.5 269.65 628.3 268.85 627.45 267.4 627.4 267.35 626.05 264.65 625.2 263.05 624.35 262.2 622.6 260.5 618.15 260 609.55 259.2 601 261 592.45 262.8 584.95 267.05 583 268.15 582.8 269.35 582.65 269.95 583 270.75 583 270.85 583.65 272.1 585.25 275.25 584.7 278.75 584.15 282.4 581.4 284.15 578.9 285.7 574.2 285.2 567.65 284.45 566.45 284.55 562.45 284.8 560.3 287.55 559.2 288.95 559.1 290.8 558.95 292.7 560 294.1 560.7 295 562.2 295.85 564.45 297.15 564.65 297.3 567.3 299.15 568.4 302.6 569.3548828125 305.655859375 568.9 308.95 570.727734375 309.04609375 572.65 309.85 573.04921875 311.007421875 574 311.15 574.5201171875 311.2583984375 574.95 311.05 575.5466796875 310.793359375 576 310 576.35 309.4 576.55 307.6 577.35 300.7 579.45 297.3 580.55 295.45 582.6 293.55 583.4 292.8 586.4 290.35 590.65 286.9 594.95 282.75 598.55 279.25 600.25 277.95 603.4 275.55 606.4 274.85 608.8 274.35 613.1 274.75 618.1 275.15 620.65 275.65 621.15 275.75 625.8 276.9 628.95 277.65 631.05 277.85 634 278.1 638.7 277.5 644.75 276.75 646.4 276.7 650.7 276.5 654.15 277.7 658.15 279.1 660.1 282.15 661.15 283.85 661.85 286.7 662.2 288.3 662.9 291.55 663.55 294.05 665.35 298.35 668.05 305.15 669.25 308.6 671.2 313.85 671.7 317.3 672.15 320.15 672.05 325.9 671.95 330.5 671.35 332.75 670.35 336.6 667.2 340.35 664.85 343.05 660.65 346.4 651.75 353.45 643.65 357.25 633.75 361.9 624.45 362.05 621.6 362.1 617.95 361.7 616.05 361.5 611.45 360.8 596.55 358.5 590.8 357.85 590.3384765625 357.7923828125 589.9 357.75 589.661328125 357.6837890625 589.35 357.6
L 586.25 356.65
Q 585.8537109375 356.522265625 585.5 356.45 585.24765625 356.1125 584.6 355.65 583.45 354.65 583 353.2
L 583.9 347.65
Q 584.05 346.8 584.05 346.35
L 584.1 345.5
Q 584.25 344.3 584.25 344.25 584.25 343.55 583.75 342.95 583.6078125 342.7794921875 583.45 342.65 583.0509765625 342.321484375 582.55 342.25 581.85 342.15 581.2 342.55 581.0501953125 342.6421875 580.9 342.75 580.005078125 342.66484375 578.9 342.45 576.9 341.95 575.9 341.75 575.1548828125 341.594140625 574.35 341.45 574.6791015625 342.034765625 574.9 342.5 576.6 346 575.75 349.15 575.3 350.65 573.8 353.5 573.15 355.15 573 356.75 572.75 359.35 573.65 361.05 574.6 362.7 578.05 364.35
L 584 367.1
Q 585.5 367.85 586 368.4 587.25 369.7 586.95 372.15 586.85 373.5 586.3 376.15 586.9 376.15 587.25 375.8 588.9 376.95 591.55 374.95 593.8 373.3 597.7 369.2
L 599.35 367.4
Q 599.6923828125 367.6884765625 599.95 368.05 600.6380859375 367.9916015625 601.55 368.2 603.95 368.7 607.15 370.3 608.95 371.2 612.5 373.05 617.35 375.45 622.15 376.05 627.5 376.7 631.9 374.95 633.65 374.25 636.25 372.7 639.5 370.75 640.5 370.25 642.75 369.1 647.4 367.25 648.9 366.55 652.3 364.7 655.4 363 657.25 362.2 663.45 359.55 668 361.15 669.9 361.8 672 363.45 673.25 364.4 675.6 366.4 680.25 370.2 684 369.7 684.8 366.25 682.45 358.6 680.3 351.35 681.65 347.65 682.1 346.4 683.1 344.85 683.7 344 684.95 342.3 689.4 336.3 691.7 328.9 693.05 324.55 692.7 321.55 692.5 320.25 691.85 318.35 690.9 315.55 690.8 315.2 689.88828125 311.8845703125 690.1 308.65 689.734375 307.99453125 689.3 307.2 687.6 304.15 685.65 303.45 685.3 303.35 683.2 303.05 681.7 302.8 680.95 302.2 679.9 301.25 679.7 299.05 679.25 294.5 680.9 290.35 681.75 288.4 681.3 287.5 680.8 286.45 679.1 286.45 677.1 286.65 676.15 286.6 674.6 286.5 673.3 285.35 672.15 284.3 671.5 282.7 671 281.45 670.8 279.6 670.6 277.5 670.5 276.4 669.6 266.15 664.65 259.95 661.8 256.4 657.75 254.5
M 589.9 267.4
Q 590.7 267.05 591.8 266.9
L 596.25 266.15
Q 597.95 265.85 598.8 265.8 599.5 265.75 601.9 265.85
L 606.45 265.95
Q 607.8 265.95 608.4 266.15 609.55 266.55 609.75 267.45 609.8 267.6 609.8 268.45 609.7 269.75 609.45 270.35 609.35 270.6 608.75 271.4 607.6 272.6 606.45 273.2 605.55 273.7 604.25 274.15
L 598.25 276.3
Q 596.45 276.8 595.5 276.85 593.4 276.85 590.55 275.05 588.95 273.9 588.2 272.95 587.2 271.4 587.55 269.95 587.75 269.1 588.45 268.4 589.05 267.7 589.9 267.4
M 570.15 288.1
L 572.15 287
Q 573.55 286.35 574.25 286.3 575.35 286.25 576.65 286.75 578.45 287.6 579.15 289.1 579.55 289.9 579.5 290.8 579.45 291.75 578.95 292.4 578.4 293.15 576.95 293.8 575.25 294.6 573.85 294.55 572.4 294.5 571.05 293.5 569.85 292.6 569.15 291.15 568.6 290.25 568.8 289.45 569.05 288.7 570.15 288.1
M 578.05 349.45
Q 578.9 349.1 579.75 349.7 580.6 350.25 580.85 351.2 580.95 351.6 581.05 352.95 581.15 354.05 581.45 354.6 581.75 355.1 582.35 355.55 582.7 355.85 583.45 356.3 584.9 357.2 585 358.3
L 584.95 359.35
Q 584.95 359.8 585.2 360.65 585.3 361.9 584.25 362.65 583.4 363.3 582.05 363.4 579.45 363.6 576.9 361.6 575.25 360.35 574.9 358.9 574.75 357.95 575.25 356.15
L 576.5 351.75
Q 577.15 349.8 578.05 349.45 Z"/>

<path fill="#FFCC66" stroke="none" d="
M 579.75 349.7
Q 578.9 349.1 578.05 349.45 577.15 349.8 576.5 351.75
L 575.25 356.15
Q 574.75 357.95 574.9 358.9 575.25 360.35 576.9 361.6 579.45 363.6 582.05 363.4 583.4 363.3 584.25 362.65 585.3 361.9 585.2 360.65 584.95 359.8 584.95 359.35
L 585 358.3
Q 584.9 357.2 583.45 356.3 582.7 355.85 582.35 355.55 581.75 355.1 581.45 354.6 581.15 354.05 581.05 352.95 580.95 351.6 580.85 351.2 580.6 350.25 579.75 349.7
M 572.15 287
L 570.15 288.1
Q 569.05 288.7 568.8 289.45 568.6 290.25 569.15 291.15 569.85 292.6 571.05 293.5 572.4 294.5 573.85 294.55 575.25 294.6 576.95 293.8 578.4 293.15 578.95 292.4 579.45 291.75 579.5 290.8 579.55 289.9 579.15 289.1 578.45 287.6 576.65 286.75 575.35 286.25 574.25 286.3 573.55 286.35 572.15 287
M 591.8 266.9
Q 590.7 267.05 589.9 267.4 589.05 267.7 588.45 268.4 587.75 269.1 587.55 269.95 587.2 271.4 588.2 272.95 588.95 273.9 590.55 275.05 593.4 276.85 595.5 276.85 596.45 276.8 598.25 276.3
L 604.25 274.15
Q 605.55 273.7 606.45 273.2 607.6 272.6 608.75 271.4 609.35 270.6 609.45 270.35 609.7 269.75 609.8 268.45 609.8 267.6 609.75 267.45 609.55 266.55 608.4 266.15 607.8 265.95 606.45 265.95
L 601.9 265.85
Q 599.5 265.75 598.8 265.8 597.95 265.85 596.25 266.15
L 591.8 266.9 Z"/>

<path fill="#CC3300" stroke="none" d="
M 554.35 320.6
Q 553.958203125 320.6783203125 552.7 320.85
L 550.05 319.9
Q 547.25 318.95 545.95 319.05 544.85 319.15 543.95 319.85 543.05 320.55 542.85 321.5 542.55 323.25 544.35 324.65 545.3 325.4 547.45 326.5 550 328.05 551.45 330.75 551.65 331.15 552.3 332.65 552.85 333.85 553.3 334.5 554.45 336.25 556.4 337.1 558.4 338 560.45 337.7 561.6 337.55 563.45 336.75 565.6 335.85 566.4 335.65 569.5 334.8 576.25 336 582.8 337.2 585.95 336.1 586.9533203125 335.6818359375 587.55 335.75
L 594.05 331.05 594.9 330.3
Q 596.75 328.8 598.15 325.25 599.3 322.25 599.75 319.15 596 320.3 592.75 322.1 590.55 323.3 589.95 323.55 588.35 324.25 587 324.2 585.2 324.1 582.6 322.45 581 321.45 579 319.95 575.3 317.15 574.35 316.55 571.6 314.85 569.15 314.9 568.128515625 314.9189453125 566.95 315.25 566.8875 315.4158203125 566.8 315.55 565.878515625 315.6369140625 564.85 315.95 563.45 316.4 561.1 317.65
L 559.25 318.6
Q 557.95 319.35 557.8 319.5
L 557.55 319.7
Q 556.1279296875 320.2580078125 554.35 320.6
M 557.75 320.1
Q 559.65 318.85 560.45 318.5 561.65 318.05 563.35 317.8
L 566.9 317.2
Q 568.55 316.9 569.25 317.35 569.55 317.5 570 318 570.1 318.05 571.75 318.9 572.2 319.1 573.9 320.2 575.65 321.5 576.15 322.1 576.3 322.25 577.05 323.4 577.85 324.9 577.85 325.85 577.9 327.4 576.25 329.05 575.45 329.95 574.5 330.3 573.3 330.45 572.65 330.55
L 570.95 331
Q 568.6 331.65 564.85 331.7 559.45 331.75 558.6 331.8 556.1 331.9 555.5 331.8 554.3 331.5 553.45 330.85 551.75 329.6 551.4 327.9 551.1 326.65 551.7 325.3 552.2 324.05 553.25 323.1 554.05 322.3 555.4 321.5 556.2 321 557.75 320.1 Z"/>

<path fill="#CC3333" stroke="none" d="
M 648.75 374.05
Q 648.8544921875 373.6111328125 649.1 373.05 648.521484375 373.2876953125 647.8 373.5 645.75 374.05 645.1 374.3 643.475 374.903515625 641.35 376.25 642.9078125 378.046875 644.65 379.55 645.8 380.6 646.55 380.1 646.8 379.4 647.65 377.45 648.25 376.4 648.4 375.7
L 648.75 374.05 Z"/>
</g>
</defs>

<g transform="matrix( 1, 0, 0, 1, 0,0) ">
<use xlink:href="#Layer1_0_FILL"/>
</g>

<g transform="matrix( 1, 0, 0, 1, 0,0) ">
<use xlink:href="#Layer0_0_FILL"/>
</g>
</svg>
