
<svg xmlns="http://www.w3.org/2000/svg" version="1.1" xmlns:xlink="http://www.w3.org/1999/xlink" preserveAspectRatio="none" x="0px" y="0px" width="800px" height="480px" viewBox="0 0 800 480">
<defs>
<g id="Layer1_0_FILL">
<path fill="#74775D" stroke="none" d="
M 151.55 382.35
Q 145.4 382.35 141.05 383.5 136.7 384.7 136.7 386.35 136.7 388 141.05 389.15 145.4 390.35 151.55 390.35 157.7 390.35 162.05 389.15 166.4 388 166.4 386.35 166.4 384.7 162.05 383.5 157.7 382.35 151.55 382.35
M 363.4 385.8
Q 356 387 356 388.7 356 390.4 363.4 391.6 370.85 392.8 381.35 392.8 391.85 392.8 399.25 391.6 406.7 390.4 406.7 388.7 406.7 387 399.25 385.8 391.85 384.6 381.35 384.6 370.85 384.6 363.4 385.8
M 658.05 379.7
Q 658.05 375.6 650.3 372.65 642.6 369.75 631.65 369.75 620.7 369.75 612.95 372.65 605.25 375.6 605.25 379.7 605.25 383.8 612.95 386.7 620.7 389.65 631.65 389.65 642.6 389.65 650.3 386.7 658.05 383.8 658.05 379.7 Z"/>
</g>

<g id="Layer0_0_FILL">
<path fill="#003F5F" stroke="none" d="
M 152.6 102.65
L 153.1 102.1
Q 153.4 101.85 154.05 101.75 154.7134765625 101.573046875 155.9 100.95 152.5798828125 101.66953125 150.8 103.4 150.2 103.95 149.8 104.7 148.9 106.1 148.55 108.4
L 148.35 110.85
Q 148.25 112.1 148.55 112.65 148.85 113.1 149.75 113.7 151.5 114.8 152.3 115.1 153.85 115.65 155.5 115.5 156.6 115.4 157.15 114.85 157.6 114.4 157.85 113.4 157.870703125 113.3171875 157.9 113.25 157.7552734375 113.472265625 157.6 113.7 157.15 114.4 156.85 114.55 156.3 114.9 155.05 114.8 153.55 114.55 152.75 114.05 151.95 113.55 151.15 111.8 149.65 108.4 150.4 106.4 150.7 105.55 151.45 104.45
L 152.6 102.65
M 163.35 123.45
Q 162.55 122.45 163.3 120.15
L 163.7 118.75 162.35 121.45
Q 157.3 121.4 150.7 122 146.1 122.4 143.4 122.9 139.45 123.75 136.65 125.3 134.05 126.75 129.8 130.85 126.5 134.05 125.05 135.9 122.6 138.9 121.75 141.85 121.15 144 120.5 144.55 119.8 145.15 118.6 145.2 117.8 145.25 116.4 145.05 108.3 143.75 102.8 145.9 101.95 146.25 101.15 146.6 100.8 146.75 100.5 146.9 99.9 147.2 99.3 147.6 98.1 148.4 96.85 149.35 95 150.85 91.65 154 89.7 155.9 88.85 157.1 87.45 158.9 87.15 160.75 86.85 162.55 87.6 164.75 88.05 166.1 89.35 168.5
L 93.1 175.35
Q 92.85 175.6 92.15 175.8 90.45 176.25 88.4 179.05 85.85 182.45 84.7 184.4 82.8 187.4 82 190.15 81.05 193.4 81.65 196.55 82.3 200 84.55 202.1 82.6 203.85 77.9 205.95 76.85 206.45 75.9 206.9 72.65 208.5 71.15 209.75 67.4 212.75 65.1 218.85 62.3 225.95 62.35 233.5 62.4 237.7 63.65 241 65.15 244.85 68.1 246.75 69.5 247.65 71.55 248.25
L 71.6 248.25
Q 72.25 248.5 75.15 249.2 80.95 250.6 92.55 255.15 98.4 257.45 98.55 260.75 98.6 261.8 97.95 263.25 97 265.55 96.95 265.7 96.5 267.05 96.9 268.4 97.35 269.8 98.6 270 99.85 270.2 100.85 268.95 101.45 268.2 102.3 266.35 104.25 262.2 109.75 257.95 115.55 253.4 117.7 251.8 118.4 253.45 118.9 254.45 120.15 256.8 121.7 258.2 123.45 259.75 126.15 260.75 127.8 261.3 131.2 262
L 137.7 263.4
Q 140.6 264 142 263.7 143.15 263.4 143.9 262.7 144.8 261.9 144.9 260.9 144.9 260.75 144.75 259.3 144.7 258.25 145.1 257.75 145.5 257.25 146.35 257.2 146.75 257.2 147.8 257.3 153.45 258.25 159.2 257.4 164.95 256.55 169.95 253.9 170.4 254.85 170.45 256.2 170.45 257 170.4 258.6 170.4 261.75 172 262.9 173.3 263.8 175.15 263.3 176.7 262.9 178.25 261.75 180.8 259.8 183.5 257.25 188.4 252.85 190.65 250.2 192.8 247.75 194.15 245.35 195.05 245.6 196.2 245.85 199.05 246.65 201.95 247.6 205.65 248.8 209.3 250.4 211.5 251.45 212.65 252.25 213.25 252.6 213.8 253.05 214.7 253.9 215.2 254.85 215.85 256.15 216.35 259.3 216.45 259.45 216.45 259.65
L 216.45 259.75
Q 216.5 260.1 216.6 260.45 217 262.45 217.7 263.55 218.5 263.15 219 262.35 219.35 261.85 219.6 261.2 219.65 261 219.7 260.9 219.75 260.6 219.8 260.35 220.1 259.05 220.1 256.1 220.05 249.45 222.9 243.5 225.5 238.9 226.5 236.5 228 232.75 228.25 228.4 228.85 220.35 225.8 212.95 222.85 205.85 217.35 201.45 216.8 201.05 216.3 200.65 217.25 199.2 217.95 197.65 220.5 192.05 219.6 185.25 218.7 178.5 214.8 173.65 216.5 172.9 216.95 169.8 217.55 164.85 216.3 160.15 215 155.25 212.05 151.55 209 147.7 204.55 145.5 199.95 143.25 195.1 143.3 192.4 138 190.9 135.6 188.3 131.45 185.35 128.9 179.15 123.35 168.85 121.9 168.0111328125 121.81171875 167.05 121.65 166.4193359375 123.563671875 165.55 123.95 165 124.2 164.35 124.1 163.7 123.95 163.35 123.45
M 162.4 129.1
Q 164.1 129.1 165.55 129.2 167.3 129.4 168.9 129.8 176.85 131.7 182.9 137.95 184.95 140.15 186.6 142.55 187.05 143.45 187.45 144.4 188.45 146.9 188.8 147.45 189.3 148.4 189.95 149 190.5 150.55 190.9 152.15 191.5 154.4 192.6 154.6 193.25 154.8 194 154.35 194.45 154.05 195.3 153.45 197.6 152.05 200.7 153.4 203.1 154.45 205.55 156.95 208.15 159.65 209.4 162.1 209.85 163.7 209.9 165.35 209.95 166.35 209.9 168.25 209.9 168.55 209.95 168.85 209.55 169.55 208.95 170.6 207.9 172.25 207.65 172.85 207 174.1 207.05 175.35 207.1 176.8 207.95 177.65 208.6 178.2 209.7 178.5 210.35 178.75 211.7 179 214.1 179.8 215.6 182.35 217 184.75 216.9 187.5 216.75 191.05 214.05 195.95 213.65 196.7 213.2 197.4 211.7 199.85 211.25 201.55 210.6 204 211.8 205.65 211.85 205.7 211.95 205.8 212.65 206.6 214.55 207.65 220.15 210.9 223 216.35 224.9 219.8 225.35 223.6 225.8 227.55 224.5 231.05 223.6 233.45 220.9 237.95 218.9 241.9 217.25 250 213.6 244.3 204.9 241.4 202.45 240.55 197.55 239.3 196.2 238.95 195.05 238.7 194.9 238.65 194.8 238.65 191.8 237.85 190.1 237.3 188.823046875 236.8642578125 187.8 236.35 187.5869140625 236.073828125 187.4 235.75 186.7 234.55 186.65 233.05 186.55 230.8 188.1 227.65 189.3734375 225.3154296875 190.05 223.75 190.455078125 223.394921875 190.75 223.1 191.05 222.8 191.35 222.55 193.1 220.65 193.75 218.45 194.7 215.55 193.15 213.5 184.55 218.9 181.85 225.6 180.75 228.35 180.7 231.2 180.6 232.55 180.85 233.9 181.45 238.4 184.5 241.15 186.55 243 190 244.2 190.05 244.2 190.15 244.25 188.75 247.3 186 250.35 183.85 252.8 179.35 256.7 176.5 259.15 174.95 260.2
L 174.75 253.2
Q 174.75 251.95 174.35 251.35 173.35 249.95 170.7 250.9 168.9 251.45 165.4 252.9 161.9 254.35 160.1 254.9 153.5 257 149 254.9 146.8 253.7 145.55 253.3 143.25 252.6 142 253.8 141.15 254.6 140.75 257.1
L 140.3 261.45 134.05 260.25
Q 130.15 259.5 127.95 258.5 124.8 257.1 123.45 254.7 123.05 253.95 122.6 252.6 122.05 251.05 121.8 250.5 121.35 249.5 120.8 248.9 123.5 245.75 125.35 241.9 127.85 236.75 128.25 231.25 128.494140625 227.5515625 127.6 225 127.8353515625 224.817578125 127.95 224.55 128.2453125 223.7623046875 127.5 223.1
L 127.5 223.1
Q 126.55 222.5 126.1 222.15 125.55 221.75 124.85 220.95 123.95 219.85 123.75 219.65 123.150390625 219.050390625 122.4 218.65 122.078515625 218.337890625 121.7 218 121.653515625 217.9583984375 121.6 217.9 121.7068359375 217.7662109375 121.75 217.55 121.35 217.33671875 120.85 217.2 120.4994140625 216.846875 120.2 216.5 120.2783203125 216.351953125 120.3 216.2 120.0189453125 216.0244140625 119.7 215.9 118.321875 214.130859375 118.1 212.45 116.8189453125 214.1287109375 116.65 216.3 116.5375 216.4806640625 116.55 216.6 116.225390625 216.776953125 115.9 217
L 116.65 217.85
Q 116.7263671875 218.4259765625 116.85 218.95 116.8900390625 219.64921875 117.15 220.5 117.35390625 221.1572265625 117.85 222.15 118.483984375 223.3552734375 119.55 225.05 119.7611328125 225.3939453125 119.95 225.7 120.0056640625 226.31953125 120.3 227.35 120.65 228.5 120.7 229 120.75 229.9 120.35 231.5 119.55 234.25 119.45 234.45 118.6 237.1 117.45 239.7 116.2 242.75 114.9 244.65 113.8 246.15 111.65 248.3
L 106.75 253.25
Q 106.3453125 253.6857421875 106.05 254.05
L 101.05 258
Q 101.35 255.9 100.2 253.8 99.2 251.8 97.35 250.4 95.05 248.65 89.3 246.8
L 73.35 241.75
Q 72.75 241.6 72.3 241.45 70.9 240.95 70.25 240.65 68.55 239.95 67.45 238.85 65.55 236.95 65.2 233.9 64.85 231.2 65.7 228.25 67.35 222.4 71.8 217.7 73.35 216.1 75.1 214.75 78.2 212.35 81.9 210.9 82.95 210.45 85.1 209.6 86.95 208.8 88.05 207.95 89.45 206.75 90 205.05 90.6 203.3 89.8 201.9 89.35 201.1 88.2 200.2 86.8 199.1 86.45 198.7 84.45 196.5 85.1 192.9 85.75 189.85 87.95 186.9 90.45 183.55 92.95 182.55 94.35 181.95 97.45 181.25 98.95 182.05 100.3 181.25 101.75 180.45 101.65 178.35 101.6 176.6 100.6 174.65 98.55 170.4 95.6 165.7 94.3 163.55 94.35 162.45 94.4 161.45 95.25 160.45 95.55 160.05 96.85 158.75 98.85 156.7 99.9 155.75 100.85 154.8 101.75 154.15 107.4 152.1 115.65 154 117.35 154.4 118.15 154.55 118.2 154.55 118.3 154.55 119.1 154.65 119.8 154.65 120.9 154.45 122.2 154.75 122.6 154.85 123.35 155 124 155.2 124.5 155.05 124.85 154.95 125.2 154.85 125.35 154.65 125.6 154.55 125.75 154.3 125.95 153.95 126.2162109375 153.387890625 126.4 152.65 126.14921875 152.6619140625 125.9 152.65 124.65 152.55 124.1 152.35 123.15 152 122.85 151.15 122.65 150.45 123.1 149.2 123.8 147.55 125.15 145.25
L 126.5 143.05
Q 127.75 141.2 128.6 140.2 129.3 139.4 130.8 137.9
L 133.45 135.3
Q 135.45 133.4 136.65 132.75 138.4 131.9 140.95 131.9 142.1 131.8 142.8 132.2 142.8740234375 132.23984375 142.95 132.3 144.913671875 131.5982421875 147.2 131 152.75 129.55 157.6 129.15 160.2 129.1 162.4 129.1
M 132.3 195.45
Q 133.85 194.35 134.65 194.85 135.1 195.05 135.35 195.7 135.5 196.05 135.75 196.85 135.85 197.2 136.35 197.95 136.75 198.7 136.95 199.15 137.2 200 137.45 201.75 138.05 203.55 139.9 204.1 141.7 204.7 143.25 203.45 142.25 202.9 141.8 200.8 140.95 197.35 139.4 195.05 138.45 193.5 137.1 192.55 135.55 191.5 134 191.65 132.55 191.75 130.6 193.15 126.05 196.35 122.15 200.4 122.65 201.05 123.55 201.2 124.4 201.4 125.25 201.05 126.2 200.7 127.95 199.1 130.45 196.8 132.3 195.45
M 180.4 195.6
Q 178.8 195.85 178.15 196.35 177.45 196.9 176.75 199.1 175.9 201.85 174.4 204.3 174.1 204.95 174.15 205.3 174.35 205.9 175.45 206.05 176.9 206.25 177.7 205.85 178.55 205.4 179.05 204 180.15 201.55 181.4 198.25 182.2 198.25 183.35 199.6 184.95 201.65 186.75 202.3 189.2 203.1 191 201.75
L 187.05 198.25
Q 184.9 196.25 183.2 195.75 182.05 195.45 180.4 195.6
M 162.6 171.8
Q 162.6 169.9 162 169.35 161.55 168.85 160.15 168.6 158.35 168.3 157 167.85 155.85 167.45 155.15 167.5 154.3 167.6 153.2 168.65 152.55 169.15 152.05 169.85 150.95 171.35 151.4 174.15 151.65 175.55 152.05 176.15 152.45 176.8 153.5 177.55 155.05 178.65 156.5 179.05 158.4 179.5 160.2 178.4 162 177.35 162.45 175.5 162.7 174.75 162.65 173.65 162.6 172.4 162.6 171.8
M 156.85 171.3
Q 155.3 170.85 154.5 170.65 154.4 170.65 154.35 170.65 154.4 170.55 154.45 170.45 154.85 169.95 155.2 169.9 155.5 169.8 156.5 169.9
L 159.5 170.6
Q 159.3 170.95 159.2 171.4 158.25 171.6 156.85 171.3
M 171 110.05
Q 171.1 109.1 171.15 108.65 171.2 107.75 171.1 107.2 171.04296875 106.93359375 170.85 106.55 170.8935546875 107.5134765625 170.75 108.55 170.5 110.45 169.4 114.15
L 167.5 120.3 169.45 116.45
Q 170.65 113.95 170.8 112.85
L 171 110.05
M 163.45 109.55
Q 163.45 108.25 163.05 107.75 162.45 107.1 161.25 107 159.9 106.85 158.05 106.95 156.45 107.2 155.95 107.9 157.25 108.85 158.75 108.75 158.9142578125 110.0404296875 158.65 111.2 159.0673828125 110.7765625 159.65 110.55 160.6 110.2 161.3 110.7 162.45 111.5 162.15 113.55 162.1029296875 113.941796875 162 114.3 162.196484375 114.0302734375 162.35 113.7 163.25 112.05 163.45 109.55
M 163.1 102.5
Q 163.2013671875 102.5802734375 163.3 102.65 164.2 103.4 165.05 104.7 166.3 106.4 166.55 107.75 166.598046875 108.32734375 166.55 109.15 166.6474609375 108.7068359375 166.7 108.3 167 105.95 166.25 104.25 165.75 104.2 165.2 103.75 164.6 103.2 164.25 102.95 163.8302734375 102.705078125 163.1 102.5 Z"/>

<path fill="#66FFFF" stroke="none" d="
M 96.7 186.95
Q 96.6 189.1 97 189.9 97.15 190.25 98.1 191.3
L 99.8 193.05
Q 100.4 193.65 100.55 194 100.8 194.8 99.95 196.3 98.65 198.75 98.4 200.45 98.15 201.75 98.55 202.7 98.770703125 203.2517578125 99.1 203.6 99.5796875 204.0603515625 100.25 204.2 101.15 204.35 102.75 203.4 106 201.15 107.35 198.8 109.05 199.6 110.85 199.3 112.8 199.05 113.9 197.7 114.65 196.85 115.2 195.05 115.6 193.85 115.65 193.2
L 115.65 191.65
Q 115.5 188.5 115.75 185.95 115.85 184.55 116.05 183.9
L 116.55 182.15
Q 117.1 180.25 116.85 178.25 116.65 176 115.35 175 115.1212890625 174.8408203125 114.85 174.7 113.871875 174.26953125 112.55 174.55 111.4 174.8 110 175.9 107.85 177.6 106.55 180.1 105.25 182.6 105.1 185.35 103.15 184.95 101.4 184.3 98.9 183.3 97.85 184.05 96.9 184.7 96.7 186.95
M 106 194.45
Q 107.198828125 192.4529296875 108.35 190.25 109.774609375 187.5662109375 112.15 182.2 111.826953125 183.9171875 111.7 186 111.6 188.3 111.5 192.95 111.4 194.9 110.3 195.15 109.85 195.25 108.6 194.7 107.28984375 194.1697265625 106 194.45
M 136.65 132.75
Q 135.45 133.4 133.45 135.3
L 130.8 137.9
Q 129.3 139.4 128.6 140.2 127.75 141.2 126.5 143.05
L 125.15 145.25
Q 123.8 147.55 123.1 149.2 122.65 150.45 122.85 151.15 123.15 152 124.1 152.35 124.65 152.55 125.9 152.65 126.14921875 152.6619140625 126.4 152.65 128.21953125 152.714453125 129.85 152.45 131.9 152.1 134.5 151.2 138.1 150 140.05 148.85 142.05 147.65 143.9 146.05 145.15 144.95 146.1 143.95 147.85 142.2 147.75 140.65 147.65 139.95 147 138.85
L 144.15 133.8
Q 143.5296875 132.6923828125 142.95 132.3 142.8740234375 132.23984375 142.8 132.2 142.1 131.8 140.95 131.9 138.4 131.9 136.65 132.75
M 214.45 184.8
Q 213.85 183.7 213.35 183.3 212.8 182.9 211 182.55 209.45 182.2 208.65 182.1 207.3 181.9 206.3 182.05 205.25 182.25 204.7 182.85 204.05 183.7 204.25 185.25 204.35 186.5 204.85 188.75
L 205.15 190.1
Q 205.7 193 205.75 194.05 205.85 195.1 206.1 195.4 206.3 195.65 207.15 195.9 208.4 196.1 209.75 195.8 210.95 195.55 211.6 194.9 211.95 194.6 212.45 193.9
L 213.9 191.85
Q 214.65 190.65 214.8 190.05 214.9 189.6 214.75 188.7 214.65 187.8 214.7 187.4 214.95 186.5 214.9 186.05 214.9 185.7 214.45 184.8
M 199.95 157.7
Q 198.95 157.7 197.55 158.05 195.7 158.45 195.3 159.6 195 160.45 195.65 161.45 195.9 161.85 196.9 162.95 199.05 165.4 199.35 168.55 199.45 169.35 199.65 169.6 200 170 200.85 170 202.05 170.1 203.35 169.85 204.65 169.65 205.3 168.9 205.65 168.45 205.85 167.35 206.35 164.95 206.3 163.8 206.25 162.6 205.75 161.5 204.8 158.95 202.75 158.05 201.6 157.6 199.95 157.7 Z"/>

<path fill="#66CCCC" stroke="none" d="
M 108.35 190.25
Q 107.198828125 192.4529296875 106 194.45 107.28984375 194.1697265625 108.6 194.7 109.85 195.25 110.3 195.15 111.4 194.9 111.5 192.95 111.6 188.3 111.7 186 111.826953125 183.9171875 112.15 182.2 109.774609375 187.5662109375 108.35 190.25 Z"/>

<path fill="#007D87" stroke="none" d="
M 199.55 180.1
Q 197.75 173.9 196.95 171.85 192.5 160.5 181.85 153.2 171.2 145.95 159 145.9 146.8 145.9 135.25 153 124.45 159.6 117 170.6 115.4115234375 172.845703125 114.85 174.7 115.1212890625 174.8408203125 115.35 175 116.65 176 116.85 178.25 117.1 180.25 116.55 182.15
L 116.05 183.9
Q 115.85 184.55 115.75 185.95 115.5 188.5 115.65 191.65
L 115.65 193.2
Q 115.6 193.85 115.2 195.05 114.65 196.85 113.9 197.7 112.8 199.05 110.85 199.3 109.05 199.6 107.35 198.8 106 201.15 102.75 203.4 101.15 204.35 100.25 204.2 99.5796875 204.0603515625 99.1 203.6 97.81328125 205.033984375 97.35 205.75 96.4 207.15 95.45 210.15
L 95 211.45
Q 93.9 214.75 93.85 216.55 93.75 219.65 96 224.1 96.75 225.5 97.5 226.15 98.5 226.95 100.1 227 101.2 227 103 226.6 105.15 226.15 106.25 225.75 108 225.15 109.1 224.15 109.8 223.4 110.15 223.05 110.75 222.45 111.35 222.25 112.1 221.95 113.3 222.15 114 222.3 115.35 222.55 116.7333984375 222.640234375 117.85 222.15 117.35390625 221.1572265625 117.15 220.5 116.8900390625 219.64921875 116.85 218.95 116.7263671875 218.4259765625 116.65 217.85
L 115.9 217
Q 116.225390625 216.776953125 116.55 216.6 116.5375 216.4806640625 116.65 216.3 116.8189453125 214.1287109375 118.1 212.45 118.321875 214.130859375 119.7 215.9 120.0189453125 216.0244140625 120.3 216.2 120.2783203125 216.351953125 120.2 216.5 120.4994140625 216.846875 120.85 217.2 121.35 217.33671875 121.75 217.55 121.7068359375 217.7662109375 121.6 217.9 121.653515625 217.9583984375 121.7 218 122.078515625 218.337890625 122.4 218.65 123.150390625 219.050390625 123.75 219.65 123.95 219.85 124.85 220.95 125.55 221.75 126.1 222.15 126.55 222.5 127.5 223.1
L 127.5 223.1
Q 137.9474609375 227.2173828125 149.7 226.85 164.1 226.45 176.15 219.5 176.5 219.3 181.25 216.35 184.35 214.45 186.5 213.45 192.95 210.45 198.15 211.85 198.95 212.05 200.45 212.55 201.8 212.9 202.8 212.85 205.05 212.75 206.6 210.6 208.05 208.6 208.05 206.1 208 204.05 207.1 201.5 206.9 200.9 205.25 197.1 202.55 190.95 199.55 180.1
M 184.75 165.85
Q 186.2 165.3 187.55 165.75 189.15 166.15 190.3 167.65 191.4 169.05 191.8 170.9 192.2 172.2 191.9 173.35 191.65 174.6 190.7 175.55 189.75 176.5 188.45 176.9 186.1 177.6 183.45 176.5 181.9 175.75 181.15 174.85 180.15 173.6 180.15 170.5 180.15 168.6 180.8 167.85 181.15 167.55 181.75 167.25 182.1 167.1 182.8 166.75 183.5 166.5 184.75 165.85
M 162 169.35
Q 162.6 169.9 162.6 171.8 162.6 172.4 162.65 173.65 162.7 174.75 162.45 175.5 162 177.35 160.2 178.4 158.4 179.5 156.5 179.05 155.05 178.65 153.5 177.55 152.45 176.8 152.05 176.15 151.65 175.55 151.4 174.15 150.95 171.35 152.05 169.85 152.55 169.15 153.2 168.65 154.3 167.6 155.15 167.5 155.85 167.45 157 167.85 158.35 168.3 160.15 168.6 161.55 168.85 162 169.35
M 178.15 196.35
Q 178.8 195.85 180.4 195.6 182.05 195.45 183.2 195.75 184.9 196.25 187.05 198.25
L 191 201.75
Q 189.2 203.1 186.75 202.3 184.95 201.65 183.35 199.6 182.2 198.25 181.4 198.25 180.15 201.55 179.05 204 178.55 205.4 177.7 205.85 176.9 206.25 175.45 206.05 174.35 205.9 174.15 205.3 174.1 204.95 174.4 204.3 175.9 201.85 176.75 199.1 177.45 196.9 178.15 196.35
M 127.85 168.55
Q 129.65 168.05 131.5 168.85 133.4 169.65 134.35 171.3 135.25 172.85 135.1 174.85 134.95 176.8 133.85 178.35 131.9 180.85 128.8 180.95 125.6 181.1 123.7 178.55 122.55 176.95 122.7 175.45 122.8 174.2 123.55 172.7 124.6 170.65 125.5 169.85 126.55 168.9 127.85 168.55
M 134.65 194.85
Q 133.85 194.35 132.3 195.45 130.45 196.8 127.95 199.1 126.2 200.7 125.25 201.05 124.4 201.4 123.55 201.2 122.65 201.05 122.15 200.4 126.05 196.35 130.6 193.15 132.55 191.75 134 191.65 135.55 191.5 137.1 192.55 138.45 193.5 139.4 195.05 140.95 197.35 141.8 200.8 142.25 202.9 143.25 203.45 141.7 204.7 139.9 204.1 138.05 203.55 137.45 201.75 137.2 200 136.95 199.15 136.75 198.7 136.35 197.95 135.85 197.2 135.75 196.85 135.5 196.05 135.35 195.7 135.1 195.05 134.65 194.85 Z"/>

<path fill="#003D3D" stroke="none" d="
M 131.5 168.85
Q 129.65 168.05 127.85 168.55 126.55 168.9 125.5 169.85 124.6 170.65 123.55 172.7 122.8 174.2 122.7 175.45 122.55 176.95 123.7 178.55 125.6 181.1 128.8 180.95 131.9 180.85 133.85 178.35 134.95 176.8 135.1 174.85 135.25 172.85 134.35 171.3 133.4 169.65 131.5 168.85
M 187.55 165.75
Q 186.2 165.3 184.75 165.85 183.5 166.5 182.8 166.75 182.1 167.1 181.75 167.25 181.15 167.55 180.8 167.85 180.15 168.6 180.15 170.5 180.15 173.6 181.15 174.85 181.9 175.75 183.45 176.5 186.1 177.6 188.45 176.9 189.75 176.5 190.7 175.55 191.65 174.6 191.9 173.35 192.2 172.2 191.8 170.9 191.4 169.05 190.3 167.65 189.15 166.15 187.55 165.75 Z"/>

<path fill="#00CCED" stroke="none" d="
M 165.55 129.2
Q 164.1 129.1 162.4 129.1 160.2 129.1 157.6 129.15 152.75 129.55 147.2 131 144.913671875 131.5982421875 142.95 132.3 143.5296875 132.6923828125 144.15 133.8
L 147 138.85
Q 147.65 139.95 147.75 140.65 147.85 142.2 146.1 143.95 145.15 144.95 143.9 146.05 142.05 147.65 140.05 148.85 138.1 150 134.5 151.2 131.9 152.1 129.85 152.45 128.21953125 152.714453125 126.4 152.65 126.2162109375 153.387890625 125.95 153.95 125.75 154.3 125.6 154.55 125.35 154.65 125.2 154.85 124.85 154.95 124.5 155.05 124 155.2 123.35 155 122.6 154.85 122.2 154.75 120.9 154.45 119.8 154.65 119.1 154.65 118.3 154.55 118.2 154.55 118.15 154.55 117.35 154.4 115.65 154 107.4 152.1 101.75 154.15 100.85 154.8 99.9 155.75 98.85 156.7 96.85 158.75 95.55 160.05 95.25 160.45 94.4 161.45 94.35 162.45 94.3 163.55 95.6 165.7 98.55 170.4 100.6 174.65 101.6 176.6 101.65 178.35 101.75 180.45 100.3 181.25 98.95 182.05 97.45 181.25 94.35 181.95 92.95 182.55 90.45 183.55 87.95 186.9 85.75 189.85 85.1 192.9 84.45 196.5 86.45 198.7 86.8 199.1 88.2 200.2 89.35 201.1 89.8 201.9 90.6 203.3 90 205.05 89.45 206.75 88.05 207.95 86.95 208.8 85.1 209.6 82.95 210.45 81.9 210.9 78.2 212.35 75.1 214.75 73.35 216.1 71.8 217.7 67.35 222.4 65.7 228.25 64.85 231.2 65.2 233.9 65.55 236.95 67.45 238.85 68.55 239.95 70.25 240.65 70.9 240.95 72.3 241.45 72.75 241.6 73.35 241.75
L 89.3 246.8
Q 95.05 248.65 97.35 250.4 99.2 251.8 100.2 253.8 101.35 255.9 101.05 258
L 106.05 254.05
Q 106.3453125 253.6857421875 106.75 253.25
L 111.65 248.3
Q 113.8 246.15 114.9 244.65 116.2 242.75 117.45 239.7 118.6 237.1 119.45 234.45 119.55 234.25 120.35 231.5 120.75 229.9 120.7 229 120.65 228.5 120.3 227.35 120.0056640625 226.31953125 119.95 225.7 119.7611328125 225.3939453125 119.55 225.05 118.483984375 223.3552734375 117.85 222.15 116.7333984375 222.640234375 115.35 222.55 114 222.3 113.3 222.15 112.1 221.95 111.35 222.25 110.75 222.45 110.15 223.05 109.8 223.4 109.1 224.15 108 225.15 106.25 225.75 105.15 226.15 103 226.6 101.2 227 100.1 227 98.5 226.95 97.5 226.15 96.75 225.5 96 224.1 93.75 219.65 93.85 216.55 93.9 214.75 95 211.45
L 95.45 210.15
Q 96.4 207.15 97.35 205.75 97.81328125 205.033984375 99.1 203.6 98.770703125 203.2517578125 98.55 202.7 98.15 201.75 98.4 200.45 98.65 198.75 99.95 196.3 100.8 194.8 100.55 194 100.4 193.65 99.8 193.05
L 98.1 191.3
Q 97.15 190.25 97 189.9 96.6 189.1 96.7 186.95 96.9 184.7 97.85 184.05 98.9 183.3 101.4 184.3 103.15 184.95 105.1 185.35 105.25 182.6 106.55 180.1 107.85 177.6 110 175.9 111.4 174.8 112.55 174.55 113.871875 174.26953125 114.85 174.7 115.4115234375 172.845703125 117 170.6 124.45 159.6 135.25 153 146.8 145.9 159 145.9 171.2 145.95 181.85 153.2 192.5 160.5 196.95 171.85 197.75 173.9 199.55 180.1 202.55 190.95 205.25 197.1 206.9 200.9 207.1 201.5 208 204.05 208.05 206.1 208.05 208.6 206.6 210.6 205.05 212.75 202.8 212.85 201.8 212.9 200.45 212.55 198.95 212.05 198.15 211.85 192.95 210.45 186.5 213.45 184.35 214.45 181.25 216.35 176.5 219.3 176.15 219.5 164.1 226.45 149.7 226.85 137.9474609375 227.2173828125 127.5 223.1 128.2453125 223.7623046875 127.95 224.55 127.8353515625 224.817578125 127.6 225 128.494140625 227.5515625 128.25 231.25 127.85 236.75 125.35 241.9 123.5 245.75 120.8 248.9 121.35 249.5 121.8 250.5 122.05 251.05 122.6 252.6 123.05 253.95 123.45 254.7 124.8 257.1 127.95 258.5 130.15 259.5 134.05 260.25
L 140.3 261.45 140.75 257.1
Q 141.15 254.6 142 253.8 143.25 252.6 145.55 253.3 146.8 253.7 149 254.9 153.5 257 160.1 254.9 161.9 254.35 165.4 252.9 168.9 251.45 170.7 250.9 173.35 249.95 174.35 251.35 174.75 251.95 174.75 253.2
L 174.95 260.2
Q 176.5 259.15 179.35 256.7 183.85 252.8 186 250.35 188.75 247.3 190.15 244.25 190.05 244.2 190 244.2 186.55 243 184.5 241.15 181.45 238.4 180.85 233.9 180.6 232.55 180.7 231.2 180.75 228.35 181.85 225.6 184.55 218.9 193.15 213.5 194.7 215.55 193.75 218.45 193.1 220.65 191.35 222.55 191.05 222.8 190.75 223.1 190.455078125 223.394921875 190.05 223.75 189.3734375 225.3154296875 188.1 227.65 186.55 230.8 186.65 233.05 186.7 234.55 187.4 235.75 187.5869140625 236.073828125 187.8 236.35 188.823046875 236.8642578125 190.1 237.3 191.8 237.85 194.8 238.65 194.9 238.65 195.05 238.7 196.2 238.95 197.55 239.3 202.45 240.55 204.9 241.4 213.6 244.3 217.25 250 218.9 241.9 220.9 237.95 223.6 233.45 224.5 231.05 225.8 227.55 225.35 223.6 224.9 219.8 223 216.35 220.15 210.9 214.55 207.65 212.65 206.6 211.95 205.8 211.85 205.7 211.8 205.65 210.6 204 211.25 201.55 211.7 199.85 213.2 197.4 213.65 196.7 214.05 195.95 216.75 191.05 216.9 187.5 217 184.75 215.6 182.35 214.1 179.8 211.7 179 210.35 178.75 209.7 178.5 208.6 178.2 207.95 177.65 207.1 176.8 207.05 175.35 207 174.1 207.65 172.85 207.9 172.25 208.95 170.6 209.55 169.55 209.95 168.85 209.9 168.55 209.9 168.25 209.95 166.35 209.9 165.35 209.85 163.7 209.4 162.1 208.15 159.65 205.55 156.95 203.1 154.45 200.7 153.4 197.6 152.05 195.3 153.45 194.45 154.05 194 154.35 193.25 154.8 192.6 154.6 191.5 154.4 190.9 152.15 190.5 150.55 189.95 149 189.3 148.4 188.8 147.45 188.45 146.9 187.45 144.4 187.05 143.45 186.6 142.55 184.95 140.15 182.9 137.95 176.85 131.7 168.9 129.8 167.3 129.4 165.55 129.2
M 197.55 158.05
Q 198.95 157.7 199.95 157.7 201.6 157.6 202.75 158.05 204.8 158.95 205.75 161.5 206.25 162.6 206.3 163.8 206.35 164.95 205.85 167.35 205.65 168.45 205.3 168.9 204.65 169.65 203.35 169.85 202.05 170.1 200.85 170 200 170 199.65 169.6 199.45 169.35 199.35 168.55 199.05 165.4 196.9 162.95 195.9 161.85 195.65 161.45 195 160.45 195.3 159.6 195.7 158.45 197.55 158.05
M 213.35 183.3
Q 213.85 183.7 214.45 184.8 214.9 185.7 214.9 186.05 214.95 186.5 214.7 187.4 214.65 187.8 214.75 188.7 214.9 189.6 214.8 190.05 214.65 190.65 213.9 191.85
L 212.45 193.9
Q 211.95 194.6 211.6 194.9 210.95 195.55 209.75 195.8 208.4 196.1 207.15 195.9 206.3 195.65 206.1 195.4 205.85 195.1 205.75 194.05 205.7 193 205.15 190.1
L 204.85 188.75
Q 204.35 186.5 204.25 185.25 204.05 183.7 204.7 182.85 205.25 182.25 206.3 182.05 207.3 181.9 208.65 182.1 209.45 182.2 211 182.55 212.8 182.9 213.35 183.3 Z"/>

<path fill="#000033" stroke="none" d="
M 170.15 102.85
Q 169.55 101.5 168.75 100.8 168.35 100.4 167.05 99.65 165.95 99.1 162.85 97.75 161.1 96.95 159.8 96.65 158.2 96.4 156.25 96.55 150.15 97.25 147.2 101.1 146.15 102.55 145.35 104.5 144.85 105.75 144.8 106.05 144.55 107 144.45 108.2
L 144.25 110.45
Q 144.05 112.5 144.4 113.7 145 115.6 148.25 117.75 149.65 118.8 150.85 119.25 151.85 119.6 154 119.8 156.5 120 157.65 119.55 158.3 119.3 159.2 118.6 160.65 117.5 161.45 116 161.8275390625 115.176171875 162 114.3 162.1029296875 113.941796875 162.15 113.55 162.45 111.5 161.3 110.7 160.6 110.2 159.65 110.55 159.0673828125 110.7765625 158.65 111.2 158.4587890625 111.4501953125 158.3 111.75 158.205859375 111.98515625 157.9 113.25 157.870703125 113.3171875 157.85 113.4 157.6 114.4 157.15 114.85 156.6 115.4 155.5 115.5 153.85 115.65 152.3 115.1 151.5 114.8 149.75 113.7 148.85 113.1 148.55 112.65 148.25 112.1 148.35 110.85
L 148.55 108.4
Q 148.9 106.1 149.8 104.7 150.2 103.95 150.8 103.4 152.5798828125 101.66953125 155.9 100.95 155.962109375 100.9578125 156 100.95 158 100.5 159.1 101 159.6 101.2 160.5 101.85 161.05 102.15 162.4 102.35 162.7755859375 102.4251953125 163.1 102.5 163.8302734375 102.705078125 164.25 102.95 164.6 103.2 165.2 103.75 165.75 104.2 166.25 104.25 167 105.95 166.7 108.3 166.6474609375 108.7068359375 166.55 109.15 166.2900390625 110.5193359375 165.7 112.4
L 163.7 118.75 163.3 120.15
Q 162.55 122.45 163.35 123.45 163.7 123.95 164.35 124.1 165 124.2 165.55 123.95 166.4193359375 123.563671875 167.05 121.65 167.0779296875 121.6181640625 167.1 121.55
L 167.5 120.3 169.4 114.15
Q 170.5 110.45 170.75 108.55 170.8935546875 107.5134765625 170.85 106.55 170.8650390625 104.5185546875 170.15 102.85 Z"/>

<path fill="#410041" stroke="none" d="
M 409.15 274.55
Q 408.95 274.3 408.75 274.1 401.1 266 392.85 261.5 383.1 256.1 373.45 256.35 367.5 256.45 360.85 258.75 352.2 261.7 344.85 267.2 337.5 272.6 332.45 279.8 329.85 283.5 326.75 289.45 325 292.75 321.6 299.4 315.15 311.2 307.65 316.2 306.7 316.85 304.7 318.15 303.05 319.35 302.2 320.55 300.85 322.55 300.65 326.35 300.3 333.2 301.95 340.05 303 344.15 304.8 346.15 306.05 347.45 307.75 348.05 309.6 348.65 311.2 348.1 311.9 355 316.55 360.8 321.25 366.6 328.2 369.05 329.7 369.55 331.05 369.6
L 330.4 376.3
Q 330.2 378.3 330.45 379.3 330.9 381 332.35 381.6 333.65 382.1 335.3 381.25 336.05 380.9 337.7 379.45 340.6 376.95 343.8 375 344 374.9 344.2 374.75
L 345.5 375.5
Q 348.85 377.35 350.35 378 354.15 379.5 359.25 379.7 362.7 379.85 368.45 379.4 377.2 378.75 383.3 377.8 383.4 378.05 383.6 378.4
L 386.1 382.35
Q 386.15 382.4 386.25 382.5 387.75 384.75 388.45 385.3 390.1 386.8 392.05 386.6 394.35 386.35 396.6 382.75
L 400.85 376
Q 401 375.8 401.15 375.6 405.95 374.55 410.45 372.65 410.65 372.85 410.95 373.05
L 415.1 376.85
Q 417.2 378.75 418.6 378.9 419.85 379.1 421.1 378.55 422.25 378 423.05 376.9 424.1 375.65 425 372.35
L 426 368.7
Q 426.3 367.6 426.2 366.95 426.15 366.7 426.1 366.55 426.3 366.45 426.5 366.45
L 429.7 365.55
Q 432.2 364.8 432.95 364.35 433.85 363.9 434.8 362.9 435.8 362 436.25 361.45 437.65 359.9 439.45 357.25 440.1 356.3 440.6 355.45 441.05 355.9 441.7 356.35 442.5 356.85 443.95 357.45 445.9 358.05 447.15 358.05 448.5 358.1 451.1 357.35
L 459.4 354.85
Q 461.1 354.2 462.3 353.4 463.3 352.7 464.7 351.4 467.75 348.45 468.6 347.15 469.5 345.85 470.95 343.05 471.35 342.4 474.35 338.25 474.55 337.95 474.7 337.7 474.8 337.7 474.9 337.7 478.25 337.9 480.15 337.8 483 337.7 485.2 337 487.7 336.2 489.1 334.65 490.55 333.05 490.65 330.7 490.7 328.4 489.55 326.4 487.7 323.1 482.75 320.5 476.55 317.35 469.55 316.7 464.05 316.5 461.4 316.25 456.7 315.75 453.95 313.8 451.15 311.85 448.5 306.55 444.95 299.5 443.1 296 439.9 289.9 437.15 285.75 432.9 279.4 428.45 277.25 425.45 275.8 420.35 275.4 414.6 275.2 411.8 274.8 409.55 274.55 409.4 274.55 409.25 274.55 409.15 274.55
M 418 280.95
Q 421.25 281.15 422.75 281.5 425.4 281.95 427.15 283.15 429.35 284.6 431.85 288.65 437.4 297.65 441.9 306.55 444.5 311.75 446.05 313.95 448.8 317.9 452.2 319.7 455.6 321.55 461.6 322 471.2 322.75 471.55 322.8 477.5 323.85 482.3 327.1 484.4 328.5 484.3 329.95 484.25 331 483.05 331.7 482.05 332.25 480.75 332.25 479.75 332.25 477.4 331.9 475.2 331.55 474 331.7 472.25 331.85 471.1 333.1 470.15 333.65 469.05 335.3
L 465.55 340.45
Q 464.65 341.85 463.45 343.45
L 461.25 346.15
Q 459.9 347.6 459.4 348 458.65 348.55 456.95 349.3 453.25 350.85 449.2 351.7 447.4 352.05 446.5 351.9 445.9 351.75 444.55 351.15 443.35 350.55 442.6 350.55 441.4 350.5 440.45 351.25 440.35 351.35 440.25 351.5 439.55 351.45 438.85 351.55 437.5 351.8 436.8 352.4 435.95 353.05 435.15 354.8 433.1 358.8 429.9 362.15 429.1 363.1 428.4 363.5 427.9 363.75 426.7 364.15
L 421.9 365.35
Q 419.9 365.85 419.7 366.8 420.35 367.3 421.35 367.35 421.95 367.4 422.95 367.25 422.85 367.65 422.75 368.1 422.3 370.8 422.1 371.55 421.55 373.5 420.65 374.75 419.95 375.8 419.15 375.8 418.45 375.85 417.45 375 415.15 373 413.3 371.2 413.25 371.15 413.2 371.1 413.55 370.8 413.75 370.6 414.15 370.1 414.05 369.8 413.95 369.4 413.2 369.35 410.75 369.15 407.85 370.55 404.6 372.25 402.85 372.9 402.2 373.1 401.25 373.35 401.1 373.15 400.9 373.05 400.1 372.65 399.25 373.25 398.9 373.55 398.6 373.95 397.35 374.25 396.7 374.45 395.3 375 395.15 375.7 395.8 376.25 397.25 376.2
L 393.75 381.85
Q 393.55 382.25 393.3 382.5 392.45 383.6 391.55 383.6 390.7 383.55 389.9 382.5 389.8 382.35 389.65 382.15 387.95 379.75 386.4 377.2 386.8 377 387.05 376.8 387.55 376.35 387.35 376 387.25 375.75 386.65 375.65 385.5 375.45 384.7 375.45 384.5 375.35 384.35 375.35 383.95 375.3 383.7 375.4 383 375.5 380.3 376 378.85 376.3 376.05 376.6
L 368.95 377.2
Q 365.2 377.45 363.05 377.4 359.8 377.35 357.25 376.7 354.1 375.85 348.75 372.7 345.75 370.95 344.1 370.7 342.8 370.45 341.55 370.8 340.2 371.2 339.5 372.15
L 341.25 373.1 333.5 378.8
Q 333.4 373.25 334.3 367.95 334.8 366.9 334.15 365.65 333.5 364.3 332.05 363.55 331.1 363 329.2 362.45 327.05 361.9 326.25 361.5 323.2 360.2 321.1 356.8 319.6 354.35 318.35 350.15 317.6 347.75 317.2 346.9 316.45 345.1 315.45 343.95 314.25 342.6 312.5 341.95 310.6 341.35 309 342 306.6 335.4 306.85 328.15 306.95 325.75 307.7 324.45 308.25 323.55 309.35 322.7 309.65 322.5 311.4 321.35 319.05 316.35 325.55 305.2 332.25 292.05 336.15 285.95 344.25 273.15 355.9 267.05 362.3 263.7 369.4 262.85 376.85 261.9 383.45 263.85 389 265.55 394.65 269.55 398.75 272.5 404.15 277.75 404.3 277.9 404.5 278.1 404.95 280.05 409.25 280.35
L 418 280.95
M 327.9 319.75
Q 327.65 319.85 327.4 319.85 327 320 326.5 320.45
L 322.45 326.45
Q 322.5 327.15 322.95 327.85 323.65 328.9 324.9 329.55 327.15 330.8 329.2 330.05 330.25 329.6 331.2 328.5 332.4 327.25 332.9 325.65 333.4 323.95 332.9 322.4 332.45 321.4 331.7 320.8 331.2 320.4 329.45 320 328.4 319.75 327.9 319.75
M 329.4 323.05
L 329.85 323.15 330 323.6 330.1 324.35
Q 330.05 324.95 329.6 325.7 329.35 326.1 328.75 326.75 328.05 327.35 327.5 327.35 326.9 327.4 326 326.7 325.5 326.45 325.5 326.05 325.55 325.85 325.85 325.55 327 323.9 327.85 323.45 328.6 323.05 329.4 323.05
M 400.4 328.9
Q 399.35 329.3 398.3 330.65 396.7 332.55 395.5 335.25 394.8 336.8 393.65 340.3
L 390.95 348.55 389.15 348.7
Q 385.8 349 384.8 350.3 384.3 351 384.1 352.3 383.8 354.7 384.85 356.8 386 359.05 388.25 359.9 389.35 360.3 391.8 360.5 397.4 360.9 401 360.55 403.55 360.2 406.1 359.55 408.6 358.9 409.95 358.25 410.75 357.9 413.15 356.3 415.15 354.9 415.95 354 417.6 352.2 418.45 349.6 419.1 347.65 418.65 346.35 418.3 345.35 416.55 343.9 415.75 343.25 414.95 342.9 414.6 342.8 414.2 342.75 414.2 342.7 414.2 342.6 414.45 337.7 416.45 333.2 417.15 331.75 417 330.95 416.8 330.05 415.8 329.55 414.8 329.1 413.8 329.3 412.2 329.6 410.5 331.4 408.85 333.15 406.95 335.7
L 404.3 339.15 404.5 333.35
Q 404.6 332.75 404.5 332.1 404.45 331.7 403.85 330.35 403.45 329.55 403.05 329.15 402 328.2 400.4 328.9
M 399.85 333.6
Q 400.7 332.45 401.3 332.15 401.4 332.7 401.4 333.85
L 401.4 336.7
Q 401.35 337.55 401.2 339.35 401.15 340.95 401.4 342 401.7 343.3 402.4 344 403.4 344.9 404.55 344.55 405.15 344.35 405.4 343.85 405.7 343.3 405.5 342.8 405.45 342.7 405.4 342.6 405.6 342.35 405.85 341.95 409.3 337.1 413 333.15 411.5 338.5 411.1 341.15 410.85 342.45 411.15 343.3 409.95 343.55 409.95 344.25 409.95 344.7 410.55 345.15 411.8 346.25 411.95 346.4 412.65 347.15 412.75 347.9 412.9 348.65 412.5 349.75 412.05 351.4 411.55 352.2 410.85 353.45 409 354.85 406.4 356.85 404.4 357.5 402.05 358.35 398.6 358.25 396.45 358.25 394.25 357.95 392.65 357.8 391.95 357.25 391.4 356.85 391 356.05 390.35 354.85 390.15 353.5 390.95 353.15 392.55 352.4 393.95 351.75 395.05 351.55 395.4 351.5 396.15 351.35 396.75 351.25 397.15 350.95 397.75 350.55 397.8 349.75 397.8 349.5 397.8 349.35 398.15 349.05 398.15 348.6 397.4 347.9 395.55 348.1
L 394.25 348.25 397 340.15
Q 397.35 338.55 397.6 337.8 398.05 336.5 399.85 333.6
M 382.35 326.4
Q 381.5 325.95 380.6 325.95 379.65 325.95 378.95 326.45
L 377.75 327.7
Q 377.5 328 376.1 329 375.1 329.8 374.7 330.5 374.1 331.7 374.7 333.05 375.25 334.3 376.5 335.05 377.95 335.95 379.8 335.9 381.6 335.9 383.05 334.95 384.05 334.3 384.6 333.35 385.8 331.5 385.15 329.4 384.4 327.25 382.35 326.4
M 379.35 333
Q 378.7 332.95 377.75 332.25
L 377.5 331.95
Q 377.5 331.75 377.7 331.55 378.55 330.6 380.85 329.25 381.05 329.05 381.25 329.05 381.45 329.05 381.55 329.25 381.95 329.6 382.25 330.75
L 382.3 331.35
Q 382.2 331.75 381.5 332.2 380.15 333.1 379.35 333 Z"/>

<path fill="#E57AED" stroke="none" d="
M 422.75 281.5
Q 421.25 281.15 418 280.95
L 409.25 280.35
Q 404.95 280.05 404.5 278.1 404.3 277.9 404.15 277.75 398.75 272.5 394.65 269.55 389 265.55 383.45 263.85 376.85 261.9 369.4 262.85 362.3 263.7 355.9 267.05 344.25 273.15 336.15 285.95 332.25 292.05 325.55 305.2 319.05 316.35 311.4 321.35 309.65 322.5 309.35 322.7 308.25 323.55 307.7 324.45 306.95 325.75 306.85 328.15 306.6 335.4 309 342 310.6 341.35 312.5 341.95 314.25 342.6 315.45 343.95 316.45 345.1 317.2 346.9 317.6 347.75 318.35 350.15 319.6 354.35 321.1 356.8 323.2 360.2 326.25 361.5 327.05 361.9 329.2 362.45 331.1 363 332.05 363.55 333.5 364.3 334.15 365.65 334.8 366.9 334.3 367.95 333.4 373.25 333.5 378.8
L 341.25 373.1 339.5 372.15
Q 340.2 371.2 341.55 370.8 342.8 370.45 344.1 370.7 345.75 370.95 348.75 372.7 354.1 375.85 357.25 376.7 359.8 377.35 363.05 377.4 365.2 377.45 368.95 377.2
L 376.05 376.6
Q 378.85 376.3 380.3 376 383 375.5 383.7 375.4 383.95 375.3 384.35 375.35 384.5 375.35 384.7 375.45 385.5 375.45 386.65 375.65 387.25 375.75 387.35 376 387.55 376.35 387.05 376.8 386.8 377 386.4 377.2 387.95 379.75 389.65 382.15 389.8 382.35 389.9 382.5 390.7 383.55 391.55 383.6 392.45 383.6 393.3 382.5 393.55 382.25 393.75 381.85
L 397.25 376.2
Q 395.8 376.25 395.15 375.7 395.3 375 396.7 374.45 397.35 374.25 398.6 373.95 398.9 373.55 399.25 373.25 400.1 372.65 400.9 373.05 401.1 373.15 401.25 373.35 402.2 373.1 402.85 372.9 404.6 372.25 407.85 370.55 410.75 369.15 413.2 369.35 413.95 369.4 414.05 369.8 414.15 370.1 413.75 370.6 413.55 370.8 413.2 371.1 413.25 371.15 413.3 371.2 415.15 373 417.45 375 418.45 375.85 419.15 375.8 419.95 375.8 420.65 374.75 421.55 373.5 422.1 371.55 422.3 370.8 422.75 368.1 422.85 367.65 422.95 367.25 421.95 367.4 421.35 367.35 420.35 367.3 419.7 366.8 419.9 365.85 421.9 365.35
L 426.7 364.15
Q 427.9 363.75 428.4 363.5 429.1 363.1 429.9 362.15 433.1 358.8 435.15 354.8 435.95 353.05 436.8 352.4 437.5 351.8 438.85 351.55 439.55 351.45 440.25 351.5 440.35 351.35 440.45 351.25 441.4 350.5 442.6 350.55 443.35 350.55 444.55 351.15 445.9 351.75 446.5 351.9 447.4 352.05 449.2 351.7 453.25 350.85 456.95 349.3 458.65 348.55 459.4 348 459.9 347.6 461.25 346.15
L 463.45 343.45
Q 464.65 341.85 465.55 340.45
L 469.05 335.3
Q 470.15 333.65 471.1 333.1 472.25 331.85 474 331.7 475.2 331.55 477.4 331.9 479.75 332.25 480.75 332.25 482.05 332.25 483.05 331.7 484.25 331 484.3 329.95 484.4 328.5 482.3 327.1 477.5 323.85 471.55 322.8 471.2 322.75 461.6 322 455.6 321.55 452.2 319.7 448.8 317.9 446.05 313.95 444.5 311.75 441.9 306.55 437.4 297.65 431.85 288.65 429.35 284.6 427.15 283.15 425.4 281.95 422.75 281.5
M 411.85 296.1
Q 411.2 294.1 411.8 293.2 412.35 292.3 413.7 291.95 414.5 291.85 416.1 291.85 416.7 291.85 419.35 291.75 421.3 291.65 422.55 291.75 423.95 291.85 424.8 292.1 425.55 292.35 426.85 293.2 427.8 293.95 428.35 294.55 428.7 295 429.1 295.8
L 430.6 298.4
Q 431.55 300.1 432.25 302 432.65 303.05 432.8 303.95 432.95 304.9 432.95 305.7 432.95 307.8 432.65 308.55 432.4 309.2 431.9 309.8 431.95 309.85 432 309.95 435.85 314.8 440.6 318.8 441.6 319.65 442.25 319.75 442.3 319.75 442.35 319.8 442.35 319.9 442.35 320.05 442.35 321.05 443 322.15 445.25 326.1 444.45 329.45 443.95 331.65 441.75 334 439 336.7 437.7 338 435.35 340.4 432.9 344.2 430.25 348.7 428.85 350.9 425.1 357.05 421.3 359.65 418.7 361.4 412.7 363.45
L 400.9 367.4
Q 396.55 368.95 393.9 369 392.3 369.05 389.45 368.45 386.3 367.8 384.95 367.7 382.65 367.55 379.35 368.25 375.65 369.15 373.75 369.45 364.8 371.15 354.2 368 347.05 365.95 336.2 360.35 328.7 356.45 325.4 353.15 321.6 349.4 318.85 342.45 316.95 337.65 317.6 334.75 318 332.95 320.1 329.85
L 322.45 326.45 326.5 320.45 326.95 319.8
Q 327.15 319.85 327.35 319.85
L 327.4 319.85
Q 327.65 319.85 327.9 319.75 328.6 319.45 329.3 318.3 333.75 310.2 339.75 303.2 339.6 301 339.85 299.45 340.1 297.95 341.2 295.15 342.7 291.5 343.75 289.8 344.8 288.25 347.4 285.35 351.15 281.25 353.55 279.85 355.7 278.65 359.55 277.65 364.85 276.3 365.8 276 367.6 275.45 368.25 275.7 368.8 275.9 369.65 276.65 370.4 277.1 372.2 277.55 373.8 278.15 374.85 279.4 377.45 279.05 380 279.2 385.1 279.55 389.05 281.8 391.95 283.4 396.1 287.55 400.65 292.1 403 293.65 405.65 295.4 412.4 297.7 412.1 296.9 411.85 296.1 Z"/>

<path fill="#762583" stroke="none" d="
M 326.5 320.45
Q 327 320 327.4 319.85
L 327.35 319.85
Q 327.15 319.85 326.95 319.8
L 326.5 320.45
M 380 279.2
Q 377.45 279.05 374.85 279.4 374.9 279.5 375 279.6 376.15 281.05 376.3 282.7 376.45 284.4 375.55 286.35 375 287.55 373.6 289.75
L 369.9 295.25
Q 365.95 301.2 363.5 304.05 358.4 310.1 352.95 311.3 350.35 311.9 347.6 311.35 344.9 310.75 342.75 309.3 341.5 308.4 340.75 307.2 340.1 306.15 339.8 303.9 339.75 303.5 339.75 303.2 333.75 310.2 329.3 318.3 328.6 319.45 327.9 319.75 328.4 319.75 329.45 320 331.2 320.4 331.7 320.8 332.45 321.4 332.9 322.4 333.4 323.95 332.9 325.65 332.4 327.25 331.2 328.5 330.25 329.6 329.2 330.05 327.15 330.8 324.9 329.55 323.65 328.9 322.95 327.85 322.5 327.15 322.45 326.45
L 320.1 329.85
Q 318 332.95 317.6 334.75 316.95 337.65 318.85 342.45 321.6 349.4 325.4 353.15 328.7 356.45 336.2 360.35 347.05 365.95 354.2 368 364.8 371.15 373.75 369.45 375.65 369.15 379.35 368.25 382.65 367.55 384.95 367.7 386.3 367.8 389.45 368.45 392.3 369.05 393.9 369 396.55 368.95 400.9 367.4
L 412.7 363.45
Q 418.7 361.4 421.3 359.65 425.1 357.05 428.85 350.9 430.25 348.7 432.9 344.2 435.35 340.4 437.7 338 439 336.7 441.75 334 443.95 331.65 444.45 329.45 445.25 326.1 443 322.15 442.35 321.05 442.35 320.05 442.35 319.9 442.35 319.8 442.3 319.75 442.25 319.75 441.6 319.65 440.6 318.8 435.85 314.8 432 309.95 431.95 309.85 431.9 309.8 431.6 310.1 431.25 310.45 429.5 312.1 427.5 312.55 425.2 313.05 423.15 312.2 421.9 311.65 420.7 310.35 420.15 309.75 418.75 307.9 417.35 306.2 417 305.6
L 414.55 301.75
Q 413.35 300 412.4 297.7 405.65 295.4 403 293.65 400.65 292.1 396.1 287.55 391.95 283.4 389.05 281.8 385.1 279.55 380 279.2
M 380.6 325.95
Q 381.5 325.95 382.35 326.4 384.4 327.25 385.15 329.4 385.8 331.5 384.6 333.35 384.05 334.3 383.05 334.95 381.6 335.9 379.8 335.9 377.95 335.95 376.5 335.05 375.25 334.3 374.7 333.05 374.1 331.7 374.7 330.5 375.1 329.8 376.1 329 377.5 328 377.75 327.7
L 378.95 326.45
Q 379.65 325.95 380.6 325.95
M 398.3 330.65
Q 399.35 329.3 400.4 328.9 402 328.2 403.05 329.15 403.45 329.55 403.85 330.35 404.45 331.7 404.5 332.1 404.6 332.75 404.5 333.35
L 404.3 339.15 406.95 335.7
Q 408.85 333.15 410.5 331.4 412.2 329.6 413.8 329.3 414.8 329.1 415.8 329.55 416.8 330.05 417 330.95 417.15 331.75 416.45 333.2 414.45 337.7 414.2 342.6 414.2 342.7 414.2 342.75 414.6 342.8 414.95 342.9 415.75 343.25 416.55 343.9 418.3 345.35 418.65 346.35 419.1 347.65 418.45 349.6 417.6 352.2 415.95 354 415.15 354.9 413.15 356.3 410.75 357.9 409.95 358.25 408.6 358.9 406.1 359.55 403.55 360.2 401 360.55 397.4 360.9 391.8 360.5 389.35 360.3 388.25 359.9 386 359.05 384.85 356.8 383.8 354.7 384.1 352.3 384.3 351 384.8 350.3 385.8 349 389.15 348.7
L 390.95 348.55 393.65 340.3
Q 394.8 336.8 395.5 335.25 396.7 332.55 398.3 330.65
M 341.4 338.4
Q 342 336.8 342.5 336.05 343.7 334.6 344.3 333.8 345.4 332.15 345.7 331.9 346.85 330.95 347.9 331.3 348.3 331.45 349.05 332.15 349.85 332.85 353.05 334.85 354.1 335.55 354.4 336.05
L 354.45 336.1
Q 354.45 336.05 354.5 336.05 354.7 336.05 354.75 335.95 355.65 335.85 356.15 336.6 356.15 336.65 356.2 336.65 356.15 335.95 357 335.35 357.7 334.9 359 334.7 360.4 334.5 361.35 334.55 362.7 334.6 363.45 335.35 364.55 336.3 364.35 339.1 364.05 342.45 363.2 343.9 362.15 345.65 359.35 347.15 355.9 349.05 352.05 349.6 349.6 350 347.9 349.35 346.95 349 345.85 348 344.65 346.85 344 346.25 342.7 345.25 342.1 344.65 341.05 343.65 340.75 342.7 340.3 341.25 341.4 338.4 Z"/>

<path fill="#54B997" stroke="none" d="
M 329.85 323.15
L 329.4 323.05
Q 328.6 323.05 327.85 323.45 327 323.9 325.85 325.55 325.55 325.85 325.5 326.05 325.5 326.45 326 326.7 326.9 327.4 327.5 327.35 328.05 327.35 328.75 326.75 329.35 326.1 329.6 325.7 330.05 324.95 330.1 324.35
L 330 323.6 329.85 323.15
M 377.75 332.25
Q 378.7 332.95 379.35 333 380.15 333.1 381.5 332.2 382.2 331.75 382.3 331.35
L 382.25 330.75
Q 381.95 329.6 381.55 329.25 381.45 329.05 381.25 329.05 381.05 329.05 380.85 329.25 378.55 330.6 377.7 331.55 377.5 331.75 377.5 331.95
L 377.75 332.25 Z"/>

<path fill="#62006C" stroke="none" d="
M 343.8 341.9
Q 343.5 341.15 344 339.9 345.2 336.9 347.55 334.65
L 351.5 337.3
Q 352.4 337.85 352.85 337.95 353.25 338.05 353.65 338.05 353.45 337.65 353.45 337.25
L 353.5 336.9 353.7 336.55
Q 354.1 336.2 354.2 336.15 354.25 336.15 354.45 336.1
L 354.4 336.05
Q 354.1 335.55 353.05 334.85 349.85 332.85 349.05 332.15 348.3 331.45 347.9 331.3 346.85 330.95 345.7 331.9 345.4 332.15 344.3 333.8 343.7 334.6 342.5 336.05 342 336.8 341.4 338.4 340.3 341.25 340.75 342.7 341.05 343.65 342.1 344.65 342.7 345.25 344 346.25 344.65 346.85 345.85 348 346.95 349 347.9 349.35 349.6 350 352.05 349.6 355.9 349.05 359.35 347.15 362.15 345.65 363.2 343.9 364.05 342.45 364.35 339.1 364.55 336.3 363.45 335.35 362.7 334.6 361.35 334.55 360.4 334.5 359 334.7 357.7 334.9 357 335.35 356.15 335.95 356.2 336.65 356.4 336.9 356.4 337.3 356.7 337.6 357.25 337.8 357.9 338 358.65 337.85 359.1 337.8 360 337.5 360.85 337.35 361.4 337.45 361.1 338.15 361.15 339.8 361.15 341.4 360.8 342.15 360.35 343.2 358.75 344.1 355.65 346.05 351.5 346.65 349.65 346.95 348.7 346.5 348.05 346.2 347.35 345.4 346.35 344.3 346.1 344.1 345.2 343.45 344.8 343.15 344 342.55 343.8 341.9 Z"/>

<path fill="#850085" stroke="none" d="
M 344 339.9
Q 343.5 341.15 343.8 341.9 344 342.55 344.8 343.15 345.2 343.45 346.1 344.1 346.35 344.3 347.35 345.4 348.05 346.2 348.7 346.5 349.65 346.95 351.5 346.65 355.65 346.05 358.75 344.1 360.35 343.2 360.8 342.15 361.15 341.4 361.15 339.8 361.1 338.15 361.4 337.45 360.85 337.35 360 337.5 359.1 337.8 358.65 337.85 357.9 338 357.25 337.8 356.7 337.6 356.4 337.3 356.4 336.9 356.2 336.65 356.15 336.65 356.15 336.6 355.65 335.85 354.75 335.95 354.7 336.05 354.5 336.05 354.45 336.05 354.45 336.1 354.25 336.15 354.2 336.15 354.1 336.2 353.7 336.55
L 353.5 336.9 353.45 337.25
Q 353.45 337.65 353.65 338.05 353.25 338.05 352.85 337.95 352.4 337.85 351.5 337.3
L 347.55 334.65
Q 345.2 336.9 344 339.9 Z"/>

<path fill="#542583" stroke="none" d="
M 401.3 332.15
Q 400.7 332.45 399.85 333.6 398.05 336.5 397.6 337.8 397.35 338.55 397 340.15
L 394.25 348.25 395.55 348.1
Q 397.4 347.9 398.15 348.6 398.15 349.05 397.8 349.35 397.8 349.5 397.8 349.75 397.75 350.55 397.15 350.95 396.75 351.25 396.15 351.35 395.4 351.5 395.05 351.55 393.95 351.75 392.55 352.4 390.95 353.15 390.15 353.5 390.35 354.85 391 356.05 391.4 356.85 391.95 357.25 392.65 357.8 394.25 357.95 396.45 358.25 398.6 358.25 402.05 358.35 404.4 357.5 406.4 356.85 409 354.85 410.85 353.45 411.55 352.2 412.05 351.4 412.5 349.75 412.9 348.65 412.75 347.9 412.65 347.15 411.95 346.4 411.8 346.25 410.55 345.15 409.95 344.7 409.95 344.25 409.95 343.55 411.15 343.3 410.85 342.45 411.1 341.15 411.5 338.5 413 333.15 409.3 337.1 405.85 341.95 405.6 342.35 405.4 342.6 405.45 342.7 405.5 342.8 405.7 343.3 405.4 343.85 405.15 344.35 404.55 344.55 403.4 344.9 402.4 344 401.7 343.3 401.4 342 401.15 340.95 401.2 339.35 401.35 337.55 401.4 336.7
L 401.4 333.85
Q 401.4 332.7 401.3 332.15 Z"/>

<path fill="#F3BAFF" stroke="none" d="
M 343.75 289.8
Q 342.7 291.5 341.2 295.15 340.1 297.95 339.85 299.45 339.6 301 339.75 303.2 339.75 303.5 339.8 303.9 340.1 306.15 340.75 307.2 341.5 308.4 342.75 309.3 344.9 310.75 347.6 311.35 350.35 311.9 352.95 311.3 358.4 310.1 363.5 304.05 365.95 301.2 369.9 295.25
L 373.6 289.75
Q 375 287.55 375.55 286.35 376.45 284.4 376.3 282.7 376.15 281.05 375 279.6 374.9 279.5 374.85 279.4 373.8 278.15 372.2 277.55 370.4 277.1 369.65 276.65 368.8 275.9 368.25 275.7 367.6 275.45 365.8 276 364.85 276.3 359.55 277.65 355.7 278.65 353.55 279.85 351.15 281.25 347.4 285.35 344.8 288.25 343.75 289.8
M 370.45 280.3
Q 370.65 280.25 370.85 280.2 371 280.25 371.1 280.3 372.25 280.8 372.8 281.65 373.6 282.85 373.05 284.5 372.7 285.6 371.6 287.15
L 366.7 294.6
Q 362.5 301 359.55 303.95 356.05 307.65 352.3 308.45 348.7 309.2 345.5 307.5 344.1 306.75 343.45 305.8 342.9 304.95 342.7 303.3 342.6 301.6 343.15 299.4 348.15 294.1 354.05 289.35 362.9 282.45 370.45 280.3
M 411.8 293.2
Q 411.2 294.1 411.85 296.1 412.1 296.9 412.4 297.7 413.35 300 414.55 301.75
L 417 305.6
Q 417.35 306.2 418.75 307.9 420.15 309.75 420.7 310.35 421.9 311.65 423.15 312.2 425.2 313.05 427.5 312.55 429.5 312.1 431.25 310.45 431.6 310.1 431.9 309.8 432.4 309.2 432.65 308.55 432.95 307.8 432.95 305.7 432.95 304.9 432.8 303.95 432.65 303.05 432.25 302 431.55 300.1 430.6 298.4
L 429.1 295.8
Q 428.7 295 428.35 294.55 427.8 293.95 426.85 293.2 425.55 292.35 424.8 292.1 423.95 291.85 422.55 291.75 421.3 291.65 419.35 291.75 416.7 291.85 416.1 291.85 414.5 291.85 413.7 291.95 412.35 292.3 411.8 293.2
M 427.5 304.6
Q 428.5 305.55 429.7 307 429.4 307.95 428.65 308.75 427.85 309.6 426.75 309.8 425.1 310.05 423.4 308.8 422.65 308.25 421.1 306.15 418.55 302.5 417.45 300.65 416.95 299.85 416.5 299 424.15 301.5 427.5 304.6 Z"/>

<path fill="#E981FF" stroke="none" d="
M 370.85 280.2
Q 370.65 280.25 370.45 280.3 362.9 282.45 354.05 289.35 348.15 294.1 343.15 299.4 342.6 301.6 342.7 303.3 342.9 304.95 343.45 305.8 344.1 306.75 345.5 307.5 348.7 309.2 352.3 308.45 356.05 307.65 359.55 303.95 362.5 301 366.7 294.6
L 371.6 287.15
Q 372.7 285.6 373.05 284.5 373.6 282.85 372.8 281.65 372.25 280.8 371.1 280.3 371 280.25 370.85 280.2
M 429.7 307
Q 428.5 305.55 427.5 304.6 424.15 301.5 416.5 299 416.95 299.85 417.45 300.65 418.55 302.5 421.1 306.15 422.65 308.25 423.4 308.8 425.1 310.05 426.75 309.8 427.85 309.6 428.65 308.75 429.4 307.95 429.7 307 Z"/>

<path fill="#332301" stroke="none" d="
M 414.2 141.55
Q 413.75 142.2 413.95 142.85 414.3 143.9 416.2 144.3
L 418.1 144.7 417.6 152.25
Q 417.2 157.5 416.2 159.9 415.7779296875 160.7826171875 415.6 161.3 414.318359375 162.3314453125 413.95 163.15 413.55 163.9 413.8 164.75 414 165.6 414.75 165.9 415.85 166.35 417.6 165
L 428.15 156.75
Q 430.65 154.75 431.5 153.6 433.25 151.15 433 148.25 432.85 146.1 431.65 144.9 430.7 143.95 428.05 143.3
L 422.05 141.85
Q 422.0693359375 141.31796875 422.1 140.75 422.35 137.85 420.75 137.55 419.55 137.25 418.8 138.6 418.45 139.25 418.35 140.85
L 418.35 141 418.1 140.95
Q 416.35 140.45 415.35 140.75 414.65 140.95 414.2 141.55
M 426.1 146.5
Q 428.6 147.1 429.15 148.25 430 150.2 427.05 152.6 423.898828125 155.1966796875 420.7 157.55 421.34765625 152.6517578125 421.8 145.55
L 426.1 146.5
M 463.95 141.95
Q 463.75 140.2 463.25 139.45 462.9 138.9 462.25 138.65 461.6 138.4 461.05 138.65 459.9 139.25 460.1 141.6
L 461.4 154.8
Q 461.6 156.95 462.55 157.55 463.05 157.9 463.7 157.8 464.35 157.7 464.75 157.25 465.4 156.55 465.2 154.55
L 463.95 141.95
M 330.35 164.15
L 331.95 163.75
Q 332.85 163.5 333.4 163.05 334.1 162.55 334.3 161.7 334.5 160.8 333.95 160.2 333.3 159.5 331.45 159.8 327.45 160.55 323.75 162.55
L 325.1 143.4
Q 325.35 140.2 323.55 140 322.45 139.85 321.8 141.1 321.55 141.6 321.3 143.2 320.15 158.8 320 165.25 320 167 320.7 167.6 321.9 168.55 324.35 166.75 327.1 164.85 330.35 164.15
M 362.2 146.15
Q 362.1 143.15 361.35 141.65 360.85 140.55 359.95 139.8 358.95 139 357.85 138.95 356.15 138.85 355.45 140.15 355.1 140.75 355.3 141.5 355.55 142.3 356.15 142.55
L 352.7 152.8
Q 351.8 155.45 353 156.35 353.45 156.7 354.65 156.8 355.95 156.9 356.6 156.85 357.7 156.8 358.45 156.45 359.7 155.8 360.65 154.05 361.65 152.35 361.95 150.45 362.3 148.8 362.2 146.15
M 357.9 151.1
Q 357.5 151.9 357.3 152.65
L 356.6 152.7 357.6 149.3
Q 357.95 148.35 358.1 148.15 358.25 148.2 358.4 148.75 358.4 150 358.25 150.35
L 357.9 151.1
M 391.55 138.7
Q 391 137.2 390.1 136.7 389.4 136.25 388.45 136.4 387.6 136.55 386.9 137.1 385.9 137.8 384.85 139.75 381.65 145.5 376.15 158.1 375.65 159.35 375.9 159.95 376.15 160.65 377 160.8 377.8 160.95 378.45 160.5 379.35 159.95 380.15 158 381.013671875 155.93828125 381.95 153.85 382.704296875 154.2 384.2 153.85 386.25390625 153.3251953125 388.65 152.5
L 388.65 153.05
Q 388.65 155.65 390 156.1 390.7 156.3 391.4 155.8 392.05 155.35 392.35 154.6 392.6 153.85 392.35 151.55 392.3357421875 151.4140625 392.3 151.15 393.5279296875 150.7212890625 394.8 150.2 396.4 149.6 397.05 148.9 397.55 148.45 397.65 147.8 397.85 147.1 397.5 146.55 397.2 145.95 396.4 145.7 395.65 145.5 394.9 145.75 394.3 145.9 393.6 146.35 392.8 146.9 392.35 147.15
L 392.3 147.15
Q 392.3291015625 146.210546875 392.35 145.05 392.4 141.1 391.55 138.7
M 387.15 142.7
Q 387.75 141.5 388.45 141.25
L 388.55 148.65
Q 388.112109375 148.8060546875 387.6 148.95 385.8861328125 149.42890625 384.65 149.85
L 384.65 149.75 384.05 149.15
Q 385.5349609375 145.971484375 387.15 142.7
M 618.95 155.65
Q 618.6 155.45 618.2 155.35 617.3 155.25 616.8 155.65 616.15 156.15 616.2 156.9
L 616.7 158.15 617 158.3 617.7 158.55 618.1 158.6 618.4 158.55
Q 619.2 158.2 619.4 157.95 620.05 157.25 619.5 156.25 619.3 155.9 618.95 155.65
M 591.3 155.25
Q 590.95 155.1 590.5 155.1 589.95 155.1 589.5 155.4 589 155.7 588.9 156.2 588.75 156.65 589.2 157.65 589.35 157.9 589.4 157.95
L 590.4 158.35 590.7 158.4 591 158.35
Q 592.1 157.85 592.3 157.3 592.5 156.75 592.15 156.05 591.8 155.45 591.3 155.25
M 492.85 146.95
Q 492.2 146.4 490.4 144.4 488.9 142.8 487.75 142.1 486.85 141.5 485.85 141.5 484.7 141.45 484.15 142.2 483.5 143.15 484.1 145.05
L 487.1 155.9
Q 487.5 157.6 488.2 158.4 488.7 158.95 489.45 159.1 490.2 159.3 490.75 158.9 492.05 157.95 490.8 155.1 489.35 151.7 488.95 148.45 492.55 152.6 498.1 153.4 500.6 153.7 501.65 152.65 502.55 151.75 502.65 149.7 503.05 143.6 501.1 138 500.5 136.5 499.95 135.95 498.9 135 497.85 135.45 496.7 136 496.8 137.5 496.85 138.15 497.5 139.8 499.35 144.4 498.95 149.35 495.5 149.2 492.85 146.95
M 545.2 133.55
L 538.1 138.9
Q 535.35 140.95 534 142.45 532.05 144.65 531.8 147.05 531.6 149.1 532.7 151.1 533.7 153 535.55 154.2 538.75 156.4 543.7 156.2 545.45 156.15 547.9 155.8 549.3 155.6 552.1 155.1 552.475390625 155.0431640625 552.8 154.95 553.3126953125 157.3865234375 553.65 159.6 553.85 161.2 554.35 162 554.75 162.5 555.35 162.75 556 163 556.55 162.75 557.5 162.2 557.5 160.55 557.55 159.15 556.8 155.85
L 556.25 153.6
Q 556.4212890625 153.45625 556.55 153.3 557.4 152.4 557.1 151 556.8 149.55 555.6 149.45 555.463671875 149.440234375 555.3 149.45
L 554.95 147.9
Q 554.55 146.2 553.9 145.45 553.4 144.95 552.75 144.8 552.05 144.6 551.5 145 550.45 145.75 551.1 148.05 551.4875 149.444921875 551.8 150.75 548.1435546875 152.0328125 543.3 152.15 539.85 152.15 538.1 151.25 536.85 150.6 536.15 149.45 535.35 148.2 535.55 146.9 535.85 145.05 538.95 142.9 543.35 139.8 547.85 136.15 549.8 134.6 549.25 133.35 549 132.8 548.4 132.6 547.85 132.4 547.25 132.5 546.5 132.65 545.2 133.55 Z"/>

<path fill="#5C0023" stroke="none" d="
M 711.05 320.75
Q 710.9302734375 320.99296875 710.85 321.25 710.6 322.05 711 322.75 711.45 323.6 712.4 323.75 713 323.85 713.6 323.55 714.15 323.3 714.45 322.75 714.7 322.2 714.6 321.55 714.503125 320.9205078125 714.1 320.5
L 714.1 320.5
Q 713.7 320.05 713.05 319.95 712.4 319.85 711.85 320.1 711.341015625 320.3375 711.05 320.75
M 663.7 252.65
Q 659.4 248.5 653.4 247.5 647.15 246.4 642.5 249.55 640.55 250.8 638.7 253.05 637.55 254.45 635.6 257.25 634.25 259.25 633.65 260.5 632.75 262.4 632.7 264.05 631.5 264.6 630.1 263.85 628.9 263.15 628.1 261.8 627.8 261.35 626.9 259.25 626.2 257.7 625.5 256.9 623.8 255.05 619.45 254.35 610.8 253.1 602.05 254.65 593.3 256.25 585.7 260.5 582.4 262.3 581.2 264.2 579.35 267.05 580.4 270.95 580.75 272.25 581.5 274.9 581.9 277.2 580.8 278.4 579.6 279.75 576.65 279.55 575.2 279.45 572.75 279.05 569.95 278.55 568.8 278.45 563.95 278 561.15 279.95 558.35 282 557.15 286.9 555.95 291.6 556.9 295.4 557.45 297.55 558.75 299.3 560.1 301.1 562.05 301.95 562.7 302.25 564 302.7 565.15 303.15 565.7 303.75 567.3 305.55 566.15 308.45 565.95859375 308.9287109375 565.65 309.55 563.8123046875 310.26875 561.25 312
L 556.55 315.25
Q 555.8794921875 315.6892578125 555.4 316.1 554.73203125 315.5181640625 553 315.05 549.45 313.6 547.55 313.2 544 312.55 542.25 314.6 541.3 315.65 540.85 318.75 540.45 322.9 540.75 324.95 541.35 328.45 543.6 330.3 544.25 330.8 545.95 331.65 547.55 332.4 548.3 333.05 549.65 334.15 551.3 337.6 552.0125 339.0939453125 552.7 340.1 554.71328125 341.2173828125 556 341.6 558.55 342.35 563.55 342.05 564.4984375 342.05 564.85 342.3 565.0958984375 342.2146484375 565.35 342.1 567.3490234375 341.3177734375 570.2 341.2 570.2330078125 341.2576171875 570.25 341.3 570.95 342.95 572.55 344.95 573.05 345.55 573.05 345.9 573.1 346.15 572.75 346.85 570.25 351.95 570.8 359.55 571.1 363.8 572.55 366.05 573.9 368.1 576.95 369.7 578.7 370.65 582.3 372.25 583.4 372.8 583.75 373.45 584.1 374.1 583.9 375.75 583.65 377.85 583.95 379.8 584.15 381.1 584.75 381.6 585.1 381.9 586.3 382.1 589.15 382.4 590.5 381.9 591.35 381.6 593.05 380.2 596.55 377.15 597.45 376.3 598.931640625 374.818359375 599.7 373.5 600.467578125 373.940234375 601.5 374.25 602.35 374.5 604.15 374.95 606.35 375.6 609.65 377.4 613.75 379.6 615 380.15 620.25 382.4 626.15 382.1 632.1 381.75 637.1 378.95 637.2412109375 378.865234375 638.45 378.05 638.6107421875 378.500390625 638.8 378.9 639.25 379.8 640.35 381
L 642.85 383.8
Q 644.8 385.85 646.15 386.2 647.15 386.5 647.65 385.9 647.85 385.7 647.95 385.25 648.05 384.7 648.1 384.45 648.2 384 649.3 382.45 650.05 381.4 650.4 379.9
L 650.85 377.8
Q 651.1 377.1 652 375.9 654.85 372.3 658.35 369.45 659.45 368.55 659.75 368.2 660.28515625 367.6265625 660.55 367.05 662.116796875 366.72890625 663.8 366.75 667.85 366.85 671.05 368.85 672.15 369.5 673.8 370.9 675.7 372.5 676.45 373 679.3 375.1 683.05 376.05 685.1 376.55 686.05 375.65 686.85 374.9 686.75 372.95 686.74453125 372.7037109375 686.75 372.45 685.6904296875 371.239453125 685.3 369.45 684.65 366.7 686 364.5 686.06171875 364.5103515625 686.1 364.5 685.530078125 359.8755859375 684.4 355.25 683.95 353.15 684.05 352.3 684.1 351.4 684.65 350.4 684.8 350.05 685.65 348.65 691.45 339.9 693.55 333.75 696.65 324.65 694.5 317.2 693.9 315.4 693.6 314.5 693.15 312.95 693 311.8 692.998828125 311.7255859375 693 311.65 692.692578125 312.809765625 692.45 314 690.75 313.15 691.05 309.65 691.3515625 306.18125 691.7 304 691.4998046875 303.7220703125 691.25 303.5 690.8763671875 302.79609375 690.4 302.1 687.2 297.4 682.1 296.7 683.45 293.6 683.65 290.15 683.8 286.65 682.75 283.45 681.75 280.6 679.95 280.35 679.4 280.25 678.35 280.55 677.2 280.85 676.75 280.85 675.6 280.9 674.6 280.15 673.7 279.45 673.15 278.3 672.65 277.15 672.3 273.7 671.15 259.9 663.7 252.65
M 649.15 253.15
Q 653.4 252.55 657.75 254.5 661.8 256.4 664.65 259.95 669.6 266.15 670.5 276.4 670.6 277.5 670.8 279.6 671 281.45 671.5 282.7 672.15 284.3 673.3 285.35 674.6 286.5 676.15 286.6 677.1 286.65 679.1 286.45 680.8 286.45 681.3 287.5 681.75 288.4 680.9 290.35 679.25 294.5 679.7 299.05 679.9 301.25 680.95 302.2 681.7 302.8 683.2 303.05 685.3 303.35 685.65 303.45 687.6 304.15 689.3 307.2 689.734375 307.99453125 690.1 308.65 689.88828125 311.8845703125 690.8 315.2 690.9 315.55 691.85 318.35 692.5 320.25 692.7 321.55 693.05 324.55 691.7 328.9 689.4 336.3 684.95 342.3 683.7 344 683.1 344.85 682.1 346.4 681.65 347.65 680.3 351.35 682.45 358.6 684.8 366.25 684 369.7 680.25 370.2 675.6 366.4 673.25 364.4 672 363.45 669.9 361.8 668 361.15 663.45 359.55 657.25 362.2 655.4 363 652.3 364.7 648.9 366.55 647.4 367.25 642.75 369.1 640.5 370.25 639.5 370.75 636.25 372.7 633.65 374.25 631.9 374.95 627.5 376.7 622.15 376.05 617.35 375.45 612.5 373.05 608.95 371.2 607.15 370.3 603.95 368.7 601.55 368.2 600.6380859375 367.9916015625 599.95 368.05 599.6923828125 367.6884765625 599.35 367.4
L 597.7 369.2
Q 593.8 373.3 591.55 374.95 588.9 376.95 587.25 375.8 586.9 376.15 586.3 376.15 586.85 373.5 586.95 372.15 587.25 369.7 586 368.4 585.5 367.85 584 367.1
L 578.05 364.35
Q 574.6 362.7 573.65 361.05 572.75 359.35 573 356.75 573.15 355.15 573.8 353.5 575.3 350.65 575.75 349.15 576.6 346 574.9 342.5 574.6791015625 342.034765625 574.35 341.45 575.1548828125 341.594140625 575.9 341.75 576.9 341.95 578.9 342.45 580.005078125 342.66484375 580.9 342.75 581.0501953125 342.6421875 581.2 342.55 581.85 342.15 582.55 342.25 583.0509765625 342.321484375 583.45 342.65 584.271484375 342.5181640625 585.3 342.25 585.34765625 342.5044921875 585.45 342.65 586.5654296875 342.2572265625 587.85 341.8
L 593.8 337.45
Q 594.228515625 337.1642578125 594.55 336.85 595.05390625 336.7876953125 595.65 336.3 597.25 334.95 598.5 332.7 599.35 331.1 600.35 328.4 601.7 324.65 602 321.95 602.45 318.8 601.85 315.7
L 601.85 315.65 600.1 315.05
Q 597.7994140625 314.256640625 596.35 314.1 593.9326171875 315.108203125 592.8 315.75 591.15 316.75 590.3 317.2 588.8 317.95 587.6 318.05 585.3 318.3 582.35 316.4 581.1 315.6 578.85 313.85 576.5 312.05 575.35 311.3 575.1572265625 311.1751953125 574.95 311.05 574.5201171875 311.2583984375 574 311.15 573.04921875 311.007421875 572.65 309.85 570.727734375 309.04609375 568.9 308.95 569.3548828125 305.655859375 568.4 302.6 567.3 299.15 564.65 297.3 564.45 297.15 562.2 295.85 560.7 295 560 294.1 558.95 292.7 559.1 290.8 559.2 288.95 560.3 287.55 562.45 284.8 566.45 284.55 567.65 284.45 574.2 285.2 578.9 285.7 581.4 284.15 584.15 282.4 584.7 278.75 585.25 275.25 583.65 272.1 583 270.85 583 270.75 582.65 269.95 582.8 269.35 583 268.15 584.95 267.05 592.45 262.8 601 261 609.55 259.2 618.15 260 622.6 260.5 624.35 262.2 625.2 263.05 626.05 264.65 627.4 267.35 627.45 267.4 628.3 268.85 629.5 269.65 630.95 270.6 632.3 270.2 633.6 269.85 634.45 268.3 634.9 267.55 635.7 265.4 637.4 260.7 640.85 257.4 644.6 253.85 649.15 253.15
M 649.1 373.05
Q 648.8544921875 373.6111328125 648.75 374.05
L 648.4 375.7
Q 648.25 376.4 647.65 377.45 646.8 379.4 646.55 380.1 645.8 380.6 644.65 379.55 642.9078125 378.046875 641.35 376.25 643.475 374.903515625 645.1 374.3 645.75 374.05 647.8 373.5 648.521484375 373.2876953125 649.1 373.05
M 550.05 319.9
L 552.7 320.85
Q 553.958203125 320.6783203125 554.35 320.6 556.1279296875 320.2580078125 557.55 319.7
L 557.8 319.5
Q 557.95 319.35 559.25 318.6
L 561.1 317.65
Q 563.45 316.4 564.85 315.95 565.878515625 315.6369140625 566.8 315.55 566.8875 315.4158203125 566.95 315.25 568.128515625 314.9189453125 569.15 314.9 571.6 314.85 574.35 316.55 575.3 317.15 579 319.95 581 321.45 582.6 322.45 585.2 324.1 587 324.2 588.35 324.25 589.95 323.55 590.55 323.3 592.75 322.1 596 320.3 599.75 319.15 599.3 322.25 598.15 325.25 596.75 328.8 594.9 330.3
L 594.05 331.05 587.55 335.75
Q 586.9533203125 335.6818359375 585.95 336.1 582.8 337.2 576.25 336 569.5 334.8 566.4 335.65 565.6 335.85 563.45 336.75 561.6 337.55 560.45 337.7 558.4 338 556.4 337.1 554.45 336.25 553.3 334.5 552.85 333.85 552.3 332.65 551.65 331.15 551.45 330.75 550 328.05 547.45 326.5 545.3 325.4 544.35 324.65 542.55 323.25 542.85 321.5 543.05 320.55 543.95 319.85 544.85 319.15 545.95 319.05 547.25 318.95 550.05 319.9
M 639.25 333.35
Q 639.3 333.05 639.25 332.45 639.2 331.8 639.2 331.55 639.35 330.5 639.35 330.4 639.25 329.75 638.45 329.05
L 637.05 328.1
Q 636.55 327.6 636.25 327.4 635.8 326.95 635.4 326.85 634.6 326.55 633.7 327.1 632.35 327.8 631.7 329.3 631.05 330.75 631.25 332.35 631.396484375 333.610546875 631.9 334.5 632.29140625 335.144921875 632.85 335.6 633.55 336.2 634.45 336.45 635.4099609375 336.6900390625 636.2 336.4 636.2658203125 336.412109375 636.3 336.4 637.1 336.1 638 335.2 639.1 334.2 639.25 333.35
M 635.6 330.65
L 635.7 331
Q 635.8 331.2 636.1 331.45 636.25 331.6 636.25 331.8 636.4 332.85 635.5 333.25
L 635.2 333.35
Q 634.7 333.4 634.4 332.7 634.15 332.15 634.15 331.2
L 634.2 330.75 634.85 330
Q 634.95 330 635.25 330.2 635.55 330.4 635.6 330.65 Z"/>

<path fill="#660000" stroke="none" d="
M 710.85 321.25
Q 710.9302734375 320.99296875 711.05 320.75 710.40625 320.758984375 709.85 320.65 707.2 320.2 704.95 318.25 702.9 316.45 701.55 313.8 699.95 310.65 699.8 307.9 699.65 305.7 700.6 301.7 701.65 297.45 701.65 295.5 695.3953125 302.553125 693 311.65 692.998828125 311.7255859375 693 311.8 693.15 312.95 693.6 314.5 693.9 315.4 694.5 317.2 696.65 324.65 693.55 333.75 691.45 339.9 685.65 348.65 684.8 350.05 684.65 350.4 684.1 351.4 684.05 352.3 683.95 353.15 684.4 355.25 685.530078125 359.8755859375 686.1 364.5 686.6412109375 364.6875 687 365.45 687.25 365.95 687.65 366.95 688.7 368.9 692.8 368.7 698.9 368.35 702.85 367.5 708.25 366.35 712.1 363.95 716.55 361.2 718.85 356.6 721.3 351.7 720 347.05 718.65 343.65 718 342 716.8 339 717.25 336.9 717.75 334.75 720 332.75 721.3 331.55 724.15 329.45 728 326.3 730.05 321.6 732.15 316.9 731.9 312 730.5 311.95 728.95 313.15 727.25 314.7 726.4 315.45 723.5 318.05 717.05 319.85 715.4640625 320.293359375 714.1 320.5 714.503125 320.9205078125 714.6 321.55 714.7 322.2 714.45 322.75 714.15 323.3 713.6 323.55 713 323.85 712.4 323.75 711.45 323.6 711 322.75 710.6 322.05 710.85 321.25
M 706.15 333.55
Q 702.5 332.7 699.9 331.25 698.4 330.35 696.3 328.8 695.9 328.5 695.85 328.25 695.7 327.8 696.2 327.4 697.35 326.4 699.4 326.95 700.1 327.15 700.95 327.6 701.45 327.85 702.45 328.4 702.7 328.5 705.95 329.8 708 330.65 709.15 331.6 710.5 332.7 710.65 332.75 711.1 332.95 712.1 333.2 713.05 333.5 712.95 334.3 712.95 335.25 711.2 335.45 710.5 335.5 710.3 335.5 709.75 335.5 709.4 335.25 708.8 334.7 708.45 334.45 707.9 334 706.15 333.55
M 692.7 344
Q 694.05 343.85 696.2 344.3 702.4 345.65 707.9 348.9 709.4 349.85 709.75 350.65 710.25 351.7 709.65 352.7 708.7 354.3 705.7 354.1 702.35 353.85 698.65 352.25 696 351.05 692.2 348.7 689.9 347.35 689.9 345.85 690.65 344.35 692.7 344
M 695.25 335.45
L 694.7 335.25
Q 694.8 334.7 695.7 334.5 698.55 333.7 703.3 336.35 706.8 338.25 708.45 339.9 708.6115234375 340.0615234375 708.7 340.2 709.08828125 340.593359375 709.4 341 707.75 342.45 706.75 342.7 706 342.85 704.25 342.65 702.15 342.25 700.25 341.75 697.25 340.9 696.1 339.45 695.9 339.2 695.05 337.65 694.45 336.6 693.75 336.15 694.441015625 335.676171875 695.25 335.45
M 703.2 357.55
Q 703.7 356.95 704.4 356.85
L 704.55 356.8 704.6 356.8 704.55 356.75
Q 705.45 356.75 706.1 357.4 706.75 358.15 706.6 359 706.5 359.7 705.9 360.2 705.3 360.7 704.6 360.65 703.95 360.65 703.4 360.1 702.85 359.55 702.8 358.85 702.75 358.15 703.2 357.55
M 695.85 358.75
Q 696.5 358.1 697.3 358.2 698.5 358.3 699 359.4 699.45 360.55 698.6 361.4 697.75 362.4 696.5 361.9 696 361.7 695.65 361.2 695.3 360.7 695.3 360.15 695.3 359.3 695.85 358.75
M 617.15 340.15
Q 616.05 340.1 613.85 340.3
L 604.35 341.25
Q 603.05 341.45 602.95 342.1 603.6 342.75 605.35 342.65 606.246484375 342.6029296875 607.15 342.5 606.9033203125 343.9607421875 607.2 344.9 607.4 345.6 608.2 346.8 609.95 349.3 610.35 349.75 610.95 350.35 611.35 350.55 611.45 350.6 612.95 351.15 614.15 351.6 614.2 351.6 614.65 351.65 615.6 351.5 615.9 351.5 616.8 351.55 617.55 351.65 618 351.55 618.6 351.45 619.45 350.95 620.6 350.2 620.8 350.1 621.2 349.9 622.05 349.55 622.7 349.15 622.8 349.15 622.95 349.1 623.35 349 623.5865234375 348.8580078125 623.7 348.25 624.28203125 348.321484375 625.7 348.1 626.4 348 626.7 347.75 626.95 347.55 626.9 347.35 626.85 347.15 626.5 347.05 625.9 346.85 625.4 346.4 624.8 345.85 624.1 344.7 623.25 343.3 622.95 342.9 621.75 341.4 619.6 340.65 618.2 340.2 617.15 340.15
M 610.45 345.7
Q 609.4966796875 344.5560546875 608.1 342.45 610.5720703125 342.2494140625 613.05 341.9 615.55 341.6 616.8 341.95 618.25 342.4 619.3 343.75
L 620.25 345.15
Q 620.479296875 345.6087890625 620.65 345.95 619.6830078125 346.461328125 619.4 346.65 618.45 347.35 618.4 347.35 617.85 347.6 616.85 347.55 615.45 347.5 615.2 347.5 614.2 347.6 614.05 347.6 613.75 347.55 613.15 347.25 611.6 346.7 611.45 346.6 611.2 346.45 610.45 345.7 Z"/>

<path fill="#000000" stroke="none" d="
M 697.3 358.2
Q 696.5 358.1 695.85 358.75 695.3 359.3 695.3 360.15 695.3 360.7 695.65 361.2 696 361.7 696.5 361.9 697.75 362.4 698.6 361.4 699.45 360.55 699 359.4 698.5 358.3 697.3 358.2
M 704.4 356.85
Q 703.7 356.95 703.2 357.55 702.75 358.15 702.8 358.85 702.85 359.55 703.4 360.1 703.95 360.65 704.6 360.65 705.3 360.7 705.9 360.2 706.5 359.7 706.6 359 706.75 358.15 706.1 357.4 705.45 356.75 704.55 356.75
L 704.6 356.8 704.55 356.8 704.4 356.85
M 711.85 307.6
Q 710.9591796875 307.3310546875 710.5 307.25 708.45 307 707.25 307.8 707.25 308.2 707.85 308.4
L 710.7 309.35 714.5 310.65
Q 714.9515625 310.7951171875 715.35 310.9 717.541796875 311.5015625 718.8 311.25 719.2716796875 311.126953125 719.6 310.9 720.1140625 310.6423828125 720.35 310.2 720.20390625 310.1716796875 720.05 310.15 718.03359375 309.7330078125 716 309.1 714.8609375 308.73984375 713.7 308.3 712.6193359375 307.8861328125 711.85 307.6
M 721.65 306.55
Q 721.25 306.05 720.4 305.7 719.5751953125 305.2482421875 718.55 304.7 716.951171875 303.9248046875 714.85 302.95
L 714.85 302.95
Q 713.1 302.3 712.45 302.25 711 302.1 710.2 303.1 710.9 303.55 712.35 304.3
L 713.6 304.9 716.1 306.15
Q 716.7689453125 306.484375 717.3 306.7 718.2529296875 307.1056640625 718.85 307.2 720.5 307.55 721.65 306.55
M 723.4 299.1
Q 722.7888671875 298.9626953125 722.2 298.8 720.388671875 298.350390625 718.7 297.75 718.29765625 297.6337890625 717.95 297.5 716.3158203125 297.08203125 715.7 297 714.62578125 296.846484375 713.75 297.1 713.1828125 297.241015625 712.7 297.55 712.8208984375 297.816015625 713.15 298 713.5302734375 298.2451171875 714.15 298.4
L 717 299.2 717.9 299.45
Q 719.8287109375 300.110546875 721.2 300.35 722.474609375 300.620703125 723.3 300.55 724.55 300.55 724.85 299.7 724.5 299.45 723.4 299.1
M 727.5 285.7
Q 726.1708984375 285.2416015625 724.8 284.95 723.1791015625 284.63125 721.5 284.55 721.5 284.75 721.1 284.75 720.8740234375 284.75 720.7 284.75 720.345703125 284.8021484375 720.15 284.9 719.6 285.15 719.55 285.6 719.857421875 285.680859375 720.15 285.75 721.7896484375 286.1646484375 723.55 286.5 723.750390625 286.534375 723.95 286.55 725.4201171875 286.7771484375 726.35 286.6 727.5 286.4 727.5 285.7
M 717.7 290.45
Q 717.4 290.75 717.55 290.95 719.334375 291.4666015625 721.05 291.8 721.1875 291.8287109375 721.3 291.85 723.5 292.25 724.55 292.05 725.55 291.7 725.6 291.15 723.8330078125 290.51015625 721.95 290.2 720.7501953125 290.00859375 719.5 289.95
L 718.2 290.25 717.7 290.45 Z"/>

<path fill="#666666" stroke="none" d="
M 694.7 335.25
L 695.25 335.45
Q 694.441015625 335.676171875 693.75 336.15 694.45 336.6 695.05 337.65 695.9 339.2 696.1 339.45 697.25 340.9 700.25 341.75 702.15 342.25 704.25 342.65 706 342.85 706.75 342.7 707.75 342.45 709.4 341 709.08828125 340.593359375 708.7 340.2 708.6115234375 340.0615234375 708.45 339.9 706.8 338.25 703.3 336.35 698.55 333.7 695.7 334.5 694.8 334.7 694.7 335.25
M 696.2 344.3
Q 694.05 343.85 692.7 344 690.65 344.35 689.9 345.85 689.9 347.35 692.2 348.7 696 351.05 698.65 352.25 702.35 353.85 705.7 354.1 708.7 354.3 709.65 352.7 710.25 351.7 709.75 350.65 709.4 349.85 707.9 348.9 702.4 345.65 696.2 344.3
M 699.9 331.25
Q 702.5 332.7 706.15 333.55 707.9 334 708.45 334.45 708.8 334.7 709.4 335.25 709.75 335.5 710.3 335.5 710.5 335.5 711.2 335.45 712.95 335.25 712.95 334.3 713.05 333.5 712.1 333.2 711.1 332.95 710.65 332.75 710.5 332.7 709.15 331.6 708 330.65 705.95 329.8 702.7 328.5 702.45 328.4 701.45 327.85 700.95 327.6 700.1 327.15 699.4 326.95 697.35 326.4 696.2 327.4 695.7 327.8 695.85 328.25 695.9 328.5 696.3 328.8 698.4 330.35 699.9 331.25 Z"/>

<path fill="#31230F" stroke="none" d="
M 717.95 314.1
Q 718.09140625 313.811328125 718.25 313.5 718.8111328125 312.394140625 719.6 310.9 719.2716796875 311.126953125 718.8 311.25 717.541796875 311.5015625 715.35 310.9 714.990625 312.4240234375 715.3 313.7 715.3685546875 314.0201171875 715.5 314.3 715.6787109375 314.605859375 715.95 314.85 716.5 315.35 717.05 315.15 717.5 315 717.95 314.1
M 717 299.2
L 714.15 298.4
Q 713.5302734375 298.2451171875 713.15 298 712.0283203125 299.8658203125 710.5 302.25 707.45 307 706.5 308.5 705.446875 310.1646484375 704.85 311.5 704.5763671875 312.1390625 704.4 312.7 703.6 315.15 704.35 317.05 704.7 317.7 705.05 317.65 705.4 317.65 705.7 317.15
L 707.6 314.2 710.7 309.35 707.85 308.4
Q 707.25 308.2 707.25 307.8 708.45 307 710.5 307.25 710.9591796875 307.3310546875 711.85 307.6
L 713.6 304.9 712.35 304.3
Q 710.9 303.55 710.2 303.1 711 302.1 712.45 302.25 713.1 302.3 714.85 302.95
L 714.85 302.95
Q 715.631640625 301.674609375 717 299.2
M 717.55 290.95
Q 717.4 290.75 717.7 290.45
L 718.2 290.25 719.5 289.95
Q 720.7501953125 290.00859375 721.95 290.2
L 723.95 286.55
Q 723.750390625 286.534375 723.55 286.5 721.7896484375 286.1646484375 720.15 285.75 716.443359375 292.665625 714.45 295.9 714.1205078125 296.4568359375 713.75 297.1 714.62578125 296.846484375 715.7 297 716.3158203125 297.08203125 717.95 297.5 718.259375 296.9666015625 718.6 296.35
L 721.05 291.8
Q 719.334375 291.4666015625 717.55 290.95
M 742.3 257.55
Q 741.55 255.95 739.7 254.65 738.5 253.75 736.2 252.65 732.85 251.05 731 251.8 729.4 252.45 727.85 255.6
L 727.5 256.3
Q 728.1232421875 256.7869140625 728.3 257.45 728.5 258.25 728.05 259 727.6 259.8 726.8 259.95 726.4837890625 259.989453125 725.85 259.9
L 725.6 260.45
Q 724.53984375 262.6625 723.95 264.45 725.19296875 264.6341796875 725.75 265.4 726.15 266 726.05 266.8 725.95 267.6 725.4 268.05 724.607421875 268.710546875 723.25 268.55 723.37421875 269.9158203125 723.95 273 724.5 276.05 724.05 277.9 723.8 278.9 722.8 280.8 721.6875 282.9080078125 720.7 284.75 720.8740234375 284.75 721.1 284.75 721.5 284.75 721.5 284.55 723.1791015625 284.63125 724.8 284.95 726.178125 282.2412109375 726.5 281 727.2 278.25 726.35 273.75 725.8 270.55 726 269.15 726.15 267.5 727.55 264.5
L 729.6 260.1
Q 730.4 258.4 731.3 257.9 732.45 257.35 734.25 257.9 737.45 258.9 740 261 738.25 268.95 734.15 277.7 731 284.35 725.55 293.35
L 722.2 298.8
Q 722.7888671875 298.9626953125 723.4 299.1 724.5 299.45 724.85 299.7 724.55 300.55 723.3 300.55 722.474609375 300.620703125 721.2 300.35
L 718.55 304.7
Q 719.5751953125 305.2482421875 720.4 305.7 721.25 306.05 721.65 306.55 720.5 307.55 718.85 307.2 718.2529296875 307.1056640625 717.3 306.7 716.5072265625 308.0767578125 716 309.1 718.03359375 309.7330078125 720.05 310.15 722.8796875 305.0759765625 728.3 296.2 735.1 285.1 737.85 277.9 738.15 277.1 739.85 272.2
L 741.7 266.65
Q 742.65 263.75 742.9 262.05 743.2 259.45 742.3 257.55 Z"/>

<path fill="#4C351D" stroke="none" d="
M 715.35 310.9
Q 714.9515625 310.7951171875 714.5 310.65
L 710.7 309.35 707.6 314.2
Q 708.7708984375 314.75 710.55 314.75 713.0857421875 314.814453125 715.5 314.3 715.3685546875 314.0201171875 715.3 313.7 714.990625 312.4240234375 715.35 310.9
M 713.6 304.9
L 711.85 307.6
Q 712.6193359375 307.8861328125 713.7 308.3 714.8609375 308.73984375 716 309.1 716.5072265625 308.0767578125 717.3 306.7 716.7689453125 306.484375 716.1 306.15
L 713.6 304.9
M 717 299.2
Q 715.631640625 301.674609375 714.85 302.95 716.951171875 303.9248046875 718.55 304.7
L 721.2 300.35
Q 719.8287109375 300.110546875 717.9 299.45
L 717 299.2
M 734.25 257.9
Q 732.45 257.35 731.3 257.9 730.4 258.4 729.6 260.1
L 727.55 264.5
Q 726.15 267.5 726 269.15 725.8 270.55 726.35 273.75 727.2 278.25 726.5 281 726.178125 282.2412109375 724.8 284.95 726.1708984375 285.2416015625 727.5 285.7 727.5 286.4 726.35 286.6 725.4201171875 286.7771484375 723.95 286.55
L 721.95 290.2
Q 723.8330078125 290.51015625 725.6 291.15 725.55 291.7 724.55 292.05 723.5 292.25 721.3 291.85 721.1875 291.8287109375 721.05 291.8
L 718.6 296.35
Q 718.259375 296.9666015625 717.95 297.5 718.29765625 297.6337890625 718.7 297.75 720.388671875 298.350390625 722.2 298.8
L 725.55 293.35
Q 731 284.35 734.15 277.7 738.25 268.95 740 261 737.45 258.9 734.25 257.9 Z"/>

<path fill="#330000" stroke="none" d="
M 705.2 291.95
Q 705.05 290.75 704.55 289.9 703.95 288.85 703 288.7 701.9 288.5 700.1 290 695.8 293.9 694.35 296.25 692.7 298.9 691.95 302.7 691.826953125 303.2779296875 691.7 304 691.3515625 306.18125 691.05 309.65 690.75 313.15 692.45 314 692.692578125 312.809765625 693 311.65 695.3953125 302.553125 701.65 295.5 701.65 297.45 700.6 301.7 699.65 305.7 699.8 307.9 699.95 310.65 701.55 313.8 702.9 316.45 704.95 318.25 707.2 320.2 709.85 320.65 710.40625 320.758984375 711.05 320.75 711.341015625 320.3375 711.85 320.1 712.4 319.85 713.05 319.95 713.7 320.05 714.1 320.5
L 714.1 320.5
Q 715.4640625 320.293359375 717.05 319.85 723.5 318.05 726.4 315.45 727.25 314.7 728.95 313.15 730.5 311.95 731.9 312 732.15 316.9 730.05 321.6 728 326.3 724.15 329.45 721.3 331.55 720 332.75 717.75 334.75 717.25 336.9 716.8 339 718 342 718.65 343.65 720 347.05 721.3 351.7 718.85 356.6 716.55 361.2 712.1 363.95 708.25 366.35 702.85 367.5 698.9 368.35 692.8 368.7 688.7 368.9 687.65 366.95 687.25 365.95 687 365.45 686.6412109375 364.6875 686.1 364.5 686.06171875 364.5103515625 686 364.5 684.65 366.7 685.3 369.45 685.6904296875 371.239453125 686.75 372.45 687.2990234375 373.1109375 688.05 373.6 689.95 374.85 692.75 374.95 694.6 375 697.75 374.45 704.4 373.35 707.95 372.15 713.4 370.3 716.7 367.1 721.5 362.45 722.4 355.1 723.25 348.85 721 341.75 720.5 340.15 720.7 339.4 720.95 338.4 722.8 337.1 729.5 332.4 732.5 324.35 735.55 316.3 733.6 308.4 733.2 306.55 732.2 306.1 731.1 305.55 729.2 306.7 728.1 307.4 725.5 309.3 723.15 311.05 721.75 311.85 720.034765625 312.837109375 718.25 313.5 718.09140625 313.811328125 717.95 314.1 717.5 315 717.05 315.15 716.5 315.35 715.95 314.85 715.6787109375 314.605859375 715.5 314.3 713.0857421875 314.814453125 710.55 314.75 708.7708984375 314.75 707.6 314.2
L 705.7 317.15
Q 705.4 317.65 705.05 317.65 704.7 317.7 704.35 317.05 703.6 315.15 704.4 312.7 704.5763671875 312.1390625 704.85 311.5
L 703.8 310.45
Q 703.2 309.8 702.9 309.25 701.95 307.6 702.65 304.5 703.9 300.35 704.45 298.25 705.5 294.55 705.2 291.95 Z"/>

<path fill="#996633" stroke="none" d="
M 717.65 262.35
Q 717.4 262.8 717.3 264.1
L 717.2 267.1
Q 717.1 268.15 717.35 268.75 717.75 269.9 718.95 270.05 720.15 270.2 720.9 269.3
L 721.5 268.55
Q 721.9 268.3 722.9 268.5 723.091015625 268.5357421875 723.25 268.55 724.607421875 268.710546875 725.4 268.05 725.95 267.6 726.05 266.8 726.15 266 725.75 265.4 725.19296875 264.6341796875 723.95 264.45 723.418359375 264.36953125 722.75 264.4 722.2 264.4 722 264.25 721.85 264.15 721.75 263.55 721.45 262.35 720.8 261.8 720.1 261.2 719.1 261.4 718.1 261.55 717.65 262.35
M 726.2 252.45
Q 725.95 251.65 725.2 251.15 724.4 250.6 723.65 250.9 722.95 251.15 722.35 252.2
L 721.75 254
Q 721.6 254.4 720.6 256.4 720 257.8 720.25 258.95 720.4 259.6 720.95 260.05 721.5 260.55 722.15 260.5 722.5 260.5 723.2 260.15 723.85 259.8 724.2 259.75 724.65 259.65 725.5 259.85 725.6884765625 259.8814453125 725.85 259.9 726.4837890625 259.989453125 726.8 259.95 727.6 259.8 728.05 259 728.5 258.25 728.3 257.45 728.1232421875 256.7869140625 727.5 256.3 727.4369140625 256.2580078125 727.35 256.2 726.6 255.7 725.75 255.75 726.6 253.75 726.2 252.45 Z"/>

<path fill="#CC3300" stroke="none" d="
M 552.7 320.85
L 550.05 319.9
Q 547.25 318.95 545.95 319.05 544.85 319.15 543.95 319.85 543.05 320.55 542.85 321.5 542.55 323.25 544.35 324.65 545.3 325.4 547.45 326.5 550 328.05 551.45 330.75 551.65 331.15 552.3 332.65 552.85 333.85 553.3 334.5 554.45 336.25 556.4 337.1 558.4 338 560.45 337.7 561.6 337.55 563.45 336.75 565.6 335.85 566.4 335.65 569.5 334.8 576.25 336 582.8 337.2 585.95 336.1 586.9533203125 335.6818359375 587.55 335.75
L 594.05 331.05 594.9 330.3
Q 596.75 328.8 598.15 325.25 599.3 322.25 599.75 319.15 596 320.3 592.75 322.1 590.55 323.3 589.95 323.55 588.35 324.25 587 324.2 585.2 324.1 582.6 322.45 581 321.45 579 319.95 575.3 317.15 574.35 316.55 571.6 314.85 569.15 314.9 568.128515625 314.9189453125 566.95 315.25 566.8875 315.4158203125 566.8 315.55 565.878515625 315.6369140625 564.85 315.95 563.45 316.4 561.1 317.65
L 559.25 318.6
Q 557.95 319.35 557.8 319.5
L 557.55 319.7
Q 556.1279296875 320.2580078125 554.35 320.6 553.958203125 320.6783203125 552.7 320.85
M 557.75 320.1
Q 559.65 318.85 560.45 318.5 561.65 318.05 563.35 317.8
L 566.9 317.2
Q 568.55 316.9 569.25 317.35 569.55 317.5 570 318 570.1 318.05 571.75 318.9 572.2 319.1 573.9 320.2 575.65 321.5 576.15 322.1 576.3 322.25 577.05 323.4 577.85 324.9 577.85 325.85 577.9 327.4 576.25 329.05 575.45 329.95 574.5 330.3 573.3 330.45 572.65 330.55
L 570.95 331
Q 568.6 331.65 564.85 331.7 559.45 331.75 558.6 331.8 556.1 331.9 555.5 331.8 554.3 331.5 553.45 330.85 551.75 329.6 551.4 327.9 551.1 326.65 551.7 325.3 552.2 324.05 553.25 323.1 554.05 322.3 555.4 321.5 556.2 321 557.75 320.1 Z"/>

<path fill="#FF6600" stroke="none" d="
M 560.45 318.5
Q 559.65 318.85 557.75 320.1 556.2 321 555.4 321.5 554.05 322.3 553.25 323.1 552.2 324.05 551.7 325.3 551.1 326.65 551.4 327.9 551.75 329.6 553.45 330.85 554.3 331.5 555.5 331.8 556.1 331.9 558.6 331.8 559.45 331.75 564.85 331.7 568.6 331.65 570.95 331
L 572.65 330.55
Q 573.3 330.45 574.5 330.3 575.45 329.95 576.25 329.05 577.9 327.4 577.85 325.85 577.85 324.9 577.05 323.4 576.3 322.25 576.15 322.1 575.65 321.5 573.9 320.2 572.2 319.1 571.75 318.9 570.1 318.05 570 318 569.55 317.5 569.25 317.35 568.55 316.9 566.9 317.2
L 563.35 317.8
Q 561.65 318.05 560.45 318.5
M 660.1 282.15
Q 658.15 279.1 654.15 277.7 650.7 276.5 646.4 276.7 644.75 276.75 638.7 277.5 634 278.1 631.05 277.85 628.95 277.65 625.8 276.9 621.15 275.75 620.65 275.65 618.1 275.15 613.1 274.75 608.8 274.35 606.4 274.85 603.4 275.55 600.25 277.95 598.55 279.25 594.95 282.75 590.65 286.9 586.4 290.35 583.4 292.8 582.6 293.55 580.55 295.45 579.45 297.3 577.35 300.7 576.55 307.6 576.35 309.4 576 310 575.5466796875 310.793359375 574.95 311.05 575.1572265625 311.1751953125 575.35 311.3 576.5 312.05 578.85 313.85 581.1 315.6 582.35 316.4 585.3 318.3 587.6 318.05 588.8 317.95 590.3 317.2 591.15 316.75 592.8 315.75 593.9326171875 315.108203125 596.35 314.1 597.7994140625 314.256640625 600.1 315.05
L 601.85 315.65 601.85 315.7
Q 602.45 318.8 602 321.95 601.7 324.65 600.35 328.4 599.35 331.1 598.5 332.7 597.25 334.95 595.65 336.3 595.05390625 336.7876953125 594.55 336.85 594.228515625 337.1642578125 593.8 337.45
L 587.85 341.8
Q 586.5654296875 342.2572265625 585.45 342.65 585.34765625 342.5044921875 585.3 342.25 584.271484375 342.5181640625 583.45 342.65 583.6078125 342.7794921875 583.75 342.95 584.25 343.55 584.25 344.25 584.25 344.3 584.1 345.5
L 584.05 346.35
Q 584.05 346.8 583.9 347.65
L 583 353.2
Q 583.45 354.65 584.6 355.65 585.24765625 356.1125 585.5 356.45 585.8537109375 356.522265625 586.25 356.65
L 589.35 357.6
Q 589.661328125 357.6837890625 589.9 357.75 590.3384765625 357.7923828125 590.8 357.85 596.55 358.5 611.45 360.8 616.05 361.5 617.95 361.7 621.6 362.1 624.45 362.05 633.75 361.9 643.65 357.25 651.75 353.45 660.65 346.4 664.85 343.05 667.2 340.35 670.35 336.6 671.35 332.75 671.95 330.5 672.05 325.9 672.15 320.15 671.7 317.3 671.2 313.85 669.25 308.6 668.05 305.15 665.35 298.35 663.55 294.05 662.9 291.55 662.2 288.3 661.85 286.7 661.15 283.85 660.1 282.15
M 658.25 291.45
Q 658.65 293.85 658.45 295.05 657.9 297.45 654.25 300.2 651.95 302 650.7 302.75 647.55 304.55 644.1 304.9 640.5 305 638.8 305.5 636.85 306.3 635.9 306.65 634.2 307.3 632.95 307 631.2 306.6 629.8 304.45 628.5 302 627.65 300.9 627.15 300.25 626.35 299.4 625.4 298.45 624.9 297.95 623.05 295.9 622 293.3 621.5 292 621.6 291.2 621.65 290.25 622.5 289.05 625 285.65 631.55 283.25 634.55 282.15 640.75 280.35 642.95 279.75 644.1 279.55
L 646.1 279.3
Q 649.9 278.9 651.75 279.05 653.3 279.25 654.25 279.8 655.25 280.45 656 282 657 284.05 657.7 288.25
L 658.25 291.45
M 656.6 321.7
L 656.5 320.85 656.25 319.9
Q 656.05 318.95 656.5 317.7 656.95 316.45 658.35 314.5 659.9 312.25 660.35 311.35 661 310.05 661.35 309.7 662.2 309 663.25 309.25 664.3 309.5 665.4 311.15 666.25 312.45 666.35 312.8 666.6 313.4 666.9 314.65
L 667.35 315.5
Q 668.4 317.4 668.6 321.5 668.6 322.55 668.55 322.75
L 668.3 323.85
Q 668.25 324.15 668.35 324.9 668.45 325.55 668.35 325.95 668.1 327 666.6 327.5 665.65 327.85 663.05 328.05 661.5 328.15 660.75 327.9 659.25 327.45 658.25 325.9 657.85 325.25 656.9 322.95 656.6 322.15 656.6 321.7
M 613.85 340.3
Q 616.05 340.1 617.15 340.15 618.2 340.2 619.6 340.65 621.75 341.4 622.95 342.9 623.25 343.3 624.1 344.7 624.8 345.85 625.4 346.4 625.9 346.85 626.5 347.05 626.85 347.15 626.9 347.35 626.95 347.55 626.7 347.75 626.4 348 625.7 348.1 624.28203125 348.321484375 623.7 348.25 623.5865234375 348.8580078125 623.35 349 622.95 349.1 622.8 349.15 622.7 349.15 622.05 349.55 621.2 349.9 620.8 350.1 620.6 350.2 619.45 350.95 618.6 351.45 618 351.55 617.55 351.65 616.8 351.55 615.9 351.5 615.6 351.5 614.65 351.65 614.2 351.6 614.15 351.6 612.95 351.15 611.45 350.6 611.35 350.55 610.95 350.35 610.35 349.75 609.95 349.3 608.2 346.8 607.4 345.6 607.2 344.9 606.9033203125 343.9607421875 607.15 342.5 606.246484375 342.6029296875 605.35 342.65 603.6 342.75 602.95 342.1 603.05 341.45 604.35 341.25
L 613.85 340.3
M 639.25 332.45
Q 639.3 333.05 639.25 333.35 639.1 334.2 638 335.2 637.1 336.1 636.3 336.4 636.2658203125 336.412109375 636.2 336.4 635.4099609375 336.6900390625 634.45 336.45 633.55 336.2 632.85 335.6 632.29140625 335.144921875 631.9 334.5 631.396484375 333.610546875 631.25 332.35 631.05 330.75 631.7 329.3 632.35 327.8 633.7 327.1 634.6 326.55 635.4 326.85 635.8 326.95 636.25 327.4 636.55 327.6 637.05 328.1
L 638.45 329.05
Q 639.25 329.75 639.35 330.4 639.35 330.5 639.2 331.55 639.2 331.8 639.25 332.45 Z"/>

<path fill="#CC3333" stroke="none" d="
M 648.75 374.05
Q 648.8544921875 373.6111328125 649.1 373.05 648.521484375 373.2876953125 647.8 373.5 645.75 374.05 645.1 374.3 643.475 374.903515625 641.35 376.25 642.9078125 378.046875 644.65 379.55 645.8 380.6 646.55 380.1 646.8 379.4 647.65 377.45 648.25 376.4 648.4 375.7
L 648.75 374.05 Z"/>

<path fill="#663300" stroke="none" d="
M 635.7 331
L 635.6 330.65
Q 635.55 330.4 635.25 330.2 634.95 330 634.85 330
L 634.2 330.75 634.15 331.2
Q 634.15 332.15 634.4 332.7 634.7 333.4 635.2 333.35
L 635.5 333.25
Q 636.4 332.85 636.25 331.8 636.25 331.6 636.1 331.45 635.8 331.2 635.7 331 Z"/>

<path fill="#FF3366" stroke="none" d="
M 608.1 342.45
Q 609.4966796875 344.5560546875 610.45 345.7 611.2 346.45 611.45 346.6 611.6 346.7 613.15 347.25 613.75 347.55 614.05 347.6 614.2 347.6 615.2 347.5 615.45 347.5 616.85 347.55 617.85 347.6 618.4 347.35 618.45 347.35 619.4 346.65 619.6830078125 346.461328125 620.65 345.95 620.479296875 345.6087890625 620.25 345.15
L 619.3 343.75
Q 618.25 342.4 616.8 341.95 615.55 341.6 613.05 341.9 610.5720703125 342.2494140625 608.1 342.45 Z"/>

<path fill="#FFCC99" stroke="none" d="
M 656.5 320.85
L 656.6 321.7
Q 656.6 322.15 656.9 322.95 657.85 325.25 658.25 325.9 659.25 327.45 660.75 327.9 661.5 328.15 663.05 328.05 665.65 327.85 666.6 327.5 668.1 327 668.35 325.95 668.45 325.55 668.35 324.9 668.25 324.15 668.3 323.85
L 668.55 322.75
Q 668.6 322.55 668.6 321.5 668.4 317.4 667.35 315.5
L 666.9 314.65
Q 666.6 313.4 666.35 312.8 666.25 312.45 665.4 311.15 664.3 309.5 663.25 309.25 662.2 309 661.35 309.7 661 310.05 660.35 311.35 659.9 312.25 658.35 314.5 656.95 316.45 656.5 317.7 656.05 318.95 656.25 319.9
L 656.5 320.85
M 658.45 295.05
Q 658.65 293.85 658.25 291.45
L 657.7 288.25
Q 657 284.05 656 282 655.25 280.45 654.25 279.8 653.3 279.25 651.75 279.05 649.9 278.9 646.1 279.3
L 644.1 279.55
Q 642.95 279.75 640.75 280.35 634.55 282.15 631.55 283.25 625 285.65 622.5 289.05 621.65 290.25 621.6 291.2 621.5 292 622 293.3 623.05 295.9 624.9 297.95 625.4 298.45 626.35 299.4 627.15 300.25 627.65 300.9 628.5 302 629.8 304.45 631.2 306.6 632.95 307 634.2 307.3 635.9 306.65 636.85 306.3 638.8 305.5 640.5 305 644.1 304.9 647.55 304.55 650.7 302.75 651.95 302 654.25 300.2 657.9 297.45 658.45 295.05 Z"/>

<path fill="#FF9900" stroke="none" d="
M 657.75 254.5
Q 653.4 252.55 649.15 253.15 644.6 253.85 640.85 257.4 637.4 260.7 635.7 265.4 634.9 267.55 634.45 268.3 633.6 269.85 632.3 270.2 630.95 270.6 629.5 269.65 628.3 268.85 627.45 267.4 627.4 267.35 626.05 264.65 625.2 263.05 624.35 262.2 622.6 260.5 618.15 260 609.55 259.2 601 261 592.45 262.8 584.95 267.05 583 268.15 582.8 269.35 582.65 269.95 583 270.75 583 270.85 583.65 272.1 585.25 275.25 584.7 278.75 584.15 282.4 581.4 284.15 578.9 285.7 574.2 285.2 567.65 284.45 566.45 284.55 562.45 284.8 560.3 287.55 559.2 288.95 559.1 290.8 558.95 292.7 560 294.1 560.7 295 562.2 295.85 564.45 297.15 564.65 297.3 567.3 299.15 568.4 302.6 569.3548828125 305.655859375 568.9 308.95 570.727734375 309.04609375 572.65 309.85 573.04921875 311.007421875 574 311.15 574.5201171875 311.2583984375 574.95 311.05 575.5466796875 310.793359375 576 310 576.35 309.4 576.55 307.6 577.35 300.7 579.45 297.3 580.55 295.45 582.6 293.55 583.4 292.8 586.4 290.35 590.65 286.9 594.95 282.75 598.55 279.25 600.25 277.95 603.4 275.55 606.4 274.85 608.8 274.35 613.1 274.75 618.1 275.15 620.65 275.65 621.15 275.75 625.8 276.9 628.95 277.65 631.05 277.85 634 278.1 638.7 277.5 644.75 276.75 646.4 276.7 650.7 276.5 654.15 277.7 658.15 279.1 660.1 282.15 661.15 283.85 661.85 286.7 662.2 288.3 662.9 291.55 663.55 294.05 665.35 298.35 668.05 305.15 669.25 308.6 671.2 313.85 671.7 317.3 672.15 320.15 672.05 325.9 671.95 330.5 671.35 332.75 670.35 336.6 667.2 340.35 664.85 343.05 660.65 346.4 651.75 353.45 643.65 357.25 633.75 361.9 624.45 362.05 621.6 362.1 617.95 361.7 616.05 361.5 611.45 360.8 596.55 358.5 590.8 357.85 590.3384765625 357.7923828125 589.9 357.75 589.661328125 357.6837890625 589.35 357.6
L 586.25 356.65
Q 585.8537109375 356.522265625 585.5 356.45 585.24765625 356.1125 584.6 355.65 583.45 354.65 583 353.2
L 583.9 347.65
Q 584.05 346.8 584.05 346.35
L 584.1 345.5
Q 584.25 344.3 584.25 344.25 584.25 343.55 583.75 342.95 583.6078125 342.7794921875 583.45 342.65 583.0509765625 342.321484375 582.55 342.25 581.85 342.15 581.2 342.55 581.0501953125 342.6421875 580.9 342.75 580.005078125 342.66484375 578.9 342.45 576.9 341.95 575.9 341.75 575.1548828125 341.594140625 574.35 341.45 574.6791015625 342.034765625 574.9 342.5 576.6 346 575.75 349.15 575.3 350.65 573.8 353.5 573.15 355.15 573 356.75 572.75 359.35 573.65 361.05 574.6 362.7 578.05 364.35
L 584 367.1
Q 585.5 367.85 586 368.4 587.25 369.7 586.95 372.15 586.85 373.5 586.3 376.15 586.9 376.15 587.25 375.8 588.9 376.95 591.55 374.95 593.8 373.3 597.7 369.2
L 599.35 367.4
Q 599.6923828125 367.6884765625 599.95 368.05 600.6380859375 367.9916015625 601.55 368.2 603.95 368.7 607.15 370.3 608.95 371.2 612.5 373.05 617.35 375.45 622.15 376.05 627.5 376.7 631.9 374.95 633.65 374.25 636.25 372.7 639.5 370.75 640.5 370.25 642.75 369.1 647.4 367.25 648.9 366.55 652.3 364.7 655.4 363 657.25 362.2 663.45 359.55 668 361.15 669.9 361.8 672 363.45 673.25 364.4 675.6 366.4 680.25 370.2 684 369.7 684.8 366.25 682.45 358.6 680.3 351.35 681.65 347.65 682.1 346.4 683.1 344.85 683.7 344 684.95 342.3 689.4 336.3 691.7 328.9 693.05 324.55 692.7 321.55 692.5 320.25 691.85 318.35 690.9 315.55 690.8 315.2 689.88828125 311.8845703125 690.1 308.65 689.734375 307.99453125 689.3 307.2 687.6 304.15 685.65 303.45 685.3 303.35 683.2 303.05 681.7 302.8 680.95 302.2 679.9 301.25 679.7 299.05 679.25 294.5 680.9 290.35 681.75 288.4 681.3 287.5 680.8 286.45 679.1 286.45 677.1 286.65 676.15 286.6 674.6 286.5 673.3 285.35 672.15 284.3 671.5 282.7 671 281.45 670.8 279.6 670.6 277.5 670.5 276.4 669.6 266.15 664.65 259.95 661.8 256.4 657.75 254.5
M 601.9 265.85
L 606.45 265.95
Q 607.8 265.95 608.4 266.15 609.55 266.55 609.75 267.45 609.8 267.6 609.8 268.45 609.7 269.75 609.45 270.35 609.35 270.6 608.75 271.4 607.6 272.6 606.45 273.2 605.55 273.7 604.25 274.15
L 598.25 276.3
Q 596.45 276.8 595.5 276.85 593.4 276.85 590.55 275.05 588.95 273.9 588.2 272.95 587.2 271.4 587.55 269.95 587.75 269.1 588.45 268.4 589.05 267.7 589.9 267.4 590.7 267.05 591.8 266.9
L 596.25 266.15
Q 597.95 265.85 598.8 265.8 599.5 265.75 601.9 265.85
M 574.25 286.3
Q 575.35 286.25 576.65 286.75 578.45 287.6 579.15 289.1 579.55 289.9 579.5 290.8 579.45 291.75 578.95 292.4 578.4 293.15 576.95 293.8 575.25 294.6 573.85 294.55 572.4 294.5 571.05 293.5 569.85 292.6 569.15 291.15 568.6 290.25 568.8 289.45 569.05 288.7 570.15 288.1
L 572.15 287
Q 573.55 286.35 574.25 286.3
M 578.05 349.45
Q 578.9 349.1 579.75 349.7 580.6 350.25 580.85 351.2 580.95 351.6 581.05 352.95 581.15 354.05 581.45 354.6 581.75 355.1 582.35 355.55 582.7 355.85 583.45 356.3 584.9 357.2 585 358.3
L 584.95 359.35
Q 584.95 359.8 585.2 360.65 585.3 361.9 584.25 362.65 583.4 363.3 582.05 363.4 579.45 363.6 576.9 361.6 575.25 360.35 574.9 358.9 574.75 357.95 575.25 356.15
L 576.5 351.75
Q 577.15 349.8 578.05 349.45 Z"/>

<path fill="#FFCC66" stroke="none" d="
M 579.75 349.7
Q 578.9 349.1 578.05 349.45 577.15 349.8 576.5 351.75
L 575.25 356.15
Q 574.75 357.95 574.9 358.9 575.25 360.35 576.9 361.6 579.45 363.6 582.05 363.4 583.4 363.3 584.25 362.65 585.3 361.9 585.2 360.65 584.95 359.8 584.95 359.35
L 585 358.3
Q 584.9 357.2 583.45 356.3 582.7 355.85 582.35 355.55 581.75 355.1 581.45 354.6 581.15 354.05 581.05 352.95 580.95 351.6 580.85 351.2 580.6 350.25 579.75 349.7
M 576.65 286.75
Q 575.35 286.25 574.25 286.3 573.55 286.35 572.15 287
L 570.15 288.1
Q 569.05 288.7 568.8 289.45 568.6 290.25 569.15 291.15 569.85 292.6 571.05 293.5 572.4 294.5 573.85 294.55 575.25 294.6 576.95 293.8 578.4 293.15 578.95 292.4 579.45 291.75 579.5 290.8 579.55 289.9 579.15 289.1 578.45 287.6 576.65 286.75
M 606.45 265.95
L 601.9 265.85
Q 599.5 265.75 598.8 265.8 597.95 265.85 596.25 266.15
L 591.8 266.9
Q 590.7 267.05 589.9 267.4 589.05 267.7 588.45 268.4 587.75 269.1 587.55 269.95 587.2 271.4 588.2 272.95 588.95 273.9 590.55 275.05 593.4 276.85 595.5 276.85 596.45 276.8 598.25 276.3
L 604.25 274.15
Q 605.55 273.7 606.45 273.2 607.6 272.6 608.75 271.4 609.35 270.6 609.45 270.35 609.7 269.75 609.8 268.45 609.8 267.6 609.75 267.45 609.55 266.55 608.4 266.15 607.8 265.95 606.45 265.95 Z"/>
</g>
</defs>

<g transform="matrix( 1, 0, 0, 1, 0,0) ">
<use xlink:href="#Layer1_0_FILL"/>
</g>

<g transform="matrix( 1, 0, 0, 1, 0,0) ">
<use xlink:href="#Layer0_0_FILL"/>
</g>
</svg>
